<svg width="175" height="175" viewBox="0 0 175 175" fill="none" xmlns="http://www.w3.org/2000/svg">
<g clip-path="url(#clip0_29_33299)">
<path d="M44.5592 152.445H60.4528C61.9176 152.445 63.0163 152.884 64.1149 153.983L75.3944 165.189C84.6225 174.491 93.1919 174.417 102.421 165.189L113.7 153.983C114.872 152.884 115.897 152.445 117.435 152.445H133.256C146.366 152.445 152.445 146.439 152.445 133.256V117.435C152.445 115.897 152.884 114.872 153.983 113.7L165.189 102.421C174.491 93.1919 174.417 84.6225 165.189 75.3944L153.983 64.1149C152.884 63.0163 152.445 61.9176 152.445 60.4528V44.5592C152.445 31.5221 146.439 25.3698 133.256 25.3698H117.435C115.897 25.3698 114.872 25.0036 113.7 23.9049L102.421 12.6989C93.1919 3.39712 84.6225 3.47037 75.3944 12.6989L64.1149 23.9049C63.0163 25.0036 61.9176 25.3698 60.4528 25.3698H44.5592C31.4489 25.3698 25.3698 31.3756 25.3698 44.5592V60.4528C25.3698 61.9176 25.0036 63.0163 23.9049 64.1149L12.6989 75.3944C3.39712 84.6225 3.47037 93.1919 12.6989 102.421L23.9049 113.7C25.0036 114.872 25.3698 115.897 25.3698 117.435V133.256C25.3698 146.366 31.4489 152.445 44.5592 152.445Z" fill="white"/>
<path d="M80.7406 124.686C78.2506 124.686 76.2 123.734 74.2956 121.171L55.9117 98.612C54.8131 97.147 54.1539 95.4626 54.1539 93.8514C54.1539 90.482 56.7174 87.772 60.0866 87.772C62.1374 87.772 63.7487 88.5045 65.5797 90.9214L80.4481 110.111L111.722 59.867C113.114 57.5964 115.018 56.4978 116.996 56.4978C120.145 56.4978 123.148 58.6951 123.148 62.0642C123.148 63.7488 122.196 65.4334 121.317 66.8982L86.8931 121.171C85.355 123.514 83.2312 124.686 80.7406 124.686Z" fill="#34C759"/>
</g>
<defs>
<clipPath id="clip0_29_33299">
<rect width="166.388" height="166.461" fill="white" transform="translate(5.75 5.75)"/>
</clipPath>
</defs>
</svg>
