<svg width="32" height="32" viewBox="0 0 32 32" fill="none" xmlns="http://www.w3.org/2000/svg">
<path d="M21.3327 26.6667V5.33334C21.3327 4.62609 21.0517 3.94782 20.5516 3.44772C20.0515 2.94762 19.3733 2.66667 18.666 2.66667H13.3327C12.6254 2.66667 11.9472 2.94762 11.4471 3.44772C10.947 3.94782 10.666 4.62609 10.666 5.33334V26.6667" stroke="#155DFC" stroke-width="2.66667" stroke-linecap="round" stroke-linejoin="round"/>
<path d="M26.666 8H5.33268C3.85992 8 2.66602 9.19391 2.66602 10.6667V24C2.66602 25.4728 3.85992 26.6667 5.33268 26.6667H26.666C28.1388 26.6667 29.3327 25.4728 29.3327 24V10.6667C29.3327 9.19391 28.1388 8 26.666 8Z" stroke="#155DFC" stroke-width="2.66667" stroke-linecap="round" stroke-linejoin="round"/>
</svg>
