<svg width="28" height="28" viewBox="0 0 28 28" fill="none" xmlns="http://www.w3.org/2000/svg">
<path d="M18.0572 15.0383L19.8247 24.9853C19.8445 25.1025 19.828 25.2228 19.7776 25.3304C19.7271 25.4379 19.645 25.5275 19.5423 25.5871C19.4395 25.6467 19.321 25.6735 19.2026 25.664C19.0842 25.6544 18.9716 25.609 18.8797 25.5337L14.703 22.3988C14.5014 22.2482 14.2565 22.1668 14.0048 22.1668C13.7531 22.1668 13.5081 22.2482 13.3065 22.3988L9.12285 25.5325C9.03106 25.6077 8.91853 25.6531 8.80026 25.6626C8.682 25.6722 8.56364 25.6455 8.46096 25.586C8.35828 25.5266 8.27617 25.4372 8.22559 25.3299C8.17501 25.2226 8.15836 25.1024 8.17785 24.9853L9.94419 15.0383" stroke="white" stroke-width="2.33333" stroke-linecap="round" stroke-linejoin="round"/>
<path d="M14 16.3334C17.866 16.3334 21 13.1994 21 9.33337C21 5.46738 17.866 2.33337 14 2.33337C10.134 2.33337 7 5.46738 7 9.33337C7 13.1994 10.134 16.3334 14 16.3334Z" stroke="white" stroke-width="2.33333" stroke-linecap="round" stroke-linejoin="round"/>
</svg>
