<svg width="204" height="194" viewBox="0 0 204 194" fill="none" xmlns="http://www.w3.org/2000/svg">
<path d="M178.989 165.615C173.695 170.78 168.958 173.816 165.33 176.108C129.956 198.463 89.5195 192.02 77.0175 189.817C56.847 186.264 39.8204 183.758 25.1914 171.249C-8.04992 142.826 -6.43312 83.532 18.9673 46.8023C21.9791 42.4472 47.341 6.86675 87.8652 1.85314C88.8564 1.7305 89.5959 1.66069 90.2436 1.5958C96.5126 0.967618 135.36 -2.34788 167.037 22.7691C171.571 26.3644 178.868 32.8496 185.635 42.7404C210.377 78.9058 210.456 134.918 178.989 165.615Z" fill="url(#paint0_linear_685_2387)"/>
<g opacity="0.3">
<path d="M178.034 38.0886C177.739 37.9069 177.655 37.5331 177.847 37.254C178.22 36.7116 178.574 36.1459 178.899 35.5724C179.063 35.2822 179.442 35.1709 179.75 35.3202C179.754 35.322 179.758 35.3237 179.762 35.3255C180.072 35.4828 180.188 35.8484 180.022 36.1421C179.68 36.7457 179.308 37.3414 178.915 37.9123C178.736 38.1734 178.378 38.2592 178.092 38.1204C178.072 38.1108 178.053 38.1004 178.034 38.0886ZM180.276 32.6785C180.515 32.0688 180.729 31.4437 180.911 30.8199C181.005 30.4991 181.356 30.3107 181.695 30.3995C182.036 30.4898 182.234 30.8208 182.14 31.1419C181.948 31.7981 181.723 32.4562 181.472 33.0978C181.349 33.4101 180.982 33.5694 180.653 33.4536C180.629 33.4451 180.605 33.4355 180.583 33.4248C180.3 33.2875 180.163 32.9681 180.276 32.6785ZM181.579 27.711C181.668 27.0681 181.729 26.4137 181.759 25.7655C181.775 25.4328 182.073 25.175 182.424 25.1898C182.776 25.2051 183.048 25.4864 183.033 25.8193C183 26.5018 182.936 27.1911 182.842 27.8681C182.797 28.1983 182.476 28.4308 182.128 28.3876C182.053 28.3783 181.983 28.3573 181.92 28.3267C181.687 28.2139 181.543 27.9708 181.579 27.711ZM181.675 22.5926C181.61 21.9462 181.514 21.2951 181.391 20.657C181.328 20.3293 181.558 20.0151 181.904 19.9554C182.25 19.896 182.582 20.1131 182.645 20.4405C182.775 21.1123 182.875 21.7979 182.944 22.4781C182.977 22.8096 182.72 23.1041 182.369 23.1356C182.244 23.1469 182.124 23.1231 182.019 23.0725C181.832 22.9819 181.696 22.8055 181.675 22.5926ZM180.563 17.5816C180.349 16.9666 180.103 16.3513 179.834 15.7535C179.696 15.447 179.846 15.0927 180.17 14.9619C180.494 14.8311 180.868 14.9736 181.006 15.2801C181.289 15.9091 181.548 16.5564 181.773 17.2037C181.884 17.5199 181.702 17.861 181.368 17.9654C181.199 18.018 181.024 18.0005 180.878 17.9296C180.734 17.8599 180.618 17.7386 180.563 17.5816ZM178.308 12.9283C177.954 12.3725 177.571 11.8243 177.169 11.2986C176.963 11.0288 177.027 10.6516 177.312 10.4564C177.597 10.261 177.995 10.3212 178.202 10.5911C178.625 11.1442 179.028 11.7214 179.4 12.3063C179.581 12.5918 179.484 12.9623 179.182 13.1341C178.986 13.2457 178.753 13.2457 178.563 13.154C178.461 13.1045 178.371 13.0284 178.308 12.9283ZM158.117 1.24621C158.133 0.913524 158.431 0.656115 158.783 0.671559C159.503 0.703207 160.232 0.765048 160.948 0.855422C161.297 0.899466 161.542 1.20279 161.496 1.53298C161.449 1.86303 161.129 2.09503 160.78 2.05105C160.1 1.96525 159.408 1.90659 158.724 1.87668C158.63 1.87252 158.542 1.84953 158.464 1.81144C158.248 1.70708 158.105 1.49025 158.117 1.24621ZM175.021 8.86639C174.546 8.39915 174.044 7.94569 173.528 7.51882C173.263 7.29936 173.237 6.91827 173.468 6.66765C173.7 6.41682 174.102 6.39292 174.368 6.61107C174.91 7.06065 175.439 7.53814 175.939 8.03024C176.183 8.27034 176.175 8.65205 175.922 8.88308C175.721 9.06618 175.425 9.09942 175.19 8.9855C175.128 8.95579 175.071 8.9159 175.021 8.86639ZM163.622 1.94586C163.716 1.62508 164.068 1.43755 164.407 1.52702C165.101 1.71047 165.796 1.92474 166.473 2.16345C166.804 2.27854 166.97 2.62723 166.848 2.93934C166.725 3.25139 166.358 3.41005 166.028 3.29377C165.385 3.06684 164.724 2.86317 164.064 2.689C164.022 2.67792 163.982 2.66282 163.945 2.64475C163.681 2.51684 163.539 2.22674 163.622 1.94586ZM170.858 5.60214C170.285 5.24743 169.688 4.91149 169.084 4.60374C168.774 4.44591 168.658 4.08026 168.825 3.78677C168.989 3.4973 169.368 3.38657 169.676 3.5356C169.68 3.53754 169.684 3.53955 169.688 3.54163C170.324 3.86545 170.952 4.21905 171.555 4.59224C171.85 4.77479 171.932 5.14847 171.74 5.42728C171.56 5.68767 171.203 5.77306 170.917 5.63441C170.897 5.62479 170.877 5.61391 170.858 5.60214Z" fill="url(#paint1_linear_685_2387)"/>
<path d="M153.995 1.99912C154.107 2.05321 154.237 2.07682 154.37 2.05958C154.696 2.01768 155.028 1.98174 155.357 1.9521C155.707 1.9208 155.965 1.62648 155.932 1.29497C155.899 0.963324 155.588 0.719419 155.237 0.751344C154.891 0.78223 154.542 0.82018 154.199 0.864155C153.851 0.908891 153.606 1.21291 153.653 1.54282C153.683 1.74642 153.816 1.91228 153.995 1.99912Z" fill="url(#paint2_linear_685_2387)"/>
</g>
<g opacity="0.3">
<path d="M137.287 11.3908C137.561 11.5234 137.903 11.4521 138.091 11.2097C138.285 10.9588 138.487 10.7074 138.693 10.4629C138.913 10.2023 138.867 9.82283 138.592 9.61521C138.316 9.40677 137.916 9.4506 137.697 9.71092C137.48 9.96846 137.266 10.2331 137.062 10.4973C136.854 10.7662 136.916 11.1435 137.2 11.3403C137.228 11.3597 137.257 11.3764 137.287 11.3908Z" fill="url(#paint3_linear_685_2387)"/>
<path d="M144.883 45.6123C144.578 45.4463 144.473 45.0776 144.648 44.7886C144.824 44.4999 145.213 44.4008 145.518 44.5665C146.099 44.8827 146.703 45.1802 147.321 45.4546C147.638 45.5946 147.776 45.9556 147.626 46.2571C147.477 46.5586 147.097 46.6881 146.779 46.5467C146.511 46.4277 146.247 46.3051 145.986 46.1787C145.613 45.9985 145.242 45.8079 144.883 45.6123ZM149.597 46.9834C149.702 46.6656 150.06 46.4886 150.396 46.5882C151.041 46.7792 151.701 46.9467 152.358 47.0855C152.702 47.157 152.918 47.4804 152.842 47.8055C152.765 48.1304 152.424 48.3352 152.081 48.2626C151.389 48.1165 150.694 47.9403 150.015 47.7392C149.98 47.7287 149.946 47.7157 149.914 47.7003C149.643 47.569 149.503 47.2681 149.597 46.9834ZM141.998 43.7829C141.437 43.3721 140.888 42.9329 140.364 42.4774C140.105 42.2519 140.088 41.8703 140.326 41.625C140.565 41.3799 140.967 41.3642 141.227 41.5893C141.724 42.0221 142.246 42.4391 142.778 42.8291C143.056 43.0331 143.107 43.4119 142.892 43.6754C142.701 43.9084 142.366 43.9728 142.098 43.8433C142.064 43.8264 142.03 43.8063 141.998 43.7829ZM154.933 48.1063C154.961 47.7744 155.269 47.5273 155.62 47.5547C156.292 47.607 156.975 47.6327 157.649 47.6312C158.001 47.6302 158.287 47.8996 158.288 48.2329C158.289 48.5659 158.004 48.8365 157.652 48.8374C156.942 48.839 156.223 48.812 155.515 48.7569C155.43 48.7502 155.35 48.7279 155.278 48.6931C155.055 48.5851 154.911 48.3572 154.933 48.1063ZM137.977 40.0934C137.526 39.5763 137.092 39.0336 136.687 38.4804C136.487 38.2066 136.559 37.831 136.848 37.6412C137.137 37.4513 137.534 37.5196 137.735 37.7935C138.12 38.3189 138.532 38.8344 138.96 39.3255C139.184 39.5824 139.146 39.9626 138.874 40.1747C138.672 40.3327 138.398 40.3527 138.178 40.2466C138.103 40.2102 138.034 40.1589 137.977 40.0934ZM134.909 35.6589C134.587 35.0595 134.289 34.4402 134.022 33.8184C133.889 33.5097 134.046 33.158 134.372 33.0324C134.698 32.9068 135.07 33.0552 135.202 33.3639C135.456 33.9548 135.74 34.5433 136.045 35.1129C136.205 35.4099 136.079 35.773 135.766 35.9238C135.576 36.0145 135.362 36.0076 135.187 35.9227C135.071 35.8667 134.972 35.7768 134.909 35.6589ZM132.935 30.6967C132.758 30.0449 132.61 29.3787 132.492 28.717C132.433 28.3884 132.667 28.0775 133.015 28.0221C133.362 27.9667 133.69 28.1884 133.749 28.5167C133.86 29.1456 134.002 29.7783 134.169 30.3978C134.257 30.7205 134.051 31.049 133.71 31.1314C133.553 31.1694 133.395 31.1488 133.262 31.0843C133.105 31.0083 132.982 30.8712 132.935 30.6967ZM132.151 25.445C132.13 24.7727 132.139 24.0916 132.177 23.4208C132.197 23.0882 132.497 22.8333 132.849 22.8516C133.2 22.8698 133.469 23.1543 133.45 23.4869C133.413 24.1237 133.405 24.7703 133.425 25.4092C133.435 25.7421 133.159 26.02 132.807 26.0299C132.696 26.0331 132.591 26.0091 132.498 25.9644C132.298 25.8674 132.158 25.673 132.151 25.445ZM132.606 20.1561C132.741 19.4974 132.909 18.8355 133.103 18.1886C133.199 17.8681 133.551 17.682 133.89 17.7731C134.227 17.864 134.425 18.1976 134.329 18.5181C134.144 19.1327 133.986 19.7614 133.857 20.387C133.79 20.7138 133.455 20.9273 133.11 20.8636C133.049 20.8525 132.993 20.8338 132.941 20.8086C132.694 20.6893 132.55 20.4261 132.606 20.1561ZM134.275 15.0961C134.484 14.6429 134.711 14.1902 134.948 13.7508C135.034 13.5916 135.122 13.434 135.211 13.2773C135.378 12.9842 135.764 12.867 136.074 13.0329C136.384 13.1908 136.5 13.5567 136.333 13.85C136.248 13.9987 136.165 14.1488 136.083 14.3C135.857 14.7179 135.642 15.1479 135.443 15.5788C135.302 15.8841 134.927 16.0234 134.604 15.8901C134.592 15.8851 134.58 15.8798 134.568 15.8742C134.271 15.7301 134.14 15.3898 134.275 15.0961Z" fill="url(#paint4_linear_685_2387)"/>
<path d="M160.755 48.5421C160.868 48.5967 160.999 48.6201 161.133 48.6023C161.475 48.5568 161.822 48.5035 162.165 48.4441C162.511 48.3841 162.741 48.0699 162.677 47.7422C162.614 47.4146 162.282 47.1974 161.936 47.2576C161.61 47.314 161.28 47.3645 160.956 47.4078C160.607 47.454 160.364 47.7591 160.414 48.0889C160.444 48.2911 160.576 48.4557 160.755 48.5421Z" fill="url(#paint5_linear_685_2387)"/>
</g>
<path d="M167.336 40.2882C167.453 40.2398 167.524 40.127 167.514 40.0071L167.218 36.5875C168.573 35.626 169.775 34.4532 170.761 33.0941L174.381 33.2305C174.508 33.2353 174.624 33.1632 174.67 33.0512L176.25 29.2171C176.296 29.105 176.262 28.9775 176.165 28.8998L173.404 26.6807C173.65 25.0484 173.604 23.415 173.295 21.8397L175.958 19.5121C176.052 19.4305 176.08 19.3018 176.029 19.1917L174.282 15.4233C174.23 15.3132 174.111 15.2458 173.985 15.2557L170.371 15.535C169.356 14.2533 168.116 13.1157 166.68 12.1821L166.824 8.75611C166.829 8.63589 166.753 8.52599 166.635 8.48229L162.584 6.98701C162.465 6.94338 162.331 6.97558 162.248 7.0672L159.904 9.68111C158.179 9.44815 156.453 9.49136 154.789 9.78381L152.329 7.26319C152.243 7.17482 152.107 7.14795 151.991 7.19636L148.009 8.85023C147.893 8.89857 147.822 9.01144 147.832 9.13125L148.127 12.5509C146.773 13.5124 145.571 14.6852 144.585 16.0443L140.965 15.908C140.838 15.9032 140.722 15.9752 140.675 16.0872L139.096 19.9214C139.049 20.0335 139.083 20.1609 139.18 20.2387L141.942 22.4578C141.696 24.0902 141.742 25.7235 142.051 27.2989L139.387 29.6265C139.294 29.708 139.266 29.8367 139.317 29.9469L141.064 33.7153C141.115 33.8254 141.234 33.8927 141.361 33.8829L144.974 33.6036C145.99 34.8853 147.229 36.0228 148.665 36.9565L148.521 40.3825C148.516 40.5026 148.592 40.6126 148.711 40.6563L152.762 42.1515C152.88 42.1952 153.015 42.163 153.097 42.0713L155.442 39.4575C157.166 39.6905 158.892 39.6471 160.557 39.3548L163.016 41.8754C163.102 41.9638 163.238 41.9905 163.355 41.9423L167.336 40.2882Z" fill="url(#paint6_linear_685_2387)"/>
<path d="M155.136 27.9383C153.173 26.6146 152.714 24.0267 154.113 22.1688C154.79 21.2689 155.797 20.6726 156.949 20.4898C158.1 20.3068 159.258 20.559 160.208 21.2006C162.171 22.5243 162.63 25.1123 161.231 26.9701C159.959 28.6601 157.581 29.1721 155.684 28.2538C155.496 28.1629 155.313 28.0577 155.136 27.9383ZM157.117 21.4416C156.234 21.5818 155.462 22.0389 154.943 22.729C153.871 24.1532 154.222 26.1377 155.727 27.1525C157.232 28.1682 159.329 27.8343 160.401 26.41C161.473 24.9859 161.122 23.0013 159.617 21.9865C159.48 21.8945 159.338 21.8132 159.192 21.7423C158.556 21.4342 157.835 21.3276 157.117 21.4416Z" fill="url(#paint7_linear_685_2387)"/>
<path d="M152.732 33.5348C153.058 33.6924 153.394 33.8356 153.739 33.9631C153.848 34.0033 153.958 34.0418 154.068 34.0787C154.611 34.2602 155.168 34.4006 155.731 34.4977C155.739 34.499 155.746 34.5003 155.754 34.5017C155.776 34.5054 155.798 34.5091 155.82 34.5125C155.862 34.5196 155.905 34.5262 155.947 34.5327C156.059 34.5498 156.165 34.4952 156.214 34.4046C156.226 34.3826 156.235 34.3584 156.239 34.3327C156.262 34.2012 156.167 34.0777 156.028 34.0563C155.313 33.9474 154.605 33.7648 153.925 33.5135C150.545 32.2666 148.26 29.4964 147.602 26.3549C147.236 24.6077 147.373 22.7455 148.106 20.9664C148.235 20.6544 148.379 20.3508 148.538 20.0568C149.608 18.0776 151.35 16.52 153.53 15.6146C156.034 14.5744 158.816 14.5195 161.363 15.4597C166.625 17.4022 169.233 23.0296 167.182 28.0068C167.055 28.3137 166.913 28.6134 166.755 28.9047C166.073 30.167 165.106 31.2741 163.92 32.1431C163.89 32.1656 163.866 32.1933 163.849 32.224C163.806 32.3045 163.812 32.4052 163.875 32.4815C163.961 32.5866 164.121 32.6065 164.233 32.5245C165.478 31.6122 166.493 30.4499 167.209 29.1246C167.375 28.8189 167.524 28.5043 167.657 28.1822C169.81 22.9566 167.068 17.0473 161.549 15.0101C158.874 14.023 155.954 14.0808 153.325 15.1727C151.036 16.1231 149.208 17.7585 148.085 19.8361C147.918 20.1449 147.766 20.4636 147.631 20.7909C146.588 23.3223 146.649 26.0865 147.803 28.5743C148.808 30.7409 150.536 32.4718 152.732 33.5348Z" fill="url(#paint8_linear_685_2387)"/>
<g opacity="0.3">
<path d="M201.779 67.0802C201.497 66.9848 201.35 66.6907 201.451 66.4236C201.647 65.9045 201.822 65.3698 201.971 64.834C202.047 64.5629 202.338 64.3999 202.624 64.4659C202.628 64.4666 202.631 64.4675 202.635 64.4682C202.924 64.5406 203.097 64.8217 203.021 65.0961C202.864 65.66 202.679 66.223 202.473 66.7694C202.379 67.0193 202.101 67.1571 201.834 67.0957C201.816 67.0915 201.797 67.0864 201.779 67.0802ZM202.509 62.1791C202.58 61.6293 202.626 61.0715 202.648 60.5206C202.658 60.2373 202.91 60.0156 203.21 60.0259C203.51 60.0372 203.743 60.2744 203.732 60.5579C203.71 61.1375 203.661 61.7247 203.587 62.3032C203.551 62.5847 203.28 62.7853 202.982 62.751C202.961 62.7485 202.94 62.7448 202.919 62.7401C202.655 62.6793 202.476 62.4402 202.509 62.1791ZM202.552 57.8203C202.492 57.2709 202.406 56.7175 202.296 56.1748C202.239 55.8963 202.432 55.627 202.727 55.5736C203.021 55.5206 203.305 55.7028 203.362 55.9815C203.478 56.553 203.568 57.136 203.632 57.7144C203.663 57.9966 203.446 58.249 203.148 58.2784C203.084 58.2846 203.022 58.2802 202.963 58.2667C202.747 58.2166 202.576 58.0423 202.552 57.8203ZM201.564 53.5619C201.375 53.0385 201.16 52.5169 200.925 52.0113C200.805 51.7516 200.929 51.4484 201.204 51.3342C201.478 51.2203 201.798 51.3383 201.919 51.5976C202.166 52.13 202.393 52.6792 202.591 53.2299C202.688 53.4984 202.537 53.7904 202.253 53.8819C202.151 53.9147 202.047 53.9175 201.95 53.8951C201.775 53.855 201.626 53.7342 201.564 53.5619ZM199.598 49.618C199.292 49.1485 198.96 48.6847 198.612 48.2397C198.434 48.0115 198.485 47.6899 198.726 47.5212C198.967 47.3523 199.307 47.4005 199.485 47.6287C199.851 48.0968 200.2 48.5848 200.522 49.0788C200.679 49.3202 200.6 49.6367 200.345 49.7856C200.216 49.8607 200.067 49.8789 199.931 49.8475C199.797 49.8167 199.676 49.7378 199.598 49.618ZM196.759 46.1841C196.35 45.7897 195.919 45.4071 195.476 45.0467C195.249 44.8617 195.223 44.5373 195.418 44.3224C195.614 44.1072 195.956 44.0827 196.184 44.2677C196.65 44.6469 197.104 45.0499 197.534 45.465C197.744 45.6676 197.741 45.9926 197.526 46.1914C197.387 46.3204 197.194 46.3642 197.018 46.3236C196.922 46.3016 196.832 46.2553 196.759 46.1841ZM177.595 40.2778C177.539 39.9991 177.732 39.7302 178.027 39.6772C178.63 39.5689 179.246 39.484 179.859 39.4251C180.157 39.3964 180.423 39.6019 180.454 39.8842C180.484 40.1662 180.267 40.4183 179.969 40.4471C179.387 40.5031 178.802 40.5837 178.229 40.6867C178.15 40.7008 178.073 40.6982 178 40.6813C177.799 40.6351 177.636 40.4822 177.595 40.2778ZM193.188 43.433C192.698 43.1346 192.187 42.8527 191.671 42.5954C191.406 42.463 191.304 42.1523 191.444 41.9013C191.583 41.6502 191.911 41.5553 192.177 41.6864C192.72 41.9575 193.258 42.2543 193.775 42.5686C194.027 42.7219 194.1 43.0396 193.938 43.2784C193.81 43.4677 193.572 43.5504 193.353 43.5C193.296 43.487 193.241 43.4646 193.188 43.433ZM182.301 39.829C182.313 39.5456 182.565 39.3245 182.864 39.3353C183.478 39.3576 184.098 39.4053 184.709 39.4766C185.007 39.5102 185.218 39.768 185.181 40.0495C185.144 40.331 184.873 40.531 184.576 40.4963C183.996 40.4284 183.406 40.3831 182.823 40.3621C182.785 40.3608 182.749 40.3557 182.714 40.3477C182.469 40.2911 182.291 40.0772 182.301 39.829ZM189.059 41.5063C188.51 41.3195 187.945 41.1526 187.381 41.0105C187.091 40.9378 186.919 40.6564 186.996 40.3822C187.072 40.1116 187.362 39.9491 187.648 40.0151C187.652 40.0159 187.656 40.0168 187.66 40.0178C188.254 40.1673 188.848 40.3428 189.426 40.5394C189.708 40.6355 189.854 40.9297 189.753 41.1967C189.658 41.446 189.381 41.5834 189.114 41.522C189.096 41.5178 189.077 41.5125 189.059 41.5063Z" fill="url(#paint9_linear_685_2387)"/>
<path d="M174.334 41.6714C174.438 41.6953 174.55 41.6907 174.657 41.6514C174.918 41.5558 175.186 41.4641 175.452 41.3781C175.736 41.2867 175.888 40.9948 175.791 40.7263C175.695 40.4577 175.386 40.3137 175.103 40.4057C174.822 40.4959 174.541 40.5926 174.266 40.6931C173.987 40.7953 173.848 41.0929 173.956 41.3573C174.022 41.5204 174.167 41.6329 174.334 41.6714Z" fill="url(#paint10_linear_685_2387)"/>
</g>
<g opacity="0.3">
<path d="M162.455 52.574C162.71 52.6326 162.979 52.5095 163.083 52.2737C163.192 52.0296 163.307 51.7834 163.427 51.5424C163.554 51.2855 163.438 50.9796 163.166 50.8591C162.894 50.738 162.572 50.849 162.444 51.1057C162.318 51.3596 162.197 51.6188 162.083 51.8758C161.966 52.1374 162.096 52.4385 162.373 52.5484C162.4 52.5591 162.427 52.5676 162.455 52.574Z" fill="url(#paint11_linear_685_2387)"/>
<path d="M175.883 79.5071C175.595 79.4266 175.431 79.1408 175.517 78.8686C175.602 78.5966 175.903 78.4419 176.191 78.5221C176.738 78.6755 177.301 78.809 177.87 78.9211C178.162 78.9777 178.351 79.2511 178.29 79.5288C178.229 79.8065 177.942 79.9847 177.648 79.927C177.402 79.8785 177.157 79.8263 176.915 79.7703C176.568 79.6905 176.221 79.602 175.883 79.5071ZM180.075 79.7622C180.095 79.4793 180.355 79.2659 180.654 79.2856C181.228 79.3234 181.81 79.3388 182.383 79.331C182.683 79.3261 182.93 79.5535 182.934 79.8372C182.938 80.1207 182.699 80.3541 182.399 80.3581C181.795 80.3663 181.182 80.3502 180.578 80.3103C180.547 80.3083 180.516 80.3037 180.487 80.297C180.235 80.2388 180.056 80.0157 180.075 79.7622ZM173.111 78.5304C172.561 78.2948 172.014 78.0336 171.485 77.7541C171.224 77.6157 171.13 77.3027 171.276 77.055C171.422 76.8074 171.753 76.7192 172.015 76.8572C172.517 77.1228 173.036 77.3708 173.559 77.5944C173.832 77.7115 173.953 78.0158 173.829 78.2743C173.72 78.5029 173.456 78.619 173.207 78.5617C173.175 78.5542 173.143 78.5439 173.111 78.5304ZM184.729 79.6959C184.684 79.4156 184.887 79.1532 185.183 79.1104C185.751 79.0282 186.322 78.9219 186.881 78.7947C187.172 78.7281 187.465 78.8978 187.535 79.1738C187.605 79.4496 187.426 79.7269 187.135 79.7933C186.547 79.9273 185.946 80.0392 185.348 80.1259C185.275 80.1363 185.204 80.1329 185.137 80.1175C184.93 80.0697 184.763 79.9078 184.729 79.6959ZM169.011 76.225C168.529 75.8808 168.056 75.5123 167.605 75.1296C167.382 74.9402 167.364 74.6156 167.564 74.4044C167.764 74.1929 168.107 74.1754 168.33 74.3648C168.758 74.7283 169.207 75.0784 169.665 75.4052C169.904 75.5762 169.951 75.8984 169.771 76.1248C169.636 76.2935 169.413 76.3613 169.209 76.3144C169.139 76.2981 169.071 76.2685 169.011 76.225ZM165.544 73.1242C165.152 72.6877 164.776 72.2304 164.425 71.7652C164.25 71.5342 164.307 71.2135 164.551 71.0486C164.795 70.8835 165.134 70.937 165.308 71.1681C165.642 71.6101 165.999 72.0447 166.371 72.4596C166.565 72.676 166.537 73.0001 166.308 73.1837C166.171 73.2942 165.992 73.3285 165.829 73.2909C165.721 73.2661 165.621 73.2101 165.544 73.1242ZM162.873 69.382C162.591 68.8749 162.329 68.3508 162.093 67.8246C161.976 67.5633 162.105 67.262 162.381 67.1513C162.658 67.0405 162.976 67.1628 163.093 67.4239C163.317 67.9241 163.566 68.4218 163.834 68.9038C163.973 69.1549 163.871 69.4655 163.606 69.5975C163.484 69.6583 163.349 69.6707 163.225 69.6421C163.079 69.6083 162.948 69.5177 162.873 69.382ZM161.128 65.1775C160.971 64.6244 160.836 64.0586 160.728 63.4956C160.675 63.2164 160.871 62.9491 161.166 62.8985C161.46 62.8481 161.743 63.0334 161.796 63.3126C161.899 63.8471 162.026 64.3844 162.176 64.9098C162.255 65.1837 162.083 65.4656 161.794 65.5395C161.703 65.5629 161.61 65.5626 161.525 65.5428C161.338 65.5 161.182 65.365 161.128 65.1775ZM160.402 60.7107C160.377 60.1397 160.378 59.56 160.404 58.9878C160.416 58.7042 160.67 58.4842 160.969 58.4965C161.268 58.5087 161.501 58.7481 161.488 59.0317C161.463 59.5753 161.463 60.1258 161.487 60.6682C161.499 60.9516 161.267 61.1909 160.967 61.2027C160.915 61.2048 160.864 61.1999 160.816 61.1887C160.587 61.1359 160.413 60.9447 160.402 60.7107ZM160.73 56.2067C160.809 55.7921 160.902 55.3748 161.007 54.9664C161.045 54.8184 161.085 54.6714 161.126 54.525C161.203 54.2511 161.498 54.0818 161.79 54.1613C162.08 54.2342 162.252 54.5158 162.175 54.7899C162.136 54.929 162.098 55.0689 162.062 55.2095C161.962 55.5979 161.873 55.9944 161.798 56.3885C161.745 56.6677 161.463 56.8534 161.168 56.8031C161.157 56.8012 161.146 56.7991 161.135 56.7966C160.859 56.7328 160.679 56.4754 160.73 56.2067Z" fill="url(#paint12_linear_685_2387)"/>
<path d="M189.642 78.9683C189.746 78.9924 189.86 78.9874 189.968 78.9474C190.241 78.8459 190.518 78.737 190.789 78.6236C191.064 78.5092 191.188 78.206 191.067 77.9464C190.946 77.6869 190.626 77.5689 190.352 77.6834C190.094 77.791 189.831 77.8944 189.571 77.9909C189.292 78.0943 189.155 78.3924 189.264 78.6566C189.331 78.8185 189.476 78.93 189.642 78.9683Z" fill="url(#paint13_linear_685_2387)"/>
</g>
<path d="M193.373 70.9015C193.459 70.8397 193.494 70.7329 193.461 70.6355L192.503 67.8576C193.424 66.8081 194.175 65.6118 194.709 64.3016L197.737 63.7383C197.843 63.7185 197.924 63.6372 197.939 63.5356L198.448 60.0641C198.463 59.9626 198.408 59.8634 198.312 59.817L195.561 58.4945C195.425 57.0961 195.046 55.7515 194.462 54.5041L196.182 52.0781C196.243 51.9931 196.239 51.8811 196.174 51.7995L193.94 49.0039C193.875 48.9222 193.762 48.8886 193.659 48.9205L190.724 49.8269C189.615 48.9549 188.351 48.2439 186.967 47.7387L186.372 44.8734C186.351 44.7729 186.265 44.696 186.158 44.682L182.489 44.2C182.382 44.186 182.277 44.2378 182.228 44.3291L180.831 46.9327C179.354 47.0619 177.933 47.4202 176.615 47.9733L174.052 46.3445C173.962 46.2875 173.843 46.2905 173.757 46.3524L170.803 48.4664C170.717 48.5282 170.682 48.635 170.715 48.7323L171.673 51.5103C170.751 52.5599 170 53.7561 169.466 55.0664L166.439 55.6297C166.333 55.6495 166.252 55.7309 166.237 55.8322L165.728 59.304C165.713 59.4054 165.767 59.5047 165.864 59.551L168.615 60.8735C168.751 62.2718 169.13 63.6165 169.714 64.8639L167.993 67.2899C167.933 67.3748 167.936 67.4867 168.002 67.5685L170.235 70.3641C170.301 70.4458 170.413 70.4793 170.516 70.4475L173.451 69.5411C174.56 70.4132 175.824 71.124 177.209 71.6294L177.804 74.4947C177.825 74.5951 177.911 74.672 178.018 74.6861L181.686 75.168C181.793 75.1821 181.898 75.1303 181.947 75.0389L183.344 72.4354C184.822 72.3062 186.243 71.9479 187.561 71.3948L190.124 73.0236C190.214 73.0806 190.332 73.0775 190.418 73.0157L193.373 70.9015Z" fill="url(#paint14_linear_685_2387)"/>
<path d="M180.692 62.9487C178.79 62.2186 177.87 60.1603 178.641 58.3599C179.015 57.4878 179.725 56.8056 180.641 56.439C181.556 56.0724 182.568 56.0651 183.489 56.4189C185.392 57.149 186.312 59.2073 185.54 61.0078C184.839 62.6456 182.975 63.514 181.212 63.1077C181.037 63.0674 180.863 63.0145 180.692 62.9487ZM180.979 57.196C180.277 57.4772 179.732 58.0002 179.446 58.6689C178.854 60.0491 179.56 61.6276 181.018 62.1871C182.477 62.7474 184.144 62.0791 184.736 60.6988C185.327 59.3186 184.622 57.7401 183.163 57.1805C183.031 57.1297 182.896 57.0889 182.76 57.0575C182.169 56.9211 181.549 56.9675 180.979 57.196Z" fill="url(#paint15_linear_685_2387)"/>
<path d="M179.866 68.0348C180.169 68.1046 180.478 68.1603 180.79 68.2015C180.889 68.2145 180.988 68.2259 181.087 68.2358C181.574 68.2849 182.065 68.297 182.552 68.2723C182.559 68.2719 182.565 68.2716 182.572 68.2713C182.591 68.2702 182.609 68.2692 182.628 68.268C182.665 68.2659 182.702 68.2634 182.738 68.2608C182.834 68.2541 182.911 68.189 182.933 68.1048C182.938 68.0843 182.94 68.0627 182.938 68.0406C182.93 67.9274 182.825 67.8429 182.706 67.8511C182.091 67.8946 181.466 67.8754 180.85 67.7943C177.79 67.3928 175.319 65.5246 174.119 63.0449C173.451 61.6657 173.177 60.0972 173.413 58.4864C173.454 58.2039 173.51 57.9254 173.581 57.6521C174.054 55.8126 175.173 54.1966 176.79 53.0392C178.647 51.7097 180.941 51.1444 183.248 51.4475C188.012 52.0738 191.346 56.2488 190.685 60.7555C190.644 61.0334 190.589 61.3083 190.519 61.5791C190.217 62.7525 189.647 63.8503 188.846 64.7917C188.825 64.8161 188.811 64.8435 188.804 64.8719C188.784 64.9468 188.811 65.0291 188.878 65.0806C188.972 65.1515 189.108 65.1381 189.184 65.0493C190.025 64.0609 190.624 62.9084 190.941 61.6765C191.014 61.3923 191.072 61.1038 191.115 60.8122C191.809 56.0806 188.305 51.6971 183.307 51.0404C180.886 50.7222 178.478 51.3158 176.528 52.7115C174.83 53.9264 173.656 55.6229 173.159 57.554C173.085 57.841 173.026 58.1332 172.983 58.4297C172.647 60.7218 173.274 63.0005 174.748 64.8461C176.032 66.4533 177.826 67.5644 179.866 68.0348Z" fill="url(#paint16_linear_685_2387)"/>
<path d="M99.1929 169.759C146.901 169.759 185.577 133.156 185.577 88.003C185.577 42.8502 146.901 6.24658 99.1929 6.24658C51.4844 6.24658 12.8091 42.8502 12.8091 88.003C12.8091 133.156 51.4844 169.759 99.1929 169.759Z" fill="#91B3FA"/>
<path d="M88.3099 66.6646C88.1149 66.3119 87.5634 66.3675 87.4508 66.7511C87.0339 68.171 86.0252 70.6486 83.9084 71.5284C83.8018 71.5727 83.7007 71.6175 83.6031 71.6627C83.5071 71.3903 83.5058 71.074 83.7357 70.7414C84.3939 69.7895 83.2058 68.4894 83.2058 68.4894C83.2058 68.4894 83.1272 69.6344 82.2075 70.3554C81.4155 70.9764 81.0352 72.3582 81.5764 73.4918C82.7221 77.7034 84.4377 83.2737 77.7551 87.3432C71.0725 91.4126 61.6616 79.6632 61.6616 79.6632L66.3325 93.6774C66.3325 93.6774 73.542 98.7126 81.9279 91.6323C90.3139 84.552 84.7555 74.2491 84.7555 74.2491C84.7555 74.2491 91.1516 71.807 88.3099 66.6646Z" fill="url(#paint17_linear_685_2387)"/>
<path d="M60.4928 59.0721C60.4928 59.0721 62.4288 50.8529 52.4811 53.0287C52.4811 53.0287 47.6523 52.2819 47.4068 56.5954C47.4068 56.5954 44.2942 58.5365 46.5732 62.2695C46.5732 62.2695 37.3228 58.8879 33.2924 66.5617C29.262 74.2355 32.9667 78.4579 36.8505 79.5576C36.8505 79.5576 33.7039 81.0529 35.1933 84.4291C36.6827 87.8053 44.2254 90.1854 48.681 86.0795C48.681 86.0795 61.3593 87.6652 61.1056 79.1897C61.1056 79.1897 67.0025 75.5857 60.8089 68.5813C54.6153 61.5769 60.4928 59.0721 60.4928 59.0721Z" fill="url(#paint18_linear_685_2387)"/>
<path d="M61.0371 78.1236C59.0382 77.5564 53.2178 76.5093 47.6817 81.3446C46.7428 82.1647 46.359 83.4107 46.6939 84.5777C48.1809 89.7588 52.1041 105.066 48.6641 111.689C48.6641 111.689 54.7262 118.014 61.3398 112.916C61.3398 112.916 64.3071 100.677 68.1937 95.3032C70.877 91.5936 63.915 81.3728 62.1535 78.9036C61.8867 78.5298 61.4937 78.2532 61.0371 78.1236Z" fill="url(#paint19_linear_685_2387)"/>
<path d="M55.5186 67.8296C55.5186 67.8296 52.5623 75.7439 52.3398 79.2353C52.3398 79.2353 55.6073 80.6415 58.686 78.2681C58.686 78.2681 59.009 70.363 59.4758 68.9476L55.5186 67.8296Z" fill="url(#paint20_linear_685_2387)"/>
<path d="M59.6237 57.0382C59.6237 57.0382 67.3561 67.2798 62.7339 70.2545C58.1117 73.2293 52.6072 65.9511 52.6072 65.9511C52.6072 65.9511 50.813 60.3456 52.6891 58.444C54.5651 56.5423 59.6237 57.0382 59.6237 57.0382Z" fill="url(#paint21_linear_685_2387)"/>
<path d="M56.0454 54.5902C56.0454 54.5902 59.5976 55.3869 60.0955 56.9079C60.5933 58.4292 55.058 59.8397 53.507 59.9088L52.2573 66.0472C52.2573 66.0472 48.5631 60.2727 50.0265 56.9377C51.4899 53.6027 56.0454 54.5902 56.0454 54.5902Z" fill="url(#paint22_linear_685_2387)"/>
<path d="M54.1086 65.1976C54.1086 65.1976 51.0988 61.8987 49.9017 64.0493C48.7046 66.1999 52.6107 67.8146 53.9629 66.7587L54.1086 65.1976Z" fill="url(#paint23_linear_685_2387)"/>
<path d="M69.0611 138.614C69.0383 139.17 70.0692 143.577 70.6302 145.928C70.8559 146.874 70.6987 147.864 70.1898 148.706L50.7614 179.653C50.5264 180.028 50.3553 180.433 50.2513 180.857C49.8953 182.31 49.1568 185.869 49.5424 189.107L50.5474 191.082L46.2006 190.148L45.2549 179.1L46.4854 178.39C47.5485 177.777 48.3763 176.86 48.8502 175.77C50.607 171.731 54.9696 161.451 56.0942 156.44C57.3722 150.746 64.0533 146.121 64.0533 146.121L62.8796 143.495L69.0611 138.614Z" fill="url(#paint24_linear_685_2387)"/>
<path d="M41.3701 186.347C41.3701 186.347 43.7175 182.825 43.9936 181.454C44.2697 180.083 45.0386 177.662 46.4857 178.391C46.4857 178.391 47.1677 185.051 46.9326 187.653C46.6975 190.255 50.0409 190.172 50.0409 190.172C50.0409 190.172 50.9624 190.294 51.6372 190.933C52.1032 191.374 51.7699 192.139 51.1124 192.179C50.0184 192.246 48.2804 192.263 46.4557 191.929C45.8179 191.813 45.3451 191.299 45.3065 190.685L44.8248 183.02L41.8639 186.559L41.3701 186.347Z" fill="url(#paint25_linear_685_2387)"/>
<path d="M57.4543 143.544C57.4543 143.544 56.7691 171.226 56.6763 175.158C56.5835 179.09 57.3322 187.802 61.4966 190.407L59.6845 191.676C59.6845 191.676 57.42 189.855 55.2076 186.349C52.7222 182.411 51.9707 181.691 51.9707 181.691L52.7954 180.092C53.1564 179.393 53.2625 178.601 53.0963 177.838C52.1977 173.716 49.1954 160.005 48.3765 157.052C47.4098 153.567 47.3411 148.912 50.7042 145.016C54.0673 141.12 57.4543 143.544 57.4543 143.544Z" fill="url(#paint26_linear_685_2387)"/>
<path d="M53.6075 192.923C53.4783 192.924 53.3685 192.837 53.3503 192.716C53.2116 191.793 52.6348 188.093 52.1626 187.135C51.6218 186.037 49.8554 181.419 52.1636 181.027C52.1636 181.027 57.902 188.962 59.0035 190.032C60.1051 191.102 61.4953 190.406 61.4953 190.406C61.4953 190.406 62.5686 190.706 63.378 191.685C63.7632 192.151 63.4044 192.834 62.7793 192.84L58.9141 192.875C57.7915 192.885 56.7819 192.24 56.3646 191.253C55.6843 189.645 54.5155 187.286 53.1534 186.24L53.8611 192.654C53.877 192.797 53.7594 192.922 53.6075 192.923Z" fill="url(#paint27_linear_685_2387)"/>
<path d="M62.2549 109.932C62.2549 109.932 61.384 112.56 62.7221 116.887L71.0228 144.321C71.1532 144.752 70.9074 145.203 70.4615 145.355C67.9786 146.198 59.8164 148.582 48.6744 147.855C48.1134 147.819 47.6431 147.443 47.5211 146.923C46.7869 143.796 44.282 133.125 43.7662 130.932C41.8011 122.578 39.6067 113.568 49.2599 108.12C53.7087 109.923 57.858 110.986 62.2549 109.932Z" fill="url(#paint28_linear_685_2387)"/>
<path d="M46.8909 82.377C46.8909 82.377 37.4465 89.8052 35.1027 99.9558C32.7589 110.106 48.9034 111.185 48.9034 111.185C48.9034 111.185 51.0951 108.869 53.697 109.695C56.2989 110.521 53.8985 105.652 50.8541 105.665C47.8098 105.678 49.2201 107.956 44.9134 106.11C40.7182 104.311 38.1252 98.7492 48.829 90.3175C49.4495 89.8288 49.9446 89.2057 50.2426 88.4956C52.3221 83.5414 50.6728 80.2939 46.8909 82.377Z" fill="url(#paint29_linear_685_2387)"/>
<path d="M11.3901 86.9896C14.5279 143.055 53.9144 168.525 101.508 156.747L99.7243 150.112C47.3442 160.903 18.3417 132.267 13.5854 88.0583C13.5008 87.2724 12.7118 86.7309 11.8945 86.8909L11.3901 86.9896Z" fill="url(#paint30_linear_685_2387)"/>
<path d="M92.4872 149.835L98.5707 160.735C98.9059 161.335 99.7684 161.441 100.254 160.94L111.332 149.515C111.954 148.874 111.453 147.84 110.534 147.868L93.3718 148.394C92.6048 148.417 92.1288 149.193 92.4872 149.835Z" fill="url(#paint31_linear_685_2387)"/>
<path d="M74.098 60.0703L68.3623 65.518L78.3271 64.9528L74.098 60.0703Z" fill="url(#paint32_linear_685_2387)"/>
<path d="M118.192 63.9863L75.5695 65.1644C74.6474 65.1644 73.8999 64.4028 73.8999 63.4631V50.6439C73.8999 49.7351 74.6009 48.9868 75.4917 48.9445L118.01 46.9257C118.962 46.8806 119.758 47.6544 119.758 48.6251V61.3477C119.758 62.2873 119.114 63.9863 118.192 63.9863Z" fill="url(#paint33_linear_685_2387)"/>
<path d="M116.82 63.2858L76.4627 64.364C75.5896 64.364 74.8818 63.6669 74.8818 62.807V51.0746C74.8818 50.2429 75.5456 49.558 76.3892 49.5193L116.649 47.6716C117.55 47.6303 118.303 48.3386 118.303 49.227V60.8709C118.303 61.7308 117.693 63.2858 116.82 63.2858Z" fill="url(#paint34_linear_685_2387)"/>
<g opacity="0.3">
<path d="M30.5815 45.6154C30.7407 45.3116 31.1301 45.1876 31.451 45.3384C32.0744 45.6312 32.7206 45.9028 33.3716 46.1456C33.701 46.2684 33.8647 46.618 33.7417 46.9307C33.7403 46.9343 33.7388 46.9381 33.7373 46.9419C33.606 47.2573 33.2293 47.4122 32.8959 47.2879C32.2107 47.0323 31.5303 46.7465 30.874 46.4381C30.5738 46.2972 30.4399 45.9656 30.5542 45.6747C30.5622 45.6548 30.5711 45.6348 30.5815 45.6154ZM36.626 47.1215C37.3055 47.278 37.9986 47.4084 38.6865 47.5093C39.0403 47.5611 39.2831 47.8748 39.2283 48.2099C39.1721 48.546 38.8419 48.7745 38.4878 48.7226C37.7641 48.6166 37.0346 48.4794 36.3195 48.3149C35.9714 48.2348 35.7578 47.9026 35.8425 47.5731C35.8486 47.5492 35.8562 47.5259 35.865 47.5034C35.9781 47.2158 36.3032 47.0472 36.626 47.1215ZM42.0865 47.7801C42.7839 47.7895 43.4901 47.7702 44.1861 47.7228C44.5433 47.6985 44.8539 47.9529 44.8796 48.2911C44.905 48.6289 44.6366 48.9229 44.2792 48.9475C43.5463 48.9974 42.8024 49.0177 42.0682 49.0078C41.7099 49.003 41.4238 48.7242 41.4287 48.3852C41.4298 48.3129 41.444 48.2438 41.4692 48.1797C41.5621 47.9433 41.8046 47.7763 42.0865 47.7801ZM47.5654 47.2663C48.2482 47.1277 48.9325 46.9593 49.5995 46.7662C49.9421 46.6671 50.3049 46.8495 50.4096 47.1736C50.514 47.4979 50.3213 47.8409 49.9792 47.9404C49.2768 48.1437 48.5564 48.3208 47.8378 48.4669C47.4876 48.5379 47.1426 48.3269 47.0675 47.9954C47.0406 47.8768 47.0518 47.7589 47.0934 47.653C47.1681 47.4629 47.3405 47.312 47.5654 47.2663ZM52.7868 45.61C53.4185 45.3321 54.0467 45.0245 54.6534 44.6958C54.9645 44.5275 55.3608 44.6296 55.5387 44.9238C55.7168 45.2183 55.6088 45.5934 55.2977 45.7615C54.6594 46.1073 53.9984 46.4309 53.3337 46.7233C53.009 46.8663 52.6231 46.733 52.4721 46.4254C52.3959 46.2705 52.394 46.1009 52.4524 45.9525C52.5097 45.8064 52.6256 45.681 52.7868 45.61ZM57.4909 42.9017C58.0428 42.4978 58.5831 42.0665 59.0971 41.6196C59.3609 41.3902 59.7714 41.4066 60.0136 41.6562C60.2561 41.9059 60.2388 42.2941 59.975 42.5237C59.4341 42.9941 58.8652 43.4481 58.2844 43.8731C58.0009 44.0804 57.5937 44.0311 57.3744 43.7628C57.232 43.5886 57.2043 43.3649 57.2799 43.1726C57.3207 43.0689 57.3914 42.9744 57.4909 42.9017ZM67.5818 22.2003C67.9391 22.1765 68.2493 22.4313 68.2744 22.7696C68.3258 23.4625 68.3459 24.167 68.3341 24.8632C68.3284 25.2023 68.0333 25.4727 67.6751 25.4672C67.317 25.4618 67.0313 25.1825 67.037 24.8435C67.0482 24.1825 67.029 23.5136 66.9802 22.8556C66.9734 22.7653 66.9877 22.6784 67.019 22.5987C67.105 22.3801 67.3197 22.2176 67.5818 22.2003ZM61.4412 39.276C61.8841 38.7664 62.3091 38.2323 62.7041 37.6885C62.9072 37.4091 63.3111 37.3383 63.6063 37.5305C63.9016 37.7227 63.9747 38.1041 63.7731 38.3843C63.3571 38.9568 62.9096 39.5193 62.443 40.0559C62.2155 40.3177 61.8067 40.3554 61.5299 40.14C61.3105 39.9692 61.2401 39.6904 61.334 39.4517C61.3584 39.3897 61.3942 39.3302 61.4412 39.276ZM67.4855 27.5502C67.8394 27.6027 68.0813 27.917 68.0258 28.252C67.912 28.938 67.7654 29.6286 67.5904 30.3045C67.5065 30.6344 67.1538 30.8351 66.8059 30.7546C66.458 30.6738 66.2451 30.3414 66.3302 30.0121C66.4966 29.3698 66.636 28.7135 66.744 28.0615C66.7509 28.0198 66.7623 27.98 66.7773 27.942C66.8826 27.6741 67.1757 27.5042 67.4855 27.5502ZM64.4358 34.9066C64.7469 34.3163 65.0351 33.7056 65.2925 33.0911C65.4243 32.7758 65.8013 32.6216 66.1345 32.7465C66.4632 32.8699 66.6262 33.2191 66.5035 33.5312C66.5019 33.5353 66.5003 33.5395 66.4985 33.5434C66.2278 34.1904 65.9244 34.8334 65.5971 35.4547C65.4369 35.758 65.0475 35.8814 64.7268 35.73C64.4274 35.5888 64.294 35.2576 64.4083 34.9672C64.4162 34.9467 64.4255 34.9265 64.4358 34.9066Z" fill="url(#paint35_linear_685_2387)"/>
<path d="M66.2902 18.3429C66.2457 18.4562 66.2358 18.5831 66.27 18.7091C66.3533 19.0157 66.431 19.329 66.5016 19.6405C66.5764 19.972 66.9213 20.1834 67.2715 20.1124C67.6219 20.0417 67.8456 19.7153 67.77 19.3836C67.6961 19.056 67.6143 18.7265 67.5268 18.4039C67.4377 18.0755 67.0841 17.8775 66.7372 17.9618C66.5232 18.0138 66.3619 18.1608 66.2902 18.3429Z" fill="url(#paint36_linear_685_2387)"/>
</g>
<g opacity="0.3">
<path d="M54.2803 3.47037C54.171 3.74807 54.2877 4.06746 54.5689 4.21815C54.8599 4.37404 55.1524 4.53837 55.438 4.70651C55.7423 4.8856 56.1423 4.79737 56.3315 4.50949C56.5214 4.22029 56.4273 3.84287 56.1233 3.66386C55.8225 3.48692 55.5145 3.31379 55.2082 3.14959C54.8965 2.98256 54.5006 3.08637 54.324 3.38138C54.3066 3.41033 54.2921 3.44018 54.2803 3.47037Z" fill="url(#paint37_linear_685_2387)"/>
<path d="M18.6222 14.7834C18.7634 14.4717 19.1449 14.3275 19.4743 14.4613C19.8035 14.595 19.9553 14.9555 19.8145 15.2676C19.5455 15.8608 19.2991 16.4741 19.0789 17.0973C18.967 17.4176 18.5976 17.5923 18.2579 17.4848C17.9182 17.3773 17.7349 17.0294 17.8484 16.7078C17.9438 16.4378 18.0435 16.1703 18.1476 15.9056C18.2962 15.5279 18.4558 15.1503 18.6222 14.7834ZM17.7153 19.4565C18.0671 19.5196 18.2986 19.8408 18.2319 20.1738C18.1042 20.8135 18.0034 21.465 17.9329 22.1105C17.8972 22.4475 17.5773 22.693 17.2208 22.6581C16.8646 22.6232 16.6056 22.3215 16.6426 21.9843C16.7168 21.3046 16.8227 20.6187 16.9573 19.9456C16.9643 19.9107 16.9743 19.877 16.987 19.8448C17.0952 19.5697 17.4001 19.4001 17.7153 19.4565ZM20.2353 11.8065C20.6079 11.2215 21.0119 10.6434 21.4367 10.0887C21.6469 9.81415 22.0525 9.7528 22.3428 9.95182C22.6328 10.1507 22.6972 10.5343 22.4874 10.8092C22.084 11.336 21.7002 11.8847 21.3466 12.4402C21.1616 12.7306 20.763 12.8242 20.456 12.6492C20.1846 12.4943 20.0761 12.1812 20.1828 11.9098C20.1966 11.8746 20.214 11.8399 20.2353 11.8065ZM17.1468 24.6944C17.5047 24.6827 17.8052 24.9479 17.8174 25.2868C17.841 25.9364 17.8943 26.5927 17.9757 27.2375C18.0184 27.5744 17.7646 27.8797 17.4086 27.9199C17.0529 27.9602 16.7302 27.7199 16.6876 27.3834C16.6019 26.7042 16.5458 26.013 16.5209 25.329C16.518 25.2464 16.5322 25.167 16.5609 25.0939C16.6498 24.8677 16.8762 24.7032 17.1468 24.6944ZM23.7008 7.52282C24.1999 7.03003 24.7283 6.5506 25.2714 6.09769C25.5402 5.87352 25.9499 5.89797 26.1868 6.15226C26.4239 6.40669 26.3979 6.79464 26.1291 7.01881C25.6133 7.44907 25.1113 7.90447 24.6375 8.37247C24.3895 8.61728 23.9789 8.62551 23.7202 8.39082C23.5275 8.21596 23.4736 7.95571 23.5611 7.73321C23.5911 7.65703 23.6377 7.58515 23.7008 7.52282ZM28.0751 4.06238C28.6773 3.68385 29.3035 3.32499 29.9362 2.99563C30.2502 2.83234 30.6446 2.94065 30.8172 3.23781C30.9901 3.53538 30.8755 3.90851 30.5613 4.07153C29.9602 4.38447 29.3651 4.72554 28.7927 5.08517C28.4942 5.27277 28.0916 5.19583 27.8934 4.91335C27.774 4.74313 27.7561 4.5371 27.8261 4.3592C27.8722 4.24182 27.9565 4.13683 28.0751 4.06238ZM33.1423 1.58622C33.8178 1.34066 34.5118 1.1194 35.2047 0.928471C35.5488 0.833734 35.9086 1.02085 36.0088 1.34633C36.1091 1.6723 35.9111 2.01267 35.5673 2.10741C34.9088 2.28871 34.2496 2.49903 33.6076 2.73248C33.2732 2.85408 32.8979 2.69598 32.7695 2.37957C32.7105 2.23414 32.7138 2.08075 32.767 1.94543C32.8296 1.78608 32.9615 1.65201 33.1423 1.58622ZM38.6595 0.215247C39.3753 0.115386 40.1038 0.0433639 40.825 0.00118963C41.1826 -0.0197244 41.4904 0.237615 41.5125 0.576117C41.5346 0.913996 41.2624 1.20568 40.9049 1.2266C40.2203 1.26663 39.5286 1.33505 38.8485 1.42992C38.4941 1.47937 38.1645 1.24758 38.1123 0.912126C38.0959 0.806171 38.109 0.70264 38.1459 0.608942C38.2258 0.405966 38.417 0.24918 38.6595 0.215247ZM44.3632 0.0250815C45.0829 0.0768125 45.8097 0.15846 46.5237 0.267739C46.8775 0.321825 47.118 0.637127 47.0607 0.971821C47.0035 1.30548 46.6706 1.53401 46.3168 1.47992C45.6384 1.37611 44.9482 1.29862 44.2646 1.24931C43.9075 1.22369 43.6398 0.928677 43.6671 0.590659C43.6718 0.531796 43.6851 0.475425 43.7058 0.422725C43.8041 0.172796 44.0682 0.00382127 44.3632 0.0250815ZM49.9659 1.02383C50.4748 1.1703 50.9851 1.33345 51.4826 1.50873C51.6629 1.57223 51.8416 1.6374 52.0195 1.70423C52.3523 1.82937 52.5232 2.18476 52.3827 2.50131C52.2506 2.81648 51.8735 2.97049 51.5404 2.84536C51.3716 2.78192 51.2013 2.71973 51.0301 2.65942C50.557 2.4928 50.0721 2.33767 49.5883 2.19834C49.2456 2.09972 49.0523 1.75665 49.1566 1.43235C49.1605 1.42016 49.1648 1.40811 49.1694 1.39633C49.2881 1.09467 49.6362 0.928747 49.9659 1.02383Z" fill="url(#paint38_linear_685_2387)"/>
<path d="M17.3679 30.3173C17.3229 30.4317 17.3134 30.5598 17.3484 30.6866C17.4374 31.0082 17.5353 31.334 17.6394 31.655C17.7444 31.9793 18.1072 32.1615 18.4497 32.062C18.7922 31.9625 18.9849 31.6196 18.8797 31.2951C18.7809 30.9902 18.6879 30.6806 18.6033 30.3754C18.5127 30.0476 18.1581 29.8512 17.8115 29.9372C17.5991 29.9898 17.439 30.1364 17.3679 30.3173Z" fill="url(#paint39_linear_685_2387)"/>
</g>
<path d="M26.9653 35.6393C27.0308 35.7449 27.1597 35.7996 27.2865 35.7755L30.9045 35.0887C32.0918 36.2707 33.4868 37.2821 35.0553 38.0653L35.3378 41.5451C35.3477 41.6672 35.4384 41.7698 35.5635 41.8007L39.8461 42.8588C39.9713 42.8898 40.1034 42.8421 40.175 42.7402L42.2188 39.8351C43.9916 39.8775 45.731 39.6407 47.3773 39.1588L50.1787 41.4317C50.2769 41.5114 50.4177 41.5233 50.5293 41.4614L54.3481 39.3437C54.4597 39.2818 54.5176 39.1597 54.492 39.0396L53.7663 35.6156C55.0152 34.4919 56.0839 33.1716 56.9113 31.687L60.5881 31.4197C60.7171 31.4103 60.8255 31.3245 60.8582 31.2061L61.9764 27.1529C62.009 27.0344 61.9587 26.9094 61.851 26.8416L58.7815 24.9072C58.8264 23.2293 58.576 21.5832 58.0668 20.0251L60.4685 17.3737C60.5526 17.2808 60.5653 17.1475 60.4999 17.0419L58.2622 13.4277C58.1969 13.3221 58.0678 13.2674 57.941 13.2914L54.323 13.9783C53.1357 12.7962 51.7407 11.7849 50.1722 11.0017L49.8896 7.52189C49.8798 7.3998 49.7891 7.29716 49.664 7.26621L45.3813 6.20804C45.2561 6.17716 45.1241 6.22473 45.0524 6.32667L43.0086 9.23178C41.2358 9.1894 39.4964 9.42624 37.8501 9.90823L35.0487 7.63525C34.9506 7.55554 34.8097 7.54363 34.698 7.60554L30.8792 9.7234C30.7676 9.78531 30.7098 9.90733 30.7352 10.0273L31.461 13.4515C30.2121 14.5752 29.1435 15.8955 28.3159 17.3799L24.6391 17.6473C24.5103 17.6567 24.4017 17.7425 24.369 17.861L23.251 21.9142C23.2184 22.0326 23.2687 22.1577 23.3764 22.2255L26.4459 24.1597C26.4011 25.8376 26.6514 27.4838 27.1606 29.0419L24.759 31.6933C24.6747 31.7862 24.6622 31.9195 24.7276 32.0251L26.9653 35.6393Z" fill="url(#paint40_linear_685_2387)"/>
<path d="M38.7137 22.5048C39.8955 20.4702 42.6058 19.7248 44.7558 20.8434C45.7972 21.3852 46.5534 22.2785 46.8849 23.3586C47.2164 24.4384 47.084 25.5762 46.5111 26.5618C45.3292 28.5964 42.6189 29.3418 40.469 28.2232C38.5132 27.2056 37.685 24.9907 38.4415 23.067C38.5165 22.8762 38.6072 22.6882 38.7137 22.5048ZM45.8882 23.6325C45.6339 22.8043 45.0543 22.1195 44.2557 21.704C42.6076 20.8465 40.5292 21.4179 39.6231 22.9779C38.7162 24.5381 39.3209 26.5048 40.9692 27.3624C42.6173 28.2198 44.6957 27.6485 45.6017 26.0886C45.6839 25.9471 45.754 25.8017 45.8125 25.6532C46.0662 25.008 46.0947 24.3056 45.8882 23.6325Z" fill="#91B3FA"/>
<path d="M32.4522 20.8641C32.3222 21.1945 32.2091 21.5329 32.1137 21.8787C32.0836 21.9875 32.0555 22.0968 32.0291 22.2065C31.8994 22.7475 31.8154 23.2973 31.7782 23.8476C31.7777 23.8551 31.7772 23.8626 31.7767 23.8701C31.7754 23.8914 31.774 23.9127 31.7729 23.934C31.7704 23.9755 31.7683 24.017 31.7664 24.0584C31.7613 24.1674 31.8322 24.2629 31.9347 24.2992C31.9597 24.308 31.9865 24.3132 32.0145 24.3144C32.1576 24.3202 32.2783 24.2148 32.2847 24.0796C32.3164 23.3823 32.4278 22.6837 32.6158 22.003C33.548 18.6214 36.2369 16.1071 39.5149 15.106C41.3381 14.549 43.3437 14.4605 45.3308 14.9516C45.6793 15.0376 46.0206 15.1397 46.3535 15.2571C48.5942 16.0467 50.4643 17.5293 51.6892 19.5081C53.0965 21.7809 53.4843 24.4365 52.7812 26.9853C51.3286 32.2493 45.6257 35.4104 40.0663 34.0367C39.7234 33.952 39.3865 33.8513 39.0567 33.7349C37.6275 33.2312 36.3305 32.4371 35.262 31.4052C35.2343 31.3785 35.202 31.3591 35.1673 31.347C35.0761 31.3149 34.9693 31.3329 34.8952 31.4018C34.7931 31.4971 34.7908 31.6521 34.8916 31.7491C36.0134 32.8324 37.375 33.6664 38.8755 34.1952C39.2217 34.3173 39.5754 34.423 39.9351 34.512C45.772 35.9542 51.7601 32.6317 53.2835 27.1095C54.0216 24.4336 53.6144 21.6459 52.137 19.2598C50.851 17.1824 48.8878 15.6261 46.5356 14.797C46.186 14.6739 45.8277 14.5668 45.4621 14.4763C42.6345 13.7778 39.689 14.163 37.1679 15.5611C34.9725 16.7785 33.3279 18.6372 32.4522 20.8641Z" fill="#91B3FA"/>
<g opacity="0.3">
<path d="M6.81168 59.6661C6.75124 59.8199 6.80151 59.9988 6.94749 60.102C7.2199 60.2947 7.5022 60.4823 7.78662 60.6593C7.97137 60.7744 8.21964 60.726 8.34147 60.551C8.46404 60.3762 8.41172 60.1409 8.22696 60.0258C7.95601 59.857 7.68688 59.6783 7.42683 59.4944C7.24983 59.369 6.99878 59.4035 6.86605 59.5711C6.84271 59.601 6.82471 59.633 6.81168 59.6661Z" fill="url(#paint41_linear_685_2387)"/>
<path d="M9.45684 61.1546C9.55489 60.9669 9.79489 60.8896 9.99341 60.9823C10.4943 61.2159 11.0138 61.4279 11.5371 61.6122C11.6474 61.6511 11.7587 61.6889 11.8707 61.7258C12.0794 61.7948 12.1899 62.0109 12.1171 62.2087C12.0404 62.393 11.8158 62.5108 11.6065 62.4419C11.4894 62.4032 11.3731 62.3637 11.2575 62.3229C10.7089 62.1297 10.1643 61.9074 9.63904 61.6623C9.45311 61.5757 9.36977 61.3705 9.4406 61.1903C9.44543 61.1784 9.45091 61.1665 9.45684 61.1546ZM13.8293 62.2476C14.491 62.3833 15.1676 62.4816 15.84 62.5392C16.0605 62.5582 16.2227 62.7423 16.2028 62.9511C16.1826 63.1585 15.9881 63.3135 15.7676 63.2944C15.0628 63.234 14.3535 63.1311 13.6597 62.9887C13.4434 62.9443 13.306 62.7424 13.3528 62.5376C13.3569 62.5197 13.3626 62.5021 13.3692 62.4853C13.4377 62.3115 13.6322 62.2072 13.8293 62.2476ZM17.874 62.5932C18.5497 62.5714 19.2309 62.5091 19.8993 62.4081C20.1177 62.3752 20.3232 62.5161 20.358 62.7228C20.3928 62.9303 20.2444 63.1241 20.0256 63.1571C19.3247 63.263 18.6098 63.3281 17.9015 63.3512C17.6803 63.3583 17.4947 63.1945 17.4872 62.9852C17.4856 62.9342 17.4944 62.8851 17.5122 62.8401C17.5672 62.7004 17.707 62.5987 17.874 62.5932ZM21.885 61.9876C22.5354 61.8094 23.1802 61.5912 23.8003 61.3393C24.004 61.2568 24.2394 61.3458 24.3266 61.5383C24.4135 61.7304 24.3198 61.9536 24.1166 62.0363C23.4657 62.3005 22.7901 62.5292 22.1079 62.7162C21.8954 62.7745 21.673 62.6584 21.6114 62.4573C21.587 62.3761 21.5919 62.2936 21.6208 62.22C21.6636 62.1112 21.7582 62.0223 21.885 61.9876ZM25.6182 60.4737C26.203 60.1512 26.7719 59.7915 27.3099 59.4045C27.4858 59.2778 27.7373 59.3103 27.8713 59.4771C28.0053 59.6437 27.9714 59.8818 27.7947 60.0084C27.231 60.414 26.6345 60.7909 26.0217 61.129C25.8305 61.2343 25.5852 61.1732 25.4739 60.9924C25.411 60.8902 25.4042 60.7716 25.4445 60.6689C25.4757 60.5896 25.535 60.5196 25.6182 60.4737ZM28.8499 58.1478C29.3337 57.7009 29.7925 57.2212 30.2135 56.7217C30.3513 56.5581 30.6036 56.5312 30.7764 56.6618C30.9492 56.7924 30.9776 57.0302 30.8398 57.1949C30.3984 57.7185 29.917 58.2219 29.4095 58.6907C29.251 58.8367 28.9975 58.834 28.8431 58.6842C28.7313 58.5757 28.7019 58.4199 28.7542 58.2868C28.7743 58.236 28.806 58.1883 28.8499 58.1478ZM31.3814 55.146C31.7335 54.6021 32.0541 54.0299 32.3341 53.4452C32.4257 53.2546 32.6632 53.1701 32.8646 53.2567C33.066 53.343 33.1523 53.5662 33.0641 53.7588C32.7701 54.3715 32.4339 54.9715 32.0647 55.542C31.949 55.7206 31.7023 55.7767 31.5137 55.6673C31.3477 55.5711 31.2819 55.3787 31.3474 55.2121C31.3563 55.1895 31.3675 55.1673 31.3814 55.146ZM34.0122 49.4711C34.23 49.5087 34.3741 49.706 34.3343 49.9121C34.2244 50.4825 34.0795 51.0569 33.9044 51.6179C33.8783 51.7034 33.8508 51.788 33.823 51.8726C33.7633 52.0732 33.532 52.1837 33.3206 52.1205C33.1094 52.0578 32.9922 51.845 33.0584 51.6451C33.0849 51.5659 33.1104 51.4862 33.1354 51.4047C33.3031 50.8677 33.4414 50.3198 33.5463 49.776C33.5505 49.7536 33.557 49.732 33.565 49.7115C33.6315 49.5422 33.8183 49.4376 34.0122 49.4711Z" fill="url(#paint42_linear_685_2387)"/>
</g>
<g opacity="0.3">
<path d="M1.17595 41.0529C1.42795 40.4365 1.72217 39.8296 2.04969 39.2484C2.15396 39.0638 2.39659 38.9938 2.59196 39.0925C2.7874 39.1912 2.85845 39.4212 2.75667 39.6057C2.44401 40.1598 2.16369 40.7389 1.92325 41.3268C1.84349 41.5222 1.61125 41.6191 1.40512 41.5436C1.20046 41.4685 1.0978 41.2518 1.17412 41.0578C1.17397 41.0577 1.17529 41.0544 1.17595 41.0529ZM1.02463 42.6711C1.23895 42.7227 1.36861 42.9292 1.31388 43.132C1.14975 43.7425 1.02295 44.3686 0.937265 44.9929C0.908289 45.1992 0.707802 45.3471 0.488068 45.3198C0.268628 45.2929 0.114235 45.1028 0.142479 44.895C0.232406 44.2407 0.36514 43.5846 0.537458 42.945C0.541117 42.9314 0.545361 42.9185 0.55041 42.9056C0.6208 42.7266 0.824069 42.6228 1.02463 42.6711ZM3.1496 37.5565C3.55182 37.0158 3.99217 36.4937 4.45871 36.0049C4.60703 35.8495 4.86064 35.8373 5.02461 35.9777C5.18903 36.118 5.20154 36.3569 5.05366 36.5132C4.60849 36.9795 4.18849 37.4773 3.80456 37.993C3.67709 38.1643 3.42721 38.2053 3.24655 38.0849C3.09443 37.9835 3.03955 37.8002 3.10153 37.6427C3.11323 37.6128 3.12919 37.5839 3.1496 37.5565ZM0.403627 46.5007C0.624824 46.5021 0.803069 46.673 0.801679 46.8824C0.797362 47.5122 0.834021 48.1485 0.910777 48.7737C0.935948 48.9815 0.778411 49.1698 0.559263 49.1941C0.339384 49.2182 0.140358 49.0693 0.114894 48.8612C0.0341864 48.2055 -0.00430183 47.538 0.000381137 46.8774C0.000820165 46.8317 0.00967346 46.788 0.0255516 46.7476C0.0826252 46.6026 0.230723 46.4997 0.403627 46.5007ZM5.95659 34.6163C6.48314 34.184 7.04326 33.7777 7.62139 33.4085C7.80483 33.2914 8.05398 33.3372 8.17771 33.5109C8.30152 33.6845 8.25345 33.9202 8.06964 34.0374C7.51793 34.3893 6.98392 34.7768 6.48189 35.1893C6.31484 35.3264 6.06175 35.3096 5.91665 35.1512C5.81728 35.0428 5.79452 34.896 5.84398 34.7701C5.86652 34.7128 5.9042 34.6594 5.95659 34.6163ZM9.42748 32.3989C10.0494 32.0979 10.6961 31.8301 11.3495 31.6028C11.5571 31.5305 11.7872 31.6311 11.8635 31.8277C11.94 32.024 11.8336 32.2422 11.6257 32.3145C11.0026 32.5314 10.3857 32.787 9.79224 33.0742C9.59526 33.1696 9.35386 33.0956 9.25311 32.9092C9.19999 32.8107 9.19655 32.7004 9.23445 32.6041C9.26819 32.5183 9.3347 32.4438 9.42748 32.3989ZM13.3598 31.0317C14.0401 30.8801 14.7363 30.767 15.4284 30.6952C15.6486 30.6724 15.8463 30.8226 15.8704 31.0308C15.8946 31.2389 15.7355 31.426 15.516 31.449C14.8558 31.5174 14.1921 31.6253 13.5436 31.7701C13.3281 31.818 13.1123 31.6916 13.0618 31.4877C13.0427 31.412 13.0495 31.3366 13.0761 31.269C13.1212 31.1541 13.2243 31.062 13.3598 31.0317Z" fill="url(#paint43_linear_685_2387)"/>
<path d="M0.501169 50.6121C0.474242 50.6807 0.467878 50.7573 0.487488 50.8337C0.568415 51.1491 0.659805 51.4636 0.758513 51.7686C0.823489 51.9687 1.04754 52.0814 1.25915 52.0201C1.4701 51.9582 1.58923 51.7465 1.52476 51.5462C1.43037 51.2554 1.34344 50.9553 1.26596 50.6544C1.21371 50.4508 0.996832 50.326 0.781928 50.3756C0.647951 50.4066 0.546023 50.4981 0.501169 50.6121Z" fill="url(#paint44_linear_685_2387)"/>
</g>
<path d="M6.9655 54.4445C7.00933 54.5152 7.0956 54.5518 7.18048 54.5357L9.60142 54.0761C10.3959 54.8671 11.3294 55.5438 12.3789 56.0679L12.568 58.3964C12.5747 58.4782 12.6353 58.5468 12.719 58.5675L15.5847 59.2755C15.6684 59.2963 15.7569 59.2644 15.8048 59.1962L17.1724 57.2523C18.3587 57.2807 19.5226 57.1221 20.6242 56.7996L22.4988 58.3206C22.5645 58.3739 22.6588 58.3819 22.7334 58.3405L25.2888 56.9233C25.3634 56.8819 25.4022 56.8002 25.3851 56.7199L24.8995 54.4287C25.7353 53.6767 26.4504 52.7932 27.004 51.7999L29.4644 51.621C29.5508 51.6147 29.6233 51.5574 29.6452 51.4781L30.3933 48.7658C30.4152 48.6865 30.3815 48.6029 30.3095 48.5575L28.2555 47.2631C28.2855 46.1404 28.118 45.0388 27.7772 43.9963L29.3844 42.222C29.4407 42.1598 29.4491 42.0706 29.4054 42L27.908 39.5815C27.8642 39.5108 27.7779 39.4742 27.6931 39.4903L25.2721 39.9499C24.4777 39.1589 23.5441 38.4822 22.4946 37.9581L22.3055 35.6295C22.2989 35.5479 22.2383 35.4792 22.1545 35.4585L19.2887 34.7504C19.205 34.7297 19.1166 34.7615 19.0686 34.8298L17.701 36.7737C16.5147 36.7453 15.3508 36.9038 14.2492 37.2263L12.3746 35.7054C12.3089 35.652 12.2147 35.6441 12.14 35.6855L9.58466 37.1027C9.50996 37.1441 9.47132 37.2258 9.4883 37.3061L9.97401 39.5974C9.13825 40.3493 8.42322 41.2328 7.86946 42.2262L5.40907 42.4051C5.3228 42.4114 5.25022 42.4687 5.22834 42.548L4.48023 45.2602C4.45836 45.3395 4.49201 45.4232 4.56409 45.4685L6.61801 46.7629C6.58801 47.8856 6.75557 48.9872 7.09626 50.0298L5.48919 51.804C5.43285 51.8662 5.42444 51.9554 5.46819 52.0261L6.9655 54.4445Z" fill="url(#paint45_linear_685_2387)"/>
<path d="M14.7814 45.6317C15.1713 44.96 15.8142 44.4725 16.5918 44.2588C17.3688 44.045 18.1877 44.1305 18.8971 44.4998C20.3613 45.2615 20.8964 47.006 20.0929 48.3952C19.2875 49.781 17.4413 50.2885 15.9774 49.5267C15.2679 49.1576 14.7528 48.5493 14.5269 47.8136C14.3434 47.2155 14.3688 46.5915 14.5943 46.0183C14.6462 45.8865 14.7087 45.7572 14.7814 45.6317ZM18.5113 45.1644C17.9894 44.8928 17.3871 44.8298 16.8151 44.9871C16.2435 45.1443 15.7705 45.503 15.4837 45.9968C15.1975 46.491 15.1304 47.0606 15.2966 47.602C15.4624 48.1431 15.8417 48.5906 16.3632 48.8621C17.4404 49.4225 18.7983 49.0492 19.3908 48.0299C19.4441 47.9378 19.4895 47.8437 19.527 47.7482C19.9062 46.7842 19.4911 45.6741 18.5113 45.1644Z" fill="#91B3FA"/>
<path d="M10.4224 44.4916C10.3339 44.7164 10.2569 44.9473 10.1913 45.1842C10.0614 45.6547 9.9819 46.1382 9.95512 46.6224C9.9541 46.6441 9.95307 46.6659 9.95205 46.6877C9.94429 46.856 10.0537 47.0034 10.212 47.0594C10.2505 47.073 10.292 47.0811 10.3351 47.0828C10.5561 47.0919 10.7421 46.9291 10.7524 46.7203C10.7729 46.2679 10.8451 45.8157 10.9666 45.3761L10.9667 45.376C10.9733 45.3518 10.9803 45.3276 10.9872 45.3037C11.2848 44.2657 11.8445 43.3372 12.6098 42.5801C13.0253 42.1691 13.5019 41.8088 14.0308 41.5092C14.0352 41.5068 14.0394 41.5044 14.0437 41.5019C14.0571 41.4946 14.0701 41.4871 14.0833 41.4799C15.638 40.6178 17.4544 40.3801 19.1979 40.8109C19.4236 40.8665 19.6444 40.9326 19.86 41.0086C21.3105 41.5197 22.521 42.4796 23.3144 43.7607C24.2253 45.2321 24.476 46.9512 24.0209 48.601C23.5654 50.2498 22.4588 51.6347 20.9043 52.4971C19.3496 53.3591 17.5332 53.5968 15.7897 53.166C15.5679 53.1114 15.3497 53.046 15.1363 52.9708C14.2108 52.6446 13.3714 52.1306 12.6797 51.4626C12.6371 51.4215 12.5871 51.3914 12.5335 51.3728C12.3927 51.3232 12.2277 51.3509 12.1132 51.4572C11.9556 51.6043 11.9525 51.8437 12.1077 51.9937C12.8817 52.741 13.8211 53.3163 14.8561 53.6813C15.0951 53.7655 15.339 53.8386 15.5871 53.9C17.538 54.3819 19.57 54.1161 21.3096 53.1513C23.0488 52.1867 24.2882 50.6402 24.7963 48.7929C25.3057 46.9467 25.025 45.0236 24.0054 43.3773C23.1183 41.9441 21.7638 40.8703 20.1409 40.2984C19.9 40.2135 19.6527 40.1394 19.4005 40.0771C15.6239 39.1442 11.7556 41.1013 10.4224 44.4916Z" fill="#91B3FA"/>
<path d="M174.397 45.881C156.703 -2.78141 79.5124 -8.11829 61.541 32.3354L68.0675 34.0744C89.1 -2.83238 154.522 4.01322 172.677 49.8131L173.572 49.0759C174.484 48.3238 174.813 47.0254 174.397 45.881Z" fill="url(#paint46_linear_685_2387)"/>
<path d="M74.0339 28.2611L62.6431 22.9998C62.0154 22.7099 61.3067 23.1675 61.2602 23.8925L60.1988 40.4474C60.1392 41.3766 61.1628 41.9232 61.8298 41.3183L74.2821 30.0248C74.8385 29.5201 74.7049 28.571 74.0339 28.2611Z" fill="url(#paint47_linear_685_2387)"/>
<path d="M175.176 105.514C176.781 107.084 179.127 108.426 180.776 109.26C178.384 112.153 175.129 115.063 170.804 117.929L169.597 120.607L165.51 116.119C165.51 116.119 172.648 112.62 175.176 105.514Z" fill="url(#paint48_linear_685_2387)"/>
<path d="M155.182 192.114C155.179 192.033 155.184 191.95 155.204 191.867C156.42 186.974 162.815 183.84 162.815 183.84L165.373 183.99C166.915 188.264 166.771 190.901 166.555 192.078C166.549 192.111 166.539 192.142 166.53 192.174C164.426 192.385 160.091 192.567 155.182 192.114Z" fill="url(#paint49_linear_685_2387)"/>
<path d="M166.532 192.174C166.425 192.568 166.124 192.878 165.734 192.962C162.747 193.604 157.974 193.196 155.97 192.979C155.528 192.932 155.198 192.55 155.184 192.114C160.092 192.567 164.428 192.385 166.532 192.174Z" fill="url(#paint50_linear_685_2387)"/>
<path d="M166.339 180.374L165.341 185.32C165.268 185.682 164.979 185.957 164.625 185.994C164.191 186.039 163.572 186.071 162.948 185.994C162.389 185.925 161.991 185.394 162.08 184.817L162.757 180.428L166.339 180.374Z" fill="url(#paint51_linear_685_2387)"/>
<path d="M144.121 192.467C146.941 192.349 148.395 192.012 149.144 191.709C149.151 191.974 149.154 192.245 149.15 192.525C149.145 192.824 148.915 193.066 148.627 193.069L133.135 193.21C132.64 193.215 132.342 192.677 132.549 192.244C134.583 192.372 139.762 192.649 144.121 192.467Z" fill="url(#paint52_linear_685_2387)"/>
<path d="M132.55 192.245C132.568 192.207 132.584 192.169 132.61 192.133C133.947 190.303 137.37 186.648 144.229 184.98L147.53 184.831C147.53 184.831 149.042 187.228 149.146 191.709C148.396 192.013 146.943 192.349 144.122 192.467C139.763 192.649 134.584 192.373 132.55 192.245Z" fill="url(#paint53_linear_685_2387)"/>
<path d="M148.063 180.084C148.03 180.317 147.637 183.866 147.486 185.241C147.449 185.568 147.204 185.825 146.89 185.865C146.328 185.937 145.419 186.009 144.62 185.867C144.189 185.79 143.872 185.404 143.864 184.95L143.77 179.391L148.063 180.084Z" fill="url(#paint54_linear_685_2387)"/>
<path d="M149.614 115.413C149.614 115.413 142.135 144.188 142.893 180.245C142.907 180.902 143.404 181.462 144.086 181.587C145.091 181.772 146.568 181.986 147.786 181.935C148.436 181.908 148.972 181.443 149.072 180.834C150.083 174.617 155.899 139.593 159.455 133.867C159.455 133.867 162.388 164.937 161.894 181.088C161.882 181.49 162.198 181.833 162.621 181.873C163.261 181.933 164.285 181.97 165.585 181.82C166.079 181.762 166.472 181.403 166.534 180.936C167.241 175.677 171.289 144.374 170.711 121.878C170.679 120.61 167.05 115.147 167.05 115.147L149.614 115.413Z" fill="url(#paint55_linear_685_2387)"/>
<path d="M137.941 80.9029C139.208 79.3493 140.313 77.6878 141.232 75.9793C142.515 73.5929 141.364 77.5094 141.68 74.8318C151.475 67.9127 166.455 71.1109 172.239 71.7111C174.135 71.908 175.881 72.7646 177.152 74.1116C182.19 79.4535 193.296 94.1193 180.775 109.259C179.126 108.425 176.779 107.083 175.174 105.513C176.524 101.721 176.557 96.9008 173.495 91.0371C173.402 91.5069 173.284 91.9725 173.14 92.4312C169.266 104.734 169.221 114.923 169.27 117.271C169.277 117.59 169.08 117.88 168.769 118.003C163.431 120.123 153.068 119.068 149.587 118.631C148.949 118.551 148.512 117.996 148.589 117.392C150.094 105.682 141.022 86.5957 138.631 81.8169C138.459 81.4731 138.224 81.1649 137.941 80.9029Z" fill="url(#paint56_linear_685_2387)"/>
<path d="M162.785 62.0145L163.991 72.0116C163.991 72.0116 158.068 73.7989 153.69 70.9743L156.578 61.8276L162.785 62.0145Z" fill="url(#paint57_linear_685_2387)"/>
<path d="M155.687 50.7068C155.545 50.8366 149.83 61.8961 149.83 61.8961L156.572 64.8505L163.634 55.13C163.634 55.13 158.048 48.5339 155.687 50.7068Z" fill="url(#paint58_linear_685_2387)"/>
<path d="M160.678 55.4416C160.802 55.7319 160.779 56.0585 160.613 56.3298L157.366 61.6444C157.317 61.725 157.258 61.7981 157.187 61.8627C156.796 62.2186 155.454 63.257 154.38 61.8875C153.464 60.7203 152.606 59.6595 151.698 59.2305C151.168 58.9799 150.525 59.1963 150.266 59.7009C149.734 60.7404 148.705 62.8586 148.07 64.8619C147.911 65.364 148.193 65.8963 148.709 66.0853C150.073 66.584 152.766 67.4825 155.147 67.7566C155.538 67.8017 155.922 67.6399 156.149 67.3353C157.148 65.9945 159.966 62.2472 160.933 61.3053C161.832 60.4301 163.524 60.7292 164.287 60.9242C164.576 60.9983 164.883 60.9557 165.137 60.8053C165.9 60.3542 167.227 59.2397 165.965 57.406C165.651 56.9502 165.797 56.3342 166.272 56.028C167.123 55.4792 168.04 54.4593 167.123 52.8445C166.194 51.2097 164.583 51.0863 163.49 51.2296C163.006 51.2931 162.51 51.06 162.317 50.6357C162.231 50.4469 162.065 50.2874 161.759 50.2335C161.184 50.1321 160.798 49.6409 160.902 49.0952C161.079 48.1594 160.913 46.9498 159.325 46.1549C156.413 44.6969 153.927 47.1827 153.319 49.2584C152.711 51.3341 155.963 52.7448 157.997 52.9575C159.492 53.1137 160.335 54.6415 160.678 55.4416Z" fill="url(#paint59_linear_685_2387)"/>
<path d="M159.713 63.2568C159.713 63.2568 160.936 59.683 162.581 59.7884C164.226 59.8938 165.545 61.4231 163.539 63.1953C161.043 65.4 159.713 63.2568 159.713 63.2568Z" fill="url(#paint60_linear_685_2387)"/>
<path d="M174.021 90.1136C176.091 84.4717 175.19 77.7107 175.181 77.6431L174.586 77.7167C174.595 77.7832 175.477 84.4144 173.454 89.9271L174.021 90.1136Z" fill="url(#paint61_linear_685_2387)"/>
<path d="M159.734 133.132C159.868 133.13 159.988 133.043 160.021 132.915C160.641 130.493 165.543 127.767 165.592 127.74C165.735 127.661 165.784 127.487 165.7 127.351C165.617 127.216 165.434 127.169 165.29 127.249C165.079 127.365 160.117 130.124 159.437 132.781C159.398 132.933 159.497 133.087 159.658 133.124C159.684 133.13 159.709 133.132 159.734 133.132Z" fill="url(#paint62_linear_685_2387)"/>
<path d="M117.878 84.3589C129.113 85.7797 136.304 78.9753 141.678 74.8323C148.774 69.3624 154.411 71.8849 154.411 71.8849L146.982 85.8456C135.71 96.2337 123.936 94.1444 116.482 90.9475C116.322 88.2753 117.039 86.026 117.878 84.3589Z" fill="url(#paint63_linear_685_2387)"/>
<path d="M102.018 78.2705L105.767 80.1068C110.269 82.6074 114.28 83.9039 117.879 84.3588C117.04 86.0258 116.323 88.2751 116.483 90.9473C111.737 88.9123 108.742 86.4284 108.742 86.4284C100.241 81.8051 102.018 78.2705 102.018 78.2705Z" fill="url(#paint64_linear_685_2387)"/>
<path d="M91.1547 83.3937C91.3819 82.6352 91.9612 82.0154 92.7291 81.7095L100.223 78.7236C100.223 78.7236 100.322 77.8063 98.6034 77.2102C96.8852 76.614 97.2536 74.7979 97.2536 74.7979C97.2536 74.7979 99.6036 75.7695 103.046 77.3149C105.015 78.1987 106.138 79.795 106.74 81.0003L104.84 83.4468C100.213 84.8396 95.513 85.164 90.7598 84.712L91.1547 83.3937Z" fill="url(#paint65_linear_685_2387)"/>
<path d="M143.679 39.742L151.503 47.6108V37.0127L143.679 39.742Z" fill="url(#paint66_linear_685_2387)"/>
<path d="M149.285 40.3913L104.29 38.1638C103.18 38.1088 102.308 37.2024 102.308 36.1029V23.9889C102.308 22.8305 103.272 21.8991 104.443 21.9259L149.438 22.9564C150.572 22.9824 151.477 23.8984 151.477 25.0194V38.3303C151.477 39.5105 150.478 40.4503 149.285 40.3913Z" fill="url(#paint67_linear_685_2387)"/>
<path d="M148.104 39.2323L104.76 37.2508C103.69 37.2019 102.85 36.3956 102.85 35.4175V24.6418C102.85 23.6114 103.778 22.7828 104.907 22.8067L148.251 23.7233C149.343 23.7464 150.215 24.5612 150.215 25.5584V37.399C150.215 38.4488 149.252 39.2847 148.104 39.2323Z" fill="#7D97F4"/>
<defs>
<linearGradient id="paint0_linear_685_2387" x1="222.051" y1="223.586" x2="86.9822" y2="71.6645" gradientUnits="userSpaceOnUse">
<stop stop-color="#DAE3FE"/>
<stop offset="1" stop-color="#E9EFFD"/>
</linearGradient>
<linearGradient id="paint1_linear_685_2387" x1="158.116" y1="19.4286" x2="183.033" y2="19.4286" gradientUnits="userSpaceOnUse">
<stop stop-color="#FEBBBA"/>
<stop offset="1" stop-color="#FF928E"/>
</linearGradient>
<linearGradient id="paint2_linear_685_2387" x1="153.648" y1="1.40688" x2="155.934" y2="1.40688" gradientUnits="userSpaceOnUse">
<stop stop-color="#FEBBBA"/>
<stop offset="1" stop-color="#FF928E"/>
</linearGradient>
<linearGradient id="paint3_linear_685_2387" x1="136.939" y1="10.47" x2="138.832" y2="10.47" gradientUnits="userSpaceOnUse">
<stop stop-color="#FEBBBA"/>
<stop offset="1" stop-color="#FF928E"/>
</linearGradient>
<linearGradient id="paint4_linear_685_2387" x1="132.14" y1="30.8972" x2="158.288" y2="30.8972" gradientUnits="userSpaceOnUse">
<stop stop-color="#FEBBBA"/>
<stop offset="1" stop-color="#FF928E"/>
</linearGradient>
<linearGradient id="paint5_linear_685_2387" x1="160.407" y1="47.9279" x2="162.688" y2="47.9279" gradientUnits="userSpaceOnUse">
<stop stop-color="#FEBBBA"/>
<stop offset="1" stop-color="#FF928E"/>
</linearGradient>
<linearGradient id="paint6_linear_685_2387" x1="139.075" y1="24.5692" x2="176.27" y2="24.5692" gradientUnits="userSpaceOnUse">
<stop stop-color="#FEBBBA"/>
<stop offset="1" stop-color="#FF928E"/>
</linearGradient>
<linearGradient id="paint7_linear_685_2387" x1="159.633" y1="18.876" x2="184.31" y2="-61.1059" gradientUnits="userSpaceOnUse">
<stop stop-color="#FEBBBA"/>
<stop offset="1" stop-color="#FF928E"/>
</linearGradient>
<linearGradient id="paint8_linear_685_2387" x1="159.582" y1="18.8597" x2="184.259" y2="-61.1219" gradientUnits="userSpaceOnUse">
<stop stop-color="#FEBBBA"/>
<stop offset="1" stop-color="#FF928E"/>
</linearGradient>
<linearGradient id="paint9_linear_685_2387" x1="177.585" y1="53.2226" x2="203.733" y2="53.2226" gradientUnits="userSpaceOnUse">
<stop stop-color="#FEBBBA"/>
<stop offset="1" stop-color="#FF928E"/>
</linearGradient>
<linearGradient id="paint10_linear_685_2387" x1="173.919" y1="41.0319" x2="175.82" y2="41.0319" gradientUnits="userSpaceOnUse">
<stop stop-color="#FEBBBA"/>
<stop offset="1" stop-color="#FF928E"/>
</linearGradient>
<linearGradient id="paint11_linear_685_2387" x1="162.04" y1="51.6992" x2="163.479" y2="51.6992" gradientUnits="userSpaceOnUse">
<stop stop-color="#FEBBBA"/>
<stop offset="1" stop-color="#FF928E"/>
</linearGradient>
<linearGradient id="paint12_linear_685_2387" x1="160.384" y1="67.2509" x2="187.55" y2="67.2509" gradientUnits="userSpaceOnUse">
<stop stop-color="#FEBBBA"/>
<stop offset="1" stop-color="#FF928E"/>
</linearGradient>
<linearGradient id="paint13_linear_685_2387" x1="189.227" y1="78.3112" x2="191.113" y2="78.3112" gradientUnits="userSpaceOnUse">
<stop stop-color="#FEBBBA"/>
<stop offset="1" stop-color="#FF928E"/>
</linearGradient>
<linearGradient id="paint14_linear_685_2387" x1="165.725" y1="59.684" x2="198.451" y2="59.684" gradientUnits="userSpaceOnUse">
<stop stop-color="#FEBBBA"/>
<stop offset="1" stop-color="#FF928E"/>
</linearGradient>
<linearGradient id="paint15_linear_685_2387" x1="192.639" y1="29.0585" x2="217.316" y2="-50.9231" gradientUnits="userSpaceOnUse">
<stop stop-color="#FEBBBA"/>
<stop offset="1" stop-color="#FF928E"/>
</linearGradient>
<linearGradient id="paint16_linear_685_2387" x1="192.581" y1="29.0406" x2="217.258" y2="-50.9413" gradientUnits="userSpaceOnUse">
<stop stop-color="#FEBBBA"/>
<stop offset="1" stop-color="#FF928E"/>
</linearGradient>
<linearGradient id="paint17_linear_685_2387" x1="91.1635" y1="56.7983" x2="67.9824" y2="96.0523" gradientUnits="userSpaceOnUse">
<stop stop-color="#FEBBBA"/>
<stop offset="1" stop-color="#FF928E"/>
</linearGradient>
<linearGradient id="paint18_linear_685_2387" x1="21.4224" y1="53.2909" x2="45.9212" y2="70.5495" gradientUnits="userSpaceOnUse">
<stop stop-color="#09005D"/>
<stop offset="1" stop-color="#1A0F91"/>
</linearGradient>
<linearGradient id="paint19_linear_685_2387" x1="90.4639" y1="63.842" x2="21.3" y2="135.332" gradientUnits="userSpaceOnUse">
<stop stop-color="#4F52FF"/>
<stop offset="1" stop-color="#4042E2"/>
</linearGradient>
<linearGradient id="paint20_linear_685_2387" x1="60.2216" y1="83.1582" x2="55.927" y2="73.0808" gradientUnits="userSpaceOnUse">
<stop stop-color="#FEBBBA"/>
<stop offset="1" stop-color="#FF928E"/>
</linearGradient>
<linearGradient id="paint21_linear_685_2387" x1="60.4626" y1="59.0981" x2="51.7404" y2="79.0506" gradientUnits="userSpaceOnUse">
<stop stop-color="#FEBBBA"/>
<stop offset="1" stop-color="#FF928E"/>
</linearGradient>
<linearGradient id="paint22_linear_685_2387" x1="28.2404" y1="43.609" x2="52.7397" y2="60.868" gradientUnits="userSpaceOnUse">
<stop stop-color="#09005D"/>
<stop offset="1" stop-color="#1A0F91"/>
</linearGradient>
<linearGradient id="paint23_linear_685_2387" x1="55.9677" y1="57.1319" x2="47.2455" y2="77.0844" gradientUnits="userSpaceOnUse">
<stop stop-color="#FEBBBA"/>
<stop offset="1" stop-color="#FF928E"/>
</linearGradient>
<linearGradient id="paint24_linear_685_2387" x1="33.7904" y1="206.448" x2="66.0134" y2="144.994" gradientUnits="userSpaceOnUse">
<stop stop-color="#FEBBBA"/>
<stop offset="1" stop-color="#FF928E"/>
</linearGradient>
<linearGradient id="paint25_linear_685_2387" x1="41.3596" y1="185.297" x2="51.7922" y2="185.192" gradientUnits="userSpaceOnUse">
<stop stop-color="#09005D"/>
<stop offset="1" stop-color="#1A0F91"/>
</linearGradient>
<linearGradient id="paint26_linear_685_2387" x1="73.7942" y1="161.973" x2="21.1809" y2="180.334" gradientUnits="userSpaceOnUse">
<stop stop-color="#FEBBBA"/>
<stop offset="1" stop-color="#FF928E"/>
</linearGradient>
<linearGradient id="paint27_linear_685_2387" x1="51.0478" y1="186.992" x2="63.4844" y2="186.867" gradientUnits="userSpaceOnUse">
<stop stop-color="#09005D"/>
<stop offset="1" stop-color="#1A0F91"/>
</linearGradient>
<linearGradient id="paint28_linear_685_2387" x1="67.2364" y1="107.68" x2="40.6689" y2="171.881" gradientUnits="userSpaceOnUse">
<stop stop-color="#09005D"/>
<stop offset="1" stop-color="#1A0F91"/>
</linearGradient>
<linearGradient id="paint29_linear_685_2387" x1="37.161" y1="113.959" x2="83.7354" y2="40.9952" gradientUnits="userSpaceOnUse">
<stop stop-color="#FEBBBA"/>
<stop offset="1" stop-color="#FF928E"/>
</linearGradient>
<linearGradient id="paint30_linear_685_2387" x1="158.492" y1="215.196" x2="-11.6683" y2="72.8742" gradientUnits="userSpaceOnUse">
<stop stop-color="#4F52FF"/>
<stop offset="1" stop-color="#4042E2"/>
</linearGradient>
<linearGradient id="paint31_linear_685_2387" x1="169.075" y1="202.546" x2="-1.08557" y2="60.2234" gradientUnits="userSpaceOnUse">
<stop stop-color="#4F52FF"/>
<stop offset="1" stop-color="#4042E2"/>
</linearGradient>
<linearGradient id="paint32_linear_685_2387" x1="221.258" y1="-134.38" x2="172.025" y2="-60.2039" gradientUnits="userSpaceOnUse">
<stop stop-color="#FF928E"/>
<stop offset="1" stop-color="#FE7062"/>
</linearGradient>
<linearGradient id="paint33_linear_685_2387" x1="232.555" y1="-126.881" x2="183.322" y2="-52.7045" gradientUnits="userSpaceOnUse">
<stop stop-color="#FF928E"/>
<stop offset="1" stop-color="#FE7062"/>
</linearGradient>
<linearGradient id="paint34_linear_685_2387" x1="95.9771" y1="58.747" x2="112.559" y2="-23.2486" gradientUnits="userSpaceOnUse">
<stop stop-color="#FEBBBA"/>
<stop offset="1" stop-color="#FF928E"/>
</linearGradient>
<linearGradient id="paint35_linear_685_2387" x1="43.9726" y1="51.1897" x2="55.681" y2="17.9495" gradientUnits="userSpaceOnUse">
<stop stop-color="#4F52FF"/>
<stop offset="1" stop-color="#4042E2"/>
</linearGradient>
<linearGradient id="paint36_linear_685_2387" x1="66.6404" y1="19.9927" x2="67.3242" y2="18.0513" gradientUnits="userSpaceOnUse">
<stop stop-color="#4F52FF"/>
<stop offset="1" stop-color="#4042E2"/>
</linearGradient>
<linearGradient id="paint37_linear_685_2387" x1="55.076" y1="4.59226" x2="55.5453" y2="3.26003" gradientUnits="userSpaceOnUse">
<stop stop-color="#4F52FF"/>
<stop offset="1" stop-color="#4042E2"/>
</linearGradient>
<linearGradient id="paint38_linear_685_2387" x1="26.6033" y1="31.2314" x2="38.6632" y2="-3.00673" gradientUnits="userSpaceOnUse">
<stop stop-color="#4F52FF"/>
<stop offset="1" stop-color="#4042E2"/>
</linearGradient>
<linearGradient id="paint39_linear_685_2387" x1="17.7458" y1="31.9492" x2="18.4209" y2="30.0326" gradientUnits="userSpaceOnUse">
<stop stop-color="#4F52FF"/>
<stop offset="1" stop-color="#4042E2"/>
</linearGradient>
<linearGradient id="paint40_linear_685_2387" x1="143.529" y1="3.22666" x2="-87.2053" y2="57.6137" gradientUnits="userSpaceOnUse">
<stop stop-color="#4F52FF"/>
<stop offset="1" stop-color="#4042E2"/>
</linearGradient>
<linearGradient id="paint41_linear_685_2387" x1="7.41327" y1="60.5382" x2="7.74703" y2="59.5907" gradientUnits="userSpaceOnUse">
<stop stop-color="#4F52FF"/>
<stop offset="1" stop-color="#4042E2"/>
</linearGradient>
<linearGradient id="paint42_linear_685_2387" x1="18.37" y1="64.8282" x2="24.9108" y2="46.2589" gradientUnits="userSpaceOnUse">
<stop stop-color="#4F52FF"/>
<stop offset="1" stop-color="#4042E2"/>
</linearGradient>
<linearGradient id="paint43_linear_685_2387" x1="3.01619" y1="50.1039" x2="10.4816" y2="28.9096" gradientUnits="userSpaceOnUse">
<stop stop-color="#4F52FF"/>
<stop offset="1" stop-color="#4042E2"/>
</linearGradient>
<linearGradient id="paint44_linear_685_2387" x1="0.727715" y1="51.9163" x2="1.23829" y2="50.4667" gradientUnits="userSpaceOnUse">
<stop stop-color="#4F52FF"/>
<stop offset="1" stop-color="#4042E2"/>
</linearGradient>
<linearGradient id="paint45_linear_685_2387" x1="147.383" y1="19.5765" x2="-83.3507" y2="73.9636" gradientUnits="userSpaceOnUse">
<stop stop-color="#4F52FF"/>
<stop offset="1" stop-color="#4042E2"/>
</linearGradient>
<linearGradient id="paint46_linear_685_2387" x1="253.411" y1="465.241" x2="238.539" y2="413.002" gradientUnits="userSpaceOnUse">
<stop stop-color="#FF928E"/>
<stop offset="1" stop-color="#FE7062"/>
</linearGradient>
<linearGradient id="paint47_linear_685_2387" x1="205.991" y1="276.184" x2="180.953" y2="227.51" gradientUnits="userSpaceOnUse">
<stop stop-color="#FF928E"/>
<stop offset="1" stop-color="#FE7062"/>
</linearGradient>
<linearGradient id="paint48_linear_685_2387" x1="180.839" y1="112.932" x2="165.46" y2="113.193" gradientUnits="userSpaceOnUse">
<stop stop-color="#FEBBBA"/>
<stop offset="1" stop-color="#FF928E"/>
</linearGradient>
<linearGradient id="paint49_linear_685_2387" x1="166.648" y1="188.052" x2="155.116" y2="188.248" gradientUnits="userSpaceOnUse">
<stop stop-color="#09005D"/>
<stop offset="1" stop-color="#1A0F91"/>
</linearGradient>
<linearGradient id="paint50_linear_685_2387" x1="137.56" y1="175.616" x2="178.31" y2="208.318" gradientUnits="userSpaceOnUse">
<stop stop-color="#53D8FF"/>
<stop offset="1" stop-color="#3840F7"/>
</linearGradient>
<linearGradient id="paint51_linear_685_2387" x1="163.23" y1="175.675" x2="165.484" y2="193.869" gradientUnits="userSpaceOnUse">
<stop stop-color="#FEBBBA"/>
<stop offset="1" stop-color="#FF928E"/>
</linearGradient>
<linearGradient id="paint52_linear_685_2387" x1="130.258" y1="184.713" x2="171.007" y2="217.414" gradientUnits="userSpaceOnUse">
<stop stop-color="#53D8FF"/>
<stop offset="1" stop-color="#3840F7"/>
</linearGradient>
<linearGradient id="paint53_linear_685_2387" x1="149.093" y1="188.611" x2="132.493" y2="188.893" gradientUnits="userSpaceOnUse">
<stop stop-color="#09005D"/>
<stop offset="1" stop-color="#1A0F91"/>
</linearGradient>
<linearGradient id="paint54_linear_685_2387" x1="145.32" y1="177.895" x2="147.575" y2="196.088" gradientUnits="userSpaceOnUse">
<stop stop-color="#FEBBBA"/>
<stop offset="1" stop-color="#FF928E"/>
</linearGradient>
<linearGradient id="paint55_linear_685_2387" x1="117.732" y1="95.0908" x2="184.566" y2="200.888" gradientUnits="userSpaceOnUse">
<stop stop-color="#09005D"/>
<stop offset="1" stop-color="#1A0F91"/>
</linearGradient>
<linearGradient id="paint56_linear_685_2387" x1="-297.723" y1="-504.949" x2="-247.282" y2="-431.497" gradientUnits="userSpaceOnUse">
<stop stop-color="#FF928E"/>
<stop offset="1" stop-color="#FE7062"/>
</linearGradient>
<linearGradient id="paint57_linear_685_2387" x1="156.384" y1="59.4326" x2="164.491" y2="93.9135" gradientUnits="userSpaceOnUse">
<stop stop-color="#FEBBBA"/>
<stop offset="1" stop-color="#FF928E"/>
</linearGradient>
<linearGradient id="paint58_linear_685_2387" x1="157.666" y1="52.7512" x2="154.296" y2="75.9581" gradientUnits="userSpaceOnUse">
<stop stop-color="#FEBBBA"/>
<stop offset="1" stop-color="#FF928E"/>
</linearGradient>
<linearGradient id="paint59_linear_685_2387" x1="162.21" y1="63.6133" x2="150.486" y2="50.8704" gradientUnits="userSpaceOnUse">
<stop stop-color="#09005D"/>
<stop offset="1" stop-color="#1A0F91"/>
</linearGradient>
<linearGradient id="paint60_linear_685_2387" x1="161.69" y1="77.897" x2="162.104" y2="61.6715" gradientUnits="userSpaceOnUse">
<stop stop-color="#FEBBBA"/>
<stop offset="1" stop-color="#FF928E"/>
</linearGradient>
<linearGradient id="paint61_linear_685_2387" x1="298.21" y1="-83.3015" x2="248.977" y2="-9.12494" gradientUnits="userSpaceOnUse">
<stop stop-color="#FF928E"/>
<stop offset="1" stop-color="#FE7062"/>
</linearGradient>
<linearGradient id="paint62_linear_685_2387" x1="157.717" y1="122.272" x2="163.308" y2="132.401" gradientUnits="userSpaceOnUse">
<stop stop-color="#09005D"/>
<stop offset="1" stop-color="#1A0F91"/>
</linearGradient>
<linearGradient id="paint63_linear_685_2387" x1="-308.451" y1="-497.585" x2="-258.01" y2="-424.133" gradientUnits="userSpaceOnUse">
<stop stop-color="#FF928E"/>
<stop offset="1" stop-color="#FE7062"/>
</linearGradient>
<linearGradient id="paint64_linear_685_2387" x1="90.3104" y1="59.5995" x2="139.385" y2="123.782" gradientUnits="userSpaceOnUse">
<stop stop-color="#FEBBBA"/>
<stop offset="1" stop-color="#FF928E"/>
</linearGradient>
<linearGradient id="paint65_linear_685_2387" x1="83.5102" y1="64.7993" x2="132.585" y2="128.982" gradientUnits="userSpaceOnUse">
<stop stop-color="#FEBBBA"/>
<stop offset="1" stop-color="#FF928E"/>
</linearGradient>
<linearGradient id="paint66_linear_685_2387" x1="44.5527" y1="-44.4022" x2="152.387" y2="53.2053" gradientUnits="userSpaceOnUse">
<stop stop-color="#4F52FF"/>
<stop offset="1" stop-color="#4042E2"/>
</linearGradient>
<linearGradient id="paint67_linear_685_2387" x1="40.2718" y1="-39.6696" x2="148.106" y2="57.9377" gradientUnits="userSpaceOnUse">
<stop stop-color="#4F52FF"/>
<stop offset="1" stop-color="#4042E2"/>
</linearGradient>
</defs>
</svg>
