<svg width="190" height="135" viewBox="0 0 190 135" fill="none" xmlns="http://www.w3.org/2000/svg">
<path opacity="0.4" d="M95.6129 106.431C101.226 106.431 105.776 101.881 105.776 96.2677C105.776 90.6547 101.226 86.1045 95.6129 86.1045C89.9999 86.1045 85.4497 90.6547 85.4497 96.2677C85.4497 101.881 89.9999 106.431 95.6129 106.431Z" fill="#E5E5FF"/>
<path d="M76.793 111.175C76.6862 111.175 76.5797 111.174 76.4733 111.172L76.4781 110.88C76.9601 110.887 77.4498 110.877 77.93 110.849L77.9471 111.141C77.5656 111.163 77.1773 111.175 76.793 111.175ZM75.0019 111.094C74.5135 111.049 74.0216 110.986 73.5403 110.905L73.5887 110.616C74.063 110.696 74.5474 110.758 75.0285 110.802L75.0019 111.094ZM79.414 111L79.375 110.71C79.8533 110.646 80.3345 110.562 80.8055 110.462L80.8663 110.749C80.3882 110.85 79.8995 110.935 79.414 111ZM72.0969 110.606C71.621 110.488 71.1444 110.351 70.6804 110.198L70.772 109.92C71.229 110.07 71.6984 110.206 72.167 110.322L72.0969 110.606ZM82.2954 110.388L82.2129 110.107C82.6755 109.971 83.1386 109.816 83.5893 109.646L83.6929 109.919C83.2353 110.092 82.7651 110.25 82.2954 110.388ZM69.2977 109.683C68.8457 109.494 68.3949 109.286 67.9584 109.064L68.0912 108.803C68.5212 109.022 68.965 109.227 69.4103 109.412L69.2977 109.683ZM85.0496 109.346L84.9255 109.081C85.3619 108.877 85.7959 108.653 86.2155 108.417L86.3593 108.672C85.9333 108.912 85.4926 109.139 85.0496 109.346ZM66.6701 108.346C66.2524 108.092 65.8384 107.818 65.44 107.532L65.6106 107.294C66.0031 107.576 66.4107 107.845 66.8222 108.095L66.6701 108.346ZM87.6143 107.9L87.4517 107.657C87.8529 107.388 88.2484 107.102 88.6276 106.805L88.808 107.036C88.4231 107.337 88.0216 107.628 87.6143 107.9ZM64.2749 106.628C63.8996 106.314 63.5316 105.982 63.1812 105.64L63.3856 105.43C63.7308 105.767 64.0932 106.094 64.463 106.404L64.2749 106.628ZM89.9335 106.084L89.7363 105.868C90.092 105.544 90.4405 105.201 90.7717 104.85L90.9846 105.051C90.6484 105.407 90.2947 105.755 89.9335 106.084ZM62.1648 104.572C61.8408 104.205 61.5269 103.822 61.2317 103.432L61.465 103.255C61.7558 103.639 62.0652 104.017 62.3843 104.379L62.1648 104.572ZM91.9552 103.941L91.7278 103.757C92.032 103.381 92.3251 102.99 92.5991 102.595L92.8398 102.761C92.5616 103.163 92.2641 103.56 91.9552 103.941ZM60.387 102.224C60.1214 101.812 59.8689 101.386 59.6362 100.956L59.8935 100.817C60.1226 101.24 60.3715 101.66 60.6331 102.065L60.387 102.224ZM93.633 101.518L93.3805 101.37C93.6244 100.954 93.8556 100.523 94.0671 100.089L94.3301 100.218C94.1153 100.658 93.8808 101.095 93.633 101.518ZM58.9834 99.6358C58.7834 99.1895 58.5981 98.73 58.4328 98.2701L58.7083 98.1711C58.8712 98.6239 59.0536 99.0765 59.2506 99.5162L58.9834 99.6358ZM94.9268 98.8686L94.6547 98.7604C94.8328 98.3124 94.9959 97.8514 95.1396 97.3904L95.4191 97.4775C95.2732 97.9458 95.1076 98.4138 94.9268 98.8686ZM57.9872 96.865C57.8572 96.3933 57.7436 95.9105 57.65 95.43L57.9373 95.3739C58.0297 95.847 58.1415 96.3226 58.2695 96.7871L57.9872 96.865ZM95.8035 96.0545L95.518 95.9891C95.6259 95.5197 95.717 95.04 95.789 94.5628L96.0786 94.6065C96.0055 95.091 95.9129 95.5782 95.8035 96.0545ZM57.4223 93.9741C57.3652 93.4887 57.3257 92.9945 57.3051 92.5051L57.5976 92.4929C57.6179 92.9749 57.6566 93.4617 57.713 93.9398L57.4223 93.9741ZM96.2436 93.1419L95.9518 93.1202C95.9875 92.641 96.0056 92.1528 96.0056 91.6693H96.2984C96.2984 92.1602 96.2799 92.6556 96.2436 93.1419ZM96.0045 91.4739C95.9998 90.9908 95.9767 90.5029 95.9361 90.0235L96.2276 89.9988C96.2691 90.4853 96.2924 90.9807 96.2972 91.4709L96.0045 91.4739ZM57.5905 91.0404L57.2979 91.031C57.3137 90.5408 57.3481 90.0463 57.4003 89.5608L57.6913 89.5922C57.6398 90.0703 57.6059 90.5576 57.5905 91.0404ZM95.759 88.5828C95.6822 88.1066 95.586 87.6277 95.4734 87.1595L95.7582 87.0911C95.8725 87.5664 95.9701 88.0526 96.0482 88.5362L95.759 88.5828ZM57.9008 88.1557L57.613 88.1024C57.7021 87.6205 57.8106 87.1367 57.9357 86.6642L58.2187 86.7392C58.0955 87.2045 57.9886 87.6809 57.9008 88.1557ZM95.0801 85.7618C94.9321 85.3036 94.7646 84.8448 94.5818 84.3983L94.8529 84.2874C95.0383 84.7407 95.2085 85.2067 95.3587 85.6719L95.0801 85.7618ZM58.6434 85.3509L58.367 85.2547C58.5281 84.7919 58.7091 84.3296 58.9048 83.8808L59.1732 83.9979C58.9803 84.4398 58.8021 84.8949 58.6434 85.3509ZM93.9819 83.0775C93.7666 82.6475 93.5316 82.2196 93.2836 81.8057L93.5346 81.6552C93.7864 82.0754 94.025 82.5099 94.2438 82.9464L93.9819 83.0775ZM59.804 82.6888L59.5453 82.5518C59.7746 82.1189 60.0234 81.6896 60.2846 81.2757L60.5321 81.4319C60.2749 81.8395 60.03 82.2625 59.804 82.6888ZM92.4908 80.5898C92.2123 80.196 91.9156 79.8081 91.6087 79.437L91.8343 79.2503C92.1458 79.6273 92.4471 80.021 92.7298 80.4207L92.4908 80.5898ZM61.3531 80.2334L61.118 80.0589C61.4097 79.6658 61.7201 79.2788 62.0405 78.9088L62.2618 79.1004C61.9462 79.4647 61.6405 79.846 61.3531 80.2334ZM90.6424 78.3532C90.3081 78.0057 89.9564 77.6666 89.5972 77.3453L89.7924 77.1271C90.157 77.4532 90.5141 77.7976 90.8534 78.1504L90.6424 78.3532ZM63.2529 78.039L63.0466 77.8313C63.3939 77.4863 63.7587 77.1502 64.1307 76.8326L64.3207 77.0551C63.9543 77.368 63.5951 77.6989 63.2529 78.039ZM88.479 76.4183C88.0967 76.125 87.6981 75.8422 87.2942 75.578L87.4544 75.333C87.8645 75.6012 88.2692 75.8882 88.6573 76.1861L88.479 76.4183ZM65.4593 76.1543L65.2863 75.918C65.6811 75.6291 66.0918 75.3517 66.5074 75.0932L66.662 75.3418C66.2527 75.5964 65.848 75.8697 65.4593 76.1543ZM86.0492 74.8294C85.6261 74.5965 85.1893 74.3771 84.7508 74.1773L84.8722 73.9109C85.3173 74.1137 85.7608 74.3367 86.1904 74.5731L86.0492 74.8294ZM67.9226 74.6227L67.7873 74.3631C68.2216 74.1367 68.6693 73.9245 69.1181 73.7321L69.2334 74.0013C68.7913 74.1905 68.3503 74.3998 67.9226 74.6227ZM83.4064 73.6255C82.9537 73.4594 82.489 73.3089 82.0253 73.178L82.105 72.8962C82.5758 73.0293 83.0475 73.1821 83.5073 73.3507L83.4064 73.6255ZM70.5871 73.4811L70.4926 73.2042C70.9556 73.0462 71.4307 72.9041 71.9049 72.7818L71.978 73.0652C71.511 73.1856 71.0431 73.3256 70.5871 73.4811ZM80.6143 72.837C80.1433 72.7418 79.6612 72.6633 79.1815 72.6038L79.2175 72.3134C79.7047 72.3739 80.194 72.4534 80.6724 72.5501L80.6143 72.837ZM73.3963 72.7561L73.3449 72.4679C73.825 72.3823 74.3161 72.3137 74.8046 72.2641L74.8342 72.5553C74.3531 72.6043 73.8693 72.6719 73.3963 72.7561ZM77.7351 72.4795C77.2526 72.4562 76.7635 72.451 76.2831 72.4636L76.2753 72.1708C76.7632 72.1583 77.2595 72.1634 77.7491 72.187L77.7351 72.4795Z" fill="#9192FF"/>
<path d="M11.6789 58.421C9.33834 58.421 7.43408 56.5168 7.43408 54.1762C7.43408 51.8356 9.33834 49.9314 11.6789 49.9314C14.0195 49.9314 15.9237 51.8356 15.9237 54.1762C15.9237 56.5169 14.0195 58.421 11.6789 58.421ZM11.6789 50.5169C9.66118 50.5169 8.01958 52.1585 8.01958 54.1762C8.01958 56.1939 9.66118 57.8355 11.6789 57.8355C13.6966 57.8355 15.3382 56.1939 15.3382 54.1762C15.3382 52.1585 13.6966 50.5169 11.6789 50.5169Z" fill="#9192FF"/>
<path d="M153.661 3.89331H31.9961V93.8439H153.661V3.89331Z" fill="white"/>
<path d="M153.954 94.1371H31.7036V3.60095H153.954V94.1371ZM32.2891 93.5516H153.368V4.18644H32.2891V93.5516Z" fill="#9192FF"/>
<path d="M50.3777 64.6281H40.4243V83.8898H50.3777V64.6281Z" fill="#D1D1FF"/>
<path d="M66.1873 55.0237H56.2339V83.8906H66.1873V55.0237Z" fill="#D1D1FF"/>
<path d="M81.9949 35.2131H72.0415V83.8912H81.9949V35.2131Z" fill="#D1D1FF"/>
<path d="M97.8045 49.2773H87.8511V83.8905H97.8045V49.2773Z" fill="#D1D1FF"/>
<path d="M113.612 34.0115H103.658V83.8897H113.612V34.0115Z" fill="#D1D1FF"/>
<path d="M129.421 36.6182H119.468V83.8908H129.421V36.6182Z" fill="#D1D1FF"/>
<path d="M145.228 19.3453H135.275V83.89H145.228V19.3453Z" fill="#D1D1FF"/>
<path d="M43.4282 76.2464L43.1626 75.7245L59.7871 67.2663L76.9317 43.9143L92.628 60.3439L108.764 44.2075L124.414 46.1088L140.12 28.0756L140.562 28.4602L124.651 46.7274L108.977 44.8231L92.6184 61.1815L76.9906 44.8235L60.1768 67.7251L43.4282 76.2464Z" fill="#3335CF"/>
<path d="M117.321 14.998H68.335V15.5835H117.321V14.998Z" fill="#3335CF"/>
<path d="M100.787 21.4384H84.8711V22.0238H100.787V21.4384Z" fill="#3335CF"/>
<path d="M30.0315 111.042C30.9863 106.009 30.3651 100.653 28.2888 96.0173C26.2125 91.3813 22.6928 87.4912 18.415 85.1046C20.5819 87.8531 21.1404 91.6245 21.36 95.2025C21.5795 98.7804 21.5636 102.474 22.8617 105.784C24.1599 109.093 27.2241 111.958 30.5756 111.543L30.0315 111.042Z" fill="#3335CF"/>
<path d="M30.1023 112.311C29.1474 107.278 29.7686 101.922 31.8449 97.2857C33.9212 92.6496 37.4408 88.7596 41.7187 86.3729C39.5518 89.1213 38.9933 92.8928 38.7738 96.4708C38.5542 100.049 38.5701 103.743 37.272 107.052C35.9738 110.362 32.9096 113.226 29.5581 112.811L30.1023 112.311Z" fill="#3335CF"/>
<path d="M26.2614 109.917C24.1023 106.324 23.5128 101.711 24.6918 97.6362C25.8707 93.5612 28.7968 90.0975 32.4825 88.4138C31.7069 93.567 35.5362 98.544 34.852 103.712C34.4091 107.057 31.8969 109.983 28.8026 110.757L26.2614 109.917Z" fill="#D1D1FF"/>
<path d="M27.8325 116.834C27.8233 111.699 29.5896 106.577 32.7877 102.463C35.9858 98.3487 40.5977 95.2667 45.7253 93.8168C42.8139 96.0608 41.4388 99.643 40.4709 103.106C39.5029 106.569 38.7667 110.195 36.6834 113.17C34.6001 116.145 30.6915 118.316 27.1401 117.211L27.8325 116.834Z" fill="#9192FF"/>
<path d="M29.4465 117.109C29.455 111.975 27.8333 106.852 24.8973 102.738C21.9612 98.6242 17.7271 95.5422 13.0195 94.0923C15.6924 96.3364 16.9549 99.9185 17.8435 103.381C18.7322 106.844 19.408 110.47 21.3207 113.445C23.2333 116.42 26.8217 118.591 30.0822 117.487L29.4465 117.109Z" fill="#9192FF"/>
<path d="M38.0603 134.63H19.5147L16.3262 115.319H41.2487L38.0603 134.63Z" fill="white"/>
<path d="M38.2466 134.849H19.3285L16.0674 115.099H41.5075L38.2466 134.849ZM19.7011 134.41H37.8741L40.9901 115.539H16.5851L19.7011 134.41Z" fill="#9192FF"/>
<path d="M56.803 0.29248H0.293457V44.6806H56.803V0.29248Z" fill="white"/>
<path d="M57.0962 44.9736H0.000976562V0H57.0962V44.9736ZM0.58647 44.3881H56.5107V0.585491H0.58647V44.3881Z" fill="#9192FF"/>
<path d="M20.7155 7.56335H7.97021V14.7805H20.7155V7.56335Z" fill="#D1D1FF"/>
<path d="M49.277 8.25806H26.0898V8.56521H49.277V8.25806Z" fill="#9192FF"/>
<path d="M49.277 11.0173H26.0898V11.3245H49.277V11.0173Z" fill="#D1D1FF"/>
<path d="M49.277 13.7765H26.0898V14.0836H49.277V13.7765Z" fill="#D1D1FF"/>
<path d="M16.6201 29.1792H13.9585V37.4249H16.6201V29.1792Z" fill="#D1D1FF"/>
<path d="M19.2823 25.1675H16.6206V37.4256H19.2823V25.1675Z" fill="#9192FF"/>
<path d="M26.5528 23.7799H23.8911V37.3737H26.5528V23.7799Z" fill="#D1D1FF"/>
<path d="M29.2119 32.3427H26.5503V37.3738H29.2119V32.3427Z" fill="#9192FF"/>
<path d="M36.4795 28.0011H33.8179V37.4143H36.4795V28.0011Z" fill="#D1D1FF"/>
<path d="M39.1416 25.9189H36.48V37.4137H39.1416V25.9189Z" fill="#9192FF"/>
<path d="M46.4121 30.7887H43.7505V37.3537H46.4121V30.7887Z" fill="#D1D1FF"/>
<path d="M49.0713 21.6908H46.4097V37.3536H49.0713V21.6908Z" fill="#9192FF"/>
<path d="M49.0729 37.507H8.09863V20.974H8.40578V37.1998H49.0729V37.507Z" fill="#9192FF"/>
<path d="M171.97 126.705L173.726 134.559L161.797 134.536L166.774 130.241L166.408 126.339L171.97 126.705Z" fill="#1B1B43"/>
<path d="M166.909 130.059L166.626 130.396L168.603 132.056L168.885 131.72L166.909 130.059Z" fill="#EBEBFF"/>
<path d="M148.477 126.581L149.356 134.559H136.548L142.403 130.241V126.288L148.477 126.581Z" fill="#1B1B43"/>
<path d="M142.542 130.059L142.259 130.396L144.235 132.056L144.518 131.72L142.542 130.059Z" fill="#EBEBFF"/>
<path d="M174.092 127.657L172.189 127.683L166.542 127.759L163.406 127.803C160.333 117.179 157.455 106.766 155.101 96.9272C154.639 94.998 154.197 93.0893 153.781 91.2099C152.232 84.2396 150.997 77.609 150.209 71.4642C150.04 70.1439 149.89 68.8471 149.764 67.5736C149.662 66.5578 149.574 65.5566 149.501 64.5701L163.553 66.912C163.693 68.244 163.843 69.5789 164.001 70.9226C166.117 89.064 169.733 108.13 174.092 127.657Z" fill="#3335CF"/>
<path d="M156.088 66.4731L155.643 71.2507L153.848 90.4783L153.781 91.2101L150.379 127.657H139.89C140.098 106.573 140.786 86.5321 143.549 71.7279C143.751 70.636 143.968 69.5762 144.194 68.5428L149.764 67.5739L156.088 66.4731Z" fill="#3335CF"/>
<path d="M151.488 77.6185L151.201 77.6743L155.201 98.2631L155.488 98.2073L151.488 77.6185Z" fill="#1B1B43"/>
<path opacity="0.3" d="M164.002 70.9226L155.644 71.2505L150.21 71.4642L143.55 71.7277C143.752 70.6358 143.969 69.576 144.194 68.5426L149.765 67.5736C149.663 66.5578 149.575 65.5566 149.502 64.5701L163.554 66.912C163.694 68.2439 163.843 69.5788 164.002 70.9226Z" fill="#1B1B43"/>
<path d="M148.367 44.5199L153.751 43.8469L164.989 46.2021L165.053 66.4616C165.055 67.0172 164.827 67.5485 164.423 67.9299C164.051 68.2809 163.56 68.4771 163.049 68.4789L144.195 68.5434L140.561 57.5746L144.06 47.2114L148.367 44.5199Z" fill="#FFA121"/>
<path d="M155.083 48.9587C153.921 48.9587 152.794 48.5457 151.916 47.7197L152.066 47.5598C153.739 49.1336 156.366 49.1311 158.314 47.5544L158.452 47.7251C157.436 48.5474 156.242 48.9587 155.083 48.9587Z" fill="#1B1B43"/>
<path d="M167.116 47.7383C166.706 45.8899 165.189 44.4921 163.313 44.2344L156.139 43.2483L160.481 50.6645L161.823 55.3055L168.584 54.352L167.116 47.7383Z" fill="#FFA121"/>
<path d="M170.029 62.2864C169.859 64.7953 168.343 65.8638 166.416 66.3029C164.408 66.7596 161.958 66.5342 160.117 66.54C157.09 66.5488 154.062 66.4171 151.038 66.2531L143.354 66.3263L142.476 64.9592C143.477 63.5452 146.185 61.6922 150.915 62.8134L163.187 60.0323L161.82 55.3045L168.583 54.353L169.967 60.5973C170.049 61.2236 170.067 61.7828 170.029 62.2864Z" fill="#FFBC96"/>
<path d="M137.061 57.1798L141.891 63.2544L142.769 63.4739L143.493 56.404L138.55 54.0714L137.061 57.1798Z" fill="#FFBC96"/>
<path d="M153.162 43.2008L146.107 44.3173C144.155 44.6264 142.478 45.8753 141.624 47.6581L138.55 54.071L143.493 56.4035L144.013 51.3245L153.162 43.2008Z" fill="#FFA121"/>
<path opacity="0.2" d="M170.029 62.287C169.859 64.7958 168.343 65.8644 166.417 66.3035C166.033 65.8322 165.799 65.2291 165.799 64.5704C165.799 63.0628 167.023 61.8391 168.53 61.8391C169.083 61.839 169.599 62.006 170.029 62.287Z" fill="#FE5B52"/>
<path d="M143.919 51.3088L142.375 64.9448L142.593 64.9695L144.137 51.3335L143.919 51.3088Z" fill="#1B1B43"/>
<path d="M160.591 50.6374L160.38 50.6984L163.088 60.0665L163.299 60.0055L160.591 50.6374Z" fill="#1B1B43"/>
<path d="M157.73 27.1748C157.693 26.68 157.716 26.1714 157.868 25.6862C158.017 25.2038 158.331 24.7525 158.78 24.487C159.004 24.3558 159.251 24.2663 159.505 24.2231C159.759 24.179 160.018 24.179 160.272 24.2082C160.779 24.2676 161.267 24.4519 161.695 24.7285C162.123 25.0043 162.49 25.388 162.716 25.8539C162.947 26.3164 162.997 26.871 162.853 27.3657C162.711 27.8634 162.414 28.2918 162.069 28.6543C161.718 29.0127 161.317 29.3152 160.895 29.5749L160.848 29.503C161.249 29.2201 161.633 28.9114 161.957 28.5496C162.281 28.191 162.55 27.7754 162.668 27.3157C162.786 26.8589 162.743 26.366 162.528 25.9453C162.32 25.5214 161.974 25.1716 161.576 24.9106C161.178 24.6486 160.72 24.4713 160.247 24.4126C159.776 24.3511 159.285 24.418 158.874 24.6473C158.462 24.8776 158.165 25.2809 158.009 25.7338C157.928 25.9599 157.878 26.198 157.847 26.4391C157.818 26.6807 157.813 26.9254 157.816 27.1704L157.73 27.1748Z" fill="#1B1B43"/>
<path d="M160.125 29.6347C161.421 29.6347 162.472 28.5838 162.472 27.2874C162.472 25.9911 161.421 24.9402 160.125 24.9402C158.829 24.9402 157.778 25.9911 157.778 27.2874C157.778 28.5838 158.829 29.6347 160.125 29.6347Z" fill="#1B1B43"/>
<path d="M161.904 40.2724L160.645 38.3461L161.131 40.4773L156.787 41.6249L148.625 41.9557L149.284 35.4772C147.199 34.4526 145.721 27.8483 153.634 26.7358C155.071 26.5338 156.547 26.6626 157.882 27.2276C161.951 28.949 163.327 33.5129 163.702 39.7981L161.904 40.2724Z" fill="#1B1B43"/>
<path d="M155.121 47.128C153.36 47.128 151.933 45.7005 151.933 43.9396V37.0283H158.31V43.9396C158.31 45.7005 156.882 47.128 155.121 47.128Z" fill="#FFBC96"/>
<path d="M156.251 39.9305C155.568 41.9426 153.969 42.8843 151.933 43.3947V40.394L156.251 39.9305Z" fill="#1B1B43"/>
<path d="M158.174 30.3198L157.968 39.2729C157.968 39.2729 154.204 42.0121 151.569 41.2246C150.685 40.9611 150.085 39.957 149.678 38.707C149.485 38.1127 149.336 37.4599 149.219 36.8041C148.806 34.4475 148.826 32.0412 148.826 32.0412L158.174 30.3198Z" fill="#FFBC96"/>
<path d="M150.474 35.8256C150.474 36.0919 150.315 36.3077 150.118 36.3077C149.92 36.3077 149.761 36.0919 149.761 35.8256C149.761 35.5593 149.92 35.3435 150.118 35.3435C150.315 35.3435 150.474 35.5593 150.474 35.8256Z" fill="#1B1B43"/>
<path d="M152.827 36.1715C153.049 36.1715 153.229 35.9216 153.229 35.6134C153.229 35.3052 153.049 35.0553 152.827 35.0553C152.605 35.0553 152.424 35.3052 152.424 35.6134C152.424 35.9216 152.605 36.1715 152.827 36.1715Z" fill="#1B1B43"/>
<path d="M154.139 34.4774C154.125 34.6142 153.667 34.6457 153.16 34.557C152.652 34.4682 152.219 34.4941 152.301 34.1561C152.368 33.8799 152.769 33.9037 153.277 33.9923C153.785 34.0811 154.152 34.3578 154.139 34.4774Z" fill="#1B1B43"/>
<path d="M149.174 34.7852C149.192 34.9201 149.582 34.9141 150.009 34.7844C150.437 34.6546 150.805 34.645 150.723 34.3154C150.655 34.046 150.315 34.1024 149.887 34.2321C149.46 34.3619 149.159 34.6672 149.174 34.7852Z" fill="#1B1B43"/>
<path opacity="0.2" d="M155.888 36.7785C155.888 37.3545 155.421 37.8214 154.845 37.8214C154.269 37.8214 153.802 37.3545 153.802 36.7785C153.802 36.2025 154.269 35.7356 154.845 35.7356C155.421 35.7356 155.888 36.2025 155.888 36.7785Z" fill="#FE5B52"/>
<path opacity="0.2" d="M150.143 37.8389C150.143 38.2019 149.959 38.5181 149.678 38.7055C149.485 38.1112 149.335 37.4584 149.218 36.8026C149.739 36.861 150.143 37.3031 150.143 37.8389Z" fill="#FE5B52"/>
<path d="M151.297 36.2519C151.309 36.3444 151.287 36.4404 151.251 36.5244C151.215 36.6089 151.167 36.682 151.119 36.7488C151.023 36.8828 150.929 36.9997 150.905 37.1048C150.892 37.1555 150.896 37.2086 150.909 37.262C150.921 37.3138 150.95 37.3607 150.992 37.4061C151.077 37.4964 151.21 37.5652 151.356 37.6182L151.345 37.7321C151.172 37.7523 150.985 37.7198 150.824 37.6004C150.744 37.5414 150.675 37.4535 150.638 37.3518C150.607 37.252 150.592 37.1399 150.622 37.034C150.683 36.8244 150.82 36.6986 150.927 36.5883C151.039 36.4759 151.135 36.3801 151.183 36.2441L151.297 36.2519Z" fill="#1B1B43"/>
<path d="M151.021 38.6262C151.406 39.8521 153.052 39.23 153.181 38.0773L151.021 38.6262Z" fill="white"/>
<path d="M148.514 33.4668C151.269 33.4619 153.581 33.2083 155.759 32.1494C155.994 33.947 156.766 34.8152 157.808 35.2964L160.004 33.4668L158.869 29.7708L152.905 29.4414L148.294 31.7468L148.514 33.4668Z" fill="#1B1B43"/>
<path d="M159.536 36.6057C160.13 35.7621 160.135 34.7435 159.548 34.3305C158.961 33.9175 158.004 34.2666 157.41 35.1102C156.817 35.9537 156.812 36.9724 157.399 37.3853C157.986 37.7983 158.943 37.4493 159.536 36.6057Z" fill="#FFBC96"/>
<path d="M157.955 36.4649C157.913 36.3131 157.9 36.1522 157.919 35.9891C157.937 35.8265 157.992 35.6594 158.092 35.5158C158.192 35.3724 158.336 35.2608 158.49 35.1957C158.645 35.1294 158.808 35.1037 158.967 35.1138L158.987 35.2266C158.85 35.2907 158.722 35.3502 158.61 35.4233C158.498 35.4965 158.404 35.5818 158.33 35.6838C158.255 35.7856 158.205 35.907 158.164 36.0381C158.124 36.1698 158.099 36.3114 158.07 36.4595L157.955 36.4649Z" fill="#1B1B43"/>
<path d="M160.872 29.5389C160.568 29.3617 160.307 29.157 160.05 28.9556L159.308 28.3433C159.064 28.141 158.823 27.9416 158.572 27.7492C158.322 27.5537 158.063 27.3725 157.773 27.1726C158.125 27.1342 158.477 27.2179 158.8 27.3493C159.123 27.4842 159.419 27.6735 159.682 27.8937C159.946 28.1141 160.179 28.3653 160.381 28.6384C160.581 28.9141 160.756 29.2066 160.872 29.5389Z" fill="#FFA121"/>
<path d="M150.478 66.2791H142.72V68.5722H150.478V66.2791Z" fill="#1B1B43"/>
<path d="M145.208 68.5722H127.643L119.934 51.9213H137.499L145.208 68.5722Z" fill="#EBEBFF"/>
<path d="M138.707 67.8281C138.294 67.903 138.049 68.2407 138.029 68.6422V66.827C138.029 66.4612 137.768 66.1278 137.405 66.0863C136.988 66.0388 136.637 66.3533 136.617 66.755V66.0232C136.617 65.6532 136.351 65.3158 135.983 65.2791C135.559 65.2367 135.202 65.568 135.202 65.9829V66.755C135.183 66.3533 134.832 66.0388 134.415 66.0863C134.052 66.1278 133.791 66.4612 133.791 66.827V68.2674C133.771 67.8996 133.491 67.4427 133.108 67.4071C132.321 67.3339 132.494 68.7166 132.494 68.7166C132.723 70.115 133.137 70.2693 133.975 70.3293C135.283 70.4228 136.608 70.4193 137.948 70.3282C138.791 70.2709 138.924 70.1802 139.292 68.9258C139.416 68.3865 139.311 67.7183 138.707 67.8281Z" fill="#FFBC96"/>
<path d="M133.811 67.2778C133.87 67.5733 133.891 67.8696 133.902 68.1665C133.906 68.3149 133.907 68.4633 133.901 68.612C133.896 68.7608 133.885 68.9096 133.86 69.0588L133.774 69.0611C133.741 68.9135 133.722 68.7654 133.708 68.6173C133.694 68.4692 133.687 68.3208 133.683 68.1725C133.678 67.8756 133.683 67.5784 133.725 67.2802L133.811 67.2778Z" fill="#D28572"/>
<path d="M135.246 66.7533C135.305 67.067 135.327 67.3816 135.339 67.6966C135.344 67.8541 135.344 68.0117 135.339 68.1696C135.334 68.3274 135.323 68.4853 135.298 68.6436L135.213 68.6459C135.179 68.4893 135.16 68.3321 135.146 68.1749C135.132 68.0176 135.124 67.8602 135.12 67.7026C135.114 67.3875 135.119 67.072 135.16 66.7556L135.246 66.7533Z" fill="#D28572"/>
<path d="M136.662 66.7533C136.725 67.0499 136.751 67.3482 136.766 67.6468C136.773 67.7962 136.776 67.9457 136.773 68.0955C136.769 68.2452 136.761 68.3954 136.738 68.546L136.653 68.5496C136.617 68.4014 136.596 68.2526 136.58 68.1037C136.564 67.9547 136.554 67.8054 136.548 67.656C136.538 67.3572 136.538 67.0578 136.576 66.7568L136.662 66.7533Z" fill="#D28572"/>
<path d="M138.495 67.9174C138.429 68.0018 138.383 68.1048 138.338 68.2103C138.295 68.3164 138.253 68.4251 138.213 68.535C138.172 68.6447 138.13 68.7551 138.085 68.8651C138.04 68.9752 137.992 69.0851 137.933 69.1926L137.85 69.1698C137.854 69.046 137.874 68.9256 137.901 68.807C137.928 68.6883 137.964 68.5715 138.009 68.457C138.054 68.3429 138.105 68.2298 138.172 68.1233C138.24 68.0187 138.321 67.9097 138.446 67.8468L138.495 67.9174Z" fill="#D28572"/>
<path d="M174.96 30.3558V38.3951L171.251 41.0298H174.96H188.754V30.3558H174.96Z" fill="white"/>
<path d="M188.899 41.1763H170.792L174.812 38.3197V30.2096H188.899V41.1763ZM171.709 40.8836H188.606V30.5023H175.105V38.4708L171.709 40.8836Z" fill="#9192FF"/>
<path d="M181.667 38.5319L179.415 36.363L179.821 35.9412L181.52 37.578L184.411 32.2793L184.925 32.5597L181.667 38.5319Z" fill="#9192FF"/>
<path d="M189.238 134.412H0V134.851H189.238V134.412Z" fill="#1B1B43"/>
</svg>
