<svg width="467" height="294" viewBox="0 0 467 294" fill="none" xmlns="http://www.w3.org/2000/svg">
<path d="M70.5645 96.1766L72.7822 93.1873L72.2502 89.9485L72.8795 89.4874L73.4788 90.2384L73.8064 87.4241L75.4689 85.8342L78.4755 86.404L80.5642 88.7781L79.6823 91.7038L77.0328 94.191L74.174 98.4143L70.5645 96.1766Z" fill="#EACDB0"/>
<path d="M77.0122 97.3668C75.292 100.854 73.6131 104.362 71.8519 107.828C62.4002 126.432 52.4277 136.175 49.6874 141.354C49.5684 141.579 49.4243 141.825 49.1794 141.893C49.0195 141.938 48.85 141.895 48.6892 141.853C47.8309 141.625 46.9748 141.387 46.1211 141.142C44.2736 140.61 42.4248 140.058 40.6096 139.424C38.913 138.831 36.8238 137.356 37.2668 135.77C37.5403 134.79 54.1866 116.997 54.7627 116.164C56.9668 112.976 59.1705 109.787 61.3747 106.599C64.6466 101.865 67.9185 97.1323 71.1904 92.3987L77.0122 97.3668Z" fill="#8CABEF"/>
<path d="M92.2872 32.8641C92.4189 33.846 91.9337 34.7843 91.4125 35.5953C87.9434 40.9928 79.5735 47.0032 73.5813 43.7803C74.2415 43.624 75.9731 43.5586 77.3207 43.2005C80.5209 42.3513 82.4774 38.949 84.074 35.9002C85.0527 34.0314 85.0518 28.8279 87.0969 28.0196C89.048 27.2481 92.0241 30.9062 92.2872 32.8641Z" fill="#8CABEF"/>
<path d="M74.1431 36.6967C75.4353 33.5701 76.8198 31.5414 78.6564 29.2536C80.4929 26.9659 83.0578 25.1757 85.9076 25.0085C86.2461 24.9885 86.5973 24.9939 86.9113 25.1371C87.2698 25.3002 87.5392 25.6241 87.7955 25.9372C89.2118 27.6683 91.878 29.9434 92.2283 32.4497C87.2648 32.2616 82.1672 34.2381 78.2928 37.4605C75.4003 39.8659 73.8169 44.0752 73.497 44.0879C70.455 44.2069 73.5352 38.1679 74.1431 36.6967Z" fill="#5D66D3"/>
<path d="M52.392 39.1232C52.5342 40.1038 53.258 40.873 53.9818 41.51C58.7977 45.7502 68.4939 49.237 73.3738 44.4948C72.6963 44.5252 71.0129 44.9369 69.6189 44.9623C66.3088 45.0223 63.4945 42.287 61.1236 39.7925C59.6701 38.2631 58.2452 33.2592 56.0569 33.042C53.9682 32.8348 52.1085 37.1681 52.392 39.1232Z" fill="#8CABEF"/>
<path d="M70.8882 37.8375C68.7886 35.1849 66.9012 33.6128 64.508 31.9162C62.1148 30.2196 59.1574 29.2009 56.3712 29.8211C56.0399 29.8947 55.7037 29.996 55.4411 30.2196C55.1412 30.4749 54.9708 30.8598 54.81 31.2315C53.9226 33.2843 51.9815 36.2032 52.3318 38.7095C57.0541 37.1682 62.4979 37.6721 67.107 39.7095C70.5479 41.2303 73.2246 44.8444 73.5354 44.7689C76.4938 44.0492 71.8765 39.0857 70.8882 37.8375Z" fill="#5D66D3"/>
<path d="M102.843 40.2963L45.1826 48.3538L51.9785 96.9856L109.639 88.9281L102.843 40.2963Z" fill="#FFA121"/>
<path d="M106.785 39.7456L41.2412 48.9047L42.9573 61.1854L108.501 52.0263L106.785 39.7456Z" fill="#FFA121"/>
<g opacity="0.1">
<path d="M49.3491 60.294L104.553 52.582L105.164 56.9621L49.3491 60.294Z" fill="black"/>
</g>
<path d="M83.8757 92.5302L76.7399 93.5271L69.8612 44.2875C69.7917 43.7882 70.1252 43.3293 70.6059 43.262L75.9997 42.5087C76.4809 42.4414 76.9275 42.7918 76.9971 43.2907L83.8757 92.5302Z" fill="#5D66D3"/>
<path d="M116.571 124.382L137.37 121.674L152.975 102.117L158.344 107.095L142.09 130.525L120.879 135.77L113.909 129.967L114.343 124.308L116.571 124.382Z" fill="#3B3387"/>
<path d="M298.28 108.596C297.908 108.516 290.827 110.286 290.827 110.286L272.535 124.153H247.456L246.276 131.234L276.665 137.135L298.28 108.596Z" fill="#3B3387"/>
<path d="M260.848 178.218L255.967 223.469L258.887 282.699L265.451 283.33L274.78 229.834L288.945 176.803L260.848 178.218Z" fill="#BABCBE"/>
<path d="M311.524 283.461L306.525 288.973L308.298 291.602L318.405 287.995L317.708 282.654L311.524 283.461Z" fill="#1D1D33"/>
<path d="M287.373 198.483L297.753 241.606L309.607 284.392L318.347 282.826L312.125 237.647L311.946 195.014L298.757 190.845L287.373 198.483Z" fill="#BABCBE"/>
<path d="M299.6 108.008C299.598 108.009 287.212 112.361 274.733 133.442C262.025 154.908 255.322 185.85 255.322 185.85C255.322 185.85 313.165 211.269 314.445 200.891C314.445 200.891 336.884 120.115 310.578 111.376C309.382 110.979 300.385 107.668 299.6 108.008Z" fill="#3B3387"/>
<path d="M302.749 108.596C295.396 118.562 288.186 130.523 280.721 140.407C276.299 146.263 274.547 153.102 272.395 159.984C270.256 166.825 268.117 173.666 265.978 180.508C265.074 183.399 264.17 186.289 263.266 189.18L287.85 198.181C288.51 189.408 288.954 180.617 289.776 171.857C290.534 163.778 290.893 154.583 294.296 147.102C295.952 143.46 297.664 139.835 299.34 136.199C302.412 129.527 304.801 122.51 307.933 115.865C308.152 115.401 308.649 111.167 308.617 110.638L302.749 108.596Z" fill="white"/>
<path d="M302.148 110.059C304.176 110.39 306.205 110.721 308.233 111.052C308.675 109.473 308.99 107.86 309.175 106.231C310.976 106.091 313.112 105.73 313.858 104.084C314.093 103.566 314.147 102.986 314.198 102.419C314.408 100.076 314.618 97.7325 314.828 95.3889C314.901 94.5783 314.971 93.7427 314.727 92.9667C314.298 91.6045 312.999 90.7121 311.703 90.1137C308.394 88.5861 304.413 88.3298 301.118 89.8847C300.241 90.2986 299.399 90.8529 298.849 91.6508C297.999 92.8812 297.963 94.4792 297.957 95.9746C297.952 97.3549 297.947 98.7353 297.941 100.115C297.935 101.703 298.048 103.539 299.329 104.477C300.009 104.974 300.928 105.127 301.499 105.748C302.506 106.842 301.862 108.6 302.148 110.059Z" fill="#EACDB0"/>
<path d="M295.104 92.3535L298.057 100.485L298.151 93.3676L295.104 92.3535Z" fill="#292949"/>
<path d="M288.775 82.5316C289.144 80.9845 289.772 79.4869 290.451 78.1674C291.617 75.8992 294.745 75.5707 297.25 76.0518C302.658 77.0919 308.423 76.0437 313.117 79.2774C315.8 81.1262 319.714 82.4371 322 84.6467C322.954 85.5691 323.588 86.7827 323.998 88.0449C325.419 92.4196 324.061 97.5662 320.667 100.67C319.905 101.367 319.057 101.963 318.186 102.516C316.383 103.66 314.209 105.087 312.135 105.136C312.548 103.403 315.564 98.3927 314.618 96.6293C313.117 93.8308 308.165 93.3469 305.416 93.2043C302.416 93.0484 299.349 94.3843 296.42 94.0635C294.313 93.8327 291.993 92.1501 290.55 90.6439C288.288 88.283 288.108 85.3269 288.775 82.5316Z" fill="#292949"/>
<path d="M258.827 282.564L252.768 286.145L253.539 288.835L263.918 287.802L264.479 283.236L258.827 282.564Z" fill="#1D1D33"/>
<path d="M257.665 68.6687C257.286 70.9619 255.551 72.7326 253.823 74.1939C242.326 83.9146 219.415 91.638 208.19 80.2842C209.778 80.3878 213.708 81.4324 216.977 81.5574C224.74 81.8545 231.471 75.5688 237.15 69.8283C240.631 66.3092 244.21 54.6365 249.354 54.2303C254.264 53.8422 258.422 64.0955 257.665 68.6687Z" fill="#3B3387"/>
<path d="M214.326 64.7818C219.377 58.6579 223.878 55.0588 229.572 51.1908C235.267 47.3227 242.253 45.0722 248.76 46.658C249.533 46.8465 250.318 47.1001 250.923 47.6367C251.615 48.2501 251.996 49.1611 252.356 50.0403C254.341 54.898 258.757 61.8362 257.818 67.6998C246.813 63.8617 234.018 64.7878 223.109 69.3505C214.965 72.7565 208.516 81.1091 207.79 80.9174C200.884 79.0904 211.949 67.6635 214.326 64.7818Z" fill="#474EBB"/>
<path d="M163.861 55.2561C163.505 57.5534 164.599 59.777 165.785 61.7049C173.67 74.5304 193.022 89.0248 207.232 81.7453C205.691 81.3473 201.631 81.1119 198.487 80.2096C191.02 78.0668 186.589 69.9931 182.987 62.7659C180.78 58.3353 181.026 46.1287 176.266 44.1358C171.724 42.2343 164.57 50.6751 163.861 55.2561Z" fill="#3B3387"/>
<path d="M206.242 65.102C203.358 57.7066 200.206 52.8813 196.005 47.4279C191.804 41.9746 185.871 37.6544 179.193 37.1283C178.4 37.0656 177.575 37.0615 176.832 37.3823C175.984 37.7485 175.337 38.495 174.721 39.2179C171.317 43.2123 164.954 48.4239 164.015 54.2871C175.669 54.079 187.534 58.9557 196.472 66.6977C203.144 72.4773 206.661 82.4266 207.41 82.4711C214.542 82.8941 207.6 68.582 206.242 65.102Z" fill="#474EBB"/>
<path d="M276.21 92.6172L141.323 71.0059L123.096 184.772L257.982 206.383L276.21 92.6172Z" fill="#5D66D3"/>
<path d="M285.43 94.0947L132.101 69.5285L127.498 98.2574L280.827 122.824L285.43 94.0947Z" fill="#8CABEF"/>
<path opacity="0.1" d="M271.613 121.343L209.849 111.448L203.291 110.218L203.263 110.393L142.47 100.654L202.498 115.218L189.798 195.346L201.463 197.238L213.759 118.105L269.972 131.589L271.613 121.343Z" fill="black"/>
<path d="M197.735 196.728L181.041 194.053L199.494 78.8623C199.682 77.6945 200.746 76.8939 201.871 77.0743L214.49 79.0958C215.615 79.2762 216.376 80.369 216.189 81.5367L197.735 196.728Z" fill="#474EBB"/>
<path opacity="0.1" d="M242.44 166.048L270.144 165.939L272.277 152.625L244.21 159.852L242.44 166.048Z" fill="black"/>
<path d="M315.02 113.827C315.02 113.827 309.608 115.707 309.215 116.685C308.824 117.663 290.531 146.281 290.531 146.281L252.762 155.367L254.537 163.983L289.351 160.148L302.038 159.263L322.395 129.759L321.719 119.379L315.02 113.827Z" fill="#403C99"/>
<path d="M253.062 157.197H245.096L239.785 162.508L242.441 166.048L254.387 163.254L253.062 157.197Z" fill="#EACDB0"/>
<path d="M85.6188 284.259L84.9082 287.032L89.4837 291.315L92.8383 289.299L90.9059 285.771L86.3299 281.487L85.6188 284.259Z" fill="#1D1D33"/>
<path d="M98.7772 198.193L96.618 206.613L99.8299 237.152L85.5728 283.287L90.534 285.886L111.314 241.883L115.534 228.806L119.751 200.407L98.7772 198.193Z" fill="#292949"/>
<path d="M137.452 206.117L134.277 286.836L129.239 287.336L123.265 236.391L110.539 201.48L137.452 206.117Z" fill="#292949"/>
<path d="M129.206 286.704L129.49 289.563L135.22 291.882L137.66 288.752L134.653 286.163L129.206 286.704Z" fill="#1D1D33"/>
<path d="M94.9857 189.103C99.3091 160.692 97.7651 140.002 97.9891 134.32C98.2131 128.639 102.201 125.691 102.202 125.69C103.952 125.3 105.475 124.174 107.242 123.729C119.196 120.721 125.716 129.849 130.191 139.693C135.704 151.822 140.336 164.356 144.081 177.142C147.367 188.364 150.661 199.687 152.039 211.332C152.608 216.138 153.083 220.694 147.822 222.814C139.438 226.192 130.017 226.118 121.162 227.201C110.991 228.445 100.806 229.355 90.5675 229.78C85.2223 230.003 90.6624 217.514 94.9857 189.103Z" fill="#3B3387"/>
<path d="M104.798 124.778C104.798 124.778 105.175 133.727 110.545 134.01C115.915 134.293 119.024 131.749 118.741 128.64C118.458 125.531 116.922 124.102 116.922 124.102C116.922 124.102 110.357 121.198 104.798 124.778Z" fill="#FFF5CC"/>
<path d="M150.353 122.854L134.911 141.956L105.802 128.46L98.4894 130.056L98.1768 133.717L99.3113 143.212L136.191 156.488L145.042 152.063L156.843 125.509L150.353 122.854Z" fill="#3B3387"/>
<path d="M123.827 115.922C120.964 114.586 119.905 111.894 119.519 110.285C119.455 109.831 119.382 109.401 119.303 108.995L119.302 108.988C119.302 108.988 119.302 108.99 119.302 108.991C118.199 103.332 115.824 102.204 115.824 102.204L115.822 102.204C114.986 101.521 114.005 101.016 112.956 100.762C111.344 102.212 110.337 104.317 110.221 106.484L109.985 106.487C110.972 106.51 111.946 106.737 112.852 107.125C113.543 112.013 114.596 119.792 114.635 122.063C114.691 125.454 115.493 125.517 117.772 126.26C119.191 126.722 120.657 126.159 121.563 125.667H121.564C124.673 124.955 128.066 117.9 123.827 115.922Z" fill="#292949"/>
<path d="M117.079 108.994C113.496 101.191 103.634 105.143 102.351 112.502C101.622 116.686 103.841 123.959 108.838 124.027C109.089 124.734 109.521 126.07 110.194 126.417C110.924 126.793 112.688 125.824 113.385 125.469C113.578 125.37 113.778 125.258 113.889 125.071C114.029 124.838 113.936 124.33 113.802 123.775C114.336 123.603 114.865 123.359 115.385 123.032C117.567 121.661 118.74 119.031 118.855 116.453C118.97 113.875 118.155 111.339 117.079 108.994Z" fill="#EACDB0"/>
<path d="M110.407 107.62C116.036 105.591 114.426 101.189 114.426 101.189C109.814 94.5697 99.9474 98.868 99.9474 98.868C99.9474 98.868 94.7949 101.704 93.8221 107.851C93.734 108.41 93.6681 108.935 93.6195 109.432C93.4032 110.991 93.2005 114.307 93.3223 115.928C93.3382 117.911 93.2037 119.409 91.7502 121.27C89.0944 124.669 92.339 126.17 93.6485 127.17C94.9585 128.17 92.3922 135.845 102.101 132.952C108.44 129.68 109.926 129.668 107.579 126.224C106.577 124.56 104.289 122.291 103.252 119.34C101.617 114.685 104.779 109.649 110.407 107.62Z" fill="#292949"/>
<path d="M151.064 123.146L153.597 118.134L159.497 117.248V124.329L156.168 125.234L151.064 123.146Z" fill="#EACDB0"/>
<path d="M1.50605 285.052L1.07031 288.662L7.85403 293.142L11.8988 289.968L8.72505 285.923L1.94134 281.443L1.50605 285.052Z" fill="#1D1D33"/>
<path d="M3.31234 174.728L1.98967 185.69L10.8748 234.955L1.26904 283.843L8.25586 286.139L32.0738 228.244L33.655 210.439L31.271 173.447L3.31234 174.728Z" fill="#353A85"/>
<path d="M52.2846 178.434L52.8212 224.838L44.0764 284.67H37.3522L33.1057 229.463L23.9043 174.255L52.2846 178.434Z" fill="#353A85"/>
<path d="M44.6629 283.87H37.3921V287.505L44.6629 291.141L48.2988 287.505L44.6629 283.87Z" fill="#1D1D33"/>
<path d="M2.41284 187.309C2.32015 191.543 2.45328 197.249 4.07946 197.457C4.38434 197.496 4.6765 197.346 4.94276 197.201C7.7553 195.665 9.74543 193.504 12.5175 192.02C15.4232 190.465 18.7474 189.639 22.0075 189.06C26.8824 188.17 31.865 187.617 36.8317 187.53C42.2246 187.436 52.7232 188.497 52.7232 188.497C55.7543 187.988 58.6505 186.944 61.5539 185.975C66.5424 184.312 71.6372 182.846 76.3181 180.515C77.8203 179.767 81.9641 177.558 80.4828 175.558C79.3615 174.043 75.5529 173.03 73.8363 172.099C70.0024 170.021 66.317 167.649 63.0719 164.8C58.4596 160.751 55.0564 155.784 52.9263 150.19C51.8508 147.366 51.0757 144.448 50.4355 141.51C50.0888 139.92 49.7844 138.32 49.499 136.719C49.3368 135.809 49.3391 132.368 48.6739 131.797C41.932 126.005 39.9487 120.929 31.7855 122.193C13.1591 125.076 14.479 125.903 10.3234 135.03C8.65223 138.701 6.3872 148.555 5.74836 152.5C4.97457 157.279 4.25848 162.067 3.70097 166.872C3.07894 172.235 2.65229 177.623 2.56187 183.018C2.55188 183.618 2.45691 185.298 2.41284 187.309Z" fill="#8CABEF"/>
<path d="M18.7208 113.089L11.5449 127.495L48.0348 138.024L49.1239 128.402L18.7208 113.089Z" fill="#DDDAE8"/>
<path d="M37.6053 115.559L29.1427 118.339L15.9138 128.756L14.3984 188.855L38.5431 185.406L32.9153 134.393L45.674 126.665L49.1226 122.593L37.6053 115.559Z" fill="#DDDAE8"/>
<path d="M31.4041 119.628C29.3277 119.344 27.2517 119.061 25.1752 118.778C25.2165 117.107 25.3915 115.439 25.6982 113.796C23.9838 113.122 22.0105 112.131 21.7747 110.304C21.7006 109.729 21.821 109.148 21.9405 108.58C22.4358 106.233 22.9311 103.885 23.4263 101.538C23.5976 100.726 23.7789 99.8903 24.2492 99.2065C25.0743 98.007 26.6074 97.5253 28.05 97.329C31.7317 96.8288 35.6888 97.768 38.4373 100.269C39.1688 100.934 39.8231 101.726 40.1216 102.669C40.5819 104.122 40.1398 105.69 39.6986 107.15C39.2915 108.497 38.8839 109.844 38.4768 111.191C38.0084 112.74 37.35 114.497 35.8206 115.028C35.0086 115.31 34.0672 115.184 33.3256 115.618C32.0166 116.385 32.1188 118.291 31.4041 119.628Z" fill="#EACDB0"/>
<path d="M53.3849 96.8452C53.7662 96.2686 54.1742 95.7134 54.6267 95.1954C55.6077 94.0736 56.8 93.1248 57.6019 91.869C58.4039 90.6131 58.7338 88.8829 57.8718 87.6674C57.3152 86.8832 56.3811 86.4665 55.4691 86.1612C52.4644 85.1552 49.1879 84.9739 46.0901 85.6418C43.1399 86.278 40.4782 87.4139 37.5761 86.2066C34.8494 85.0725 32.837 85.4192 29.9096 86.3438C26.7417 87.3444 22.5343 87.453 19.6458 88.9237C18.4395 89.5381 17.4585 90.5309 16.6815 91.6395C13.9899 95.4794 13.7758 100.903 16.1567 104.943C16.6911 105.849 17.3395 106.683 18.0237 107.482C19.44 109.137 21.1316 111.178 23.139 111.845C23.2544 110.032 21.8113 104.247 23.2603 102.81C25.5599 100.531 30.532 101.538 33.2551 102.221C36.2257 102.965 38.8156 105.184 41.7672 105.746C43.8909 106.151 46.6553 105.203 48.5123 104.166C50.8046 102.886 51.9946 98.9503 53.3849 96.8452Z" fill="#292949"/>
<path d="M89.9235 130.461C90.1289 131.989 89.3733 133.45 88.5613 134.713C83.1602 143.116 70.1299 152.474 60.8008 147.456C61.8286 147.213 64.5243 147.111 66.6221 146.554C71.6038 145.231 74.6504 139.935 77.1358 135.189C78.6593 132.279 78.6579 124.178 81.8421 122.92C84.8809 121.718 89.5141 127.413 89.9235 130.461Z" fill="#3B3387"/>
<path d="M61.6785 136.428C63.6905 131.561 65.8455 128.402 68.7049 124.84C71.5642 121.279 75.5572 118.492 79.9937 118.232C80.5207 118.201 81.0678 118.209 81.5562 118.432C82.1142 118.686 82.5336 119.19 82.9325 119.677C85.1371 122.372 89.2887 125.914 89.8335 129.816C82.106 129.523 74.17 132.601 68.1383 137.617C63.6355 141.362 61.1696 147.916 60.6721 147.935C55.9362 148.12 60.7316 138.719 61.6785 136.428Z" fill="#474EBB"/>
<path d="M27.8148 140.206C28.036 141.732 29.1633 142.93 30.2902 143.922C37.7872 150.524 52.8832 155.952 60.4802 148.569C59.4252 148.617 56.8044 149.258 54.6343 149.297C49.4809 149.39 45.0994 145.132 41.4086 141.248C39.1458 138.867 36.9271 131.077 33.5203 130.738C30.2688 130.416 27.3731 137.162 27.8148 140.206Z" fill="#3B3387"/>
<path d="M56.6157 138.204C53.347 134.074 50.4086 131.627 46.6828 128.985C42.957 126.344 38.3529 124.758 34.015 125.723C33.4993 125.838 32.9759 125.996 32.5669 126.344C32.0998 126.742 31.8345 127.341 31.5846 127.919C30.2029 131.115 27.1813 135.659 27.7261 139.561C35.0778 137.162 43.5526 137.946 50.7285 141.118C56.0855 143.486 60.2525 149.112 60.7364 148.994C65.3428 147.875 58.1542 140.147 56.6157 138.204Z" fill="#474EBB"/>
<path d="M106.359 142.036L16.5913 154.581L27.1714 230.292L116.939 217.748L106.359 142.036Z" fill="#FFA121"/>
<path d="M112.497 141.179L10.4561 155.438L13.1278 174.557L115.169 160.298L112.497 141.179Z" fill="#FFA121"/>
<g opacity="0.1">
<path d="M23.0786 173.165L109.022 161.159L109.974 167.978L23.0786 173.165Z" fill="black"/>
</g>
<path d="M76.8277 223.352L65.718 224.904L55.009 148.246C54.9004 147.469 55.4197 146.754 56.1685 146.649L64.5662 145.476C65.315 145.372 66.0101 145.917 66.1187 146.694L76.8277 223.352Z" fill="#474EBB"/>
<path d="M32.9507 158.539L36.0695 160.532L39.2446 159.779L39.7458 160.371L39.042 161.017L41.8563 161.147L43.5479 162.685L43.1917 165.707L40.9826 167.943L38.0196 167.271L35.3689 164.817L30.9819 162.275L32.9507 158.539Z" fill="#EACDB0"/>
<path d="M35.7851 159.553L17.7031 148.613L19.6169 132.608L12.2498 125.432L0 152.391L33.7682 166.483L35.7851 159.553Z" fill="#8CABEF"/>
<path d="M446.367 9.30083C446.524 10.4622 445.949 11.5718 445.333 12.5314C441.229 18.9153 431.33 26.0243 424.242 22.2122C425.023 22.0273 427.071 21.9496 428.665 21.5265C432.45 20.5219 434.765 16.498 436.653 12.8922C437.81 10.6817 437.809 4.52769 440.228 3.57124C442.536 2.65887 446.056 6.98491 446.367 9.30083Z" fill="#8CABEF"/>
<path d="M424.909 13.8344C426.437 10.1367 428.075 7.73675 430.247 5.03098C432.419 2.32521 435.453 0.207861 438.823 0.0102101C439.224 -0.0134171 439.639 -0.00706299 440.01 0.161962C440.434 0.355069 440.753 0.738106 441.056 1.10842C442.731 3.1558 445.885 5.84657 446.299 8.81088C440.428 8.58824 434.399 10.926 429.817 14.7372C426.396 17.5825 424.522 22.561 424.144 22.576C420.547 22.7168 424.19 15.5742 424.909 13.8344Z" fill="#5D66D3"/>
<path d="M399.183 16.7041C399.351 17.8636 400.207 18.7737 401.063 19.5275C406.759 24.5424 418.227 28.6667 423.999 23.058C423.198 23.0939 421.207 23.5809 419.558 23.6109C415.643 23.6823 412.314 20.4463 409.51 17.496C407.791 15.6872 406.105 9.76858 403.517 9.51186C401.047 9.2665 398.847 14.3918 399.183 16.7041Z" fill="#8CABEF"/>
<path d="M421.061 15.1834C418.577 12.046 416.346 10.1867 413.515 8.17979C410.684 6.17284 407.186 4.96785 403.891 5.70165C403.499 5.78889 403.101 5.90884 402.791 6.17283C402.436 6.47498 402.235 6.93026 402.044 7.36964C400.995 9.79779 398.699 13.2496 399.113 16.2139C404.698 14.391 411.137 14.9871 416.589 17.3967C420.658 19.1955 423.824 23.4702 424.192 23.3807C427.691 22.5306 422.23 16.6597 421.061 15.1834Z" fill="#5D66D3"/>
<path d="M458.861 18.0816L390.663 27.6118L398.701 85.1312L466.899 75.6011L458.861 18.0816Z" fill="#FFA121"/>
<path d="M463.524 17.4302L386.001 28.2634L388.031 42.7887L465.553 31.9556L463.524 17.4302Z" fill="#FFA121"/>
<g opacity="0.1">
<path d="M395.583 41.7437L460.876 32.6227L461.6 37.8029L395.583 41.7437Z" fill="black"/>
</g>
<path d="M436.419 79.8719L427.978 81.051L419.842 22.8122C419.76 22.222 420.154 21.6786 420.723 21.5995L427.103 20.7085C427.672 20.629 428.2 21.0434 428.283 21.6336L436.419 79.8719Z" fill="#5D66D3"/>
</svg>
