<svg width="81" height="86" viewBox="0 0 81 86" fill="none" xmlns="http://www.w3.org/2000/svg">
<path d="M60.3665 9.30083C60.5228 10.4622 59.9484 11.5718 59.3319 12.5314C55.2285 18.9153 45.3291 26.0243 38.2415 22.2122C39.0221 22.0273 41.0704 21.9496 42.6643 21.5265C46.4492 20.5219 48.7637 16.498 50.6516 12.8922C51.8089 10.6817 51.808 4.52769 54.227 3.57124C56.5352 2.65887 60.0552 6.98491 60.3665 9.30083Z" fill="#8CABEF"/>
<path d="M38.908 13.8344C40.4365 10.1367 42.0736 7.73675 44.2459 5.03098C46.4182 2.32521 49.4521 0.207861 52.8221 0.0102101C53.2229 -0.0134171 53.6382 -0.00706299 54.0094 0.161962C54.4333 0.355069 54.7518 0.738106 55.0549 1.10842C56.7297 3.1558 59.8839 5.84657 60.2978 8.81088C54.4269 8.58824 48.3979 10.926 43.8156 14.7372C40.3947 17.5825 38.5213 22.561 38.1433 22.576C34.5456 22.7168 38.1887 15.5742 38.908 13.8344Z" fill="#5D66D3"/>
<path d="M13.1817 16.7041C13.3498 17.8636 14.2063 18.7737 15.0623 19.5275C20.7583 24.5424 32.2265 28.6667 37.9984 23.058C37.1969 23.0939 35.2058 23.5809 33.5569 23.6109C29.6416 23.6823 26.3129 20.4463 23.509 17.496C21.7901 15.6872 20.1044 9.76858 17.5159 9.51186C15.0459 9.2665 12.8463 14.3918 13.1817 16.7041Z" fill="#8CABEF"/>
<path d="M35.06 15.1834C32.5764 12.046 30.3446 10.1867 27.5138 8.17979C24.6831 6.17284 21.1854 4.96785 17.8899 5.70165C17.4982 5.78889 17.1002 5.90884 16.7898 6.17283C16.435 6.47498 16.2337 6.93026 16.0433 7.36964C14.9937 9.79779 12.6978 13.2496 13.1122 16.2139C18.6973 14.391 25.1361 14.9871 30.5877 17.3967C34.6574 19.1955 37.8235 23.4702 38.1911 23.3807C41.6897 22.5306 36.2286 16.6597 35.06 15.1834Z" fill="#5D66D3"/>
<path d="M72.8599 18.0816L4.66187 27.6118L12.6997 85.1312L80.8977 75.6011L72.8599 18.0816Z" fill="#FFA121"/>
<path d="M77.5226 17.4302L0 28.2634L2.02979 42.7887L79.5524 31.9556L77.5226 17.4302Z" fill="#FFA121"/>
<g opacity="0.1">
<path d="M9.58252 41.7437L74.8748 32.6227L75.5986 37.8029L9.58252 41.7437Z" fill="black"/>
</g>
<path d="M50.4175 79.8719L41.9772 81.051L33.8413 22.8122C33.7586 22.222 34.153 21.6786 34.7223 21.5995L41.1021 20.7085C41.6709 20.629 42.1994 21.0434 42.2816 21.6336L50.4175 79.8719Z" fill="#5D66D3"/>
</svg>
