<svg width="325" height="269" viewBox="0 0 325 269" fill="none" xmlns="http://www.w3.org/2000/svg">
<path d="M70.5645 71.1766L72.7822 68.1873L72.2502 64.9485L72.8795 64.4874L73.4788 65.2384L73.8064 62.4241L75.4689 60.8342L78.4755 61.404L80.5642 63.7781L79.6823 66.7038L77.0328 69.191L74.174 73.4143L70.5645 71.1766Z" fill="#EACDB0"/>
<path d="M77.0122 72.3668C75.292 75.854 73.6131 79.3618 71.8519 82.8281C62.4002 101.432 52.4277 111.175 49.6874 116.354C49.5684 116.579 49.4243 116.825 49.1794 116.893C49.0195 116.938 48.85 116.895 48.6892 116.853C47.8309 116.625 46.9748 116.387 46.1211 116.142C44.2736 115.61 42.4248 115.058 40.6096 114.424C38.913 113.831 36.8238 112.356 37.2668 110.77C37.5403 109.79 54.1866 91.9973 54.7627 91.1645C56.9668 87.9762 59.1705 84.7874 61.3747 81.5991C64.6466 76.8655 67.9185 72.1323 71.1904 67.3987L77.0122 72.3668Z" fill="#8CABEF"/>
<path d="M92.2872 7.8641C92.4189 8.84599 91.9337 9.78426 91.4125 10.5953C87.9434 15.9928 79.5735 22.0032 73.5813 18.7803C74.2415 18.624 75.9731 18.5586 77.3207 18.2005C80.5209 17.3513 82.4774 13.949 84.074 10.9002C85.0527 9.03137 85.0518 3.82794 87.0969 3.01962C89.048 2.2481 92.0241 5.90622 92.2872 7.8641Z" fill="#8CABEF"/>
<path d="M74.1431 11.6967C75.4353 8.57015 76.8198 6.54139 78.6564 4.25364C80.4929 1.96589 83.0578 0.175679 85.9076 0.00847084C86.2461 -0.0115214 86.5973 -0.00607027 86.9113 0.137056C87.2698 0.300174 87.5392 0.62414 87.7955 0.937201C89.2118 2.66835 91.878 4.94337 92.2283 7.44967C87.2648 7.26156 82.1672 9.23806 78.2928 12.4605C75.4003 14.8659 73.8169 19.0752 73.497 19.0879C70.455 19.2069 73.5352 13.1679 74.1431 11.6967Z" fill="#5D66D3"/>
<path d="M52.392 14.1232C52.5342 15.1038 53.258 15.873 53.9818 16.51C58.7977 20.7502 68.4939 24.237 73.3738 19.4948C72.6963 19.5252 71.0129 19.9369 69.6189 19.9623C66.3088 20.0223 63.4945 17.287 61.1236 14.7925C59.6701 13.2631 58.2452 8.25915 56.0569 8.04197C53.9682 7.83477 52.1085 12.1681 52.392 14.1232Z" fill="#8CABEF"/>
<path d="M70.8882 12.8375C68.7886 10.1849 66.9012 8.6128 64.508 6.91619C62.1148 5.21957 59.1574 4.20088 56.3712 4.82109C56.0399 4.8947 55.7037 4.99602 55.4411 5.21957C55.1412 5.47493 54.9708 5.85978 54.81 6.23145C53.9226 8.28429 51.9815 11.2032 52.3318 13.7095C57.0541 12.1682 62.4979 12.6721 67.107 14.7095C70.5479 16.2303 73.2246 19.8444 73.5354 19.7689C76.4938 19.0492 71.8765 14.0857 70.8882 12.8375Z" fill="#5D66D3"/>
<path d="M102.843 15.2963L45.1826 23.3538L51.9785 71.9856L109.639 63.9281L102.843 15.2963Z" fill="#FFA121"/>
<path d="M106.785 14.7456L41.2412 23.9047L42.9573 36.1854L108.501 27.0263L106.785 14.7456Z" fill="#FFA121"/>
<g opacity="0.1">
<path d="M49.3491 35.294L104.553 27.582L105.164 31.9621L49.3491 35.294Z" fill="black"/>
</g>
<path d="M83.8757 67.5302L76.7399 68.5271L69.8612 19.2875C69.7917 18.7882 70.1252 18.3293 70.6059 18.262L75.9997 17.5087C76.4809 17.4414 76.9275 17.7918 76.9971 18.2907L83.8757 67.5302Z" fill="#5D66D3"/>
<path d="M116.571 99.3822L137.37 96.6742L152.975 77.1172L158.344 82.0953L142.09 105.525L120.879 110.77L113.909 104.967L114.343 99.3077L116.571 99.3822Z" fill="#3B3387"/>
<path d="M298.28 83.5962C297.908 83.5162 290.827 85.2865 290.827 85.2865L272.535 99.1533H247.456L246.276 106.234L276.665 112.135L298.28 83.5962Z" fill="#3B3387"/>
<path d="M260.848 153.218L255.967 198.469L258.887 257.699L265.451 258.33L274.78 204.834L288.945 151.803L260.848 153.218Z" fill="#BABCBE"/>
<path d="M311.524 258.461L306.525 263.973L308.298 266.602L318.405 262.995L317.708 257.654L311.524 258.461Z" fill="#1D1D33"/>
<path d="M287.373 173.483L297.753 216.606L309.607 259.392L318.347 257.826L312.125 212.647L311.946 170.014L298.757 165.845L287.373 173.483Z" fill="#BABCBE"/>
<path d="M299.6 83.0085C299.598 83.0089 287.212 87.3613 274.733 108.442C262.025 129.908 255.322 160.85 255.322 160.85C255.322 160.85 313.165 186.269 314.445 175.891C314.445 175.891 336.884 95.1151 310.578 86.3762C309.382 85.9787 300.385 82.6681 299.6 83.0085Z" fill="#3B3387"/>
<path d="M302.749 83.5958C295.396 93.562 288.186 105.523 280.721 115.407C276.299 121.263 274.547 128.102 272.395 134.984C270.256 141.825 268.117 148.666 265.978 155.508C265.074 158.399 264.17 161.289 263.266 164.18L287.85 173.181C288.51 164.408 288.954 155.617 289.776 146.857C290.534 138.778 290.893 129.583 294.296 122.102C295.952 118.46 297.664 114.835 299.34 111.199C302.412 104.527 304.801 97.51 307.933 90.8653C308.152 90.4009 308.649 86.1671 308.617 85.6382L302.749 83.5958Z" fill="white"/>
<path d="M302.148 85.0586C304.176 85.3899 306.205 85.7207 308.233 86.0519C308.675 84.4734 308.99 82.8595 309.175 81.2306C310.976 81.0906 313.112 80.7299 313.858 79.0842C314.093 78.5657 314.147 77.9864 314.198 77.4193C314.408 75.0757 314.618 72.7325 314.828 70.3889C314.901 69.5783 314.971 68.7427 314.727 67.9667C314.298 66.6045 312.999 65.7121 311.703 65.1137C308.394 63.5861 304.413 63.3298 301.118 64.8847C300.241 65.2986 299.399 65.8529 298.849 66.6508C297.999 67.8812 297.963 69.4792 297.957 70.9746C297.952 72.3549 297.947 73.7353 297.941 75.1152C297.935 76.7028 298.048 78.5394 299.329 79.4767C300.009 79.9743 300.928 80.1269 301.499 80.7476C302.506 81.8417 301.862 83.6001 302.148 85.0586Z" fill="#EACDB0"/>
<path d="M295.104 67.3535L298.057 75.4853L298.151 68.3676L295.104 67.3535Z" fill="#292949"/>
<path d="M288.775 57.5316C289.144 55.9845 289.772 54.4869 290.451 53.1674C291.617 50.8992 294.745 50.5707 297.25 51.0518C302.658 52.0919 308.423 51.0437 313.117 54.2774C315.8 56.1262 319.714 57.4371 322 59.6467C322.954 60.5691 323.588 61.7827 323.998 63.0449C325.419 67.4196 324.061 72.5662 320.667 75.6705C319.905 76.367 319.057 76.9627 318.186 77.5157C316.383 78.6598 314.209 80.0874 312.135 80.1365C312.548 78.4026 315.564 73.3927 314.618 71.6293C313.117 68.8308 308.165 68.3469 305.416 68.2043C302.416 68.0484 299.349 69.3843 296.42 69.0635C294.313 68.8327 291.993 67.1501 290.55 65.6439C288.288 63.283 288.108 60.3269 288.775 57.5316Z" fill="#292949"/>
<path d="M258.827 257.564L252.768 261.145L253.539 263.835L263.918 262.802L264.479 258.236L258.827 257.564Z" fill="#1D1D33"/>
<path d="M257.665 43.6687C257.286 45.9619 255.551 47.7326 253.823 49.1939C242.326 58.9146 219.415 66.638 208.19 55.2842C209.778 55.3878 213.708 56.4324 216.977 56.5574C224.74 56.8545 231.471 50.5688 237.15 44.8283C240.631 41.3092 244.21 29.6365 249.354 29.2303C254.264 28.8422 258.422 39.0955 257.665 43.6687Z" fill="#3B3387"/>
<path d="M214.326 39.7818C219.377 33.6579 223.878 30.0588 229.572 26.1908C235.267 22.3227 242.253 20.0722 248.76 21.658C249.533 21.8465 250.318 22.1001 250.923 22.6367C251.615 23.2501 251.996 24.1611 252.356 25.0403C254.341 29.898 258.757 36.8362 257.818 42.6998C246.813 38.8617 234.018 39.7878 223.109 44.3505C214.965 47.7565 208.516 56.1091 207.79 55.9174C200.884 54.0904 211.949 42.6635 214.326 39.7818Z" fill="#474EBB"/>
<path d="M163.861 30.2561C163.505 32.5534 164.599 34.777 165.785 36.7049C173.67 49.5304 193.022 64.0248 207.232 56.7453C205.691 56.3473 201.631 56.1119 198.487 55.2096C191.02 53.0668 186.589 44.9931 182.987 37.7659C180.78 33.3353 181.026 21.1287 176.266 19.1358C171.724 17.2343 164.57 25.6751 163.861 30.2561Z" fill="#3B3387"/>
<path d="M206.242 40.102C203.358 32.7066 200.206 27.8813 196.005 22.4279C191.804 16.9746 185.871 12.6544 179.193 12.1283C178.4 12.0656 177.575 12.0615 176.832 12.3823C175.984 12.7485 175.337 13.495 174.721 14.2179C171.317 18.2123 164.954 23.4239 164.015 29.2871C175.669 29.079 187.534 33.9557 196.472 41.6977C203.144 47.4773 206.661 57.4266 207.41 57.4711C214.542 57.8941 207.6 43.582 206.242 40.102Z" fill="#474EBB"/>
<path d="M276.21 67.6172L141.323 46.0059L123.096 159.772L257.982 181.383L276.21 67.6172Z" fill="#5D66D3"/>
<path d="M285.43 69.0947L132.101 44.5285L127.498 73.2574L280.827 97.8236L285.43 69.0947Z" fill="#8CABEF"/>
<path opacity="0.1" d="M271.613 96.3426L209.849 86.4479L203.291 85.2183L203.263 85.3928L142.47 75.6539L202.498 90.2182L189.798 170.346L201.463 172.238L213.759 93.1048L269.972 106.589L271.613 96.3426Z" fill="black"/>
<path d="M197.735 171.728L181.041 169.053L199.494 53.8623C199.682 52.6945 200.746 51.8939 201.871 52.0743L214.49 54.0958C215.615 54.2762 216.376 55.369 216.189 56.5367L197.735 171.728Z" fill="#474EBB"/>
<path opacity="0.1" d="M242.44 141.048L270.144 140.939L272.277 127.625L244.21 134.852L242.44 141.048Z" fill="black"/>
<path d="M315.02 88.8268C315.02 88.8268 309.608 90.707 309.215 91.6848C308.824 92.6626 290.531 121.281 290.531 121.281L252.762 130.367L254.537 138.983L289.351 135.148L302.038 134.263L322.395 104.759L321.719 94.3792L315.02 88.8268Z" fill="#403C99"/>
<path d="M253.062 132.197H245.096L239.785 137.508L242.441 141.048L254.387 138.254L253.062 132.197Z" fill="#EACDB0"/>
<path d="M85.6188 259.259L84.9082 262.032L89.4837 266.315L92.8383 264.299L90.9059 260.771L86.3299 256.487L85.6188 259.259Z" fill="#1D1D33"/>
<path d="M98.7772 173.193L96.618 181.613L99.8299 212.152L85.5728 258.287L90.534 260.886L111.314 216.883L115.534 203.806L119.751 175.407L98.7772 173.193Z" fill="#292949"/>
<path d="M137.452 181.117L134.277 261.836L129.239 262.336L123.265 211.391L110.539 176.48L137.452 181.117Z" fill="#292949"/>
<path d="M129.206 261.704L129.49 264.563L135.22 266.882L137.66 263.752L134.653 261.163L129.206 261.704Z" fill="#1D1D33"/>
<path d="M94.9857 164.103C99.3091 135.692 97.7651 115.002 97.9891 109.32C98.2131 103.639 102.201 100.691 102.202 100.69C103.952 100.3 105.475 99.1737 107.242 98.7288C119.196 95.7214 125.716 104.849 130.191 114.693C135.704 126.822 140.336 139.356 144.081 152.142C147.367 163.364 150.661 174.687 152.039 186.332C152.608 191.138 153.083 195.694 147.822 197.814C139.438 201.192 130.017 201.118 121.162 202.201C110.991 203.445 100.806 204.355 90.5675 204.78C85.2223 205.003 90.6624 192.514 94.9857 164.103Z" fill="#3B3387"/>
<path d="M104.798 99.7776C104.798 99.7776 105.175 108.727 110.545 109.01C115.915 109.293 119.024 106.749 118.741 103.64C118.458 100.531 116.922 99.1015 116.922 99.1015C116.922 99.1015 110.357 96.1976 104.798 99.7776Z" fill="#FFF5CC"/>
<path d="M150.353 97.8541L134.911 116.956L105.802 103.46L98.4894 105.056L98.1768 108.717L99.3113 118.212L136.191 131.488L145.042 127.063L156.843 100.509L150.353 97.8541Z" fill="#3B3387"/>
<path d="M123.827 90.9221C120.964 89.5863 119.905 86.8937 119.519 85.2852C119.455 84.8308 119.382 84.401 119.303 83.9948L119.302 83.9875C119.302 83.9875 119.302 83.9898 119.302 83.9907C118.199 78.3315 115.824 77.2038 115.824 77.2038L115.822 77.2043C114.986 76.5209 114.005 76.0156 112.956 75.7621C111.344 77.2115 110.337 79.3166 110.221 81.4839L109.985 81.4867C110.972 81.5103 111.946 81.7366 112.852 82.1251C113.543 87.0132 114.596 94.7915 114.635 97.0629C114.691 100.454 115.493 100.517 117.772 101.26C119.191 101.722 120.657 101.159 121.563 100.667H121.564C124.673 99.9554 128.066 92.9004 123.827 90.9221Z" fill="#292949"/>
<path d="M117.079 83.994C113.496 76.1907 103.634 80.1428 102.351 87.5017C101.622 91.6865 103.841 98.9586 108.838 99.0268C109.089 99.7338 109.521 101.07 110.194 101.417C110.924 101.793 112.688 100.824 113.385 100.469C113.578 100.37 113.778 100.258 113.889 100.071C114.029 99.8383 113.936 99.3303 113.802 98.7751C114.336 98.6033 114.865 98.3589 115.385 98.0322C117.567 96.6609 118.74 94.0305 118.855 91.4529C118.97 88.8748 118.155 86.339 117.079 83.994Z" fill="#EACDB0"/>
<path d="M110.407 82.6201C116.036 80.5908 114.426 76.1889 114.426 76.1889C109.814 69.5697 99.9474 73.868 99.9474 73.868C99.9474 73.868 94.7949 76.7037 93.8221 82.8513C93.734 83.4097 93.6681 83.9345 93.6195 84.4316C93.4032 85.9906 93.2005 89.3066 93.3223 90.9282C93.3382 92.9106 93.2037 94.4091 91.7502 96.2698C89.0944 99.6694 92.339 101.17 93.6485 102.17C94.9585 103.17 92.3922 110.845 102.101 107.952C108.44 104.68 109.926 104.668 107.579 101.224C106.577 99.5603 104.289 97.2912 103.252 94.3401C101.617 89.6846 104.779 84.6493 110.407 82.6201Z" fill="#292949"/>
<path d="M151.064 98.1457L153.597 93.1336L159.497 92.2485V99.3294L156.168 100.234L151.064 98.1457Z" fill="#EACDB0"/>
<path d="M1.50605 260.052L1.07031 263.662L7.85403 268.142L11.8988 264.968L8.72505 260.923L1.94134 256.443L1.50605 260.052Z" fill="#1D1D33"/>
<path d="M3.31234 149.728L1.98967 160.69L10.8748 209.955L1.26904 258.843L8.25586 261.139L32.0738 203.244L33.655 185.439L31.271 148.447L3.31234 149.728Z" fill="#353A85"/>
<path d="M52.2846 153.434L52.8212 199.838L44.0764 259.67H37.3522L33.1057 204.463L23.9043 149.255L52.2846 153.434Z" fill="#353A85"/>
<path d="M44.6629 258.87H37.3921V262.505L44.6629 266.141L48.2988 262.505L44.6629 258.87Z" fill="#1D1D33"/>
<path d="M2.41284 162.309C2.32015 166.543 2.45328 172.249 4.07946 172.457C4.38434 172.496 4.6765 172.346 4.94276 172.201C7.7553 170.665 9.74543 168.504 12.5175 167.02C15.4232 165.465 18.7474 164.639 22.0075 164.06C26.8824 163.17 31.865 162.617 36.8317 162.53C42.2246 162.436 52.7232 163.497 52.7232 163.497C55.7543 162.988 58.6505 161.944 61.5539 160.975C66.5424 159.312 71.6372 157.846 76.3181 155.515C77.8203 154.767 81.9641 152.558 80.4828 150.558C79.3615 149.043 75.5529 148.03 73.8363 147.099C70.0024 145.021 66.317 142.649 63.0719 139.8C58.4596 135.751 55.0564 130.784 52.9263 125.19C51.8508 122.366 51.0757 119.448 50.4355 116.51C50.0888 114.92 49.7844 113.32 49.499 111.719C49.3368 110.809 49.3391 107.368 48.6739 106.797C41.932 101.005 39.9487 95.9289 31.7855 97.193C13.1591 100.076 14.479 100.903 10.3234 110.03C8.65223 113.701 6.3872 123.555 5.74836 127.5C4.97457 132.279 4.25848 137.067 3.70097 141.872C3.07894 147.235 2.65229 152.623 2.56187 158.018C2.55188 158.618 2.45691 160.298 2.41284 162.309Z" fill="#8CABEF"/>
<path d="M18.7208 88.0889L11.5449 102.495L48.0348 113.024L49.1239 103.402L18.7208 88.0889Z" fill="#DDDAE8"/>
<path d="M37.6053 90.5592L29.1427 93.339L15.9138 103.756L14.3984 163.855L38.5431 160.406L32.9153 109.393L45.674 101.665L49.1226 97.5933L37.6053 90.5592Z" fill="#DDDAE8"/>
<path d="M31.4041 94.6277C29.3277 94.3441 27.2517 94.0611 25.1752 93.7775C25.2165 92.1068 25.3915 90.4393 25.6982 88.7963C23.9838 88.1215 22.0105 87.1315 21.7747 85.3045C21.7006 84.7288 21.821 84.1481 21.9405 83.5801C22.4358 81.2329 22.9311 78.8851 23.4263 76.5379C23.5976 75.7259 23.7789 74.8903 24.2492 74.2065C25.0743 73.007 26.6074 72.5253 28.05 72.329C31.7317 71.8288 35.6888 72.768 38.4373 75.2688C39.1688 75.9345 39.8231 76.726 40.1216 77.6688C40.5819 79.1223 40.1398 80.6903 39.6986 82.1498C39.2915 83.497 38.8839 84.8442 38.4768 86.1909C38.0084 87.7403 37.35 89.4969 35.8206 90.0281C35.0086 90.3102 34.0672 90.1844 33.3256 90.6183C32.0166 91.3848 32.1188 93.2914 31.4041 94.6277Z" fill="#EACDB0"/>
<path d="M53.3849 71.8452C53.7662 71.2686 54.1742 70.7134 54.6267 70.1954C55.6077 69.0736 56.8 68.1248 57.6019 66.869C58.4039 65.6131 58.7338 63.8829 57.8718 62.6674C57.3152 61.8832 56.3811 61.4665 55.4691 61.1612C52.4644 60.1552 49.1879 59.9739 46.0901 60.6418C43.1399 61.278 40.4782 62.4139 37.5761 61.2066C34.8494 60.0725 32.837 60.4192 29.9096 61.3438C26.7417 62.3444 22.5343 62.453 19.6458 63.9237C18.4395 64.5381 17.4585 65.5309 16.6815 66.6395C13.9899 70.4794 13.7758 75.9027 16.1567 79.9425C16.6911 80.849 17.3395 81.6832 18.0237 82.4825C19.44 84.1368 21.1316 86.1778 23.139 86.8453C23.2544 85.0319 21.8113 79.2469 23.2603 77.8102C25.5599 75.5306 30.532 76.5384 33.2551 77.2209C36.2257 77.9651 38.8156 80.1838 41.7672 80.7459C43.8909 81.1507 46.6553 80.2033 48.5123 79.1665C50.8046 77.8861 51.9946 73.9503 53.3849 71.8452Z" fill="#292949"/>
<path d="M89.9235 105.461C90.1289 106.989 89.3733 108.45 88.5613 109.713C83.1602 118.116 70.1299 127.474 60.8008 122.456C61.8286 122.213 64.5243 122.111 66.6221 121.554C71.6038 120.231 74.6504 114.935 77.1358 110.189C78.6593 107.279 78.6579 99.1783 81.8421 97.9197C84.8809 96.7183 89.5141 102.413 89.9235 105.461Z" fill="#3B3387"/>
<path d="M61.6785 111.428C63.6905 106.561 65.8455 103.402 68.7049 99.8404C71.5642 96.2786 75.5572 93.492 79.9937 93.2316C80.5207 93.2007 81.0678 93.2089 81.5562 93.4315C82.1142 93.686 82.5336 94.1899 82.9325 94.6774C85.1371 97.3723 89.2887 100.914 89.8335 104.816C82.106 104.523 74.17 107.601 68.1383 112.617C63.6355 116.362 61.1696 122.916 60.6721 122.935C55.9362 123.12 60.7316 113.719 61.6785 111.428Z" fill="#474EBB"/>
<path d="M27.8148 115.206C28.036 116.732 29.1633 117.93 30.2902 118.922C37.7872 125.524 52.8832 130.952 60.4802 123.569C59.4252 123.617 56.8044 124.258 54.6343 124.297C49.4809 124.39 45.0994 120.132 41.4086 116.248C39.1458 113.867 36.9271 106.077 33.5203 105.738C30.2688 105.416 27.3731 112.162 27.8148 115.206Z" fill="#3B3387"/>
<path d="M56.6157 113.204C53.347 109.074 50.4086 106.627 46.6828 103.985C42.957 101.344 38.3529 99.758 34.015 100.723C33.4993 100.838 32.9759 100.996 32.5669 101.344C32.0998 101.742 31.8345 102.341 31.5846 102.919C30.2029 106.115 27.1813 110.659 27.7261 114.561C35.0778 112.162 43.5526 112.946 50.7285 116.118C56.0855 118.486 60.2525 124.112 60.7364 123.994C65.3428 122.875 58.1542 115.147 56.6157 113.204Z" fill="#474EBB"/>
<path d="M106.359 117.036L16.5913 129.581L27.1714 205.292L116.939 192.748L106.359 117.036Z" fill="#FFA121"/>
<path d="M112.497 116.179L10.4561 130.438L13.1278 149.557L115.169 135.298L112.497 116.179Z" fill="#FFA121"/>
<g opacity="0.1">
<path d="M23.0786 148.165L109.022 136.159L109.974 142.978L23.0786 148.165Z" fill="black"/>
</g>
<path d="M76.8277 198.352L65.718 199.904L55.009 123.246C54.9004 122.469 55.4197 121.754 56.1685 121.649L64.5662 120.476C65.315 120.372 66.0101 120.917 66.1187 121.694L76.8277 198.352Z" fill="#474EBB"/>
<path d="M32.9507 133.539L36.0695 135.532L39.2446 134.779L39.7458 135.371L39.042 136.017L41.8563 136.147L43.5479 137.685L43.1917 140.707L40.9826 142.943L38.0196 142.271L35.3689 139.817L30.9819 137.275L32.9507 133.539Z" fill="#EACDB0"/>
<path d="M35.7851 134.553L17.7031 123.613L19.6169 107.608L12.2498 100.432L0 127.391L33.7682 141.483L35.7851 134.553Z" fill="#8CABEF"/>
</svg>
