<svg width="390" height="209" viewBox="0 0 390 209" fill="none" xmlns="http://www.w3.org/2000/svg">
<path d="M0 68.1141L1.32843 71.5276L5.03453 70.6268C6.38863 72.8289 8.23513 74.6111 10.3692 75.8837L9.30374 79.5626L12.6573 81.0374L14.7118 77.6632C17.0878 78.245 19.6169 78.2796 22.1067 77.682L23.9799 81.0803L27.3942 79.7522L26.4628 75.9229C28.6807 74.6163 30.4885 72.819 31.7975 70.7273L35.4308 71.7789L36.9059 68.4262L33.6623 66.4519C34.3192 64.0172 34.3983 61.4087 33.8048 58.8384L36.9488 57.1065L35.6204 53.6931L32.1259 54.5425C30.7865 52.1932 28.8992 50.2927 26.6944 48.941L27.6446 45.6585L24.291 44.1838L22.4917 47.1385C19.9652 46.4655 17.2539 46.4142 14.5934 47.0887L12.9684 44.1403L9.55413 45.4684L10.3729 48.8358C8.03921 50.2246 6.16338 52.1592 4.84961 54.4069L1.51701 53.4422L0.0419073 56.7949L3.12988 58.6745C2.53324 61.1406 2.52695 63.7706 3.20479 66.3487L0 68.1141ZM15.3566 54.4168C19.7452 52.7096 24.6865 54.8824 26.3942 59.2699C28.1024 63.659 25.929 68.599 21.5404 70.3063C17.1518 72.0135 12.2089 69.8413 10.5007 65.4527C8.793 61.0646 10.9674 56.1241 15.3566 54.4168Z" fill="#BACDFF"/>
<path d="M18.4744 66.7713C20.7732 66.7713 22.6367 64.9082 22.6367 62.61C22.6367 60.3118 20.7732 58.4487 18.4744 58.4487C16.1756 58.4487 14.312 60.3118 14.312 62.61C14.312 64.9082 16.1756 66.7713 18.4744 66.7713Z" fill="#BACDFF"/>
<path d="M39.7319 68.8211L40.3888 70.5085L42.2212 70.0633C42.8906 71.1521 43.8037 72.033 44.8587 72.6625L44.3322 74.4812L45.9901 75.2102L47.0058 73.5423C48.1803 73.8298 49.4312 73.8471 50.6616 73.5517L51.5878 75.2317L53.2755 74.575L52.8151 72.6818C53.9115 72.0361 54.8057 71.1469 55.4526 70.1131L57.2488 70.6331L57.978 68.9756L56.3745 67.9995C56.6993 66.7955 56.7381 65.5061 56.4452 64.2351L58 63.3789L57.3431 61.6915L55.6155 62.1115C54.9534 60.95 54.0199 60.0105 52.9298 59.3422L53.3997 57.7193L51.7418 56.9903L50.8523 58.4514C49.6035 58.1189 48.263 58.0932 46.9477 58.4268L46.1441 56.9694L44.4564 57.6261L44.8613 59.2909C43.7073 59.9775 42.7801 60.9343 42.1305 62.045L40.4826 61.5679L39.7534 63.2254L41.2798 64.1545C40.9849 65.3736 40.9818 66.674 41.317 67.9487L39.7319 68.8211ZM47.3243 62.0492C49.494 61.205 51.9372 62.2791 52.7816 64.4488C53.626 66.6185 52.5516 69.061 50.3819 69.9052C48.2122 70.7494 45.7685 69.6753 44.9241 67.5056C44.0792 65.3359 45.1541 62.8934 47.3243 62.0492Z" fill="#BACDFF"/>
<path d="M345.351 48.8803C344.543 48.8803 343.747 48.9185 342.963 48.9887L323.692 70.6865C324.169 72.7567 325.066 74.7017 326.305 76.4613L350.372 49.3632C348.758 49.051 347.079 48.8803 345.351 48.8803ZM323.292 67.2149C323.292 67.7412 323.324 68.2608 323.377 68.7755L340.677 49.2966C330.74 51.0793 323.292 58.4226 323.292 67.2149ZM352.048 49.7434L327.24 77.6763C328.453 79.1248 329.911 80.4205 331.565 81.5228L357.744 52.0466C356.007 51.0641 354.091 50.2838 352.048 49.7434ZM367.311 65.5066L349.851 85.1662C359.875 83.439 367.41 76.0586 367.41 67.2144C367.41 66.6383 367.374 66.0696 367.311 65.5066ZM364.333 57.8769L340.206 85.0431C341.857 85.371 343.578 85.5495 345.351 85.5495C346.104 85.5495 346.847 85.5176 347.58 85.4563L366.981 63.6119C366.488 61.5548 365.579 59.6229 364.333 57.8769ZM359.045 52.8473L332.863 82.3272C334.593 83.3165 336.5 84.1047 338.538 84.654L363.391 56.6708C362.169 55.2291 360.705 53.9413 359.045 52.8473Z" fill="#BACDFF"/>
<path d="M204.085 23.1003C203.991 23.1003 203.901 23.1081 203.809 23.1118C203.62 21.0762 201.576 19.4726 199.078 19.4726C197.689 19.4726 196.442 19.9717 195.573 20.7625C195.193 17.6413 192.022 15.205 188.166 15.205C184.171 15.205 180.92 17.823 180.738 21.1066C179.794 20.7463 178.747 20.5399 177.639 20.5399C173.528 20.5399 170.194 23.3108 170.194 26.7284C170.194 29.658 172.645 32.1058 175.935 32.7478C176.36 32.8578 176.812 32.9175 177.28 32.9175H204.085C207.347 32.9175 209.99 30.7201 209.99 28.0094C209.99 25.2977 207.346 23.1003 204.085 23.1003Z" fill="#BACDFF"/>
<path d="M357.642 208.154H334.255C336.544 207.02 339.26 206.275 341.532 205.126C344.169 203.793 346.133 201.923 347.067 199.856C348.194 197.363 347.902 194.55 350.1 192.37C353.15 189.347 359.667 188.777 365.276 189.016C367.537 189.113 369.842 189.288 372.041 188.939C375.134 188.448 377.587 186.996 380.214 185.842C382.842 184.687 386.202 183.783 389.156 184.549C383.912 185.722 380.001 188.605 378.473 192.024C376.974 195.376 377.514 199.608 373.038 201.596C370.523 202.713 367.198 202.678 364.342 203.383C361.106 204.182 358.623 206.033 357.642 208.154Z" fill="#3E8F7D"/>
<path d="M350.315 208.154H346.515C347.385 207.459 348.163 206.729 348.76 205.942C350.428 203.746 350.7 201.125 353.432 199.283C355.682 197.765 359.034 197.208 362.006 196.337C365.156 195.412 368.085 194.394 370.405 192.747C367.603 196.394 359.035 197.793 357.161 198.816C353.02 201.075 352.49 204.928 350.315 208.154Z" fill="#276B5B"/>
<path d="M360.143 176.466C361.034 178.979 361.563 181.838 359.226 183.936C356.7 186.205 351.337 187.057 350.096 189.727C349.118 191.833 351.245 193.944 352.303 196.033C354.277 199.931 352.187 204.537 347.258 207.152C346.579 207.512 345.852 207.836 345.118 208.154H312.408C312.543 206.345 313.997 204.593 316.27 203.514C318.928 202.252 322.556 201.888 324.798 200.329C327.585 198.391 327.206 195.414 327.038 192.782C326.845 189.762 327.371 186.42 330.768 184.321C333.081 182.892 336.464 182.226 338.353 180.561C341.091 178.146 339.671 174.576 342.098 172.028C345.076 168.903 352.124 168.782 356.691 166.58C359.19 165.375 360.71 163.66 362.021 161.842C364.078 163.444 360.332 167.407 359.458 169C358.121 171.436 359.284 174.046 360.143 176.466Z" fill="#276B5B"/>
<path d="M338.49 192.411C338.095 194.774 338.514 199.234 336.76 201.328C335.189 203.205 331.97 204.255 329.863 205.902C329.048 206.54 328.403 207.314 327.868 208.153H325.057C325.373 207.69 325.728 207.237 326.135 206.799C328.457 204.3 332.328 202.437 334.121 199.766C336.521 196.189 334.704 191.924 336.864 188.286C337.883 186.569 339.72 185.113 341.439 183.643C345.463 180.201 348.986 176.519 351.946 172.661C350.55 178.734 348.073 179.571 344.76 182.904C341.447 186.237 339.145 188.483 338.49 192.411Z" fill="#3E8F7D"/>
<path d="M57.9765 207.965H81.3632C79.0741 206.831 76.3578 206.087 74.0864 204.938C71.4495 203.604 69.4849 201.734 68.5511 199.668C67.4245 197.175 67.7163 194.362 65.5179 192.182C62.4683 189.158 55.9514 188.589 50.3418 188.828C48.0811 188.924 45.7756 189.1 43.5766 188.751C40.4836 188.259 38.0313 186.807 35.4039 185.653C32.7758 184.499 29.4162 183.594 26.4624 184.36C31.7059 185.533 35.6175 188.416 37.1454 191.835C38.6437 195.188 38.1038 199.419 42.5798 201.407C45.0951 202.524 48.4201 202.489 51.2762 203.194C54.5117 203.993 56.9954 205.845 57.9765 207.965Z" fill="#3E8F7D"/>
<path d="M65.3031 207.965H69.1031C68.2324 207.271 67.4549 206.541 66.8575 205.753C65.1897 203.558 64.9175 200.936 62.1861 199.094C59.9355 197.576 56.5835 197.02 53.612 196.148C50.4622 195.223 47.5324 194.205 45.2124 192.558C48.015 196.205 56.5828 197.605 58.4567 198.627C62.5982 200.887 63.1275 204.74 65.3031 207.965Z" fill="#276B5B"/>
<path d="M55.475 176.278C54.5841 178.791 54.0548 181.649 56.3911 183.747C58.9178 186.016 64.281 186.868 65.5216 189.539C66.4995 191.644 64.3724 193.755 63.3145 195.844C61.341 199.743 63.431 204.349 68.3595 206.963C69.0387 207.324 69.7652 207.647 70.4993 207.965H103.21C103.075 206.156 101.62 204.404 99.3475 203.325C96.6892 202.063 93.0612 201.7 90.8193 200.141C88.0325 198.202 88.4118 195.226 88.58 192.594C88.7728 189.574 88.2461 186.232 84.8493 184.132C82.5369 182.704 79.1534 182.038 77.2651 180.373C74.5261 177.957 75.9469 174.387 73.5192 171.84C70.5415 168.715 63.4934 168.593 58.9266 166.391C56.4271 165.186 54.9073 163.472 53.5961 161.654C51.5395 163.255 55.2854 167.218 56.1599 168.812C57.4969 171.248 56.3338 173.858 55.475 176.278Z" fill="#276B5B"/>
<path d="M77.1279 192.223C77.5223 194.586 77.1039 199.046 78.8574 201.14C80.4289 203.017 83.6479 204.067 85.7543 205.714C86.5696 206.352 87.2142 207.126 87.7497 207.965H90.5605C90.2442 207.502 89.8895 207.049 89.4831 206.612C87.1606 204.112 83.2894 202.249 81.4962 199.578C79.0962 196.001 80.9134 191.736 78.7535 188.098C77.7346 186.381 75.8979 184.925 74.1785 183.455C70.1548 180.013 66.632 176.331 63.6719 172.473C65.0675 178.546 67.5443 179.383 70.8573 182.716C74.1703 186.049 76.4726 188.295 77.1279 192.223Z" fill="#3E8F7D"/>
<path d="M171.24 203.77H172.652C183.802 203.77 193.707 196.054 197.267 184.596L201.307 171.594H213.408H215.241H227.341L229.763 182.307C232.611 194.908 243.027 203.77 254.99 203.77H257.409C259.637 203.77 261.443 205.73 261.443 208.146H215.241H213.408H167.205C167.205 205.729 169.012 203.77 171.24 203.77Z" fill="#E7E7E7"/>
<path opacity="0.15" d="M227.342 171.594H201.307L197.068 185.237H230.425L227.342 171.594Z" fill="black"/>
<path d="M93.9353 43.1626H334.716C338.597 43.1626 341.744 45.7779 341.744 49.0039V170.489C341.744 173.715 338.597 176.331 334.716 176.331H93.9347C90.0534 176.331 86.9067 173.715 86.9067 170.489V49.0039C86.9067 45.7779 90.0534 43.1626 93.9353 43.1626Z" fill="#E7E7E7"/>
<path d="M93.9353 43.1626H334.716C338.597 43.1626 341.744 45.7779 341.744 49.0039V165.692H86.9067V49.0039C86.9067 45.7779 90.0534 43.1626 93.9353 43.1626Z" fill="#031162"/>
<path d="M96.2176 47.8995H332.434C334.428 47.8995 336.045 49.2433 336.045 50.9008V159.046C336.045 160.704 334.428 162.048 332.434 162.048H96.2169C94.2227 162.048 92.606 160.704 92.606 159.046V50.9008C92.606 49.2433 94.2227 47.8995 96.2176 47.8995Z" fill="#668BDD"/>
<path d="M336.045 47.8995H92.606V162.343H336.045V47.8995Z" fill="#83A0F0"/>
<path d="M139.464 47.8995H92.606V162.343H139.464V47.8995Z" fill="#5E60F4"/>
<path d="M336.044 47.8995H139.464V54.9971H336.044V47.8995Z" fill="#668BDD"/>
<path d="M324.553 51.448C324.553 52.0235 323.991 52.4901 323.299 52.4901C322.606 52.4901 322.045 52.0235 322.045 51.448C322.045 50.8724 322.606 50.4058 323.299 50.4058C323.991 50.4058 324.553 50.8724 324.553 51.448Z" fill="#F8F8F8"/>
<path d="M328.373 51.448C328.373 52.0235 327.812 52.4901 327.119 52.4901C326.427 52.4901 325.865 52.0235 325.865 51.448C325.865 50.8724 326.427 50.4058 327.119 50.4058C327.812 50.4058 328.373 50.8724 328.373 51.448Z" fill="#F8F8F8"/>
<path d="M332.193 51.448C332.193 52.0235 331.632 52.4901 330.939 52.4901C330.247 52.4901 329.686 52.0235 329.686 51.448C329.686 50.8724 330.247 50.4058 330.939 50.4058C331.632 50.4058 332.193 50.8724 332.193 51.448Z" fill="#F8F8F8"/>
<path d="M121.586 67.9563C125.869 64.3965 125.869 58.625 121.586 55.0652C117.303 51.5054 110.359 51.5054 106.076 55.0652C101.793 58.625 101.793 64.3965 106.076 67.9563C110.359 71.5161 117.303 71.5161 121.586 67.9563Z" fill="#668BDD"/>
<path d="M384.282 22.9039H332.638C329.494 22.9039 326.945 20.7856 326.945 18.1723C326.945 15.5591 329.494 13.4407 332.638 13.4407H384.282C387.426 13.4407 389.975 15.5591 389.975 18.1723C389.975 20.7856 387.426 22.9039 384.282 22.9039Z" fill="white"/>
<path d="M384.282 36.9395H332.638C329.494 36.9395 326.945 34.8212 326.945 32.2079C326.945 29.5947 329.494 27.4763 332.638 27.4763H384.282C387.426 27.4763 389.975 29.5947 389.975 32.2079C389.975 34.8212 387.426 36.9395 384.282 36.9395Z" fill="white"/>
<path d="M335.282 29.791H336.519L336.501 31.3008L338.083 30.531L338.701 31.4679L337.065 32.2079L338.701 32.9484L338.083 33.8999L336.482 33.1144L336.519 34.6258H335.283L335.32 33.0997L333.721 33.8696L333.12 32.9484L334.721 32.2079L333.12 31.4679L333.721 30.5148L335.302 31.3003L335.282 29.791Z" fill="#5E60F4"/>
<path d="M343.725 29.791H344.962L344.944 31.3008L346.525 30.531L347.144 31.4679L345.508 32.2079L347.144 32.9484L346.525 33.8999L344.925 33.1144L344.962 34.6258H343.725L343.763 33.0997L342.163 33.8696L341.563 32.9484L343.164 32.2079L341.563 31.4679L342.163 30.5148L343.745 31.3003L343.725 29.791Z" fill="#5E60F4"/>
<path d="M352.318 29.791H353.555L353.537 31.3008L355.119 30.531L355.737 31.4679L354.101 32.2079L355.737 32.9484L355.119 33.8999L353.518 33.1144L353.556 34.6258H352.319L352.356 33.0997L350.757 33.8696L350.156 32.9484L351.757 32.2079L350.156 31.4679L350.757 30.5148L352.338 31.3003L352.318 29.791Z" fill="#5E60F4"/>
<path d="M360.761 29.791H361.998L361.98 31.3008L363.562 30.531L364.18 31.4679L362.544 32.2079L364.18 32.9484L363.562 33.8999L361.961 33.1144L361.998 34.6258H360.762L360.799 33.0997L359.2 33.8696L358.599 32.9484L360.2 32.2079L358.599 31.4679L359.2 30.5148L360.781 31.3003L360.761 29.791Z" fill="#5E60F4"/>
<path d="M369.104 29.791H370.341L370.323 31.3008L371.905 30.531L372.524 31.4679L370.887 32.2079L372.524 32.9484L371.905 33.8999L370.304 33.1144L370.342 34.6258H369.105L369.142 33.0997L367.543 33.8696L366.942 32.9484L368.543 32.2079L366.942 31.4679L367.543 30.5148L369.124 31.3003L369.104 29.791Z" fill="#5E60F4"/>
<path d="M377.548 29.791H378.784L378.767 31.3008L380.348 30.531L380.967 31.4679L379.331 32.2079L380.967 32.9484L380.348 33.8999L378.748 33.1144L378.785 34.6258H377.548L377.585 33.0997L375.986 33.8696L375.386 32.9484L376.987 32.2079L375.386 31.4679L375.986 30.5148L377.568 31.3003L377.548 29.791Z" fill="#5E60F4"/>
<path d="M335.088 19.7135C334.001 19.7135 333.119 18.9804 333.119 18.0765C333.119 17.1726 334.001 16.4394 335.088 16.4394C336.176 16.4394 337.058 17.1726 337.058 18.0765C337.058 18.9804 336.176 19.7135 335.088 19.7135Z" fill="#5E60F4"/>
<path d="M341.187 19.7135C340.099 19.7135 339.217 18.9804 339.217 18.0765C339.217 17.1726 340.099 16.4394 341.187 16.4394C342.274 16.4394 343.157 17.1726 343.157 18.0765C343.157 18.9804 342.274 19.7135 341.187 19.7135Z" fill="#5E60F4"/>
<path d="M347.106 19.7135C346.018 19.7135 345.136 18.9804 345.136 18.0765C345.136 17.1726 346.018 16.4394 347.106 16.4394C348.193 16.4394 349.075 17.1726 349.075 18.0765C349.075 18.9804 348.193 19.7135 347.106 19.7135Z" fill="#5E60F4"/>
<path d="M353.204 19.7135C352.116 19.7135 351.234 18.9804 351.234 18.0765C351.234 17.1726 352.116 16.4394 353.204 16.4394C354.292 16.4394 355.174 17.1726 355.174 18.0765C355.174 18.9804 354.292 19.7135 353.204 19.7135Z" fill="#5E60F4"/>
<path d="M359.286 19.7135C358.198 19.7135 357.316 18.9804 357.316 18.0765C357.316 17.1726 358.198 16.4394 359.286 16.4394C360.374 16.4394 361.255 17.1726 361.255 18.0765C361.255 18.9804 360.373 19.7135 359.286 19.7135Z" fill="#5E60F4"/>
<path d="M365.384 19.7135C364.296 19.7135 363.414 18.9804 363.414 18.0765C363.414 17.1726 364.296 16.4394 365.384 16.4394C366.471 16.4394 367.353 17.1726 367.353 18.0765C367.353 18.9804 366.471 19.7135 365.384 19.7135Z" fill="#5E60F4"/>
<path d="M371.303 19.7135C370.214 19.7135 369.333 18.9804 369.333 18.0765C369.333 17.1726 370.215 16.4394 371.303 16.4394C372.39 16.4394 373.272 17.1726 373.272 18.0765C373.272 18.9804 372.39 19.7135 371.303 19.7135Z" fill="#5E60F4"/>
<path d="M377.401 19.7135C376.313 19.7135 375.431 18.9804 375.431 18.0765C375.431 17.1726 376.313 16.4394 377.401 16.4394C378.489 16.4394 379.37 17.1726 379.37 18.0765C379.37 18.9804 378.489 19.7135 377.401 19.7135Z" fill="#5E60F4"/>
<path d="M382.936 19.7135C381.848 19.7135 380.967 18.9804 380.967 18.0765C380.967 17.1726 381.849 16.4394 382.936 16.4394C384.024 16.4394 384.906 17.1726 384.906 18.0765C384.906 18.9804 384.024 19.7135 382.936 19.7135Z" fill="#5E60F4"/>
<path d="M263.07 8.5243C277.144 8.5243 288.595 18.0414 288.595 29.7392C288.595 41.4371 277.144 50.9542 263.07 50.9542C248.996 50.9542 237.546 41.4371 237.546 29.7392C237.546 18.0414 248.996 8.5243 263.07 8.5243ZM263.07 7.13074C248.047 7.13074 235.869 17.2527 235.869 29.7392C235.869 42.2257 248.047 52.3478 263.07 52.3478C278.093 52.3478 290.271 42.2257 290.271 29.7392C290.271 17.2527 278.093 7.13074 263.07 7.13074Z" fill="white"/>
<path d="M263.909 18.8824H262.232V30.3755H263.909V18.8824Z" fill="white"/>
<path d="M263.909 42.2404H262.232V52.3477H263.909V42.2404Z" fill="white"/>
<path d="M263.909 7.13074H262.232V18.8825H263.909V7.13074Z" fill="white"/>
<path d="M263.909 30.3755H262.232V42.2404H263.909V30.3755Z" fill="white"/>
<path d="M249.633 11.0501H247.956V18.8825H249.633V11.0501Z" fill="white"/>
<path d="M249.633 18.8824H247.956V30.3755H249.633V18.8824Z" fill="white"/>
<path d="M249.633 42.2404H247.956V48.4289H249.633V42.2404Z" fill="white"/>
<path d="M249.633 30.3755H247.956V42.2404H249.633V30.3755Z" fill="white"/>
<path d="M277.737 18.8824H276.06V30.3755H277.737V18.8824Z" fill="white"/>
<path d="M277.737 30.3755H276.06V42.2404H277.737V30.3755Z" fill="white"/>
<path d="M277.737 42.2404H276.06V48.4294H277.737V42.2404Z" fill="white"/>
<path d="M277.737 10.827H276.06V18.8825H277.737V10.827Z" fill="white"/>
<path d="M290.252 29.6785H276.898V31.0726H290.252V29.6785Z" fill="white"/>
<path d="M276.898 29.6785H263.07V31.0726H276.898V29.6785Z" fill="white"/>
<path d="M248.794 29.6785H235.888V31.0726H248.794V29.6785Z" fill="white"/>
<path d="M263.07 29.6785H248.794V31.0726H263.07V29.6785Z" fill="white"/>
<path d="M263.07 41.5433H248.794V42.9374H263.07V41.5433Z" fill="white"/>
<path d="M248.794 41.5433H241.075V42.9374H248.794V41.5433Z" fill="white"/>
<path d="M276.898 41.5433H263.07V42.9374H276.898V41.5433Z" fill="white"/>
<path d="M284.932 41.5433H276.898V42.9374H284.932V41.5433Z" fill="white"/>
<path d="M248.795 18.1854H239.609V19.5795H248.795V18.1854Z" fill="white"/>
<path d="M286.399 18.1854H276.898V19.5795H286.399V18.1854Z" fill="white"/>
<path d="M276.898 18.1854H263.07V19.5795H276.898V18.1854Z" fill="white"/>
<path d="M263.07 18.1854H248.794V19.5795H263.07V18.1854Z" fill="white"/>
<path d="M341.722 0.592301H340.298V0H341.722V0.592301ZM338.162 0.592301H336.738V0H338.162V0.592301ZM334.601 0.592301H333.177V0H334.601V0.592301ZM331.041 0.592301H329.617V0H331.041V0.592301ZM327.48 0.592301H326.056V0H327.48V0.592301ZM323.92 0.592301H322.496V0H323.92V0.592301ZM320.359 0.592301H318.935V0H320.359V0.592301ZM316.799 0.592301H315.375V0H316.799V0.592301ZM313.239 0.592301H311.815V0H313.239V0.592301ZM309.678 0.592301H308.254V0H309.678V0.592301ZM306.118 0.592301H304.694V0H306.118V0.592301ZM302.557 0.592301H301.133V0H302.557V0.592301ZM298.997 0.592301H297.573V0H298.997V0.592301ZM295.436 0.592301H294.012V0H295.436V0.592301ZM291.876 0.592301H290.452V0H291.876V0.592301ZM288.317 0.592301C287.863 0.592301 287.41 0.628435 286.968 0.699134L286.834 0.118354C287.32 0.0408472 287.818 0.00104711 288.316 0.000523409L288.317 0.592301ZM345.35 0.204241L345.173 0.777164C344.738 0.68447 344.287 0.625816 343.836 0.602773L343.879 0.0120444C344.376 0.0371818 344.871 0.101597 345.35 0.204241ZM285.054 1.25059C284.653 1.42288 284.27 1.62817 283.916 1.86069L283.475 1.39565C283.865 1.14061 284.286 0.914897 284.726 0.724795L285.054 1.25059ZM348.61 1.6486L348.137 2.0906C347.8 1.84079 347.433 1.61717 347.045 1.42498L347.409 0.916469C347.837 1.12804 348.24 1.37418 348.61 1.6486ZM282.516 3.08091C282.253 3.38727 282.025 3.71458 281.838 4.05498L281.191 3.80937C281.397 3.43492 281.647 3.0741 281.936 2.73736L282.516 3.08091ZM350.716 4.17072L350.051 4.38386C349.889 4.03351 349.685 3.6952 349.446 3.37732L350.049 3.0631C350.312 3.41293 350.536 3.7858 350.716 4.17072ZM281.267 5.67163C281.219 5.94814 281.196 6.23251 281.196 6.51583V6.80963H280.483V6.51583C280.483 6.20371 280.509 5.89159 280.562 5.58732L281.267 5.67163ZM351.238 6.51583V7.18512H350.526V6.51583C350.526 6.35087 350.518 6.18747 350.502 6.02618L351.212 5.97799C351.23 6.15553 351.238 6.33516 351.238 6.51583ZM351.238 10.1445H350.526V8.96097H351.238V10.1445Z" fill="#83A0F0"/>
<path d="M231.189 36.7395H229.766V36.1477H231.189V36.7395ZM227.629 36.7395H226.205V36.1477H227.629V36.7395ZM223.998 36.5226C223.518 36.4137 223.049 36.2629 222.604 36.0738L222.927 35.5465C223.33 35.7167 223.753 35.8534 224.186 35.9518L223.998 36.5226ZM220.79 34.9887C220.433 34.6976 220.112 34.3765 219.835 34.0346L220.426 33.7041C220.676 34.0131 220.966 34.3032 221.289 34.5661L220.79 34.9887ZM218.882 32.353C218.742 31.956 218.649 31.5454 218.607 31.1328L219.318 31.0841C219.355 31.4564 219.438 31.8272 219.565 32.1859L218.882 32.353ZM219.294 29.3333H218.582V28.1498H219.294V29.3333ZM158.107 28.2042H157.395V27.0202H158.107V28.2042ZM219.294 26.3739H218.582V25.1904H219.294V26.3739ZM158.107 25.2443H157.395V24.0608H158.107V25.2443ZM219.294 23.4145H218.582V22.231H219.294V23.4145ZM158.107 22.2854H157.395V21.1019H158.107V22.2854ZM219.294 20.4556H218.582V19.2721H219.294V20.4556ZM158.107 19.326H157.395V18.1425H158.107V19.326ZM219.294 17.4962H218.582V16.3127H219.294V17.4962ZM158.107 16.3666H157.395V16.2346C157.395 15.8728 157.418 15.5093 157.464 15.1537L158.172 15.2171C158.129 15.5517 158.107 15.8942 158.107 16.2346V16.3666ZM218.411 14.597C218.331 14.2216 218.223 13.8461 218.089 13.4821L218.77 13.3087C218.912 13.6958 219.027 14.0948 219.111 14.4939L218.411 14.597ZM158.581 13.5329L157.899 13.3632C158.038 12.9762 158.209 12.5908 158.405 12.2195L159.057 12.4572C158.872 12.807 158.712 13.1689 158.581 13.5329ZM217.305 11.8927C217.094 11.5565 216.855 11.226 216.593 10.9097L217.18 10.5751C217.457 10.9107 217.711 11.2616 217.936 11.6193L217.305 11.8927ZM160.059 10.9542L159.47 10.6211C159.743 10.287 160.045 9.96285 160.367 9.65753L160.903 10.0472C160.6 10.3347 160.316 10.64 160.059 10.9542ZM215.27 9.58893C214.945 9.31922 214.598 9.06314 214.237 8.82852L214.676 8.36243C215.059 8.61171 215.429 8.88351 215.774 9.16997L215.27 9.58893ZM162.401 8.86204L161.958 8.39856C162.341 8.14667 162.746 7.91205 163.162 7.701L163.532 8.20637C163.141 8.40433 162.76 8.6248 162.401 8.86204ZM212.5 7.89739C212.093 7.7209 211.67 7.56379 211.24 7.43025L211.49 6.87618C211.946 7.0181 212.397 7.18516 212.829 7.37265L212.5 7.89739ZM165.388 7.44858L165.134 6.89556C165.59 6.75102 166.061 6.629 166.536 6.53211L166.706 7.10661C166.26 7.19825 165.817 7.31347 165.388 7.44858ZM209.246 6.9783C208.795 6.91231 208.333 6.86885 207.875 6.84895L207.911 6.25769C208.399 6.27917 208.889 6.32525 209.369 6.39543L209.246 6.9783ZM168.75 6.85157L168.709 6.26084C168.943 6.24932 169.178 6.24408 169.415 6.24408H170.154V6.83586H169.415C169.192 6.83586 168.97 6.84109 168.75 6.85157ZM205.758 6.83586H204.334V6.24408H205.758V6.83586ZM202.198 6.83586H200.774V6.24408H202.198V6.83586ZM198.637 6.83586H197.213V6.24408H198.637V6.83586ZM195.076 6.83586H193.652V6.24408H195.076V6.83586ZM191.516 6.83586H190.092V6.24408H191.516V6.83586ZM187.956 6.83586H186.532V6.24408H187.956V6.83586ZM184.395 6.83586H182.971V6.24408H184.395V6.83586ZM180.834 6.83586H179.41V6.24408H180.834V6.83586ZM177.274 6.83586H175.85V6.24408H177.274V6.83586ZM173.714 6.83586H172.29V6.24408H173.714V6.83586Z" fill="#83A0F0"/>
<path d="M50.6389 151.693C54.4956 151.693 57.6221 149.095 57.6221 145.889C57.6221 142.684 54.4956 140.085 50.6389 140.085C46.7822 140.085 43.6558 142.684 43.6558 145.889C43.6558 149.095 46.7822 151.693 50.6389 151.693Z" fill="#4047CC"/>
<path d="M373.885 141.031C377.098 141.031 379.712 143.204 379.712 145.874C379.712 148.544 377.098 150.717 373.885 150.717C370.672 150.717 368.058 148.544 368.058 145.874C368.058 143.204 370.672 141.031 373.885 141.031ZM373.885 140.071C370.028 140.071 366.902 142.669 366.902 145.875C366.902 149.08 370.028 151.679 373.885 151.679C377.742 151.679 380.868 149.08 380.868 145.875C380.868 142.669 377.742 140.071 373.885 140.071Z" fill="#4047CC"/>
<path d="M31.3563 130.438V138.27L24.4443 134.564L31.3563 130.438Z" fill="#4047CC"/>
<path d="M23.2479 130.438V138.27L16.3359 134.564L23.2479 130.438Z" fill="#4047CC"/>
<path d="M54.1919 29.3244V21.492L61.1039 25.1977L54.1919 29.3244Z" fill="#4047CC"/>
<path d="M62.3003 29.3244V21.492L69.2123 25.1977L62.3003 29.3244Z" fill="#4047CC"/>
<path d="M98.9046 118.527H97.8645V117.935H98.9046V118.527ZM96.304 118.527H95.264V117.935H96.304V118.527ZM93.7035 118.527H92.6635V117.935H93.7035V118.527ZM91.0929 118.517C90.7371 118.501 90.38 118.463 90.0321 118.407L90.1053 117.821C90.4362 117.875 90.7758 117.91 91.1145 117.926L91.0929 118.517ZM88.4716 118.015C88.1338 117.898 87.7965 117.76 87.4684 117.604L87.6695 117.058C87.9806 117.206 88.3014 117.338 88.6226 117.448L88.4716 118.015ZM86.0464 116.777C85.7441 116.566 85.4477 116.336 85.1666 116.093L85.4809 115.621C85.7482 115.853 86.0299 116.071 86.3175 116.271L86.0464 116.777ZM83.9705 114.887C83.7248 114.598 83.4882 114.292 83.2678 113.975L83.6755 113.608C83.8849 113.909 84.11 114.2 84.3437 114.475L83.9705 114.887ZM82.3741 112.468C82.1988 112.118 82.0377 111.753 81.8946 111.385L82.3704 111.145C82.5062 111.496 82.6599 111.842 82.8265 112.175L82.3741 112.468ZM81.3617 109.668C81.2697 109.28 81.1937 108.881 81.1371 108.483L81.6507 108.387C81.7045 108.766 81.7763 109.145 81.8638 109.514L81.3617 109.668ZM81.0009 106.672L81.0005 105.485H81.5205L81.5209 106.665L81.0009 106.672ZM81.52 103.71H81V102.526H81.52V103.71ZM81.52 100.75H81V99.5668H81.52V100.75ZM81.52 97.7909H81V96.6068H81.52V97.7909ZM81.52 94.8315H81V93.648H81.52V94.8315ZM81.52 91.8721H81V90.6886H81.52V91.8721ZM81.52 88.9132H81V87.7297H81.52V88.9132ZM81.52 85.9538H81V84.7703H81.52V85.9538ZM81.52 82.9944H81V81.8108H81.52V82.9944ZM81.52 80.035H81V78.8514H81.52V80.035ZM81.52 77.0761H81V75.8925H81.52V77.0761ZM81.52 74.1167H81V72.9331H81.52V74.1167ZM81.52 71.1568H81V69.9732H81.52V71.1568ZM81.52 68.1979H81V67.0143H81.52V68.1979ZM81.52 65.2385H81V64.0549H81.52V65.2385ZM81.52 62.2796H81V61.096H81.52V62.2796ZM81.5554 59.3469L81.0373 59.2971C81.0672 58.8944 81.115 58.4901 81.1799 58.0952L81.6912 58.2042C81.6295 58.5791 81.584 58.9641 81.5554 59.3469ZM82.0837 56.5352L81.5932 56.3393C81.7105 55.9591 81.8463 55.5815 81.9972 55.216L82.468 55.4684C82.3244 55.8151 82.1951 56.1743 82.0837 56.5352ZM83.2167 53.9648L82.7851 53.6349C82.9816 53.3018 83.1965 52.9751 83.4238 52.6635L83.8242 53.041C83.6074 53.3375 83.4031 53.6485 83.2167 53.9648ZM84.8789 51.7988L84.5333 51.3563C84.7989 51.0877 85.0787 50.8316 85.3644 50.5964L85.6691 51.0756C85.3976 51.3003 85.1316 51.5427 84.8789 51.7988ZM86.9645 50.1722L86.7266 49.6459C87.0418 49.4616 87.369 49.2935 87.6985 49.1474L87.8876 49.6988C87.5747 49.8376 87.2641 49.9968 86.9645 50.1722ZM89.3418 49.1945L89.2282 48.6174C89.5733 48.5294 89.9267 48.4608 90.2792 48.4137L90.34 49.0013C90.0054 49.0463 89.669 49.1112 89.3418 49.1945ZM105.909 48.9216H104.869V48.3293H105.909V48.9216ZM103.309 48.9216H102.269V48.3293H103.309V48.9216ZM100.708 48.9216H99.668V48.3293H100.708V48.9216ZM98.1075 48.9216H97.0675V48.3293H98.1075V48.9216ZM95.5075 48.9216H94.467V48.3293H95.5075V48.9216ZM92.9065 48.9216H91.8664V48.3293H92.9065V48.9216Z" fill="#83A0F0"/>
<path d="M177.344 35.1688C177.254 34.7111 176.897 34.3854 176.485 34.3854C167.012 34.3854 158.845 31.7187 153.661 29.4815C148.029 27.0515 144.601 24.5875 144.567 24.5629C144.426 24.4603 144.258 24.4058 144.09 24.4058C143.922 24.4058 143.758 24.4603 143.616 24.5629C143.582 24.5875 140.154 27.0515 134.523 29.4815C129.339 31.7187 121.171 34.3854 111.698 34.3854C111.285 34.3854 110.927 34.7132 110.838 35.1725C110.776 35.4925 109.341 43.1379 110.532 53.8596C111.231 60.1539 112.699 66.1958 114.895 71.8171C117.638 78.8409 121.531 85.2211 126.464 90.7807C126.49 90.8116 126.515 90.8409 126.543 90.8697C131.282 96.191 137.052 100.835 143.693 104.673C143.819 104.745 143.955 104.781 144.092 104.781C144.229 104.781 144.365 104.745 144.49 104.673C153.43 99.5065 160.734 92.9226 166.199 85.1049C170.66 78.7252 173.924 71.4945 175.902 63.6134C179.385 49.7339 177.791 37.9266 177.436 35.6988C177.382 35.3616 177.346 35.1767 177.344 35.1688Z" fill="#383FC1"/>
<path d="M178.203 34.9505C178.024 34.0346 177.31 33.3836 176.485 33.3836C167.167 33.3836 159.125 30.7636 154.021 28.5651C148.46 26.1707 145.073 23.7418 145.039 23.7172C144.757 23.513 144.428 23.4041 144.094 23.4041H144.09C143.755 23.4041 143.427 23.513 143.144 23.7183C143.111 23.7418 139.724 26.1707 134.164 28.5651C129.059 30.763 121.017 33.3836 111.699 33.3836C110.872 33.3836 110.157 34.0388 109.98 34.9584C109.916 35.2857 108.45 43.0945 109.66 53.9858C110.37 60.377 111.861 66.5137 114.091 72.2246C116.878 79.3584 120.829 85.8381 125.837 91.4831C125.868 91.5197 125.899 91.5558 125.932 91.5909C130.735 96.9819 136.577 101.684 143.296 105.567C143.547 105.712 143.82 105.785 144.093 105.785C144.367 105.785 144.64 105.712 144.89 105.567C153.943 100.335 161.345 93.6611 166.89 85.7302C171.423 79.2469 174.74 71.8989 176.75 63.89C178.241 57.9497 178.998 51.7434 179 45.4433C179.002 40.443 178.514 36.8405 178.304 35.5234C178.246 35.1678 178.208 34.972 178.203 34.9505ZM144.092 103.78C137.099 99.7397 131.549 95.0866 127.153 90.1481C127.133 90.1267 127.114 90.1052 127.095 90.0822C105.785 66.0811 111.698 35.3878 111.698 35.3878C130.336 35.3878 144.09 25.4088 144.09 25.4088H144.094C144.094 25.4088 157.848 35.3878 176.485 35.3878C176.485 35.3878 176.518 35.558 176.571 35.8811C177.356 40.8091 182.572 81.5417 144.092 103.78Z" fill="#B9C0FC"/>
<path d="M144.528 25.9031H144.524C144.524 25.9031 130.77 35.8821 112.133 35.8821C112.133 35.8821 106.301 66.1549 127.095 90.0816C127.113 90.1046 127.132 90.1261 127.153 90.1476C131.549 95.086 137.099 99.7391 144.092 103.78C182.571 81.5411 177.356 40.8091 176.57 35.8805C158.111 35.7585 144.528 25.9031 144.528 25.9031Z" fill="#4047CC"/>
<path d="M144.566 37.1589C139.558 39.9214 130.906 43.8455 120.204 45.26C120.168 49.0798 120.468 54.0859 121.694 59.5559C124.817 73.4972 132.503 84.665 144.566 92.8122C156.629 84.665 164.316 73.4972 167.439 59.5559C168.664 54.0864 168.963 49.0798 168.928 45.26C158.226 43.8455 149.574 39.9214 144.566 37.1589Z" fill="#4047CC"/>
<path d="M144.091 36.739C139.083 39.5015 130.431 43.4256 119.729 44.8401C119.694 48.6599 119.993 53.6659 121.219 59.136C124.342 73.0773 132.029 84.2451 144.092 92.3923C156.155 84.2451 163.841 73.0773 166.964 59.136C168.189 53.6665 168.489 48.6599 168.453 44.8401C157.752 43.4256 149.099 39.501 144.091 36.739Z" fill="#5E60F4"/>
<g opacity="0.2">
<path d="M146.358 41.4009C145.446 39.6041 143.168 39.6041 142.256 41.4009L125.561 74.3079C124.649 76.1048 125.789 78.3504 127.612 78.3504H161.002C162.824 78.3504 163.964 76.1048 163.052 74.3079L146.358 41.4009Z" fill="black"/>
</g>
<path d="M146.143 40.6661C145.231 38.8693 142.953 38.8693 142.041 40.6661L125.346 73.5731C124.434 75.3699 125.574 77.6155 127.396 77.6155H160.786C162.609 77.6155 163.749 75.3699 162.837 73.5731L146.143 40.6661Z" fill="#383FC1"/>
<path d="M144.186 41.9524C144.17 41.922 144.154 41.8911 144.092 41.8911C144.03 41.8911 144.014 41.9225 143.999 41.9524L127.304 74.8594C127.288 74.8898 127.272 74.9207 127.304 74.9819C127.335 75.0432 127.366 75.0432 127.397 75.0432H160.787C160.818 75.0432 160.849 75.0432 160.88 74.9819C160.912 74.9207 160.896 74.8892 160.88 74.8594L144.186 41.9524Z" fill="#FDC51C"/>
<path d="M144.103 66.1089C142.533 66.1089 141.429 67.2825 141.429 68.8583C141.429 70.4058 142.533 71.6622 144.103 71.6622C145.675 71.6622 146.754 70.4058 146.754 68.8583C146.754 67.2825 145.675 66.1089 144.103 66.1089Z" fill="#383FC1"/>
<path d="M142.322 64.6137H145.865L146.755 52.7357H141.455L142.322 64.6137Z" fill="#383FC1"/>
<path d="M138.363 128.279C138.363 129.299 137.638 130.125 136.743 130.125H95.8043C94.9088 130.125 94.1826 129.299 94.1826 128.279V100.214C94.1826 99.1971 94.9088 98.3707 95.8043 98.3707H136.743C137.637 98.3707 138.363 99.1971 138.363 100.214V128.279Z" fill="#FDC51C"/>
<path d="M94.1831 109.176V111.727L116.274 127.212L138.363 111.727V109.176L116.274 124.658L94.1831 109.176Z" fill="#FFD454"/>
<path d="M94.1831 108.434V110.987L116.274 126.47L138.363 110.987V108.434L116.274 123.917L94.1831 108.434Z" fill="#DBAB18"/>
<path d="M118.722 112.625C118.828 112.721 119 112.769 119.246 112.769C119.635 112.769 119.983 112.637 120.288 112.372C120.595 112.108 120.851 111.766 121.058 111.346C121.264 110.923 121.419 110.459 121.524 109.948C121.631 109.436 121.684 108.937 121.684 108.442C121.684 107.059 121.313 106.002 120.574 105.27C119.835 104.536 118.793 104.169 117.453 104.169C116.419 104.169 115.499 104.371 114.69 104.776C113.882 105.177 113.202 105.719 112.645 106.396C112.093 107.076 111.671 107.856 111.381 108.739C111.089 109.622 110.944 110.539 110.944 111.486C110.944 112.354 111.058 113.092 111.284 113.704C111.511 114.316 111.82 114.82 112.212 115.211C112.6 115.601 113.059 115.888 113.582 116.066C114.105 116.247 114.662 116.336 115.253 116.336C115.801 116.336 116.309 116.298 116.774 116.217C117.236 116.141 117.66 116.017 118.041 115.85C118.136 116.114 118.226 116.386 118.31 116.67C118.393 116.952 118.468 117.233 118.53 117.507C118.34 117.618 118.113 117.717 117.85 117.806C117.588 117.896 117.302 117.968 116.995 118.022C116.689 118.076 116.365 118.116 116.021 118.148C115.678 118.179 115.336 118.194 114.999 118.194C114.187 118.194 113.418 118.062 112.687 117.797C111.959 117.533 111.319 117.127 110.77 116.58C110.222 116.032 109.79 115.344 109.472 114.516C109.155 113.689 108.998 112.704 108.998 111.561C108.998 110.492 109.169 109.41 109.512 108.315C109.855 107.223 110.379 106.234 111.087 105.35C111.796 104.468 112.697 103.747 113.79 103.188C114.882 102.63 116.177 102.351 117.676 102.351C118.48 102.351 119.238 102.472 119.951 102.72C120.663 102.965 121.287 103.342 121.82 103.847C122.352 104.351 122.774 104.983 123.087 105.749C123.397 106.512 123.552 107.407 123.552 108.442C123.552 109.185 123.444 109.922 123.228 110.65C123.012 111.375 122.71 112.028 122.318 112.606C121.927 113.183 121.453 113.649 120.901 114.011C120.346 114.372 119.731 114.558 119.056 114.571C118.285 114.571 117.7 114.342 117.298 113.886C116.981 114.066 116.647 114.226 116.3 114.364C115.951 114.502 115.512 114.571 114.986 114.571C114.647 114.571 114.329 114.514 114.034 114.4C113.74 114.284 113.48 114.107 113.257 113.859C113.038 113.613 112.86 113.302 112.729 112.929C112.597 112.56 112.531 112.115 112.531 111.597C112.531 110.779 112.648 110.033 112.887 109.354C113.125 108.674 113.449 108.088 113.859 107.597C114.272 107.104 114.751 106.717 115.294 106.441C115.838 106.165 116.42 106.027 117.043 106.027C117.519 106.027 117.987 106.068 118.446 106.144C118.906 106.224 119.335 106.347 119.737 106.515L118.722 112.625ZM117.485 108.048C117.369 108.01 117.262 107.985 117.161 107.975C117.061 107.962 116.953 107.956 116.837 107.956C116.489 107.956 116.178 108.048 115.91 108.225C115.64 108.406 115.411 108.643 115.22 108.938C115.031 109.233 114.886 109.578 114.784 109.966C114.685 110.356 114.635 110.76 114.635 111.183C114.635 111.721 114.738 112.114 114.944 112.354C115.149 112.595 115.42 112.713 115.758 112.713C115.969 112.713 116.151 112.698 116.305 112.661C116.459 112.625 116.624 112.576 116.802 112.514L117.485 108.048Z" fill="white"/>
<path d="M268.839 136.925C291.329 136.925 309.561 119.083 309.561 97.0746C309.561 75.0656 291.329 57.2239 268.839 57.2239C246.349 57.2239 228.117 75.0656 228.117 97.0746C228.117 119.083 246.349 136.925 268.839 136.925Z" fill="#5E60F4"/>
<path d="M246.117 116.693L281.984 116.693L281.984 87.6095L246.117 87.6095L246.117 116.693Z" fill="#F97072"/>
<path d="M289.865 87.6097H281.984V116.694H289.865V87.6097Z" fill="#F97072"/>
<path d="M258.055 99.5804C258.055 96.5833 260.609 94.1696 263.703 94.3099C266.462 94.4345 268.727 96.6681 268.835 99.3693C268.919 101.486 267.728 103.336 265.954 104.25V107.633C265.954 108.988 264.832 110.087 263.447 110.087C262.062 110.087 260.94 108.989 260.94 107.633V104.25C259.226 103.367 258.055 101.608 258.055 99.5804Z" fill="#383FC1"/>
<path d="M282.285 87.6097H277.201V82.3874C277.201 77.0515 272.765 72.7106 267.313 72.7106C261.86 72.7106 257.424 77.0515 257.424 82.3874V87.6097H252.341V82.3874C252.341 74.3083 259.057 67.736 267.313 67.736C275.568 67.736 282.285 74.3083 282.285 82.3874V87.6097Z" fill="white"/>
<path d="M314.375 108.563H272.935V131.889H314.375V108.563Z" fill="#E3ECFC"/>
<path d="M314.375 131.889H272.935L293.655 115.841L314.375 131.889Z" fill="#F7F9FC"/>
<path d="M297.294 113.664C298.433 114.247 299.319 115.06 299.952 116.101C300.585 117.142 300.902 118.319 300.902 119.631C300.902 120.985 300.631 122.044 300.088 122.81C299.545 123.576 298.794 123.958 297.838 123.958C297.327 123.958 296.895 123.841 296.545 123.606C296.194 123.372 295.949 123.037 295.81 122.599C295.172 123.505 294.214 123.958 292.937 123.958C292.214 123.958 291.559 123.789 290.974 123.45C290.389 123.112 289.931 122.64 289.602 122.037C289.272 121.433 289.107 120.746 289.107 119.975C289.107 119.215 289.272 118.535 289.602 117.936C289.931 117.338 290.389 116.869 290.974 116.53C291.559 116.192 292.214 116.023 292.937 116.023C293.501 116.023 294.01 116.117 294.462 116.304C294.914 116.491 295.295 116.767 295.603 117.131V116.116H297.375V121.427C297.375 121.802 297.452 122.073 297.607 122.239C297.761 122.406 297.96 122.489 298.205 122.489C298.641 122.489 298.974 122.247 299.203 121.763C299.431 121.279 299.546 120.578 299.546 119.661C299.546 118.558 299.288 117.584 298.771 116.74C298.256 115.897 297.535 115.241 296.609 114.772C295.683 114.304 294.619 114.069 293.416 114.069C292.203 114.069 291.128 114.317 290.192 114.812C289.255 115.306 288.532 115.996 288.021 116.881C287.51 117.767 287.255 118.771 287.255 119.896C287.255 121.042 287.508 122.057 288.013 122.942C288.519 123.827 289.235 124.517 290.16 125.012C291.086 125.506 292.15 125.754 293.353 125.754C293.874 125.754 294.404 125.696 294.941 125.582C295.478 125.468 295.981 125.295 296.449 125.067L296.881 126.317C296.413 126.556 295.861 126.738 295.228 126.863C294.595 126.989 293.97 127.05 293.353 127.05C291.863 127.05 290.546 126.743 289.402 126.129C288.258 125.514 287.369 124.665 286.736 123.582C286.103 122.499 285.787 121.27 285.787 119.896C285.787 118.542 286.106 117.326 286.745 116.249C287.383 115.171 288.279 114.324 289.434 113.71C290.589 113.095 291.916 112.788 293.417 112.788C294.863 112.79 296.156 113.081 297.294 113.664ZM294.972 121.779C295.414 121.337 295.635 120.736 295.635 119.975C295.635 119.226 295.414 118.632 294.972 118.194C294.531 117.757 293.964 117.538 293.272 117.538C292.57 117.538 292 117.759 291.564 118.202C291.128 118.644 290.91 119.236 290.91 119.975C290.91 120.725 291.127 121.323 291.564 121.771C292 122.219 292.57 122.443 293.272 122.443C293.964 122.443 294.53 122.222 294.972 121.779Z" fill="#031162"/>
<path d="M319.152 109.726C319.594 107.062 317.746 104.553 315.024 104.121C312.303 103.689 309.739 105.497 309.297 108.16C308.856 110.824 310.704 113.333 313.425 113.765C316.146 114.197 318.711 112.389 319.152 109.726Z" fill="#F970AB"/>
<path d="M315.525 108.865L316.991 109.657L316.489 110.512L314.999 109.657L315.012 111.28H314.035L314.048 109.67L312.57 110.512L312.057 109.658L313.535 108.865L312.057 108.073L312.57 107.205L314.048 108.06L314.035 106.451H315.012L314.999 108.073L316.489 107.205L316.991 108.073L315.525 108.865Z" fill="white"/>
<path d="M188.608 96.5374C188.762 94.9862 189.027 93.4193 188.684 91.8655C188.341 90.3117 187.071 88.6316 185.301 88.0037C183.767 87.5104 181.841 87.7068 180.557 88.4599C179.273 89.2129 178.41 90.3714 177.858 91.6026C177.305 92.8338 177.035 94.1488 176.737 95.4502C176.34 97.1899 175.84 98.9081 175.514 100.663C175.191 102.393 175.395 104.003 175.342 105.746C175.327 106.256 182.843 106.126 183.538 106.124C184.248 106.121 184.958 106.127 185.667 106.158C186.092 106.177 187.381 106.5 187.724 106.31C188.058 106.125 188.246 104.829 188.334 104.472C188.493 103.819 188.6 103.151 188.569 102.477C188.477 100.484 188.411 98.5238 188.608 96.5374Z" fill="black"/>
<path d="M183.275 99.5005C182.234 99.357 181.419 98.9784 180.871 98.3625C180.876 99.3157 180.818 100.093 180.633 101.055C180.914 101.538 181.634 101.663 182.187 101.788C182.741 101.913 183.323 101.859 183.875 101.724C183.952 100.907 184.03 100.293 184.156 99.5131C183.881 99.5461 183.587 99.5435 183.275 99.5005Z" fill="#FE9A71"/>
<path d="M180.928 98.423C181.55 99.583 182.665 100.581 184.033 100.332C184.069 100.069 184.109 99.8029 184.155 99.5133C183.881 99.5463 183.587 99.5437 183.274 99.5002C182.269 99.362 181.475 99.0027 180.928 98.423Z" fill="#DD7957"/>
<path d="M187.455 91.8933C187.153 90.916 186.409 89.9226 185.425 89.5057C184.773 90.5819 183.723 92.9318 180.456 94.5594C180.163 93.7529 179.573 93.9603 179.343 94.0938C179.23 94.1593 179.145 94.2672 179.08 94.3829C178.831 94.8275 178.871 95.4235 179.175 95.8241C179.389 96.1043 179.723 96.2766 180.068 96.3054C180.092 96.529 180.124 96.7432 180.167 96.9386C180.491 98.4185 181.588 99.268 183.275 99.5005C187.267 100.05 188.111 94.0069 187.455 91.8933Z" fill="#FE9A71"/>
<path d="M179.94 95.3822C179.893 95.3749 179.86 95.3314 179.866 95.2848C179.891 95.1104 179.878 94.9737 179.828 94.8664C179.771 94.7423 179.65 94.6574 179.537 94.6601C179.488 94.6611 179.447 94.6234 179.446 94.5752C179.445 94.527 179.483 94.4872 179.533 94.4862C179.719 94.482 179.903 94.6056 179.991 94.7941C180.055 94.9324 180.072 95.1005 180.043 95.3079C180.037 95.3555 179.992 95.3885 179.943 95.3822C179.941 95.3828 179.94 95.3822 179.94 95.3822Z" fill="#BA5B45"/>
<path d="M186.548 94.9259C186.526 95.181 186.33 95.3726 186.111 95.3543C185.891 95.336 185.731 95.1144 185.754 94.8594C185.776 94.6044 185.972 94.4127 186.191 94.431C186.411 94.4494 186.571 94.6709 186.548 94.9259Z" fill="#561D05"/>
<path d="M183.182 94.7919C183.159 95.0469 182.963 95.2386 182.744 95.2203C182.524 95.2019 182.364 94.9804 182.387 94.7254C182.409 94.4703 182.605 94.2787 182.825 94.297C183.044 94.3153 183.204 94.5368 183.182 94.7919Z" fill="#561D05"/>
<path d="M184.244 96.4567C184.236 96.4562 184.228 96.4552 184.22 96.4546C184.166 96.4499 184.126 96.4033 184.131 96.3509C184.136 96.2986 184.183 96.2619 184.237 96.2645C184.666 96.3033 184.954 96.2624 185.087 96.1436C184.605 95.6953 184.484 95.0244 184.804 94.5154C184.833 94.4703 184.892 94.4567 184.938 94.484C184.984 94.5117 184.998 94.5704 184.97 94.6149C184.686 95.0674 184.818 95.6754 185.283 96.0603L185.347 96.1127L185.304 96.1823C185.117 96.4887 184.616 96.4876 184.244 96.4567Z" fill="#BA5B45"/>
<path d="M185.328 97.0778C184.493 97.0139 183.658 96.95 182.824 96.8861C182.807 97.5722 183.388 98.1294 183.988 98.1943C184.587 98.2598 185.157 97.7476 185.328 97.0778Z" fill="white"/>
<path d="M185.275 97.2448C185.295 97.1904 185.313 97.1349 185.328 97.0778C184.493 97.0139 183.658 96.95 182.824 96.8861C182.822 96.9741 182.83 97.06 182.847 97.1432C183.632 97.3632 184.471 97.3967 185.275 97.2448Z" fill="#E8EAEA"/>
<path d="M187.159 93.3202C186.733 92.8966 186.068 92.8892 185.611 93.3024C185.554 93.3538 185.541 93.4464 185.581 93.513C185.604 93.5501 185.64 93.5732 185.68 93.5763C185.714 93.5795 185.748 93.5674 185.775 93.5423C186.124 93.226 186.653 93.2317 186.977 93.5548C187.004 93.5816 187.038 93.5947 187.075 93.591C187.113 93.5873 187.149 93.5658 187.173 93.5313C187.219 93.4663 187.212 93.3737 187.159 93.3202Z" fill="#9E2518"/>
<path d="M183.716 93.0024C183.129 92.6588 182.371 92.7358 181.828 93.193C181.768 93.2443 181.754 93.337 181.797 93.4046C181.82 93.4418 181.858 93.4648 181.9 93.4685C181.934 93.4716 181.969 93.4601 181.997 93.4365C182.453 93.0527 183.089 92.9882 183.579 93.2752C183.611 93.2941 183.648 93.2983 183.683 93.2873C183.722 93.2752 183.755 93.2459 183.773 93.2066C183.808 93.1312 183.783 93.0411 183.716 93.0024Z" fill="#9E2518"/>
<path d="M153.262 192.558L148.427 198.758L157.785 207.852L155.445 195.727L153.262 192.558Z" fill="#383FC1"/>
<path d="M190.06 199.185L190.86 207.038L203.842 206.984L193.81 199.925L190.06 199.185Z" fill="#383FC1"/>
<path d="M174.062 103.306L170.23 125.826L185.514 129.693L191.188 107.998C191.829 104.821 189.655 101.766 186.47 101.369L178.09 100.324C176.179 100.085 174.413 101.392 174.062 103.306Z" fill="#383FC1"/>
<path d="M190.505 104.47C192.543 112.087 196.972 126.246 196.972 126.246L201.603 126.618C202.501 127.659 203.961 127.978 205.934 127.638C205.934 127.638 203.563 132.033 197.97 132.524C189.584 133.259 186.502 114.241 186.502 114.241L190.505 104.47Z" fill="#383FC1"/>
<path d="M185.974 128.659C180.746 127.533 175.532 126.414 170.31 125.29C161.712 133.324 166.717 155.593 169.031 164.898C163.149 174.115 157.268 183.332 151.386 192.55C153.402 194.801 155.387 197.065 157.422 199.307C163.553 190.397 170.239 181.227 176.191 172.417C178.058 169.654 178.378 168.305 178.525 165.027C178.781 159.299 178.413 153.004 178.636 146.944C180.838 155.317 184.949 159.158 186.728 168.621C188.507 178.085 188.068 192.868 189.469 203.358C192.304 203.003 195.308 202.282 198.212 201.76C198.038 190.001 197.787 177.911 197.613 166.304C197.587 164.576 197.506 164.205 197.03 162.714C193.418 151.409 189.634 140 185.974 128.659Z" fill="#031162"/>
<path d="M190.2 110.706L188.568 116.986L189.069 117.119L190.701 110.839L190.2 110.706Z" fill="#83A0F0"/>
<path d="M194.376 128.617L193.887 128.445C194.693 126.097 196.94 125.985 196.963 125.984L196.983 126.508C196.905 126.511 195.064 126.614 194.376 128.617Z" fill="#83A0F0"/>
<path d="M178.237 146.933C178.218 134.859 183.535 131.194 183.76 131.044L184.045 131.481C183.992 131.517 178.737 135.169 178.756 146.932L178.237 146.933Z" fill="#83A0F0"/>
<path d="M153.327 194.79L152.885 194.515L170.526 165.576C170.288 164.5 168.313 155.386 167.633 145.466C166.908 134.901 170.538 127.975 170.574 127.906L171.03 128.155C170.995 128.223 167.436 135.026 168.15 145.431C168.868 155.899 171.033 165.468 171.055 165.564L171.079 165.668L171.023 165.76L153.327 194.79Z" fill="#83A0F0"/>
<path d="M168.666 134.92L168.566 134.407C172.896 133.547 173.554 128.55 173.56 128.5L174.075 128.563C174.068 128.617 173.368 133.987 168.666 134.92Z" fill="#83A0F0"/>
<path d="M189.569 121.103C193.675 127.214 201.907 128.804 207.954 124.655C212.887 121.269 214.841 115.11 213.165 109.638L228.734 98.9536L231.654 103.298L235.774 100.471L233.782 97.5066L237.186 95.171L239.62 98.7818L243.913 95.835L237.151 85.7711L210.084 104.346C205.699 99.7009 198.512 98.7976 193.083 102.523C187.035 106.674 185.463 114.992 189.569 121.103ZM193.427 119.249C191.891 116.962 192.479 113.849 194.742 112.296C197.005 110.744 200.086 111.339 201.622 113.625C203.159 115.912 202.57 119.025 200.307 120.578C198.044 122.131 194.964 121.536 193.427 119.249Z" fill="#F97072"/>
<path d="M214.744 95.4825C214.744 95.4825 199.559 104.498 177.404 100.295L174.688 110.038C174.688 110.038 202.67 112.354 217.642 100.295L214.744 95.4825Z" fill="#383FC1"/>
<path d="M215.04 95.9723C215.04 95.9723 219.309 92.8233 219.617 92.7542C221.021 92.4389 224.259 93.3637 224.4 93.8047C224.608 94.4546 220.397 93.8571 220.397 93.8571C220.397 93.8571 225.44 94.6877 225.023 95.2129C224.607 95.7382 220.553 95.2129 220.553 95.2129C220.553 95.2129 225.284 95.966 225.048 96.5138C224.812 97.0616 220.449 96.5138 220.449 96.5138C220.449 96.5138 225.023 97.1668 224.244 97.8497C223.464 98.5326 220.342 96.7594 216.6 98.5656L215.04 95.9723Z" fill="#FE9A71"/>
<path d="M179.771 110.574C177.946 110.574 176.172 110.498 174.654 110.298L174.721 109.779C180.997 110.606 191.785 109.288 191.893 109.275L191.956 109.794C191.873 109.804 185.572 110.574 179.771 110.574Z" fill="#83A0F0"/>
<path d="M205.701 127.638C207.479 124.865 206.549 117.484 206.037 117.39C205.525 117.296 205.701 121.809 205.701 121.809C205.701 121.809 204.594 117.061 203.711 117.061C202.827 117.061 204.316 122.35 204.316 122.35C204.316 122.35 202.129 116.826 201.478 117.061C200.827 117.296 202.942 122.633 202.942 122.633C202.942 122.633 201.431 119.365 200.827 119.694C200.222 120.022 201.943 123.173 201.943 123.173C202.222 125.523 201.556 124.268 201.602 126.618C202.068 128.207 203.604 128.311 205.701 127.638Z" fill="#FE9A71"/>
<path d="M369.301 208.145H55.7975C55.3842 208.145 55.0483 207.867 55.0483 207.523C55.0483 207.179 55.3835 206.9 55.7975 206.9H369.301C369.715 206.9 370.051 207.179 370.051 207.523C370.05 207.867 369.715 208.145 369.301 208.145Z" fill="#2B012D"/>
</svg>
