<svg width="48" height="61" viewBox="0 0 48 61" fill="none" xmlns="http://www.w3.org/2000/svg">
<path d="M27.4377 35.1536C27.4377 37.8055 27.4377 40.458 27.4377 43.1098C27.4377 43.2507 27.4489 43.3915 27.3927 43.5291C27.3709 43.582 27.3768 43.6488 27.3795 43.709C27.3927 44.027 27.32 44.3266 27.2227 44.6282C27.1097 44.9773 26.9721 45.3126 26.7664 45.6155C26.6481 45.7901 26.5198 45.96 26.3789 46.1168C26.2242 46.29 26.0615 46.46 25.8816 46.6061C25.3539 47.0327 24.7547 47.3164 24.0862 47.442C23.7172 47.5115 23.3409 47.5108 22.9672 47.4943C22.4349 47.4711 21.929 47.3329 21.4568 47.0876C20.9417 46.8197 20.488 46.4752 20.1197 46.0156C19.8181 45.64 19.582 45.2326 19.42 44.7829C19.3281 44.5277 19.2778 44.2598 19.2335 43.99C19.1799 43.6666 19.1905 43.3452 19.1905 43.0232C19.1885 38.9033 19.1905 34.784 19.1885 30.664C19.1885 30.2653 19.0741 29.8863 18.926 29.5206C18.7693 29.1325 18.5252 28.7906 18.2415 28.4897C18.0002 28.2337 17.7059 28.0301 17.3924 27.8608C16.8336 27.5599 16.2325 27.4342 15.6069 27.4845C15.1446 27.5215 14.6943 27.6313 14.2678 27.8396C13.7949 28.0704 13.3962 28.3878 13.0457 28.7714C12.7626 29.0809 12.5576 29.4413 12.3982 29.8268C12.2468 30.1932 12.18 30.5814 12.1198 30.9702C12.1093 31.0397 12.1185 31.1117 12.1185 31.1825C12.1185 34.6749 12.1251 38.1666 12.1145 41.6589C12.1119 42.5517 11.5676 43.0166 10.8971 43.1984C10.3846 43.3373 9.89785 43.215 9.46998 42.8942C9.25969 42.7368 9.05534 42.5722 8.85034 42.4082C8.3213 41.9856 7.80812 41.5445 7.33661 41.0571C7.28106 40.9996 7.20964 40.9566 7.15078 40.9017C7.01852 40.7767 6.88692 40.6517 6.76061 40.5208C6.65613 40.4117 6.56685 40.2867 6.45906 40.1816C6.05368 39.7848 5.70319 39.341 5.33616 38.9112C4.98765 38.5032 4.68345 38.0621 4.35743 37.6375C4.12994 37.3412 3.93419 37.0198 3.73117 36.7057C3.24313 35.9485 2.79939 35.1656 2.40591 34.3554C2.12354 33.7742 1.85901 33.1849 1.63285 32.5785C1.48802 32.1903 1.33394 31.8048 1.20763 31.4107C1.05751 30.9398 0.937815 30.4584 0.795634 29.9849C0.627663 29.4234 0.517886 28.8494 0.410093 28.2754C0.330736 27.8522 0.271219 27.425 0.21633 26.9964C0.171362 26.6466 0.148877 26.2955 0.10457 25.9476C0.0668753 25.6546 0.0926662 25.361 0.0516652 25.074C-0.0402563 24.4286 0.0225678 23.7818 0.0033899 23.1364C8.33741e-05 23.0273 0.0271969 22.9175 0.0384391 22.8077C0.0463748 22.7277 0.0536491 22.647 0.0569557 22.5663C0.066214 22.3151 0.0271969 22.0604 0.111183 21.8144C0.120441 21.7873 0.113828 21.7543 0.113828 21.7238C0.112505 21.4203 0.1502 21.1227 0.215008 20.8258C0.24675 20.679 0.260638 20.5275 0.270557 20.3774C0.301639 19.9033 0.423319 19.445 0.512595 18.9807C0.62634 18.3862 0.769182 17.7977 0.941783 17.2177C1.07404 16.7726 1.22681 16.3329 1.38155 15.8951C1.51646 15.5142 1.66525 15.1386 1.81074 14.7623C1.87951 14.5837 1.94432 14.4019 2.02897 14.2306C2.28754 13.7048 2.52693 13.1705 2.80468 12.6527C3.27355 11.7765 3.80259 10.9399 4.36536 10.1239C4.69734 9.64179 5.0518 9.1749 5.43403 8.72985C5.56563 8.57708 5.6893 8.41771 5.81693 8.26098C5.84867 8.22196 5.88108 8.18294 5.91348 8.14459C6.29241 7.69622 6.71829 7.29217 7.1283 6.87356C7.51053 6.48273 7.92451 6.12827 8.33518 5.76918C8.75379 5.40281 9.18496 5.05365 9.632 4.72299C10.3151 4.21775 11.0234 3.75087 11.7522 3.31309C12.3691 2.9421 13.0139 2.62798 13.656 2.30658C14.6718 1.79738 15.7359 1.40919 16.8158 1.06531C17.6728 0.792852 18.5471 0.577927 19.4339 0.423843C19.99 0.327292 20.5482 0.242645 21.107 0.165272C21.3761 0.127578 21.6506 0.131546 21.9191 0.0938512C22.3218 0.0376402 22.7285 0.082609 23.1293 0.0409467C23.4837 0.00457489 23.8369 -0.0126191 24.188 0.0105266C24.6119 0.0376402 25.0371 0.0270593 25.459 0.0568181C26.1117 0.102448 26.7651 0.16395 27.4119 0.265129C28.0494 0.364325 28.6869 0.474763 29.3125 0.636122C29.9579 0.80211 30.6047 0.966775 31.2402 1.16715C31.7791 1.33711 32.3069 1.54806 32.8326 1.75637C33.6129 2.06587 34.3774 2.4157 35.1134 2.81909C35.7337 3.159 36.3355 3.5333 36.9327 3.91289C37.3592 4.18337 37.7699 4.47963 38.1773 4.7792C38.494 5.01264 38.7963 5.26659 39.1018 5.51524C39.5012 5.84126 39.8867 6.18249 40.2498 6.54952C40.384 6.68575 40.5474 6.79354 40.679 6.93242C41.0599 7.33647 41.4368 7.7445 41.8052 8.16046C42.0995 8.4931 42.3865 8.83235 42.6616 9.18085C43.1192 9.76016 43.5504 10.3606 43.9465 10.9836C44.2666 11.4862 44.5847 11.9907 44.8518 12.5251C44.9742 12.7691 45.113 13.0045 45.236 13.2479C45.4728 13.7168 45.6771 14.2002 45.8855 14.6829C46.1824 15.3713 46.4304 16.0763 46.6512 16.7905C46.8271 17.3592 47.0044 17.9279 47.1102 18.5158C47.1743 18.873 47.2722 19.2234 47.3364 19.5806C47.4197 20.0448 47.505 20.5097 47.5354 20.9819C47.6201 21.2027 47.5711 21.4428 47.6333 21.6676C47.6492 21.7245 47.6419 21.788 47.6432 21.8482C47.6472 22.0287 47.626 22.2106 47.6875 22.3885C47.7093 22.4519 47.6948 22.5287 47.6948 22.5994C47.6948 23.4393 47.6961 24.2798 47.6935 25.1196C47.6935 25.2294 47.6716 25.3392 47.6604 25.449C47.6544 25.5092 47.6465 25.5687 47.6425 25.6289C47.626 25.9106 47.6406 26.1976 47.5883 26.472C47.5004 26.9363 47.4713 27.4071 47.3833 27.872C47.2669 28.4857 47.1459 29.0974 46.9991 29.7045C46.8186 30.4518 46.5805 31.1818 46.3318 31.9086C46.1354 32.4826 45.906 33.0434 45.6507 33.593C45.404 34.1246 45.1547 34.6563 44.8822 35.1755C44.6521 35.6133 44.4015 36.0418 44.1337 36.4577C43.7732 37.0185 43.3963 37.5701 43.0088 38.1123C42.7747 38.4403 42.5068 38.7445 42.2529 39.0587C42.1134 39.2313 41.9705 39.4012 41.8297 39.5732C41.8105 39.5963 41.7939 39.6221 41.7741 39.6452C41.2834 40.1974 40.7736 40.7324 40.2326 41.2343C39.4556 41.9558 38.6402 42.635 37.7752 43.25C37.4631 43.4722 37.1648 43.7189 36.809 43.8756C36.2132 44.1381 35.6372 44.0879 35.1128 43.7136C34.7537 43.4577 34.5712 43.0834 34.5004 42.639C34.4184 42.1251 34.4495 41.6113 34.4488 41.0981C34.4449 36.4319 34.4462 31.7651 34.4468 27.0989C34.4468 26.8748 34.3972 26.6612 34.3397 26.4449C34.2286 26.0243 34.0104 25.6626 33.7551 25.3213C33.4979 24.9768 33.1692 24.709 32.7989 24.4921C32.3915 24.254 31.9484 24.1145 31.4855 24.0457C31.2772 24.0146 31.061 24.0397 30.8493 24.0298C30.4697 24.012 30.1047 24.0834 29.7483 24.2031C28.962 24.4663 28.3443 24.9384 27.9039 25.65C27.6757 26.0184 27.5428 26.4151 27.4608 26.8338C27.4416 26.9316 27.4416 27.0348 27.4416 27.1353C27.441 29.8076 27.441 32.48 27.441 35.1523L27.4377 35.1536ZM8.81595 37.9133C8.83381 37.906 8.85232 37.8987 8.87018 37.8914C8.87018 37.7718 8.87018 37.6514 8.87018 37.5317C8.87018 35.315 8.87018 33.0983 8.87018 30.8816C8.87018 30.8009 8.87018 30.7189 8.88076 30.6396C8.91052 30.4108 8.93896 30.1813 8.98062 29.9545C9.02096 29.7369 9.06725 29.5193 9.12743 29.3064C9.26498 28.8183 9.46006 28.3528 9.69483 27.9031C9.99109 27.3344 10.3634 26.8199 10.8078 26.3596C11.0042 26.1566 11.2198 25.9721 11.4341 25.7876C11.85 25.4291 12.3182 25.1428 12.8096 24.9067C13.2361 24.7017 13.6812 24.5364 14.1481 24.4259C14.5422 24.3327 14.9416 24.2646 15.3397 24.2355C15.9739 24.1899 16.6068 24.2342 17.2357 24.3658C17.9274 24.5106 18.5755 24.7599 19.1799 25.1144C19.8736 25.5211 20.4748 26.0428 20.982 26.6737C21.4819 27.2953 21.8543 27.9831 22.1181 28.7343C22.2424 29.0888 22.3079 29.4558 22.3787 29.8215C22.4164 30.0179 22.4336 30.2216 22.4336 30.422C22.4362 34.6735 22.4362 38.9244 22.4336 43.1759C22.4336 43.3393 22.4501 43.4954 22.4944 43.6534C22.5724 43.9312 22.7649 44.1051 23.0135 44.2056C23.3343 44.3352 23.7211 44.2201 23.946 43.9543C24.0657 43.8128 24.1331 43.6554 24.1331 43.457C24.1285 38.2538 24.1285 33.0513 24.1298 27.8482C24.1298 27.5566 24.0948 27.2616 24.1781 26.9733C24.1887 26.9356 24.1821 26.8926 24.1807 26.8523C24.1721 26.5778 24.2277 26.3107 24.2865 26.0468C24.3547 25.7419 24.4386 25.4391 24.5411 25.1441C24.7376 24.578 24.9994 24.0424 25.3651 23.5643C25.5245 23.3559 25.7077 23.1655 25.8585 22.9512C26.0727 22.647 26.3697 22.4301 26.65 22.2053C27.2856 21.6954 28.0024 21.3251 28.7821 21.0764C29.2563 20.925 29.7443 20.8218 30.2343 20.796C30.8474 20.7636 31.4677 20.7392 32.08 20.8463C32.2983 20.8846 32.5172 20.9256 32.7327 20.9759C33.2777 21.1035 33.7855 21.3277 34.2802 21.5843C34.6049 21.7529 34.9131 21.9441 35.1908 22.1828C35.3363 22.3078 35.4705 22.4486 35.6266 22.5584C35.8885 22.7429 36.077 22.9969 36.2681 23.2389C36.6503 23.723 36.9777 24.2434 37.2131 24.8214C37.4981 25.5197 37.6866 26.2346 37.6985 26.9918C37.6991 27.0421 37.6939 27.0963 37.7104 27.1426C37.7633 27.2901 37.7521 27.4422 37.7521 27.5936C37.7521 28.6768 37.7527 29.76 37.7521 30.8426C37.7507 33.5348 37.7481 36.2276 37.7481 38.9198C37.7481 38.9456 37.7692 38.9707 37.7838 39.0031C37.8175 38.9879 37.8499 38.9833 37.8678 38.9641C38.457 38.3398 39.1084 37.7731 39.6335 37.088C39.8424 36.8155 40.0699 36.5583 40.2815 36.2878C40.6863 35.7693 41.0592 35.2284 41.3958 34.663C41.6749 34.1941 41.9408 33.7173 42.1993 33.2365C42.3521 32.9522 42.4751 32.6519 42.616 32.3609C42.8719 31.8326 43.0855 31.287 43.274 30.7315C43.4684 30.1575 43.6549 29.5808 43.807 28.9929C44.0245 28.1531 44.1852 27.3046 44.2937 26.4442C44.3148 26.2736 44.3056 26.0977 44.3466 25.935C44.3896 25.7644 44.3909 25.5964 44.3955 25.4258C44.3975 25.3557 44.4081 25.2856 44.4154 25.2155C44.4253 25.1157 44.4431 25.0158 44.4438 24.9153C44.4465 24.217 44.4451 23.5186 44.4451 22.8203C44.4451 22.5379 44.3638 22.2602 44.3922 21.9751C44.3949 21.9467 44.3757 21.9176 44.3704 21.8878C44.3572 21.8092 44.3439 21.7298 44.336 21.6498C44.3168 21.4494 44.3135 21.247 44.2818 21.0486C44.2157 20.632 44.1508 20.2134 44.0569 19.8027C43.9101 19.1633 43.762 18.5225 43.5729 17.8949C43.3778 17.2475 43.1642 16.6034 42.8871 15.9837C42.7059 15.5777 42.5386 15.165 42.3409 14.7669C42.1339 14.3509 41.9037 13.9462 41.6749 13.5415C41.3006 12.8809 40.8807 12.2493 40.4204 11.6455C40.1387 11.2759 39.8444 10.9161 39.5521 10.5557C39.3041 10.2495 39.0535 9.94532 38.7698 9.67154C38.3624 9.27807 37.9802 8.86144 37.5464 8.4931C37.1304 8.13996 36.7184 7.78352 36.2846 7.45286C35.3826 6.76378 34.423 6.16332 33.4258 5.62501C32.8743 5.32743 32.3016 5.06952 31.7223 4.8288C30.8057 4.44789 29.8673 4.13178 28.9038 3.89239C28.4435 3.77799 27.9806 3.67747 27.5117 3.59811C26.8656 3.48833 26.2215 3.37194 25.5648 3.34681C25.5146 3.34483 25.465 3.33491 25.4147 3.33028C25.2745 3.31639 25.1343 3.29589 24.9941 3.2906C24.6714 3.27804 24.3474 3.3078 24.0253 3.25159C23.9083 3.23109 23.7833 3.24894 23.6623 3.25555C23.5009 3.26415 23.3402 3.28201 23.1795 3.28862C22.8674 3.30052 22.5519 3.25754 22.2438 3.34483C22.2153 3.35277 22.1829 3.34549 22.1532 3.34814C21.7518 3.38451 21.349 3.41162 20.9496 3.46188C20.6606 3.49825 20.3749 3.56438 20.0879 3.61861C19.2533 3.776 18.4313 3.98233 17.6212 4.23958C16.8779 4.47566 16.1479 4.7468 15.4409 5.07216C14.8629 5.33867 14.3035 5.64618 13.7407 5.94442C12.9795 6.34782 12.2706 6.83586 11.5802 7.34838C11.1676 7.65456 10.7595 7.97 10.3819 8.32182C10.0718 8.61081 9.74376 8.88062 9.43493 9.17094C9.2663 9.32965 9.12677 9.51812 8.96541 9.68543C8.72668 9.93276 8.4767 10.1682 8.2631 10.44C8.05148 10.7098 7.81672 10.9618 7.60642 11.2329C7.11706 11.8651 6.66208 12.5231 6.25538 13.2109C5.95184 13.724 5.66747 14.2484 5.38179 14.7722C5.28524 14.9488 5.2125 15.1386 5.12983 15.3231C5.02667 15.5539 4.91822 15.782 4.82431 16.0161C4.55251 16.6913 4.28733 17.3691 4.10084 18.0734C3.97189 18.5608 3.84492 19.0495 3.73051 19.5409C3.66438 19.8246 3.64123 20.1189 3.56783 20.4006C3.45342 20.8403 3.44218 21.2947 3.36018 21.7391C3.30595 22.034 3.32248 22.3422 3.31058 22.6444C3.30331 22.8256 3.33108 23.0094 3.259 23.184L3.26098 24.6104C3.33306 24.7751 3.30595 24.949 3.30992 25.1196C3.31256 25.2307 3.29339 25.3471 3.31918 25.4523C3.38465 25.7188 3.35687 25.9919 3.40449 26.2617C3.4726 26.6459 3.51029 27.0368 3.57378 27.4243C3.64057 27.8323 3.72059 28.237 3.81648 28.6385C3.95337 29.2085 4.11737 29.7699 4.30122 30.3274C4.52606 31.0099 4.77603 31.6818 5.07561 32.3332C5.32029 32.8655 5.60134 33.3813 5.87909 33.8985C6.27654 34.6391 6.72358 35.3487 7.23543 36.016C7.60378 36.4968 7.98734 36.9656 8.36759 37.4371C8.43702 37.5231 8.52432 37.5952 8.60037 37.6765C8.67443 37.7546 8.74585 37.8352 8.81794 37.9153L8.81595 37.9133Z" fill="#121212"/>
<path d="M16.1095 60.782C15.9296 60.782 15.7888 60.782 15.6479 60.782C15.3345 60.782 15.0203 60.7754 14.7069 60.782C14.3121 60.7906 14.0066 60.6352 13.7645 60.3257C13.2474 59.6638 12.723 59.0084 12.2019 58.3498C11.0089 56.8426 9.81586 55.3349 8.62287 53.8278C8.56071 53.7491 8.49458 53.6737 8.43307 53.6003C8.33652 53.6314 8.3676 53.7034 8.36959 53.7563C8.45159 55.9717 8.3881 58.1877 8.4053 60.4038C8.40596 60.5222 8.43638 60.6471 8.36297 60.7569C8.08721 60.7953 6.29507 60.792 6.04774 60.7496C6.03915 60.6974 6.0246 60.6399 6.02129 60.5817C6.01666 60.501 6.01931 60.4197 6.01931 60.339C6.01931 56.7673 6.01865 53.1949 6.01865 49.6232C6.01865 49.4929 6.02195 49.3626 6.02394 49.2171C6.09403 49.2026 6.15025 49.1808 6.2058 49.1801C6.67135 49.1775 7.13691 49.1801 7.60247 49.1781C7.83922 49.1775 8.03761 49.2608 8.19633 49.4347C8.28494 49.5319 8.37157 49.6311 8.45291 49.7343C10.1604 51.8928 11.8672 54.0519 13.5747 56.2098C13.623 56.2706 13.6779 56.3255 13.7242 56.3771C13.7996 56.3566 13.7857 56.307 13.7824 56.2726C13.7096 55.5458 13.7361 54.8164 13.7348 54.0883C13.7315 52.5706 13.7334 51.0529 13.7348 49.5346C13.7348 49.4261 13.7116 49.313 13.7639 49.2125C13.9894 49.1695 15.726 49.1603 16.087 49.2006C16.0983 49.2509 16.1161 49.3064 16.1221 49.3633C16.1287 49.4235 16.1241 49.4843 16.1241 49.5451C16.1241 53.1678 16.1234 56.7904 16.1227 60.413C16.1227 60.5228 16.1161 60.6319 16.1108 60.7827L16.1095 60.782Z" fill="#121212"/>
<path d="M27.5666 50.6092C27.5395 50.6621 27.5249 50.6998 27.5031 50.7329C27.2816 51.0715 27.06 51.4101 26.8372 51.748C26.8094 51.7903 26.7803 51.832 26.7479 51.8703C26.5012 52.1679 26.205 52.2433 25.8531 52.0885C25.7242 52.0317 25.6032 51.9563 25.4802 51.8862C25.1012 51.6693 24.7117 51.4775 24.2792 51.3935C23.6073 51.2626 22.9341 51.2262 22.2642 51.4034C21.4138 51.6276 20.7928 52.1415 20.3841 52.9158C19.9946 53.6539 19.8915 54.4494 19.9298 55.2701C19.9569 55.8507 20.0654 56.4135 20.314 56.9445C20.8299 58.0456 21.6949 58.6626 22.9004 58.7896C23.563 58.859 24.2124 58.7737 24.8413 58.5462C24.9062 58.5224 24.9677 58.488 25.0344 58.4569C25.0411 58.3888 25.0523 58.33 25.0516 58.2704C25.049 57.785 25.045 57.2996 25.0391 56.8142C25.0391 56.797 25.0206 56.7799 25.0014 56.7468C24.9438 56.7415 24.8751 56.7309 24.807 56.7303C24.5543 56.7283 24.3011 56.7303 24.0478 56.7289C23.9671 56.7289 23.8851 56.7303 23.8051 56.7203C23.5498 56.6879 23.3825 56.5133 23.3766 56.2528C23.368 55.8686 23.3726 55.4837 23.3739 55.0995C23.3739 55.0009 23.3832 54.9024 23.3891 54.7873C23.4744 54.7794 23.5419 54.7695 23.61 54.7682C25.2189 54.7364 27.1916 54.7523 27.476 54.8019C27.4833 54.8541 27.4991 54.9117 27.4991 54.9692C27.4998 56.4968 27.4991 58.0251 27.4991 59.5527C27.4991 59.5825 27.4932 59.6129 27.4879 59.6638C27.4376 59.7061 27.3808 59.7617 27.316 59.8067C26.5799 60.3159 25.7632 60.6234 24.8857 60.7808C24.1549 60.9117 23.4176 60.9434 22.6789 60.9104C20.654 60.8191 18.6661 59.6638 17.7151 57.5939C17.2198 56.516 17.0796 55.3865 17.196 54.2166C17.2608 53.5686 17.4169 52.9423 17.6847 52.3465C18.3156 50.9438 19.3697 49.9955 20.7981 49.4499C21.3014 49.2575 21.8238 49.1404 22.3581 49.0836C23.5002 48.9619 24.6205 49.0492 25.7063 49.4473C26.3108 49.6688 26.859 49.9882 27.349 50.4055C27.4244 50.4697 27.4938 50.5418 27.5666 50.6105V50.6092Z" fill="#121212"/>
<path d="M36.8097 49.1887H39.4694C39.484 49.2522 39.5038 49.3071 39.5078 49.364C39.5144 49.4546 39.5098 49.5458 39.5098 49.6371C39.5098 51.7215 39.5091 53.806 39.5098 55.8904C39.5098 56.2138 39.5098 56.5372 39.5812 56.8566C39.6427 57.1356 39.7313 57.4028 39.8748 57.6495C40.1757 58.1686 40.6234 58.4847 41.2113 58.6097C41.6359 58.6996 42.0578 58.6937 42.4731 58.5786C43.221 58.3723 43.674 57.8611 43.8989 57.1356C44.004 56.7957 44.0443 56.4446 44.0437 56.0881C44.041 54.7926 44.043 53.4978 44.043 52.2023C44.043 51.3221 44.043 50.4419 44.043 49.561C44.043 49.4513 44.0476 49.3408 44.051 49.2152C44.1072 49.2013 44.1535 49.1795 44.1997 49.1795C44.9993 49.1775 45.7988 49.1782 46.5976 49.1795C46.636 49.1795 46.6744 49.1934 46.716 49.2013C46.7736 49.3117 46.7517 49.4248 46.7517 49.5333C46.7537 50.5147 46.753 51.496 46.753 52.4781C46.753 53.6115 46.753 54.745 46.753 55.8778C46.753 56.3037 46.7306 56.7276 46.6453 57.1456C46.2683 58.9919 45.1811 60.1915 43.3685 60.7166C42.5597 60.9507 41.7331 60.9613 40.9018 60.8621C40.3853 60.8006 39.892 60.6624 39.4198 60.4442C38.1541 59.8589 37.3618 58.8755 36.9915 57.5423C36.8526 57.0424 36.7991 56.5299 36.7991 56.0121C36.7991 55.2126 36.7991 54.413 36.7991 53.6142C36.7991 52.2585 36.7991 50.9022 36.7991 49.5465C36.7991 49.4374 36.8063 49.3283 36.811 49.1874L36.8097 49.1887Z" fill="#121212"/>
<path d="M35.8635 60.7706H28.9746C28.9594 60.7124 28.9383 60.6582 28.9323 60.6019C28.925 60.5319 28.9297 60.4604 28.9297 60.3897C28.9297 56.7763 28.929 53.1636 28.9297 49.5502C28.9297 49.4404 28.9363 49.3313 28.9409 49.2083C29.0051 49.1957 29.052 49.1792 29.099 49.1792C29.8886 49.1779 30.6775 49.1779 31.4671 49.1792C31.5061 49.1792 31.5458 49.1905 31.5987 49.1984C31.6086 49.2579 31.6238 49.3148 31.6271 49.3723C31.6318 49.4629 31.6285 49.5542 31.6285 49.6454C31.6285 52.4996 31.6285 55.3538 31.6285 58.2074C31.6285 58.3264 31.6338 58.4461 31.6364 58.5678C31.7607 58.6213 31.8731 58.6015 31.9816 58.6015C33.166 58.6028 34.3497 58.6022 35.5341 58.6028C35.6433 58.6028 35.7524 58.6101 35.8734 58.6147C35.886 58.6789 35.9018 58.7265 35.9038 58.7741C35.9342 59.4824 35.9157 60.516 35.8641 60.7706H35.8635Z" fill="#121212"/>
<path d="M1.32923 60.7574C1.31931 60.7197 1.30079 60.6814 1.30079 60.643C1.29881 56.8683 1.29881 53.0929 1.29947 49.3182C1.29947 49.2798 1.31798 49.2415 1.32724 49.2064C1.60036 49.1654 3.72448 49.1681 3.98569 49.2117C3.99363 49.2626 4.00685 49.3188 4.01148 49.3764C4.01611 49.4365 4.01347 49.498 4.01347 49.5582C4.01347 53.161 4.01281 56.7638 4.01214 60.3673C4.01214 60.4876 4.00884 60.6086 4.00685 60.7376C3.94601 60.7548 3.89972 60.7793 3.85277 60.7793C3.04333 60.7813 2.23323 60.7806 1.42379 60.7793C1.3947 60.7793 1.36626 60.7667 1.32989 60.7581L1.32923 60.7574Z" fill="#121212"/>
<path d="M34.2133 16.4058C34.1988 16.5844 34.1994 16.7986 34.1611 17.0056C34.0434 17.6365 33.7643 18.1887 33.3166 18.6529C33.0772 18.9016 32.8199 19.1238 32.5177 19.2977C32.0892 19.5444 31.6296 19.6885 31.1415 19.7262C30.6647 19.7633 30.1939 19.7137 29.7383 19.5503C28.8924 19.2468 28.2523 18.7118 27.8396 17.9063C27.7186 17.6709 27.6188 17.4256 27.5559 17.1729C27.4488 16.7424 27.4131 16.306 27.4997 15.8589C27.552 15.5898 27.6108 15.3279 27.7094 15.0726C27.8575 14.6891 28.0764 14.3578 28.3641 14.0628C28.6564 13.7632 28.9685 13.4947 29.3514 13.3195C29.7766 13.1251 30.2137 12.9769 30.6905 12.9915C30.7712 12.9941 30.8526 12.9941 30.9332 12.9915C31.6402 12.9703 32.2664 13.217 32.8279 13.6151C33.2762 13.9325 33.6294 14.3445 33.8701 14.8511C34.0149 15.1559 34.1326 15.4641 34.175 15.7974C34.1988 15.9872 34.1994 16.1797 34.2127 16.4045L34.2133 16.4058Z" fill="#121212"/>
<path d="M15.5415 16.223C17.1974 16.1991 18.6483 17.6196 18.678 19.3159C18.6939 20.2305 18.3758 21.0141 17.7324 21.6622C17.1167 22.2818 16.3568 22.5834 15.4945 22.5814C13.6547 22.5768 12.3057 21.1087 12.3103 19.3794C12.3149 17.6686 13.7348 16.18 15.5415 16.2236V16.223Z" fill="#121212"/>
</svg>
