<svg width="57" height="66" viewBox="0 0 57 66" fill="none" xmlns="http://www.w3.org/2000/svg">
<path d="M32.3531 38.0549C32.3531 40.9256 32.3531 43.797 32.3531 46.6677C32.3531 46.8202 32.3664 46.9727 32.3001 47.1216C32.2744 47.1789 32.2814 47.2512 32.2845 47.3163C32.3001 47.6607 32.2143 47.985 32.0997 48.3114C31.9664 48.6894 31.8042 49.0523 31.5617 49.3802C31.4221 49.5692 31.2708 49.7532 31.1047 49.9229C30.9223 50.1104 30.7304 50.2944 30.5183 50.4526C29.8961 50.9144 29.1896 51.2215 28.4012 51.3575C27.9661 51.4327 27.5224 51.432 27.0818 51.4141C26.4541 51.389 25.8576 51.2394 25.3008 50.9738C24.6934 50.6839 24.1584 50.3109 23.7241 49.8133C23.3685 49.4067 23.0901 48.9657 22.8991 48.4789C22.7907 48.2026 22.7314 47.9127 22.6792 47.6206C22.616 47.2705 22.6285 46.9226 22.6285 46.574C22.6262 42.114 22.6285 37.6548 22.6262 33.1948C22.6262 32.7631 22.4913 32.3529 22.3166 31.957C22.1318 31.5368 21.8441 31.1667 21.5095 30.841C21.2249 30.5639 20.8779 30.3434 20.5083 30.1602C19.8494 29.8344 19.1406 29.6984 18.4029 29.7528C17.8578 29.7929 17.3268 29.9117 16.8238 30.1372C16.2663 30.3871 15.7961 30.7307 15.3828 31.1459C15.0491 31.481 14.8073 31.8711 14.6194 32.2885C14.4408 32.6851 14.3621 33.1053 14.2911 33.5262C14.2786 33.6014 14.2896 33.6794 14.2896 33.756C14.2896 37.5366 14.2974 41.3165 14.2849 45.0971C14.2818 46.0635 13.64 46.5668 12.8493 46.7637C12.245 46.914 11.6711 46.7816 11.1665 46.4344C10.9186 46.264 10.6776 46.0857 10.4359 45.9082C9.81206 45.4507 9.20695 44.9732 8.65097 44.4456C8.58547 44.3834 8.50126 44.3368 8.43186 44.2774C8.2759 44.1421 8.12072 44.0068 7.97178 43.8651C7.84858 43.7469 7.74331 43.6116 7.6162 43.4978C7.1382 43.0683 6.72492 42.5879 6.29214 42.1226C5.8812 41.6809 5.5225 41.2034 5.13807 40.7438C4.86982 40.4231 4.63901 40.0752 4.39961 39.7351C3.82414 38.9154 3.3009 38.0678 2.83694 37.1909C2.50397 36.5616 2.19206 35.9237 1.92537 35.2673C1.7546 34.8471 1.57291 34.4297 1.42398 34.003C1.24697 33.4933 1.10583 32.9721 0.938173 32.4596C0.740109 31.8518 0.610666 31.2304 0.483562 30.609C0.389988 30.1509 0.319808 29.6884 0.255086 29.2245C0.202061 28.8458 0.175549 28.4657 0.123303 28.0891C0.0788561 27.772 0.109267 27.4541 0.0609211 27.1434C-0.0474682 26.4447 0.0266108 25.7446 0.00399721 25.0459C9.83121e-05 24.9278 0.0320693 24.8089 0.0453255 24.6901C0.0546829 24.6035 0.0632605 24.5161 0.0671593 24.4288C0.0780763 24.1567 0.0320693 23.8811 0.131101 23.6148C0.142018 23.5855 0.13422 23.5497 0.13422 23.5168C0.132661 23.1882 0.177108 22.866 0.253527 22.5446C0.290956 22.3856 0.307331 22.2217 0.319028 22.0592C0.355678 21.5459 0.499157 21.0498 0.604427 20.5473C0.73855 19.9037 0.906982 19.2665 1.1105 18.6387C1.26646 18.1569 1.44659 17.6809 1.62906 17.2069C1.78813 16.7946 1.96358 16.388 2.13513 15.9806C2.21623 15.7873 2.29265 15.5905 2.39246 15.4051C2.69736 14.8359 2.97964 14.2575 3.30714 13.697C3.86001 12.7484 4.48383 11.8428 5.14742 10.9594C5.53887 10.4375 5.95683 9.93212 6.40755 9.45033C6.56272 9.28496 6.70854 9.11244 6.85904 8.94277C6.89647 8.90053 6.93468 8.8583 6.97289 8.81678C7.4197 8.33141 7.92188 7.894 8.40534 7.44085C8.85605 7.01776 9.3442 6.63404 9.82844 6.24532C10.322 5.84872 10.8305 5.47073 11.3576 5.11279C12.1631 4.56585 12.9982 4.06044 13.8576 3.58652C14.5851 3.18491 15.3454 2.84487 16.1025 2.49695C17.3003 1.94572 18.555 1.52549 19.8283 1.15323C20.8389 0.858287 21.8698 0.625624 22.9155 0.458823C23.5713 0.354304 24.2294 0.262671 24.8883 0.178912C25.2057 0.138107 25.5293 0.142402 25.8459 0.101597C26.3208 0.0407467 26.8003 0.0894268 27.2729 0.0443261C27.6908 0.00495247 28.1073 -0.0136605 28.5213 0.0113954C29.0212 0.0407467 29.5226 0.0292925 30.0201 0.0615073C30.7897 0.110903 31.5601 0.177481 32.3227 0.287011C33.0744 0.394394 33.8262 0.513946 34.5638 0.688622C35.3249 0.868309 36.0875 1.04656 36.8369 1.26348C37.4724 1.44746 38.0947 1.67583 38.7146 1.90133C39.6347 2.23636 40.5362 2.61507 41.404 3.05176C42.1355 3.41972 42.8451 3.82491 43.5492 4.23583C44.0522 4.52863 44.5364 4.84934 45.0168 5.17364C45.3903 5.42635 45.7466 5.70125 46.1069 5.97042C46.5779 6.32335 47.0325 6.69275 47.4606 7.09006C47.6189 7.23753 47.8115 7.35422 47.9667 7.50456C48.4158 7.94196 48.8603 8.38367 49.2946 8.83396C49.6416 9.19405 49.9801 9.5613 50.3045 9.93857C50.8441 10.5657 51.3525 11.2157 51.8196 11.8901C52.197 12.4341 52.5721 12.9804 52.8871 13.5588C53.0313 13.823 53.1951 14.0778 53.3401 14.3413C53.6193 14.8488 53.8603 15.3721 54.1059 15.8947C54.456 16.64 54.7484 17.4031 55.0089 18.1763C55.2163 18.7919 55.4253 19.4076 55.55 20.044C55.6257 20.4306 55.7411 20.81 55.8167 21.1966C55.915 21.6991 56.0156 22.2024 56.0514 22.7135C56.1512 22.9526 56.0935 23.2125 56.1668 23.4559C56.1856 23.5175 56.177 23.5862 56.1785 23.6513C56.1832 23.8468 56.1583 24.0436 56.2308 24.2362C56.2565 24.3049 56.2394 24.388 56.2394 24.4646C56.2394 25.3738 56.2409 26.2836 56.2378 27.1928C56.2378 27.3117 56.2121 27.4305 56.1988 27.5493C56.1918 27.6145 56.1824 27.6789 56.1778 27.744C56.1583 28.049 56.1754 28.3597 56.1138 28.6568C56.0101 29.1593 55.9758 29.6691 55.8721 30.1723C55.7348 30.8367 55.5921 31.4989 55.419 32.156C55.2061 32.965 54.9254 33.7553 54.6322 34.5421C54.4006 35.1635 54.1301 35.7705 53.8291 36.3654C53.5382 36.941 53.2442 37.5166 52.923 38.0786C52.6516 38.5525 52.3561 39.0164 52.0402 39.4667C51.6153 40.0737 51.1708 40.6708 50.7138 41.2578C50.4378 41.6129 50.122 41.9422 49.8226 42.2822C49.658 42.4691 49.4896 42.6531 49.3235 42.8392C49.3009 42.8642 49.2814 42.8922 49.258 42.9172C48.6794 43.515 48.0782 44.0941 47.4403 44.6375C46.5241 45.4185 45.5626 46.1537 44.5427 46.8195C44.1746 47.06 43.8229 47.3271 43.4034 47.4967C42.7008 47.7809 42.0216 47.7265 41.4033 47.3213C40.9799 47.0443 40.7646 46.6391 40.6812 46.158C40.5845 45.6018 40.6212 45.0455 40.6204 44.49C40.6157 39.4387 40.6173 34.3867 40.618 29.3355C40.618 29.0928 40.5596 28.8615 40.4917 28.6274C40.3607 28.1721 40.1034 27.7806 39.8024 27.4112C39.4991 27.0382 39.1115 26.7483 38.6748 26.5134C38.1945 26.2557 37.672 26.1047 37.1262 26.0302C36.8806 25.9966 36.6256 26.0238 36.376 26.013C35.9284 25.9937 35.498 26.071 35.0777 26.2006C34.1505 26.4855 33.4222 26.9967 32.9029 27.767C32.6339 28.1657 32.4771 28.5952 32.3804 29.0484C32.3578 29.1543 32.3578 29.266 32.3578 29.3748C32.357 32.2677 32.3571 35.1606 32.3571 38.0535L32.3531 38.0549ZM10.3953 41.0423C10.4164 41.0344 10.4382 41.0266 10.4593 41.0187C10.4593 40.8891 10.4593 40.7588 10.4593 40.6293C10.4593 38.2296 10.4593 35.83 10.4593 33.4303C10.4593 33.343 10.4593 33.2542 10.4718 33.1683C10.5068 32.9206 10.5404 32.6722 10.5895 32.4266C10.6371 32.1911 10.6917 31.9556 10.7626 31.7251C10.9248 31.1968 11.1548 30.6928 11.4317 30.206C11.781 29.5903 12.22 29.0334 12.744 28.5351C12.9756 28.3153 13.2298 28.1156 13.4825 27.9159C13.973 27.5278 14.5251 27.2179 15.1044 26.9623C15.6074 26.7404 16.1322 26.5614 16.6827 26.4419C17.1475 26.3409 17.6184 26.2672 18.0879 26.2357C18.8357 26.1863 19.5819 26.2342 20.3235 26.3767C21.1391 26.5335 21.9033 26.8034 22.616 27.1871C23.434 27.6274 24.1429 28.1922 24.7409 28.8751C25.3305 29.5481 25.7695 30.2926 26.0806 31.1058C26.2272 31.4896 26.3044 31.8869 26.3878 32.2828C26.4323 32.4954 26.4526 32.7159 26.4526 32.9328C26.4557 37.5352 26.4557 42.1369 26.4526 46.7393C26.4526 46.9162 26.4721 47.0851 26.5243 47.2562C26.6163 47.5569 26.8432 47.7451 27.1364 47.854C27.5146 47.9943 27.9708 47.8697 28.2359 47.5819C28.3771 47.4287 28.4566 47.2583 28.4566 47.0436C28.4511 41.411 28.4511 35.7791 28.4527 30.1466C28.4527 29.8308 28.4114 29.5116 28.5096 29.1994C28.5221 29.1586 28.5143 29.1121 28.5127 29.0684C28.5026 28.7713 28.5681 28.4821 28.6375 28.1965C28.7178 27.8665 28.8169 27.5386 28.9377 27.2193C29.1693 26.6065 29.4781 26.0266 29.9093 25.5091C30.0972 25.2836 30.3132 25.0774 30.491 24.8454C30.7437 24.5161 31.0938 24.2813 31.4244 24.0379C32.1738 23.486 33.0191 23.0851 33.9384 22.8159C34.4975 22.652 35.073 22.5403 35.6508 22.5124C36.3737 22.4773 37.1051 22.4508 37.8272 22.5668C38.0845 22.6083 38.3426 22.6527 38.5968 22.7071C39.2394 22.8452 39.8383 23.0879 40.4215 23.3657C40.8044 23.5482 41.1678 23.7551 41.4953 24.0136C41.6668 24.1489 41.8251 24.3014 42.0092 24.4202C42.318 24.6199 42.5402 24.8948 42.7655 25.1568C43.2163 25.6809 43.6023 26.2443 43.8799 26.87C44.2159 27.6259 44.4382 28.3998 44.4522 29.2195C44.453 29.2739 44.4468 29.3326 44.4662 29.3827C44.5286 29.5423 44.5154 29.707 44.5154 29.8709C44.5154 31.0436 44.5162 32.2162 44.5154 33.3881C44.5138 36.3024 44.5107 39.2175 44.5107 42.1319C44.5107 42.1598 44.5356 42.187 44.5528 42.2221C44.5926 42.2056 44.6308 42.2006 44.6518 42.1799C45.3466 41.5041 46.1147 40.8906 46.7338 40.1489C46.9803 39.854 47.2485 39.5755 47.498 39.2827C47.9753 38.7214 48.4151 38.1358 48.812 37.5237C49.141 37.0162 49.4545 36.5 49.7594 35.9796C49.9395 35.6718 50.0846 35.3467 50.2507 35.0317C50.5524 34.4598 50.8043 33.8692 51.0265 33.2678C51.2558 32.6464 51.4757 32.0222 51.655 31.3857C51.9116 30.4766 52.1011 29.5581 52.229 28.6267C52.2539 28.442 52.243 28.2516 52.2913 28.0755C52.342 27.8908 52.3436 27.709 52.349 27.5243C52.3514 27.4484 52.3639 27.3725 52.3724 27.2966C52.3841 27.1885 52.4052 27.0804 52.406 26.9716C52.4091 26.2156 52.4075 25.4597 52.4075 24.7037C52.4075 24.398 52.3116 24.0973 52.3451 23.7888C52.3483 23.758 52.3256 23.7265 52.3194 23.6943C52.3038 23.6091 52.2882 23.5232 52.2789 23.4366C52.2562 23.2197 52.2523 23.0006 52.2149 22.7858C52.1369 22.3348 52.0605 21.8817 51.9498 21.4371C51.7767 20.7448 51.602 20.0511 51.379 19.3718C51.149 18.6709 50.8971 17.9737 50.5704 17.3029C50.3567 16.8633 50.1594 16.4166 49.9263 15.9856C49.6822 15.5354 49.4108 15.0972 49.141 14.6591C48.6997 13.9439 48.2045 13.2603 47.6618 12.6067C47.3296 12.2065 46.9826 11.817 46.6379 11.4269C46.3455 11.0954 46.05 10.7661 45.7155 10.4698C45.2351 10.0438 44.7844 9.59279 44.2729 9.19405C43.7824 8.81176 43.2966 8.4259 42.785 8.06796C41.7214 7.32201 40.59 6.67199 39.4141 6.08926C38.7637 5.76711 38.0884 5.48791 37.4053 5.22733C36.3246 4.81498 35.2181 4.47279 34.0819 4.21364C33.5392 4.08979 32.9934 3.98098 32.4405 3.89507C31.6786 3.77623 30.9191 3.65024 30.1448 3.62303C30.0856 3.62089 30.0271 3.61015 29.9678 3.60514C29.8025 3.5901 29.6372 3.56791 29.4719 3.56218C29.0913 3.54858 28.7092 3.5808 28.3295 3.51995C28.1915 3.49775 28.0441 3.51708 27.9014 3.52424C27.7111 3.53355 27.5216 3.55288 27.3321 3.56004C26.9641 3.57292 26.5921 3.52639 26.2288 3.62089C26.1952 3.62948 26.157 3.6216 26.1219 3.62446C25.6486 3.66384 25.1737 3.69319 24.7027 3.7476C24.362 3.78697 24.0251 3.85856 23.6867 3.91726C22.7026 4.08764 21.7333 4.311 20.7781 4.58948C19.9016 4.84505 19.0408 5.13856 18.2072 5.49078C17.5256 5.77928 16.8659 6.11216 16.2024 6.43503C15.3048 6.87172 14.4689 7.40004 13.6548 7.95485C13.1682 8.2863 12.6871 8.62778 12.2419 9.00863C11.8761 9.32147 11.4894 9.61355 11.1252 9.92783C10.9264 10.0996 10.7618 10.3037 10.5716 10.4848C10.2901 10.7525 9.99531 11.0074 9.74344 11.3016C9.49391 11.5937 9.21709 11.8664 8.96912 12.16C8.39209 12.8443 7.8556 13.5566 7.37603 14.3012C7.01811 14.8567 6.68281 15.4244 6.34594 15.9914C6.2321 16.1825 6.14632 16.388 6.04885 16.5877C5.9272 16.8375 5.79932 17.0845 5.68859 17.3379C5.3681 18.0689 5.05541 18.8026 4.83551 19.5651C4.68345 20.0927 4.53374 20.6217 4.39883 21.1536C4.32086 21.4607 4.29356 21.7793 4.20701 22.0843C4.07211 22.5603 4.05885 23.0521 3.96216 23.5332C3.89822 23.8525 3.91771 24.1861 3.90367 24.5133C3.8951 24.7094 3.92785 24.9084 3.84285 25.0974L3.84519 26.6416C3.93019 26.8198 3.89822 27.0081 3.90289 27.1928C3.90601 27.3131 3.8834 27.4391 3.91381 27.5529C3.99101 27.8414 3.95826 28.1371 4.0144 28.4291C4.09472 28.8451 4.13917 29.2682 4.21403 29.6877C4.29278 30.1294 4.38714 30.5675 4.50021 31.002C4.66162 31.6191 4.85501 32.2269 5.07178 32.8304C5.33691 33.5692 5.63167 34.2965 5.98491 35.0017C6.27342 35.578 6.60483 36.1364 6.93234 36.6962C7.40099 37.498 7.92812 38.2661 8.53167 38.9884C8.966 39.5089 9.41828 40.0165 9.86665 40.5269C9.94853 40.6199 10.0515 40.698 10.1411 40.786C10.2285 40.8705 10.3127 40.9578 10.3977 41.0445L10.3953 41.0423Z" fill="white"/>
<path d="M18.9964 65.7981C18.7843 65.7981 18.6182 65.7981 18.4521 65.7981C18.0825 65.7981 17.7121 65.791 17.3425 65.7981C16.877 65.8074 16.5167 65.6392 16.2313 65.3042C15.6215 64.5876 15.0032 63.8781 14.3887 63.1651C12.982 61.5336 11.5753 59.9014 10.1685 58.2699C10.0952 58.1847 10.0173 58.1031 9.94474 58.0236C9.83089 58.0573 9.86754 58.1353 9.86988 58.1926C9.96657 60.5908 9.89171 62.9897 9.91199 65.3886C9.91277 65.5168 9.94864 65.6521 9.86208 65.7709C9.53691 65.8124 7.42371 65.8089 7.13207 65.763C7.12194 65.7065 7.10478 65.6442 7.10088 65.5812C7.09542 65.4939 7.09854 65.4058 7.09854 65.3185C7.09854 61.452 7.09776 57.5848 7.09776 53.7183C7.09776 53.5773 7.10166 53.4362 7.104 53.2787C7.18666 53.263 7.25294 53.2394 7.31844 53.2386C7.86741 53.2358 8.41637 53.2386 8.96534 53.2365C9.2445 53.2358 9.47843 53.326 9.66558 53.5143C9.77007 53.6195 9.87222 53.7269 9.96813 53.8386C11.9815 56.1752 13.9941 58.5126 16.0075 60.8485C16.0644 60.9144 16.1292 60.9738 16.1838 61.0296C16.2727 61.0074 16.2563 60.9537 16.2524 60.9165C16.1666 60.1297 16.1978 59.3401 16.1962 58.5519C16.1923 56.909 16.1947 55.266 16.1962 53.6224C16.1962 53.5049 16.1689 53.3825 16.2305 53.2737C16.4964 53.2272 18.5441 53.2172 18.9699 53.2608C18.9832 53.3152 19.0042 53.3754 19.0112 53.4369C19.019 53.5021 19.0136 53.568 19.0136 53.6338C19.0136 57.5554 19.0128 61.477 19.012 65.3987C19.012 65.5175 19.0042 65.6356 18.998 65.7988L18.9964 65.7981Z" fill="white"/>
<path d="M32.5044 54.7857C32.4724 54.843 32.4553 54.8838 32.4295 54.9196C32.1683 55.2861 31.9071 55.6526 31.6443 56.0185C31.6115 56.0643 31.5772 56.1094 31.539 56.1509C31.2482 56.473 30.8988 56.5547 30.484 56.3871C30.3319 56.3256 30.1892 56.244 30.0442 56.1681C29.5974 55.9333 29.1381 55.7257 28.6281 55.6347C27.8358 55.493 27.042 55.4536 26.2521 55.6455C25.2493 55.8882 24.5171 56.4444 24.0352 57.2827C23.5759 58.0816 23.4543 58.9429 23.4995 59.8313C23.5315 60.4598 23.6593 61.069 23.9525 61.6439C24.5608 62.8358 25.5807 63.5037 27.0023 63.6412C27.7836 63.7164 28.5493 63.624 29.2909 63.3778C29.3673 63.352 29.4399 63.3148 29.5186 63.2811C29.5264 63.2074 29.5397 63.1437 29.5389 63.0792C29.5358 62.5538 29.5311 62.0283 29.5241 61.5029C29.5241 61.4842 29.5022 61.4656 29.4796 61.4298C29.4118 61.4241 29.3307 61.4126 29.2504 61.4119C28.9525 61.4098 28.6538 61.4119 28.3552 61.4105C28.26 61.4105 28.1634 61.4119 28.069 61.4012C27.768 61.3661 27.5707 61.1771 27.5637 60.8951C27.5536 60.4791 27.559 60.0625 27.5606 59.6466C27.5606 59.5399 27.5715 59.4332 27.5785 59.3087C27.6791 59.3001 27.7586 59.2893 27.839 59.2879C29.7362 59.2535 32.0623 59.2707 32.3976 59.3244C32.4061 59.381 32.4249 59.4433 32.4249 59.5055C32.4256 61.1592 32.4249 62.8136 32.4249 64.4673C32.4249 64.4995 32.4178 64.5325 32.4116 64.5876C32.3523 64.6334 32.2853 64.6936 32.2089 64.7422C31.341 65.2935 30.3779 65.6263 29.3432 65.7967C28.4815 65.9385 27.6121 65.9728 26.741 65.937C24.3534 65.8383 22.0093 64.5876 20.888 62.3469C20.304 61.18 20.1386 59.9573 20.2759 58.6909C20.3523 57.9893 20.5363 57.3113 20.8521 56.6663C21.5961 55.1479 22.839 54.1214 24.5233 53.5308C25.1168 53.3224 25.7328 53.1957 26.3628 53.1342C27.7095 53.0024 29.0305 53.0969 30.3109 53.5279C31.0236 53.7677 31.67 54.1135 32.2478 54.5652C32.3367 54.6347 32.4186 54.7127 32.5044 54.7871V54.7857Z" fill="white"/>
<path d="M43.4031 53.2482H46.5394C46.5565 53.3169 46.5799 53.3763 46.5846 53.4379C46.5924 53.536 46.5869 53.6348 46.5869 53.7336C46.5869 55.99 46.5862 58.2465 46.5869 60.503C46.5869 60.853 46.5869 61.2031 46.6712 61.5489C46.7437 61.851 46.8482 62.1402 47.0174 62.4072C47.3722 62.9692 47.9001 63.3114 48.5933 63.4467C49.0939 63.5441 49.5914 63.5376 50.0811 63.413C50.9631 63.1897 51.4972 62.6363 51.7623 61.851C51.8863 61.483 51.9339 61.1029 51.9331 60.717C51.93 59.3146 51.9323 57.9129 51.9323 56.5105C51.9323 55.5576 51.9323 54.6048 51.9323 53.6512C51.9323 53.5324 51.9378 53.4128 51.9417 53.2768C52.008 53.2618 52.0626 53.2382 52.1171 53.2382C53.0599 53.236 54.0026 53.2367 54.9446 53.2382C54.9898 53.2382 55.0351 53.2532 55.0842 53.2618C55.152 53.3814 55.1263 53.5038 55.1263 53.6212C55.1286 54.6835 55.1279 55.7459 55.1279 56.809C55.1279 58.036 55.1279 59.2631 55.1279 60.4894C55.1279 60.9504 55.1014 61.4093 55.0008 61.8617C54.5563 63.8605 53.2743 65.1591 51.137 65.7275C50.1833 65.9809 49.2086 65.9924 48.2284 65.885C47.6194 65.8184 47.0377 65.6688 46.4809 65.4326C44.9884 64.799 44.0542 63.7345 43.6175 62.2913C43.4538 61.75 43.3906 61.1952 43.3906 60.6347C43.3906 59.7692 43.3906 58.9037 43.3906 58.0389C43.3906 56.5713 43.3906 55.1031 43.3906 53.6355C43.3906 53.5174 43.3992 53.3992 43.4047 53.2468L43.4031 53.2482Z" fill="white"/>
<path d="M42.2871 65.7864H34.1641C34.1462 65.7234 34.1212 65.6647 34.1142 65.6039C34.1056 65.528 34.1111 65.4507 34.1111 65.3741C34.1111 61.4625 34.1103 57.5516 34.1111 53.64C34.1111 53.5212 34.1189 53.403 34.1243 53.2699C34.2 53.2563 34.2553 53.2384 34.3107 53.2384C35.2418 53.2369 36.172 53.2369 37.1031 53.2384C37.1491 53.2384 37.1959 53.2505 37.2583 53.2591C37.27 53.3236 37.2879 53.3851 37.2918 53.4474C37.2973 53.5455 37.2934 53.6443 37.2934 53.7431C37.2934 56.8328 37.2934 59.9226 37.2934 63.0116C37.2934 63.1405 37.2996 63.2701 37.3027 63.4018C37.4493 63.4598 37.5819 63.4383 37.7098 63.4383C39.1064 63.4397 40.5022 63.439 41.8987 63.4397C42.0274 63.4397 42.1561 63.4476 42.2988 63.4526C42.3136 63.5221 42.3323 63.5736 42.3346 63.6252C42.3705 64.3919 42.3487 65.5108 42.2879 65.7864H42.2871Z" fill="white"/>
<path d="M1.56681 65.7718C1.55511 65.731 1.53328 65.6894 1.53328 65.6479C1.53094 61.5617 1.53094 57.4747 1.53172 53.3884C1.53172 53.3469 1.55355 53.3054 1.56447 53.2674C1.88652 53.223 4.39117 53.2259 4.69918 53.2731C4.70854 53.3283 4.72413 53.3891 4.72959 53.4514C4.73505 53.5165 4.73193 53.5831 4.73193 53.6483C4.73193 57.5484 4.73115 61.4485 4.73037 65.3494C4.73037 65.4797 4.72647 65.6107 4.72413 65.7503C4.65239 65.7689 4.59781 65.7954 4.54245 65.7954C3.588 65.7975 2.63277 65.7968 1.67831 65.7954C1.644 65.7954 1.61047 65.7818 1.56759 65.7725L1.56681 65.7718Z" fill="white"/>
<path d="M40.3408 17.7595C40.3236 17.9528 40.3244 18.1847 40.2792 18.4088C40.1404 19.0918 39.8113 19.6895 39.2834 20.1921C39.0011 20.4612 38.6978 20.7018 38.3414 20.8901C37.8361 21.1571 37.2942 21.3131 36.7187 21.3539C36.1565 21.394 35.6013 21.3403 35.064 21.1635C34.0667 20.8349 33.3118 20.2558 32.8253 19.3838C32.6826 19.129 32.5648 18.8634 32.4907 18.5899C32.3644 18.1239 32.3223 17.6514 32.4244 17.1675C32.4861 16.8761 32.5555 16.5926 32.6716 16.3163C32.8463 15.9011 33.1044 15.5424 33.4436 15.2231C33.7883 14.8988 34.1563 14.6082 34.6078 14.4185C35.1092 14.208 35.6247 14.0476 36.1869 14.0634C36.282 14.0662 36.3779 14.0662 36.4731 14.0634C37.3067 14.0405 38.0451 14.3075 38.7071 14.7385C39.2358 15.0821 39.6522 15.5281 39.9361 16.0764C40.1068 16.4065 40.2456 16.7401 40.2955 17.1009C40.3236 17.3063 40.3244 17.5147 40.34 17.7581L40.3408 17.7595Z" fill="white"/>
<path d="M18.3256 17.5618C20.2782 17.5361 21.989 19.0738 22.0241 20.91C22.0429 21.9001 21.6678 22.7484 20.9091 23.45C20.1831 24.1208 19.2871 24.4472 18.2703 24.4451C16.1009 24.4401 14.5102 22.8508 14.5156 20.9788C14.5211 19.1268 16.1953 17.5153 18.3256 17.5626V17.5618Z" fill="white"/>
</svg>
