<svg width="806" height="473" viewBox="0 0 806 473" fill="none" xmlns="http://www.w3.org/2000/svg">
<path d="M73.2403 442.538C73.2403 442.538 763.486 442.549 763.489 442.538C770.435 419.057 775.484 370.182 776.043 361.316C780.312 293.617 783.467 223.796 744.78 164.58C715.038 119.056 667.091 86.3871 613.5 76.6416C540.517 63.3697 477.23 95.0061 431.475 150.283C402.412 185.396 373.089 231.408 326.799 244.878C281.118 258.17 232.221 236.383 184.96 241.852C142.449 246.772 103.943 274.829 83.7514 312.55C63.5605 350.272 59.582 401.993 73.2403 442.538Z" fill="#F3F6FD"/>
<mask id="mask0_709_2961" style="mask-type:luminance" maskUnits="userSpaceOnUse" x="65" y="73" width="714" height="370">
<path d="M73.2403 442.538C73.2403 442.538 763.486 442.549 763.489 442.538C770.435 419.057 775.484 370.182 776.043 361.316C780.312 293.617 783.467 223.796 744.78 164.58C715.038 119.056 667.091 86.3871 613.5 76.6416C540.517 63.3697 477.23 95.0061 431.475 150.283C402.412 185.396 373.089 231.408 326.799 244.878C281.118 258.17 232.221 236.383 184.96 241.852C142.449 246.772 103.943 274.829 83.7514 312.55C63.5605 350.272 59.582 401.993 73.2403 442.538Z" fill="white"/>
</mask>
<g mask="url(#mask0_709_2961)">
<path opacity="0.34" d="M46.8372 319.882C119.415 354.014 202.505 358.67 282.495 352.77C459.432 339.719 637.64 273.363 758.116 143.162C797.765 192.095 804.733 258.038 805.412 321.007C805.928 368.933 803.804 416.888 799.052 464.581H46.1291C46.0877 453.445 45.0243 440.431 44.9829 429.295C44.8488 393.314 46.9713 355.863 46.8372 319.882Z" fill="#CCE6FF"/>
</g>
<path d="M479.89 170.8H496.265C500.169 170.8 503.335 173.964 503.335 177.868V318.684C503.335 330.96 493.38 340.912 481.1 340.912H382.179C376.62 340.912 372.114 336.407 372.114 330.85V326.017C372.114 320.46 376.62 315.955 382.179 315.955H471.418L472.82 177.796C472.86 173.921 476.013 170.8 479.89 170.8Z" fill="#CCE6FF"/>
<path d="M486.974 430.827C487.731 430.35 488.236 429.51 488.236 428.549C488.236 427.062 487.029 425.856 485.541 425.856H462.393V363.655H465.606V340.912H452.145V363.655H455.159V425.856H432.01C430.522 425.856 429.316 427.062 429.316 428.549C429.316 429.647 429.974 430.589 430.916 431.009C429.254 432.182 428.167 434.116 428.167 436.305C428.167 439.885 431.069 442.786 434.65 442.786C438.23 442.786 441.132 439.885 441.132 436.305C441.132 434.256 440.18 432.43 438.694 431.242H478.594C477.334 432.425 476.546 434.104 476.546 435.968C476.546 439.547 479.448 442.448 483.028 442.448C486.608 442.448 489.511 439.547 489.511 435.968C489.511 433.873 488.516 432.012 486.974 430.827Z" fill="#102A54"/>
<path d="M359.157 208.602H326.267V214.11H328.601L333.507 263.684H351.947L356.825 214.11H359.157V208.602Z" fill="#E6515C"/>
<path d="M353.876 214.518H328.601C328.375 214.518 328.193 214.335 328.193 214.11C328.193 213.884 328.375 213.701 328.601 213.701H353.876C354.102 213.701 354.285 213.884 354.285 214.11C354.285 214.335 354.102 214.518 353.876 214.518Z" fill="#102A54"/>
<path d="M342.712 209.105C342.434 209.105 342.209 208.88 342.209 208.602V183.785C342.209 183.507 342.434 183.281 342.712 183.281C342.99 183.281 343.216 183.507 343.216 183.785V208.602C343.216 208.88 342.99 209.105 342.712 209.105Z" fill="#102A54"/>
<path d="M492.139 176.976L491.96 177.097C491.014 169.776 486.338 163.257 479.289 160.276C476.723 159.191 473.902 158.591 470.941 158.591H429.752C419.536 158.591 410.994 165.735 408.838 175.297L393.224 224.677L408.545 231.16L408.742 273.355H477.424L484.585 228.687L505.09 223.196L492.139 176.976Z" fill="#3C94F8"/>
<path d="M408.546 231.568C408.54 231.568 408.534 231.568 408.528 231.568C408.303 231.558 408.128 231.367 408.138 231.142L409.691 195.489C409.701 195.264 409.885 195.091 410.117 195.099C410.342 195.109 410.517 195.299 410.507 195.525L408.954 231.178C408.944 231.397 408.763 231.568 408.546 231.568Z" fill="#102A54"/>
<path d="M447.903 168.755C452.833 167.635 455.764 162.555 454.265 157.729L445.285 128.81L433.329 131.525L437.387 161.463C438.07 166.509 442.936 169.883 447.903 168.755Z" fill="#FFC0B1"/>
<path d="M448.256 106.855L409.56 104.24L409.721 106.661C410.276 115.032 410.065 123.443 408.944 131.757C408.408 135.734 408.372 140.514 410.106 144.498C413.507 152.314 422.387 156.31 430.354 153.278C438.386 150.222 451.199 139.81 448.256 106.855Z" fill="#FFC0B1"/>
<path d="M424.858 132.987C424.848 132.987 424.839 132.986 424.829 132.986L421.256 132.744C420.69 132.706 420.187 132.413 419.875 131.939C419.563 131.466 419.492 130.888 419.68 130.354L423.537 119.374C423.612 119.161 423.845 119.05 424.057 119.124C424.27 119.199 424.382 119.432 424.307 119.645L420.451 130.624C420.348 130.916 420.387 131.232 420.557 131.49C420.728 131.748 421.002 131.908 421.311 131.929L424.885 132.171C425.11 132.186 425.28 132.381 425.265 132.606C425.25 132.822 425.071 132.987 424.858 132.987Z" fill="#102A54"/>
<path d="M428.67 153.567C428.487 153.567 428.321 153.444 428.274 153.259C428.219 153.041 428.351 152.819 428.57 152.763C428.625 152.749 434.171 151.305 438.082 147.291C438.24 147.129 438.498 147.126 438.66 147.283C438.821 147.44 438.825 147.699 438.667 147.861C434.591 152.045 429.006 153.495 428.77 153.554C428.737 153.563 428.703 153.567 428.67 153.567Z" fill="#102A54"/>
<path d="M456.089 99.9007C457.728 103.266 456.056 107.317 452.577 108.702C449.102 110.086 442.823 111.242 431.752 110.034C410.511 107.718 399.094 101.126 403.083 91.9654C409.424 77.4006 437.293 96.6566 437.293 96.6566C437.293 96.6566 452.511 92.5569 456.089 99.9007Z" fill="#102A54"/>
<path d="M444.234 107.342C444.234 107.342 442.757 120.916 445.861 123.28C448.965 125.644 450.32 121.592 450.32 121.592C450.32 121.592 455.865 107.98 448.663 104.399C444.249 102.205 444.234 107.342 444.234 107.342Z" fill="#102A54"/>
<path d="M453.57 122.689C453.806 119.189 452.062 116.221 449.673 116.06C447.285 115.898 445.156 118.605 444.92 122.105C444.683 125.605 446.428 128.573 448.817 128.734C451.205 128.896 453.333 126.189 453.57 122.689Z" fill="#FFC0B1"/>
<path d="M409.893 114.645C409.095 114.524 408.529 113.793 408.62 112.983C408.714 112.155 409.461 111.559 410.29 111.652L418.032 112.523C418.856 112.62 419.457 113.364 419.364 114.193C419.271 115.021 418.523 115.618 417.694 115.524L409.952 114.653C409.932 114.651 409.913 114.648 409.893 114.645Z" fill="#102A54"/>
<path d="M436.827 115.051C436.778 115.063 436.728 115.074 436.677 115.081L428.976 116.261C428.151 116.387 427.381 115.821 427.254 114.997C427.128 114.172 427.691 113.402 428.519 113.275L436.219 112.096C437.044 111.97 437.815 112.536 437.941 113.36C438.06 114.133 437.569 114.859 436.827 115.051Z" fill="#102A54"/>
<path d="M414.356 119.113C414.083 120.165 414.715 121.24 415.767 121.513C416.82 121.786 417.895 121.155 418.168 120.102C418.263 119.737 418.249 119.369 418.146 119.032L414.356 119.113Z" fill="#102A54"/>
<path d="M412.358 119.451C412.14 119.451 411.96 119.279 411.95 119.06C411.94 118.835 412.115 118.644 412.34 118.635L421.074 118.255C421.299 118.246 421.489 118.42 421.499 118.645C421.509 118.87 421.334 119.061 421.109 119.071L412.376 119.45C412.37 119.45 412.364 119.451 412.358 119.451Z" fill="#102A54"/>
<path d="M430.72 119.745C430.446 120.798 431.078 121.872 432.131 122.146C433.184 122.419 434.259 121.787 434.532 120.735C434.627 120.369 434.613 120.001 434.51 119.665L430.72 119.745Z" fill="#102A54"/>
<path d="M428.721 120.083C428.504 120.083 428.323 119.911 428.314 119.692C428.304 119.467 428.478 119.276 428.704 119.267L437.437 118.887C437.664 118.878 437.853 119.052 437.862 119.277C437.872 119.503 437.698 119.693 437.472 119.703L428.739 120.082C428.733 120.082 428.727 120.083 428.721 120.083Z" fill="#102A54"/>
<path d="M428.435 136.199C428.382 136.199 428.328 136.209 428.276 136.231C424.648 137.762 421.707 137.69 419.88 137.36C417.898 137.002 416.756 136.272 416.745 136.265C416.557 136.143 416.304 136.195 416.18 136.384C416.057 136.573 416.11 136.825 416.298 136.949C416.496 137.078 421.234 140.09 428.594 136.983C428.801 136.896 428.899 136.656 428.811 136.448C428.745 136.292 428.594 136.199 428.435 136.199Z" fill="#102A54"/>
<path d="M436.997 158.591L445.589 168.973L441.559 176.245C441.559 176.245 432.286 170.414 432.605 158.591H436.997Z" fill="#CCE6FF"/>
<path d="M454.299 158.591L445.589 168.973L449.738 176.245C449.738 176.245 459.011 170.414 458.692 158.591H454.299Z" fill="#CCE6FF"/>
<path d="M443.803 172.196L435.595 238.145C435.595 238.145 439.371 248.98 439.949 248.318C442.264 245.669 447.395 239.514 447.395 239.514L447.438 172.213L445.574 168.972L443.803 172.196Z" fill="#102A54"/>
<path d="M379.427 425.856H362.533V430.3L345.079 436.843C342.742 437.719 341.194 439.953 341.194 442.448H379.601C381.482 442.448 382.874 440.697 382.448 438.865L379.427 425.856Z" fill="#0C203F"/>
<path d="M378.331 421.719V425.856H363.7L363.288 421.777L378.331 421.719Z" fill="#FFC0B1"/>
<path d="M493.087 289.07L488.872 273.355H406.887L406.686 284.848L378.763 287.452C368.656 288.394 359.63 294.169 354.54 302.95C351.219 308.68 349.798 315.313 350.481 321.9L360.827 421.719H381.099L387.297 329.103L389.003 329.139L398.599 421.719H418.871L425.015 329.897L460.482 330.643C469.15 330.825 477.542 327.595 483.848 321.647C492.685 313.312 496.233 300.802 493.087 289.07Z" fill="#102A54"/>
<path d="M388.879 329.084C388.571 329.084 388.302 328.857 388.257 328.543C388.247 328.474 387.285 321.529 388.305 314.058C389.675 304.026 393.973 297.592 400.736 295.454C421.979 288.737 450.535 287.209 450.821 287.194C451.163 287.179 451.464 287.443 451.481 287.79C451.499 288.137 451.232 288.433 450.885 288.451C450.601 288.465 422.203 289.986 401.116 296.654C394.766 298.661 390.877 304.566 389.555 314.203C388.554 321.504 389.493 328.298 389.503 328.366C389.551 328.71 389.312 329.028 388.968 329.077C388.938 329.081 388.909 329.084 388.879 329.084Z" fill="white"/>
<path d="M538.107 273.355H578.155V261.733H215.345V273.355H254.332L206.407 442.448H212.331L260.255 273.355H532.183L580.108 442.448H586.032L538.107 273.355Z" fill="#CCE6FF"/>
<path d="M274.961 273.764H254.332C254.106 273.764 253.923 273.581 253.923 273.355C253.923 273.13 254.106 272.947 254.332 272.947H274.961C275.187 272.947 275.369 273.13 275.369 273.355C275.369 273.581 275.187 273.764 274.961 273.764Z" fill="#102A54"/>
<path d="M538.107 273.764H526.159C525.933 273.764 525.75 273.581 525.75 273.355C525.75 273.13 525.933 272.947 526.159 272.947H538.107C538.333 272.947 538.515 273.13 538.515 273.355C538.515 273.581 538.333 273.764 538.107 273.764Z" fill="#102A54"/>
<path d="M572.13 262.141H456.446C456.221 262.141 456.038 261.958 456.038 261.733C456.038 261.507 456.221 261.324 456.446 261.324H572.13C572.356 261.324 572.539 261.507 572.539 261.733C572.539 261.958 572.356 262.141 572.13 262.141Z" fill="#102A54"/>
<path d="M396.219 253.481L408.567 235.753L408.546 231.16L399.804 227.461L396.219 253.481Z" fill="#FFC0B1"/>
<path d="M393.224 190.965L378.47 246.564C377.837 249.416 378.444 252.402 380.139 254.781L380.668 255.522C382.679 258.344 386.218 259.641 389.577 258.786C393.737 257.728 396.808 254.204 397.285 249.938L404.073 189.364L393.224 190.965Z" fill="#FFC0B1"/>
<path d="M392.101 156.382H424.99V161.89H422.657L417.75 211.463H399.311L394.433 161.89H392.101V156.382Z" fill="#E6515C"/>
<path d="M422.657 162.298H397.381C397.156 162.298 396.973 162.115 396.973 161.89C396.973 161.664 397.156 161.481 397.381 161.481H422.657C422.882 161.481 423.065 161.664 423.065 161.89C423.065 162.115 422.882 162.298 422.657 162.298Z" fill="#102A54"/>
<path d="M408.926 156.885C408.648 156.885 408.423 156.66 408.423 156.382V153.834C408.423 152.032 409.177 150.291 410.491 149.058L422.392 137.892C422.595 137.701 422.914 137.711 423.104 137.914C423.294 138.117 423.284 138.436 423.081 138.626L411.18 149.792C410.067 150.835 409.429 152.309 409.429 153.834V156.382C409.429 156.66 409.204 156.885 408.926 156.885Z" fill="#102A54"/>
<path d="M398.248 241.763C398.233 241.763 398.217 241.762 398.202 241.761C397.978 241.736 397.817 241.534 397.842 241.31L399.399 227.416C399.424 227.192 399.624 227.029 399.85 227.056C400.074 227.081 400.235 227.283 400.21 227.507L398.653 241.4C398.63 241.609 398.453 241.763 398.248 241.763Z" fill="#102A54"/>
<path d="M395.827 179.136C395.955 178.751 396.371 178.545 396.754 178.678C398.869 179.413 409.219 182.049 409.322 183.287C409.446 184.778 404.3 195.271 402.393 195.68C400.487 196.089 393.542 194.413 393.224 190.965C392.959 188.093 395.102 181.322 395.827 179.136Z" fill="#FFC0B1"/>
<path d="M398.837 207.059C398.629 207.059 398.452 206.902 398.431 206.691L397.302 195.216L395.259 194.253C395.055 194.157 394.968 193.914 395.064 193.71C395.16 193.506 395.403 193.418 395.608 193.515L398.069 194.675L399.244 206.611C399.266 206.836 399.102 207.035 398.877 207.057C398.864 207.059 398.85 207.059 398.837 207.059Z" fill="#102A54"/>
<path d="M417.542 425.856H400.648V430.3L383.194 436.843C380.857 437.719 379.309 439.953 379.309 442.448H417.716C419.597 442.448 420.989 440.697 420.563 438.865L417.542 425.856Z" fill="#102A54"/>
<path d="M416.446 421.719V425.856H401.815L401.403 421.777L416.446 421.719Z" fill="#FFC0B1"/>
<path d="M507.302 252.289L503.081 223.734L477.678 230.536L482.4 245.041L429.018 253.832L418.665 251.734C416.794 251.355 414.851 251.623 413.153 252.494L405.763 256.286C403.765 257.31 402.683 259.529 403.106 261.732H429.018H432.301H500.207C503.132 261.732 505.736 259.884 506.701 257.125C507.25 255.553 507.415 253.902 507.22 252.295L507.302 252.289Z" fill="#FFC0B1"/>
<path d="M506.766 251.557C506.583 251.557 506.417 251.435 506.37 251.25C505.179 246.591 501.277 244.014 494.771 243.592C489.832 243.27 485.183 244.382 485.137 244.393C484.917 244.446 484.697 244.312 484.644 244.093C484.591 243.874 484.725 243.653 484.944 243.6C484.992 243.588 489.747 242.452 494.808 242.776C501.618 243.214 505.89 246.074 507.162 251.048C507.217 251.266 507.086 251.489 506.867 251.545C506.833 251.553 506.799 251.557 506.766 251.557Z" fill="#102A54"/>
<path d="M568.249 206.651H535.359V212.159H537.692L542.599 261.733H561.039L565.916 212.159H568.249V206.651Z" fill="#E6515C"/>
<path d="M562.968 212.567H537.693C537.467 212.567 537.284 212.384 537.284 212.159C537.284 211.933 537.467 211.751 537.693 211.751H562.968C563.194 211.751 563.377 211.933 563.377 212.159C563.377 212.384 563.194 212.567 562.968 212.567Z" fill="#102A54"/>
<path d="M551.804 207.154C551.526 207.154 551.301 206.929 551.301 206.651V181.834C551.301 181.556 551.526 181.331 551.804 181.331C552.082 181.331 552.307 181.556 552.307 181.834V206.651C552.308 206.929 552.082 207.154 551.804 207.154Z" fill="#102A54"/>
<path d="M528.792 206.651H495.903V212.159H498.236L503.143 261.733H521.582L526.46 212.159H528.792V206.651Z" fill="#E6515C"/>
<path d="M523.512 212.567H498.236C498.011 212.567 497.828 212.384 497.828 212.159C497.828 211.933 498.011 211.751 498.236 211.751H523.512C523.737 211.751 523.92 211.933 523.92 212.159C523.92 212.384 523.737 212.567 523.512 212.567Z" fill="#102A54"/>
<path d="M512.348 207.154C512.07 207.154 511.844 206.929 511.844 206.651V194.781C511.844 192.979 512.598 191.238 513.913 190.005L525.814 178.839C526.017 178.649 526.335 178.659 526.525 178.861C526.716 179.064 526.706 179.383 526.503 179.573L514.601 190.739C513.489 191.783 512.851 193.256 512.851 194.781V206.651C512.851 206.929 512.626 207.154 512.348 207.154Z" fill="#102A54"/>
<path d="M489.336 206.651H456.447V212.159H458.78L463.686 261.733H482.126L487.004 212.159H489.336V206.651Z" fill="#E6515C"/>
<path d="M484.056 212.567H458.78C458.555 212.567 458.372 212.384 458.372 212.159C458.372 211.933 458.555 211.751 458.78 211.751H484.056C484.281 211.751 484.464 211.933 484.464 212.159C484.464 212.384 484.281 212.567 484.056 212.567Z" fill="#102A54"/>
<path d="M472.511 207.154C472.233 207.154 472.008 206.929 472.008 206.651V204.104C472.008 202.579 471.37 201.105 470.257 200.061L458.356 188.895C458.153 188.705 458.143 188.387 458.333 188.184C458.523 187.981 458.842 187.971 459.045 188.161L470.946 199.327C472.26 200.561 473.014 202.302 473.014 204.104V206.651C473.014 206.929 472.789 207.154 472.511 207.154Z" fill="#102A54"/>
<path d="M346.243 227.461H229.071C223.553 227.461 219.08 222.99 219.08 217.473V142.566C219.08 137.05 223.553 132.578 229.071 132.578H346.243C351.761 132.578 356.234 137.05 356.234 142.566V217.473C356.235 222.99 351.761 227.461 346.243 227.461Z" fill="#102A54"/>
<path d="M306.668 261.733H268.647V205.626C268.647 202.666 271.047 200.267 274.007 200.267H301.308C304.268 200.267 306.668 202.666 306.668 205.626L306.668 261.733Z" fill="#0C203F"/>
<path d="M326.448 261.733H248.867C248.017 261.733 247.328 261.044 247.328 260.193V259.404C247.328 258.553 248.017 257.864 248.867 257.864H326.448C327.298 257.864 327.987 258.553 327.987 259.404V260.193C327.987 261.044 327.298 261.733 326.448 261.733Z" fill="#0C203F"/>
<path d="M801.643 443.394H41.1411C40.4461 443.394 39.8826 442.831 39.8826 442.136C39.8826 441.441 40.4461 440.877 41.1411 440.877H801.643C802.338 440.877 802.901 441.441 802.901 442.136C802.901 442.83 802.338 443.394 801.643 443.394Z" fill="#102A54"/>
<path d="M638.466 442.29H610.812L606.468 403.265H642.539L638.466 442.29Z" fill="#102A54"/>
<path d="M624.503 396.835C624.503 396.835 625.984 379.578 657.781 377.244C657.781 377.244 645.777 408.552 624.503 396.835Z" fill="#6CB597"/>
<path d="M624.025 375.209C624.025 375.209 621.79 359.86 649.035 351.333C649.035 351.333 644.966 381.08 624.025 375.209Z" fill="#6CB597"/>
<path d="M623.444 368.98C623.444 368.98 626.199 353.716 599.258 344.27C599.258 344.27 602.316 374.138 623.444 368.98Z" fill="#6CB597"/>
<path d="M622.685 324.28C622.685 324.28 626.287 316.459 613.118 307.64C613.118 307.64 610.612 324.118 622.685 324.28Z" fill="#6CB597"/>
<path d="M623.583 355.06C623.583 355.06 638.325 360.386 652.295 335.156C652.295 335.156 622.017 333.148 623.583 355.06Z" fill="#6CB597"/>
<path d="M623.144 347.295C623.144 347.295 609.412 349.685 601.072 325.438C601.072 325.438 627.895 328.348 623.144 347.295Z" fill="#6CB597"/>
<path d="M623.98 388.362C623.98 388.362 622.49 370.986 590.474 368.637C590.474 368.637 602.561 400.159 623.98 388.362Z" fill="#6CB597"/>
<path d="M622.915 323.856L622.149 323.875L624.104 403.305L624.87 403.286L622.915 323.856Z" fill="#102A54"/>
<path d="M622.707 331.535C622.707 331.535 633.425 334.548 642.02 315.956C642.02 315.956 620.469 316.093 622.707 331.535Z" fill="#6CB597"/>
<path d="M622.187 123.604C639.704 106.092 639.704 77.7004 622.187 60.1889C604.67 42.6773 576.27 42.6773 558.753 60.1889C541.236 77.7004 541.236 106.092 558.753 123.604C576.27 141.115 604.67 141.115 622.187 123.604Z" fill="#CCE6FF"/>
<path d="M592.727 137.364C567.646 137.364 547.242 116.966 547.242 91.8928C547.242 66.82 567.646 46.4221 592.727 46.4221C617.807 46.4221 638.211 66.8202 638.211 91.8928C638.211 116.965 617.807 137.364 592.727 137.364ZM592.727 47.6805C568.34 47.6805 548.501 67.5141 548.501 91.893C548.501 116.272 568.341 136.106 592.727 136.106C617.113 136.106 636.952 116.272 636.952 91.893C636.952 67.5141 617.113 47.6805 592.727 47.6805Z" fill="#102A54"/>
<path d="M575.545 104.87C575.348 104.87 575.155 104.777 575.032 104.605C574.831 104.321 574.897 103.929 575.181 103.728L592.314 91.5681V58.4231C592.314 58.0757 592.595 57.794 592.943 57.794C593.29 57.794 593.572 58.0757 593.572 58.4231V92.2178L575.909 104.753C575.799 104.832 575.672 104.87 575.545 104.87Z" fill="#102A54"/>
<path d="M594.52 93.6003C595.462 92.6592 595.462 91.1335 594.52 90.1925C593.579 89.2514 592.053 89.2514 591.111 90.1925C590.17 91.1335 590.17 92.6592 591.111 93.6003C592.053 94.5413 593.579 94.5413 594.52 93.6003Z" fill="#102A54"/>
</svg>
