<svg width="512" height="281" viewBox="0 0 512 281" fill="none" xmlns="http://www.w3.org/2000/svg">
<path d="M179.046 98.5689L178.842 98.1482L181.365 96.9215L181.568 97.3422L179.046 98.5689ZM174.001 101.021L173.797 100.602L176.319 99.3749L176.523 99.7957L174.001 101.021ZM168.955 103.474L168.751 103.053L171.274 101.826L171.478 102.247L168.955 103.474ZM163.91 105.927L163.706 105.507L166.228 104.28L166.433 104.701L163.91 105.927ZM158.863 108.379L158.661 107.958L161.183 106.733L161.388 107.154L158.863 108.379ZM153.698 110.61L153.529 110.174C154.404 109.834 155.275 109.479 156.116 109.116L156.302 109.544C155.455 109.909 154.578 110.268 153.698 110.61ZM148.389 112.467L148.249 112.02C149.15 111.737 150.044 111.44 150.904 111.141L151.058 111.582C150.194 111.883 149.295 112.181 148.389 112.467ZM142.981 114.004L142.865 113.551C143.779 113.318 144.688 113.071 145.568 112.822L145.695 113.273C144.812 113.523 143.899 113.768 142.981 114.004ZM137.707 115.721L137.499 115.302C138.344 114.883 139.232 114.531 140.139 114.254L140.275 114.7C139.393 114.971 138.529 115.313 137.707 115.721ZM133.282 118.982L132.94 118.662C133.076 118.516 133.215 118.372 133.358 118.23C133.881 117.714 134.456 117.224 135.069 116.775L135.345 117.153C134.751 117.587 134.193 118.062 133.687 118.563C133.549 118.699 133.414 118.84 133.282 118.982ZM130.425 123.655L129.984 123.498C130.303 122.61 130.719 121.748 131.219 120.93L131.617 121.175C131.134 121.965 130.732 122.799 130.425 123.655ZM134.42 124.128C133.534 123.96 132.61 123.863 131.672 123.84L131.683 123.373C132.647 123.395 133.597 123.496 134.508 123.668L134.42 124.128ZM126.191 124.515L126.068 124.065C126.981 123.816 127.917 123.633 128.85 123.515L128.908 123.978C127.996 124.093 127.082 124.274 126.191 124.515ZM139.456 126.222C138.776 125.705 137.972 125.258 137.067 124.893L137.242 124.459C138.186 124.839 139.026 125.308 139.739 125.85L139.456 126.222ZM121.119 126.705L120.873 126.307C121.666 125.817 122.513 125.375 123.39 124.998L123.575 125.428C122.719 125.796 121.893 126.226 121.119 126.705ZM129.301 129.125C129.247 128.682 129.22 128.225 129.22 127.771C129.22 127.277 129.252 126.77 129.316 126.269L129.779 126.327C129.718 126.81 129.688 127.296 129.688 127.771C129.688 128.207 129.714 128.644 129.765 129.069L129.301 129.125ZM116.951 130.312L116.592 130.011C117.199 129.287 117.869 128.607 118.584 127.988L118.89 128.341C118.194 128.943 117.541 129.607 116.951 130.312ZM142.365 130.802L141.897 130.791L141.899 130.667C141.899 129.966 141.756 129.28 141.486 128.682C141.415 128.526 141.338 128.373 141.254 128.225L141.661 127.995C141.751 128.156 141.835 128.321 141.912 128.489C142.209 129.147 142.366 129.901 142.366 130.667L142.365 130.802ZM131.563 134.318C130.933 133.641 130.416 132.825 130.024 131.892L130.455 131.711C130.825 132.594 131.313 133.362 131.905 133.998L131.563 134.318ZM113.894 134.968L113.496 134.722C113.988 133.929 114.473 133.13 114.95 132.328L115.352 132.567C114.873 133.372 114.387 134.172 113.894 134.968ZM139.555 135.644L139.321 135.238C140.091 134.795 140.735 134.144 141.185 133.357L141.591 133.587C141.1 134.447 140.396 135.157 139.555 135.644ZM136.451 136.442C135.588 136.442 134.717 136.276 133.931 135.961L134.105 135.528C134.836 135.819 135.647 135.975 136.451 135.975C136.52 135.967 136.579 135.969 136.637 135.969C136.675 135.969 136.713 135.969 136.753 135.967L136.776 136.435C136.667 136.44 136.538 136.433 136.451 136.442ZM110.838 139.683L110.45 139.421C110.974 138.649 111.489 137.871 111.997 137.087L112.39 137.342C111.88 138.127 111.363 138.909 110.838 139.683ZM107.584 144.266L107.209 143.986C107.758 143.249 108.312 142.488 108.855 141.723L109.236 141.992C108.691 142.761 108.135 143.526 107.584 144.266ZM104.124 148.694L103.763 148.399C104.347 147.688 104.935 146.951 105.512 146.213L105.881 146.501C105.301 147.243 104.71 147.982 104.124 148.694ZM100.449 152.949L100.103 152.634C100.723 151.954 101.348 151.249 101.96 150.54L102.314 150.845C101.699 151.557 101.072 152.264 100.449 152.949ZM96.5539 157.003L96.2255 156.67C96.8847 156.021 97.5465 155.351 98.192 154.678L98.5288 155.002C97.8805 155.677 97.2159 156.35 96.5539 157.003ZM92.501 160.887L92.1785 160.548L94.2076 158.613L94.5305 158.949L92.501 160.887Z" fill="#779FF8"/>
<path d="M198 17.7309C198 17.8224 198 17.9085 198.011 18H260C259.838 13.2329 255.39 9.4104 249.935 9.4104C248.186 9.4104 246.545 9.8009 245.112 10.4887C245.188 6.77879 243.276 3.22546 239.756 1.31861C234.473 -1.53815 227.56 0.400345 224.327 5.65122C223.354 7.23439 222.818 8.9372 222.698 10.6277C220.12 9.52825 216.926 8.87213 213.463 8.87213C204.922 8.87213 198 12.8406 198 17.7309Z" fill="#EBEBFF"/>
<path d="M0 45.7309C0 45.8224 1.10472e-05 45.9085 0.0113239 46H62C61.8378 41.2329 57.39 37.4104 51.9353 37.4104C50.1856 37.4104 48.5453 37.8009 47.1123 38.4887C47.1877 34.7788 45.2759 31.2255 41.7557 29.3186C36.4726 26.4619 29.5604 28.4003 26.3269 33.6512C25.3539 35.2344 24.8185 36.9372 24.6978 38.6277C22.1204 37.5282 18.9264 36.8721 15.4628 36.8721C6.92158 36.8721 0 40.8406 0 45.7309Z" fill="#EBEBFF"/>
<path d="M450 31.7309C450 31.8224 450 31.9085 450.011 32H512C511.838 27.2329 507.39 23.4104 501.935 23.4104C500.186 23.4104 498.545 23.8009 497.112 24.4887C497.188 20.7788 495.276 17.2255 491.756 15.3186C486.473 12.4619 479.56 14.4003 476.327 19.6512C475.354 21.2344 474.818 22.9372 474.698 24.6277C472.12 23.5282 468.926 22.8721 465.463 22.8721C456.922 22.8721 450 26.8406 450 31.7309Z" fill="#EBEBFF"/>
<path d="M17.8124 154.947H67.8224C67.8224 154.929 67.8224 154.908 67.8224 154.889C67.8224 150.732 62.266 147.35 55.4362 147.35C52.7374 147.35 50.1679 147.873 48.0058 148.864L47.7748 148.969L47.7576 148.717C47.6582 147.222 47.2208 145.79 46.4576 144.457C45.1563 142.192 43.0942 140.584 40.6518 139.929C38.4162 139.329 36.1116 139.621 34.164 140.749C31.4716 142.312 29.8372 145.311 29.8989 148.58L29.9044 148.872L29.6437 148.739C28.4718 148.137 27.1446 147.817 25.8059 147.817C21.5127 147.817 18.0377 150.934 17.8124 154.947ZM68.1442 155.299H17.4485L17.4541 155.118C17.5893 150.828 21.2579 147.467 25.8059 147.467C27.1035 147.467 28.3906 147.754 29.5472 148.3C29.581 145.016 31.2644 142.026 33.9883 140.446C36.017 139.269 38.4168 138.966 40.7429 139.591C43.276 140.27 45.4134 141.936 46.7615 144.283C47.5091 145.588 47.9545 146.985 48.0879 148.442C50.247 147.497 52.7816 147 55.4362 147C62.4594 147 68.173 150.54 68.173 154.889C68.173 154.975 68.1724 155.058 68.1625 155.144L68.1442 155.299Z" fill="#779FF8"/>
<mask id="mask0_708_2347" style="mask-type:luminance" maskUnits="userSpaceOnUse" x="318" y="62" width="143" height="85">
<path d="M318.234 135.583C318.234 141.558 323.079 146.403 329.052 146.403H449.212C455.187 146.403 460.03 141.558 460.03 135.583V62.4753H318.234V135.583Z" fill="white"/>
</mask>
<g mask="url(#mask0_708_2347)">
<path d="M310.812 81.1173C312.47 75.8028 317.714 71.7243 323.444 71.2924C329.174 70.8604 335.019 74.103 337.527 79.1034C340.577 79.0753 343.58 80.7658 345.061 83.3427C346.542 85.9195 346.438 89.2761 344.799 91.7558C348.429 92.386 351.689 94.774 353.295 97.9847C354.901 101.194 354.815 105.141 353.067 108.277C357.063 106.246 362.174 106.43 366.007 108.745C369.841 111.06 372.257 115.419 372.122 119.781C374.611 115.877 379.383 113.444 384.127 113.661C388.872 113.876 393.393 116.733 395.505 120.847C397.732 114.183 403.669 108.803 410.696 107.084C417.724 105.366 425.606 107.363 430.864 112.195C438.774 113.433 444.538 122.02 442.477 129.494C446.75 133.03 448.934 138.779 448.04 144.138C447.146 149.498 443.208 154.285 438.006 156.332L301.928 156.245L290.328 104.328L310.812 81.1173Z" fill="#B8C4FF"/>
</g>
<mask id="mask1_708_2347" style="mask-type:luminance" maskUnits="userSpaceOnUse" x="318" y="62" width="143" height="85">
<path d="M318.234 135.583C318.234 141.558 323.079 146.403 329.052 146.403H449.212C455.187 146.403 460.03 141.558 460.03 135.583V62.4753H318.234V135.583Z" fill="white"/>
</mask>
<g mask="url(#mask1_708_2347)">
<path d="M435.883 146.403H381.973C384.776 143.682 387.534 140.731 390.231 137.604C390.305 137.741 390.378 137.881 390.447 138.021C390.573 137.632 390.711 137.247 390.861 136.868C393.432 133.851 395.947 130.672 398.402 127.368C400.439 125.936 402.722 124.86 405.136 124.247C406.758 123.834 408.427 123.634 410.096 123.634C415.419 123.634 420.755 125.666 424.618 129.341C432.18 130.56 437.708 138.981 435.883 146.403ZM318.234 114.523V89.0105C319.091 88.7599 319.973 88.5954 320.867 88.5243C321.199 88.4981 321.534 88.4851 321.869 88.4851C327.071 88.4851 332.195 91.6267 334.467 96.3241C334.493 96.3241 334.519 96.3241 334.546 96.3241C337.465 96.3241 340.328 98.0052 341.743 100.558C343.172 103.135 343.067 106.489 341.483 108.971C341.958 109.057 342.428 109.173 342.886 109.321C334.841 111.75 326.718 113.38 318.234 114.523Z" fill="#F6F6FF"/>
</g>
<mask id="mask2_708_2347" style="mask-type:luminance" maskUnits="userSpaceOnUse" x="318" y="62" width="143" height="85">
<path d="M318.234 135.583C318.234 141.558 323.079 146.403 329.052 146.403H449.212C455.187 146.403 460.03 141.558 460.03 135.583V62.4753H318.234V135.583Z" fill="white"/>
</mask>
<g mask="url(#mask2_708_2347)">
<path d="M395.505 120.848C393.394 116.734 388.872 113.876 384.128 113.661C383.931 113.652 383.737 113.648 383.541 113.648C378.995 113.648 374.509 116.038 372.122 119.782C372.257 115.419 369.841 111.06 366.008 108.745C363.947 107.501 361.518 106.873 359.09 106.873C357.002 106.873 354.915 107.339 353.067 108.277C353.581 107.357 353.95 106.366 354.176 105.345C372.438 97.9607 390.989 85.6804 413.176 64.8149L416.498 67.7845C410.179 74.494 401.412 81.1943 391.273 89.9066L406.815 83.5729C404.909 86.7295 402.134 91.1501 400.578 93.0444C404.159 91.3914 409.923 87.7542 411.832 85.8244C411.832 88.5172 408.589 93.0183 407.176 95.4773C414.493 89.2147 421.227 81.7309 424.381 74.8288L427.637 77.7385C423.078 87.2848 417.85 97.2033 412.09 106.795C411.622 106.875 411.157 106.972 410.697 107.084C403.669 108.803 397.732 114.183 395.505 120.848Z" fill="#FFF6E9"/>
</g>
<mask id="mask3_708_2347" style="mask-type:luminance" maskUnits="userSpaceOnUse" x="318" y="62" width="143" height="85">
<path d="M318.234 135.583C318.234 141.558 323.079 146.403 329.052 146.403H449.212C455.187 146.403 460.03 141.558 460.03 135.583V62.4753H318.234V135.583Z" fill="white"/>
</mask>
<g mask="url(#mask3_708_2347)">
<path d="M390.229 137.605C388.112 133.717 383.886 131.048 379.459 130.845C379.274 130.835 379.089 130.831 378.904 130.831C374.508 130.831 370.165 133.227 367.856 136.974C367.989 132.612 365.659 128.255 361.956 125.943C359.97 124.702 357.627 124.075 355.286 124.075C353.264 124.075 351.245 124.543 349.455 125.485C351.146 122.349 351.234 118.4 349.685 115.193C348.344 112.419 345.812 110.26 342.884 109.321C346.656 108.182 350.409 106.867 354.175 105.345C353.949 106.366 353.58 107.357 353.066 108.277C354.914 107.339 357.001 106.873 359.089 106.873C361.517 106.873 363.946 107.501 366.007 108.745C369.84 111.06 372.256 115.419 372.121 119.782C374.508 116.038 378.994 113.648 383.54 113.648C383.736 113.648 383.931 113.652 384.127 113.661C388.871 113.876 393.393 116.734 395.504 120.848C397.731 114.183 403.668 108.803 410.696 107.084C411.156 106.972 411.622 106.875 412.089 106.794C407.799 113.932 403.218 120.891 398.401 127.368C395.048 129.728 392.362 133.055 390.859 136.868C390.649 137.115 390.44 137.36 390.229 137.605Z" fill="#F1E8E9"/>
</g>
<mask id="mask4_708_2347" style="mask-type:luminance" maskUnits="userSpaceOnUse" x="318" y="62" width="143" height="85">
<path d="M318.234 135.583C318.234 141.558 323.079 146.403 329.052 146.403H449.212C455.187 146.403 460.03 141.558 460.03 135.583V62.4753H318.234V135.583Z" fill="white"/>
</mask>
<g mask="url(#mask4_708_2347)">
<path d="M381.973 146.403H329.052C323.079 146.403 318.234 141.558 318.234 135.583V114.523C326.718 113.38 334.841 111.75 342.886 109.321C345.814 110.259 348.346 112.419 349.687 115.192C351.235 118.399 351.147 122.349 349.457 125.485C351.247 124.542 353.266 124.075 355.288 124.075C357.629 124.075 359.972 124.701 361.958 125.943C365.661 128.254 367.991 132.611 367.858 136.974C370.167 133.227 374.509 130.831 378.906 130.831C379.091 130.831 379.276 130.835 379.461 130.844C383.887 131.048 388.114 133.717 390.231 137.604C387.534 140.731 384.776 143.682 381.973 146.403ZM390.861 136.868C392.364 133.055 395.049 129.728 398.402 127.368C395.947 130.672 393.432 133.851 390.861 136.868Z" fill="#FCF3E9"/>
</g>
<mask id="mask5_708_2347" style="mask-type:luminance" maskUnits="userSpaceOnUse" x="318" y="62" width="143" height="85">
<path d="M318.234 135.583C318.234 141.558 323.079 146.403 329.052 146.403H449.212C455.187 146.403 460.03 141.558 460.03 135.583V62.4753H318.234V135.583Z" fill="white"/>
</mask>
<g mask="url(#mask5_708_2347)">
<path d="M418.723 65.2973C412.321 72.8727 402.664 80.1189 391.274 89.9065L406.815 83.5728C404.91 86.7294 402.135 91.1501 400.579 93.0444C404.16 91.3913 409.923 87.7541 411.832 85.8243C411.832 88.5171 408.59 93.0182 407.176 95.4772C415.466 88.3825 423.008 79.7206 425.442 72.1135L418.723 65.2973Z" fill="#FFA121"/>
</g>
<mask id="mask6_708_2347" style="mask-type:luminance" maskUnits="userSpaceOnUse" x="318" y="62" width="143" height="85">
<path d="M318.234 135.583C318.234 141.558 323.079 146.403 329.052 146.403H449.212C455.187 146.403 460.03 141.558 460.03 135.583V62.4753H318.234V135.583Z" fill="white"/>
</mask>
<g mask="url(#mask6_708_2347)">
<path d="M413.536 85.5399C414.382 83.9167 416.306 80.9378 416.334 79.1781C415.208 80.4591 411.831 82.8975 409.738 84.0158C410.66 82.761 412.313 79.842 413.45 77.7569L404.381 82.0598C410.716 75.8944 416.132 71.2306 419.904 66.4958L424.13 70.7818C422.449 75.6102 418.181 81.0369 413.536 85.5399Z" fill="#FFC77A"/>
</g>
<mask id="mask7_708_2347" style="mask-type:luminance" maskUnits="userSpaceOnUse" x="318" y="62" width="143" height="85">
<path d="M318.234 135.583C318.234 141.558 323.079 146.403 329.052 146.403H449.212C455.187 146.403 460.03 141.558 460.03 135.583V62.4753H318.234V135.583Z" fill="white"/>
</mask>
<g mask="url(#mask7_708_2347)">
<path d="M361.728 91.4099C361.779 92.5824 361.728 94.559 360.558 95.2359C358.605 96.3654 357.07 93.6203 356.352 92.2421C355.497 90.5927 355.716 88.5488 357.65 87.8158C360.204 86.8453 361.635 89.2258 361.728 91.4099Z" fill="#B8C4FF"/>
</g>
<mask id="mask8_708_2347" style="mask-type:luminance" maskUnits="userSpaceOnUse" x="318" y="62" width="143" height="85">
<path d="M318.234 135.583C318.234 141.558 323.079 146.403 329.052 146.403H449.212C455.187 146.403 460.03 141.558 460.03 135.583V62.4753H318.234V135.583Z" fill="white"/>
</mask>
<g mask="url(#mask8_708_2347)">
<path d="M454.317 126.96C454.367 128.131 454.317 130.108 453.146 130.786C451.194 131.916 449.659 129.171 448.941 127.791C448.086 126.143 448.305 124.099 450.238 123.364C452.793 122.396 454.223 124.776 454.317 126.96Z" fill="#B8C4FF"/>
</g>
<mask id="mask9_708_2347" style="mask-type:luminance" maskUnits="userSpaceOnUse" x="318" y="62" width="143" height="85">
<path d="M318.234 135.583C318.234 141.558 323.079 146.403 329.052 146.403H449.212C455.187 146.403 460.03 141.558 460.03 135.583V62.4753H318.234V135.583Z" fill="white"/>
</mask>
<g mask="url(#mask9_708_2347)">
<path d="M352.989 78.1646C352.989 79.0697 352.256 79.8008 351.352 79.8008C350.449 79.8008 349.716 79.0697 349.716 78.1646C349.716 77.2614 350.449 76.5283 351.352 76.5283C352.256 76.5283 352.989 77.2614 352.989 78.1646Z" fill="#B8C4FF"/>
</g>
<mask id="mask10_708_2347" style="mask-type:luminance" maskUnits="userSpaceOnUse" x="318" y="62" width="143" height="85">
<path d="M318.234 135.583C318.234 141.558 323.079 146.403 329.052 146.403H449.212C455.187 146.403 460.03 141.558 460.03 135.583V62.4753H318.234V135.583Z" fill="white"/>
</mask>
<g mask="url(#mask10_708_2347)">
<path d="M437.058 107.696C437.058 109.072 435.944 110.187 434.567 110.187C433.191 110.187 432.076 109.072 432.076 107.696C432.076 106.319 433.191 105.205 434.567 105.205C435.944 105.205 437.058 106.319 437.058 107.696Z" fill="#B8C4FF"/>
</g>
<path d="M318.468 62.7092V135.585C318.468 141.421 323.215 146.169 329.051 146.169H449.212C455.048 146.169 459.796 141.421 459.796 135.585V62.7092H318.468ZM449.212 146.637H329.051C322.958 146.637 318 141.677 318 135.585V62.2417H460.263V135.585C460.263 141.677 455.306 146.637 449.212 146.637Z" fill="#779FF8"/>
<path d="M318.468 62.2415H459.796V44.9683C459.796 39.132 455.048 34.3841 449.212 34.3841H329.051C323.215 34.3841 318.468 39.132 318.468 44.9683V62.2415ZM460.263 62.709H318V44.9683C318 38.874 322.958 33.9166 329.051 33.9166H449.212C455.306 33.9166 460.263 38.874 460.263 44.9683V62.709Z" fill="#779FF8"/>
<path d="M338.449 48.312C338.449 51.5883 335.794 54.2437 332.518 54.2437C329.241 54.2437 326.586 51.5883 326.586 48.312C326.586 45.0377 329.241 42.3822 332.518 42.3822C335.794 42.3822 338.449 45.0377 338.449 48.312Z" fill="#B8C4FF"/>
<path d="M349.988 42.6159C346.846 42.6159 344.29 45.1722 344.29 48.3119C344.29 51.4535 346.846 54.0098 349.988 54.0098C353.129 54.0098 355.684 51.4535 355.684 48.3119C355.684 45.1722 353.129 42.6159 349.988 42.6159ZM349.988 54.4773C346.588 54.4773 343.822 51.7116 343.822 48.3119C343.822 44.9141 346.588 42.1484 349.988 42.1484C353.387 42.1484 356.151 44.9141 356.151 48.3119C356.151 51.7116 353.387 54.4773 349.988 54.4773Z" fill="#779FF8"/>
<path d="M371.521 42.8852C368.529 42.8852 366.094 45.3199 366.094 48.3119C366.094 51.3058 368.529 53.7405 371.521 53.7405H395.137C398.129 53.7405 400.564 51.3058 400.564 48.3119C400.564 45.3199 398.129 42.8852 395.137 42.8852H371.521ZM395.137 54.208H371.521C368.271 54.208 365.627 51.5638 365.627 48.3119C365.627 45.0618 368.271 42.4177 371.521 42.4177H395.137C398.387 42.4177 401.032 45.0618 401.032 48.3119C401.032 51.5638 398.387 54.208 395.137 54.208Z" fill="#779FF8"/>
<path d="M443.331 21.2473C433.861 29.537 417.528 23.8242 412.453 30.4421L426.955 41.9258L443.331 21.2473Z" fill="#3335CF"/>
<path d="M412.452 30.4422C411.726 32.3739 412.121 34.5469 413.477 36.1008L423.752 47.8706L426.954 41.9259L412.452 30.4422Z" fill="#B8C4FF"/>
<path d="M464.794 38.2439C458.896 49.361 468.199 63.9489 462.92 70.406L448.418 58.9223L464.794 38.2439Z" fill="#3335CF"/>
<path d="M462.92 70.4061C461.207 71.5542 459 71.6702 457.177 70.7053L443.365 63.401L448.418 58.9224L462.92 70.4061Z" fill="#B8C4FF"/>
<path d="M472.158 6.99997L459.248 11.7385L470.505 20.6528L472.158 6.99997Z" fill="#1B1B43"/>
<path d="M470.506 20.6529C468.701 41.0845 453.606 60.1473 435.271 70.7371L418.564 57.5199C425.575 35.4614 438.631 19.6786 459.248 11.7386L470.506 20.6529Z" fill="#C5C5FF"/>
<path d="M418.565 57.5198L411.316 62.537L432.045 78.9519L435.271 70.737L418.565 57.5198Z" fill="#3335CF"/>
<path d="M452.743 24.6452L452.592 24.2039C453.052 24.0431 453.532 23.9459 454.02 23.9122L454.054 24.3778C453.607 24.4096 453.166 24.4994 452.743 24.6452ZM456.653 24.894C456.253 24.6939 455.827 24.5499 455.389 24.462L455.479 24.0038C455.958 24.0992 456.423 24.2563 456.861 24.4751L456.653 24.894ZM450.555 26.1375L450.2 25.8346C450.518 25.4624 450.884 25.1333 451.286 24.8584L451.55 25.2455C451.182 25.4961 450.847 25.7972 450.555 26.1375ZM458.635 26.6518C458.39 26.2796 458.097 25.9393 457.76 25.642L458.071 25.2923C458.437 25.6177 458.759 25.9879 459.026 26.3956L458.635 26.6518ZM449.42 28.533L448.96 28.4507C449.046 27.9682 449.196 27.5007 449.405 27.0594L449.828 27.2595C449.637 27.6634 449.499 28.0917 449.42 28.533ZM459.455 29.1725C459.432 28.7237 459.35 28.2824 459.213 27.8579L459.656 27.712C459.808 28.1758 459.896 28.6583 459.922 29.1482L459.455 29.1725ZM449.214 31.3342C449.046 30.8761 448.939 30.3974 448.896 29.9093L449.362 29.8682C449.401 30.3151 449.499 30.7527 449.652 31.1715L449.214 31.3342ZM459.305 31.9775L458.892 31.7606C459.097 31.3642 459.251 30.9415 459.346 30.504L459.802 30.6049C459.698 31.0818 459.531 31.5437 459.305 31.9775ZM450.89 33.6923C450.51 33.3819 450.176 33.0228 449.895 32.6264L450.275 32.3553C450.533 32.718 450.839 33.0472 451.187 33.3314L450.89 33.6923ZM457.685 33.8718L457.409 33.496C457.766 33.2304 458.089 32.9181 458.368 32.5666L458.735 32.8564C458.43 33.2416 458.078 33.582 457.685 33.8718ZM453.528 34.8835C453.044 34.8068 452.573 34.6666 452.13 34.4646L452.322 34.0383C452.728 34.2234 453.158 34.3524 453.601 34.4216L453.528 34.8835ZM454.987 34.9209L454.938 34.4553C455.384 34.4085 455.819 34.3019 456.238 34.1411L456.406 34.5768C455.952 34.7526 455.473 34.8685 454.987 34.9209Z" fill="#779FF8"/>
<path d="M416.193 78.0582L415.823 77.7646C415.281 77.3364 415.189 76.5417 415.617 75.9994L430.16 57.6341C430.588 57.0918 431.385 57.0002 431.927 57.4303L432.296 57.722C432.838 58.1521 432.932 58.9468 432.502 59.4891L417.96 77.8525C417.53 78.3948 416.736 78.4883 416.193 78.0582Z" fill="#1B1B43"/>
<path d="M235.01 142.468H232.205V142H235.01V142.468ZM240.62 142.468H237.815V142H240.62V142.468ZM246.23 142.468H243.425V142H246.23V142.468ZM251.84 142.468H249.035V142H251.84V142.468ZM257.45 142.468H254.645V142H257.45V142.468ZM263.06 142.468H260.255V142H263.06V142.468ZM268.67 142.468H265.865V142H268.67V142.468ZM274.28 142.468H271.475V142H274.28V142.468ZM279.89 142.468H277.085V142H279.89V142.468ZM285.5 142.468H282.695V142H285.5V142.468ZM290.852 143.395C290.038 142.98 289.169 142.699 288.265 142.563L288.335 142.101C289.288 142.245 290.206 142.54 291.065 142.978L290.852 143.395ZM226.888 143.507L226.664 143.098C227.511 142.634 228.42 142.312 229.368 142.142L229.452 142.602C228.552 142.763 227.69 143.068 226.888 143.507ZM294.616 147.219C294.214 146.402 293.685 145.656 293.041 145.003L293.376 144.676C294.053 145.364 294.612 146.15 295.037 147.013L294.616 147.219ZM223.234 147.436L222.808 147.242C223.208 146.366 223.745 145.564 224.403 144.857L224.745 145.177C224.121 145.847 223.612 146.606 223.234 147.436ZM295.953 152.588H295.485V150.967C295.485 150.583 295.459 150.196 295.409 149.817L295.871 149.755C295.925 150.153 295.953 150.561 295.953 150.967V152.588ZM222.468 152.835H222V150.967C222 150.649 222.017 150.325 222.05 150.007L222.516 150.058C222.484 150.359 222.468 150.666 222.468 150.967V152.835ZM295.953 158.198H295.485V155.393H295.953V158.198ZM222.468 158.445H222V155.64H222.468V158.445ZM295.953 163.808H295.485V161.003H295.953V163.808ZM222.468 164.055H222V161.25H222.468V164.055ZM295.953 169.418H295.485V166.613H295.953V169.418ZM222.468 169.665H222V166.86H222.468V169.665ZM295.953 175.028H295.485V172.223H295.953V175.028ZM222.468 175.275H222V172.47H222.468V175.275ZM295.953 180.638H295.485V177.833H295.953V180.638ZM222.468 180.885H222V178.08H222.468V180.885ZM295.678 186.282L295.225 186.168C295.398 185.487 295.485 184.782 295.485 184.073V183.443H295.953V184.073C295.953 184.821 295.861 185.564 295.678 186.282ZM222.34 186.528C222.114 185.734 222 184.907 222 184.073V183.69H222.468V184.073C222.468 184.864 222.576 185.648 222.789 186.399L222.34 186.528ZM292.622 191.046L292.329 190.684C293.039 190.108 293.651 189.427 294.143 188.658L294.537 188.913C294.017 189.722 293.372 190.44 292.622 191.046ZM225.531 191.203C224.764 190.618 224.1 189.919 223.558 189.124L223.943 188.86C224.457 189.614 225.087 190.278 225.813 190.833L225.531 191.203ZM287.323 193.034L287.306 192.567C288.222 192.533 289.12 192.354 289.971 192.034L290.135 192.471C289.236 192.808 288.291 192.997 287.323 193.034ZM230.884 193.04C229.916 193.03 228.966 192.868 228.059 192.557L228.21 192.116C229.069 192.41 229.97 192.563 230.888 192.572L230.884 193.04ZM236.496 193.04H233.691V192.572H236.496V193.04ZM242.106 193.04H239.301V192.572H242.106V193.04ZM247.716 193.04H244.911V192.572H247.716V193.04ZM253.326 193.04H250.521V192.572H253.326V193.04ZM258.936 193.04H256.131V192.572H258.936V193.04ZM264.546 193.04H261.741V192.572H264.546V193.04ZM270.156 193.04H267.351V192.572H270.156V193.04ZM275.766 193.04H272.961V192.572H275.766V193.04ZM281.376 193.04H278.571V192.572H281.376V193.04ZM286.986 193.04H284.181V192.572H286.986V193.04Z" fill="#779FF8"/>
<path d="M282.583 183.965H222.902C219.091 183.965 216 180.874 216 177.061V138.902C216 135.089 219.091 132 222.902 132H282.583C286.396 132 289.485 135.089 289.485 138.902V177.061C289.485 180.874 286.396 183.965 282.583 183.965Z" fill="#779FF8"/>
<path d="M104.697 142.011C103.344 137.321 100.48 133.208 96.5504 130.314L94.9722 129.151L96.3116 156.87L106.671 148.857L104.697 142.011Z" fill="#FFA121"/>
<path d="M137.988 175.517L135.687 171.011C135.104 169.868 134.069 169.025 132.833 168.683L126.061 166.807L108.64 155.684L106.671 148.857L96.3108 156.87L96.405 158.816C96.5935 162.723 98.9892 166.181 102.579 167.729L119.495 175.026L127.535 175.205C130.126 176.097 131.02 178.332 132.628 177.528C133.227 177.228 130.886 173.373 130.886 173.373L134.772 177.66L137.988 175.517Z" fill="#FFBC96"/>
<path d="M106.566 158.538L106.157 158.19L108.435 155.51L108.844 155.858L106.566 158.538Z" fill="#D28572"/>
<path d="M107.689 186.745L120.364 185.627C128.614 184.897 135.791 191.56 136.193 200.321L139.057 262.743L121.573 263.288L107.689 186.745Z" fill="#26289C"/>
<path d="M122.979 262.667L123.515 279.91H149.423L136.647 269.279L135.843 260.971L122.979 262.667Z" fill="#1B1B43"/>
<path d="M117.084 262.667L117.62 279.91H143.528L130.753 269.279L129.949 260.971L117.084 262.667Z" fill="#D1D1FF"/>
<path d="M136.38 264.365H114.938L99.6559 217.344L97.5171 210.761L66.9632 210.627C65.0762 210.6 63.2698 209.727 61.7367 208.435C58.4884 205.695 56.9929 201.392 57.5825 197.183L60.2628 178.064L105.654 183.964C114.263 185.086 121.215 191.528 122.984 200.026L136.38 264.365Z" fill="#3335CF"/>
<path d="M103.816 210.761L99.6563 217.344L97.5176 210.761H103.816Z" fill="#1B1B43"/>
<path d="M98.2049 174.601C97.9852 175.485 97.7548 176.37 97.5188 177.26L95.9108 183.826L74.7373 182.947L59.4925 182.315C55.4507 182.148 52.524 178.395 53.3494 174.434L60.4574 140.23C61.3685 134.415 66.091 129.938 71.9499 129.332L89.3443 127.542L94.9726 129.151C100.467 132.098 100.472 137.442 100.735 140.943C101.887 156.262 100.467 165.541 98.2049 174.601Z" fill="#FFA121"/>
<mask id="mask11_708_2347" style="mask-type:luminance" maskUnits="userSpaceOnUse" x="61" y="150" width="36" height="34">
<path d="M95.9109 183.826L74.7374 182.947C67.3401 177.367 64.5689 165.225 61.8726 150.013L69.2864 157.938L65.8768 159.512L70.9638 171.561C71.4032 172.606 71.9339 173.608 72.5557 174.542C73.3865 175.785 74.3782 176.916 75.5307 177.881C77.3586 179.409 79.5134 180.546 81.8023 181.13C82.9462 181.425 84.1265 181.58 85.3173 181.58C85.3373 181.58 85.3575 181.58 85.3777 181.58L96.4782 181.509L95.9109 183.826Z" fill="white"/>
</mask>
<g mask="url(#mask11_708_2347)">
<path d="M61.8721 183.826H96.4777V150.013H61.8721V183.826Z" fill="#BA792B"/>
</g>
<path d="M79.6406 137.437C80.5681 138.43 81.6241 139.297 82.8047 139.944C83.9803 140.591 85.26 141.065 86.5854 141.222C87.8969 141.392 89.2812 141.281 90.4326 140.655C91.6096 140.07 92.3585 138.834 92.4993 137.497L92.7084 137.51C92.7011 138.211 92.5242 138.92 92.1756 139.55C91.8237 140.18 91.2866 140.704 90.6628 141.065C89.403 141.792 87.9075 141.925 86.5177 141.747C85.119 141.555 83.772 141.065 82.578 140.337C81.3756 139.619 80.325 138.667 79.48 137.571L79.6406 137.437Z" fill="#1B1B43"/>
<path d="M101.201 158.334L100.801 158.306C101.186 152.913 100.796 146.284 99.6411 138.606L100.039 138.546C101.198 146.254 101.589 152.911 101.201 158.334Z" fill="#1B1B43"/>
<path d="M137.184 181.279H117.261V177.348H137.184V181.279Z" fill="#1B1B43"/>
<path d="M171.668 181.279H131.645L150.048 146.08H190.073L171.668 181.279Z" fill="#779FF8"/>
<path d="M84.0511 99.4007C79.3609 94.7762 70.5162 96.7191 70.6503 104.493C61.0016 107.038 60.4655 117.626 64.3519 123.052L67.702 123.32L68.439 119.367L70.3823 123.387L79.7628 123.991L84.0511 99.4007Z" fill="#1B1B43"/>
<path d="M91.8894 116.687V131.455C91.8894 131.589 91.8839 131.718 91.8733 131.845C91.6427 134.886 88.6999 137.035 85.6929 136.259C81.2597 135.11 78.1776 131.101 78.2152 126.523L78.2902 116.687H91.8894Z" fill="#FFBC96"/>
<path d="M91.8886 123.071V131.455C91.8886 131.589 91.8832 131.718 91.8725 131.845C87.922 131.198 83.3549 126.624 82.24 121.646L91.8886 123.071Z" fill="#1B1B43"/>
<path d="M99.8802 117.781C99.6767 118.955 99.4032 120.156 99.0387 121.297C97.8595 125.044 95.7421 128.152 91.9523 127.612C83.0435 126.336 78.085 117.158 78.085 117.158L84.1799 110.191L88.2697 104.691L100.529 109.987C100.529 109.987 100.593 113.734 99.8802 117.781Z" fill="#FFBC96"/>
<path d="M80.7216 114.811C84.6316 114.686 87.6555 112.695 88.9408 107.038C88.9408 107.038 98.0533 114.901 102.52 110.701C106.261 107.186 99.9153 99.096 89.4113 98.131C85.5849 97.7813 81.7707 98.9744 78.7721 101.377C73.6812 105.458 73.1948 114.944 77.9521 118.228L80.7216 114.811Z" fill="#1B1B43"/>
<path d="M76.1448 104.895C75.8893 103.971 76.0797 102.946 76.492 102.065C76.9105 101.179 77.5562 100.407 78.327 99.8084C79.0979 99.2081 80.0024 98.778 80.9531 98.5798C81.9002 98.3853 82.9074 98.4152 83.7831 98.7967C82.879 99.0884 82.0957 99.397 81.3596 99.7766C80.6257 100.152 79.9472 100.588 79.312 101.078C78.6782 101.57 78.0896 102.116 77.5596 102.735C77.0265 103.358 76.5588 104.04 76.1448 104.895Z" fill="#FFA121"/>
<path d="M82.3787 114.305C83.1347 116.193 82.4804 118.232 80.9171 118.856C79.354 119.483 77.4739 118.458 76.7178 116.569C75.962 114.681 76.6163 112.642 78.1794 112.018C79.7426 111.391 81.6227 112.416 82.3787 114.305Z" fill="#FFBC96"/>
<path d="M79.5494 117.461C79.6163 116.809 79.6208 116.19 79.4307 115.621C79.2461 115.051 78.8841 114.555 78.467 114.043L78.5987 113.88C79.2048 114.196 79.7192 114.761 79.9385 115.459C80.159 116.156 80.0633 116.915 79.75 117.521L79.5494 117.461Z" fill="#1B1B43"/>
<path d="M94.1906 115.485C94.1906 116.038 93.7854 116.487 93.2852 116.487C92.7853 116.487 92.3799 116.038 92.3799 115.485C92.3799 114.931 92.7853 114.483 93.2852 114.483C93.7854 114.483 94.1906 114.931 94.1906 115.485Z" fill="#1B1B43"/>
<path d="M98.9446 116.274C98.8843 116.762 98.4774 117.115 98.0356 117.059C97.5937 117.005 97.2842 116.566 97.3444 116.076C97.4046 115.588 97.8115 115.236 98.2534 115.29C98.6953 115.345 99.0046 115.784 98.9446 116.274Z" fill="#1B1B43"/>
<path d="M94.1447 112.97C94.1808 113.437 93.4321 113.482 92.3286 113.516C91.2251 113.547 90.4627 113.89 90.4539 113.592C90.4451 113.297 91.2614 112.536 92.3499 112.353C93.4727 112.162 94.1016 112.412 94.1447 112.97Z" fill="#1B1B43"/>
<path d="M97.6705 113.42C97.5894 113.882 98.1401 114 98.9558 114.144C99.7713 114.286 100.298 114.701 100.339 114.407C100.38 114.114 99.8618 113.278 99.0747 112.986C98.2631 112.685 97.7672 112.87 97.6705 113.42Z" fill="#1B1B43"/>
<path d="M96.3572 117.106C96.5662 117.362 96.7992 117.583 97.0373 117.811L97.3988 118.147C97.5239 118.26 97.6591 118.385 97.7797 118.574C97.8388 118.669 97.8868 118.792 97.8947 118.931C97.9053 119.071 97.8616 119.206 97.8053 119.31C97.6811 119.518 97.5336 119.64 97.3731 119.748C97.0526 119.958 96.7061 120.045 96.3708 120.111L96.2925 119.916C96.5806 119.729 96.8679 119.563 97.0915 119.37C97.1983 119.275 97.3034 119.159 97.3412 119.069C97.3827 118.981 97.3705 118.951 97.321 118.847C97.202 118.65 96.8982 118.39 96.6998 118.119C96.4828 117.85 96.2874 117.543 96.1733 117.207L96.3572 117.106Z" fill="#1B1B43"/>
<path d="M91.8203 120.405C92.368 121.031 92.9384 121.609 93.6243 121.976C94.3059 122.353 95.0822 122.46 95.9031 122.37L95.9588 122.572C95.5622 122.75 95.1149 122.843 94.6633 122.817C94.2115 122.798 93.7642 122.662 93.3706 122.445C92.5794 122.005 91.9963 121.295 91.6438 120.519L91.8203 120.405Z" fill="#1B1B43"/>
<path d="M88.607 119.836C87.3854 119.836 86.395 118.845 86.395 117.624C86.395 116.403 87.3854 115.412 88.607 115.412C89.8287 115.412 90.8189 116.403 90.8189 117.624C90.8189 118.845 89.8287 119.836 88.607 119.836Z" fill="#FFA988"/>
<path d="M99.0393 121.297C98.6962 120.906 98.4873 120.397 98.4873 119.834C98.4873 118.901 99.0663 118.108 99.8808 117.781C99.6774 118.955 99.4038 120.156 99.0393 121.297Z" fill="#FFA988"/>
<path d="M74.6471 143.935L61.8716 150.01L65.8784 159.508L79.2734 153.332L74.6471 143.935Z" fill="#FFA121"/>
<path d="M121.971 176.877C121.617 176.699 121.395 176.579 121.395 176.579L121.523 176.327C121.523 176.327 121.759 176.441 122.102 176.624L121.971 176.877Z" fill="#C5C5FF"/>
<path d="M127.268 178.197C126.855 179.012 123.693 177.571 122.219 176.847C123.36 177.479 125.328 178.723 124.454 179.403C123.752 179.946 122.197 178.792 117.105 176.681C117.877 177.045 122.428 179.211 121.281 180.03C120.032 180.92 114.671 178.958 114.671 178.958L110.024 181.457H104.664L85.3769 181.58C84.1655 181.586 82.9648 181.43 81.8015 181.129C79.5126 180.546 77.3578 179.409 75.5299 177.881C74.3774 176.916 73.3857 175.785 72.5549 174.541C71.9331 173.608 71.4024 172.606 70.9629 171.56L65.876 159.512L79.2713 153.33L86.2614 167.519L109.311 172.525L115.743 170.917C117.126 170.569 119.083 171.155 120.3 171.899C123.269 173.717 127.654 177.419 127.268 178.197Z" fill="#FFBC96"/>
<path d="M81.8003 181.129C79.5114 180.546 77.3566 179.409 75.5287 177.881C74.3762 176.916 73.3846 175.785 72.5537 174.541C73.5669 173.726 74.8532 173.24 76.2526 173.24C79.5114 173.24 82.1489 175.876 82.1489 179.136C82.1489 179.837 82.0255 180.508 81.8003 181.129Z" fill="#FFA988"/>
<path d="M109.279 172.424C110.877 171.893 112.496 171.435 114.149 171.089C114.976 170.919 115.812 170.781 116.665 170.732C117.092 170.708 117.523 170.715 117.959 170.766C118.174 170.809 118.388 170.865 118.603 170.915C118.808 170.986 119.007 171.071 119.209 171.147C120.778 171.858 122.144 172.875 123.465 173.92C124.786 174.973 126.033 176.105 127.245 177.283L127.301 177.337L127.312 177.406C127.355 177.66 127.326 177.894 127.185 178.132C127.099 178.231 127.01 178.341 126.894 178.388C126.782 178.461 126.67 178.487 126.559 178.506C126.115 178.579 125.726 178.487 125.355 178.388C124.61 178.182 123.945 177.842 123.274 177.513C122.618 177.163 121.972 176.798 121.345 176.404C120.707 176.026 120.102 175.603 119.481 175.203L119.764 174.749C120.86 175.4 121.927 176.082 122.947 176.856C123.453 177.251 123.954 177.651 124.385 178.178C124.488 178.319 124.592 178.459 124.664 178.65C124.704 178.739 124.725 178.854 124.728 178.977C124.718 179.106 124.679 179.242 124.59 179.343C124.422 179.538 124.218 179.603 124.047 179.646C123.868 179.693 123.701 179.702 123.531 179.719L123.478 179.725L123.421 179.701L117.602 177.264L117.776 176.854C118.693 177.277 119.585 177.732 120.436 178.291C120.851 178.586 121.288 178.855 121.593 179.368C121.663 179.497 121.713 179.695 121.641 179.88C121.567 180.06 121.425 180.174 121.295 180.235C121.026 180.372 120.755 180.4 120.495 180.415C119.451 180.439 118.472 180.194 117.5 179.955C116.531 179.699 115.579 179.396 114.637 179.055L114.707 178.859C115.648 179.173 116.604 179.45 117.568 179.68C118.529 179.897 119.519 180.108 120.474 180.062C120.93 180.043 121.473 179.843 121.252 179.542C121.043 179.19 120.611 178.891 120.215 178.627C119.391 178.104 118.496 177.66 117.598 177.262L117.772 176.853L123.612 179.239L123.503 179.22C123.646 179.205 123.795 179.196 123.922 179.16C124.054 179.132 124.16 179.072 124.196 179.029C124.278 178.996 124.168 178.708 123.985 178.493C123.615 178.042 123.124 177.644 122.633 177.268C121.639 176.52 120.573 175.845 119.497 175.213L119.78 174.76C120.397 175.155 120.995 175.581 121.622 175.955C122.241 176.346 122.874 176.707 123.514 177.053C124.161 177.374 124.815 177.709 125.492 177.896C125.825 177.991 126.178 178.057 126.461 178.008L126.565 177.991C126.597 177.982 126.616 177.962 126.643 177.95C126.705 177.932 126.724 177.883 126.766 177.853C126.818 177.773 126.842 177.623 126.823 177.515L126.891 177.638C125.705 176.467 124.457 175.345 123.169 174.285C121.879 173.236 120.534 172.217 119.047 171.521L118.481 171.295C118.288 171.248 118.096 171.194 117.902 171.153C117.503 171.102 117.094 171.087 116.682 171.106C115.859 171.14 115.03 171.254 114.21 171.405C112.569 171.71 110.943 172.131 109.345 172.625L109.279 172.424Z" fill="#D28572"/>
<path d="M65.9596 159.693L65.7913 159.329L79.0095 153.231L73.5041 140.346L73.8738 140.187L79.5328 153.431L65.9596 159.693Z" fill="#1B1B43"/>
<path d="M67.8497 276.516H67.1484V216.123H67.8497V276.516Z" fill="#1B1B43"/>
<path d="M84.3847 218.802H50.6144C48.3201 218.802 46.4602 216.942 46.4602 214.647C46.4602 212.353 48.3201 210.494 50.6144 210.494H84.3847C86.679 210.494 88.5389 212.353 88.5389 214.647C88.5389 216.942 86.679 218.802 84.3847 218.802Z" fill="#D1D1FF"/>
<path d="M81.704 280.447H53.2942V279.761C53.2942 276.31 56.0908 273.513 59.5409 273.513H75.4574C78.9074 273.513 81.704 276.31 81.704 279.761V280.447Z" fill="#D1D1FF"/>
<path d="M167.62 280.22L107.763 185.342L108.356 184.968L168.213 279.846L167.62 280.22Z" fill="#1B1B43"/>
<path d="M108.356 280.22L107.763 279.846L167.62 184.968L168.213 185.342L108.356 280.22Z" fill="#1B1B43"/>
<path d="M190.43 189.189H85.5459V181.279H190.43V189.189Z" fill="#D1D1FF"/>
<path d="M182.919 35.4675C171.091 35.4675 161.468 45.0905 161.468 56.9183C161.468 68.7479 171.091 78.3709 182.919 78.3709C194.747 78.3709 204.37 68.7479 204.37 56.9183C204.37 45.0905 194.747 35.4675 182.919 35.4675ZM182.919 78.8384C170.833 78.8384 161 69.0059 161 56.9183C161 44.8324 170.833 35 182.919 35C195.005 35 204.838 44.8324 204.838 56.9183C204.838 69.0059 195.005 78.8384 182.919 78.8384Z" fill="#779FF8"/>
<path d="M213.698 53.85C213.698 67.0204 203.02 77.6981 189.849 77.6981C176.678 77.6981 166 67.0204 166 53.85C166 40.6777 176.678 30 189.849 30C203.02 30 213.698 40.6777 213.698 53.85Z" fill="#EBEBFF"/>
<path d="M192.221 56.9152L179 46.5516L179.433 46L192.204 56.012L199.326 49.9812L199.779 50.516L192.221 56.9152Z" fill="#1B1B43"/>
<path d="M35.1614 76.3288C33.3445 76.3288 31.8664 77.8061 31.8664 79.6237V91.7338C31.8664 93.5515 33.3445 95.0288 35.1614 95.0288H43.9234L47.2939 99.6832V95.0325L47.5108 95.0157C49.2241 94.8923 50.5664 93.4505 50.5664 91.7338V79.6237C50.5664 77.8061 49.0884 76.3288 47.2717 76.3288H35.1614ZM47.7614 101.127L43.6845 95.4963H35.1614C33.0868 95.4963 31.3989 93.8077 31.3989 91.7338V79.6237C31.3989 77.5499 33.0868 75.8613 35.1614 75.8613H47.2717C49.3463 75.8613 51.0339 77.5499 51.0339 79.6237V91.7338C51.0339 93.6225 49.6131 95.2176 47.7614 95.4607V101.127Z" fill="#779FF8"/>
<path d="M40.97 91.9113L36.1226 84.9081L37.2756 84.1096L40.8432 89.2633L46.2161 79.6478L47.4404 80.3322L40.97 91.9113Z" fill="#779FF8"/>
</svg>
