<svg width="1261" height="610" viewBox="0 0 1261 610" fill="none" xmlns="http://www.w3.org/2000/svg">
<g filter="url(#filter0_f_2082_5903)">
<ellipse cx="630.1" cy="571.525" rx="622" ry="29.5" fill="#ABA9A9"/>
</g>
<path d="M917.272 552.19C909.701 562.281 900.806 569.78 902.757 573.187C902.757 573.187 906.786 576.2 917.907 576.2C936.973 576.2 955.707 574.708 952.628 572.721C948.367 569.97 936.024 568.975 924.228 564.778C921.312 563.739 930.607 557.935 928.069 556.987C922.816 555.019 918.723 553.318 917.272 552.19Z" fill="#002E4F"/>
<path d="M1113.7 572.584C1113.7 572.584 1116.21 576.196 1125.82 576.196C1142.31 576.196 1159.49 573.896 1156.83 572.176C1153.14 569.801 1124.25 563.602 1124.25 563.602L1117.77 555.333L1106.78 561.581L1113.7 572.584Z" fill="#002E4F"/>
<path d="M1061.47 322.866C1049.65 322.866 1040.71 320.438 1039.96 320.229C1033.79 318.498 1030.16 311.96 1031.84 305.621C1033.52 299.288 1039.86 295.56 1046.02 297.261C1046.42 297.37 1072.45 304.225 1087.65 290.826C1097.81 281.85 1101.68 264.953 1099.13 240.595L1098.32 232.826L1121.72 219.194C1127.29 215.954 1134.35 217.963 1137.5 223.68C1140.65 229.397 1138.7 236.66 1133.14 239.896L1122.79 245.924C1124.42 274.613 1117.64 295.809 1102.59 309C1089.89 320.114 1074.05 322.866 1061.47 322.866Z" fill="#00A4E2"/>
<path d="M1101.53 256.844C1101.09 274.148 1096.62 286.67 1088.13 294.15C1071.46 308.855 1042.92 301.357 1042.43 301.223C1035.66 299.345 1028.7 303.452 1026.86 310.397C1025.02 317.355 1029 324.54 1035.77 326.439C1036.6 326.663 1046.42 331.702 1059.39 331.23C1108.64 329.433 1138.37 285.763 1138.92 260.304L1101.53 256.844Z" fill="#E1F3F6"/>
<path d="M1033.8 196.286C1029.39 194.253 1025.05 192.052 1020.78 189.742C979.973 213.63 927.833 244.234 926.799 245.3C926.799 245.3 952.713 287.715 954.37 289.415C955.435 290.51 1019.69 243.127 1065.92 208.796C1055.26 204.552 1044.26 201.105 1033.8 196.286Z" fill="#008DC4"/>
<path d="M1034.48 195.067C1045.16 199.914 1056.39 203.43 1067.25 207.82C1092.7 188.915 1112.38 174.2 1112.38 174.2L1068.88 161.634C1068.88 161.634 1047.94 173.849 1022.15 188.943C1026.2 191.113 1030.3 193.171 1034.48 195.067Z" fill="#00AFE2"/>
<path d="M959.49 139.386L985.102 210.657L1035.17 229.543L971.748 110.461L959.49 139.386Z" fill="#006091"/>
<path d="M1037.89 247.049H1000.79L1033.81 306.336L1084.14 328.147L1037.89 247.049Z" fill="#006091"/>
<path d="M1084.15 328.148L1054.62 276.367L928.287 352.497L903.443 308.935L919.044 49.9533L975.817 15.7432L1078 194.914L1112.38 174.196L1140.98 224.33L1106.59 245.048L1136.12 296.826L1084.15 328.148ZM969.544 127.196L966.347 129.124L957.664 267.429L1026.03 226.233L969.544 127.196Z" fill="#0076AD"/>
<path d="M861.443 297.084L903.441 308.936L928.285 352.497L883.909 340.941L861.443 297.084Z" fill="#008DC4"/>
<path d="M861.443 297.084L903.441 308.935L919.042 49.9531L880.51 40.4741L861.443 297.084Z" fill="#00AFE2"/>
<path d="M880.51 40.474L919.042 49.953L975.815 15.7429L936.793 4.08154L880.51 40.474Z" fill="#00D2FD"/>
<path d="M964.992 400.283C964.992 400.283 971.165 468.722 971.165 492.695C971.165 492.695 922.686 531.537 910.814 551.853C915.914 555.842 925.991 561.137 932.591 560.931C964.938 529.18 1000.45 506.52 1000.45 506.52C1000.45 506.52 1015.76 460.85 1020.53 422.185L964.992 400.283Z" fill="#002E4F"/>
<path d="M999.555 403.514C1010.47 403.591 1021.63 401.661 1031.02 396.422C1027.86 382.756 1034.58 342.43 1043.01 320.88C1043.01 320.88 1049.66 305.876 1045 301.266C1027.75 284.217 1013.07 285.612 1008.51 285.423C992.678 299.158 963.219 339.695 964.402 393.267C972.541 402.056 989.063 403.442 999.555 403.514Z" fill="#E1F3F6"/>
<path d="M1106.5 563.463C1112.81 561.66 1118.86 558.659 1122.74 553.353C1104.03 522.143 1035.38 407.509 1031.66 398.534C1031.56 398.304 1031.48 398.036 1031.39 397.775C1021.31 403.362 1009.28 405.33 997.617 404.866C987.461 404.465 972.756 403.001 964.463 395.272C964.484 395.826 964.487 396.373 964.514 396.929C965.948 426.852 1062.51 526.623 1100.51 564.772C1102.6 564.461 1104.63 563.991 1106.5 563.463Z" fill="#00396A"/>
<path d="M907.151 372.488C904.469 372.488 901.895 372.093 899.433 371.244C894.328 369.491 887.574 365.07 884.383 354.006C882.565 347.704 886.062 341.079 892.192 339.214C898.32 337.342 904.759 340.945 906.577 347.241C906.791 347.974 906.991 348.444 907.133 348.717C908.367 348.773 912.952 348.36 924.11 341.62C934.078 335.604 945.871 326.635 957.276 317.964C976.545 303.306 994.747 289.468 1009.78 284.581C1015.87 282.595 1022.37 286.074 1024.3 292.335C1026.23 298.602 1022.85 305.286 1016.76 307.267C1005.41 310.96 987.942 324.251 971.044 337.093C946.31 355.899 924.497 372.488 907.151 372.488Z" fill="#00A4E2"/>
<path d="M928.819 363.59C927.4 356.583 925.915 348.848 921.599 343.09C912.269 348.403 908.282 348.761 907.145 348.714C907.003 348.441 906.806 347.974 906.589 347.238C904.771 340.942 898.335 337.339 892.204 339.211C886.073 341.076 882.577 347.698 884.395 354.003C887.586 365.067 894.339 369.485 899.445 371.241C901.907 372.09 904.48 372.485 907.163 372.485C913.89 372.485 921.288 369.982 929.269 365.829C929.115 365.086 928.967 364.34 928.819 363.59Z" fill="#00A4E2"/>
<path d="M1024.32 292.328C1022.39 286.067 1015.88 282.588 1009.79 284.574C994.759 289.462 976.561 303.299 957.292 317.958C945.887 326.628 934.094 335.597 924.125 341.613C923.672 341.893 923.242 342.135 922.807 342.39C927.135 348.269 934.623 377.256 934.756 377.919C947.03 371.318 1005.9 325.251 1018.67 311.345C1023.06 306.57 1026.25 298.595 1024.32 292.328Z" fill="#E1F3F6"/>
<path d="M890.785 362.874C890.099 362.874 889.409 362.663 888.81 362.225C879.728 355.553 874.991 342.71 874.792 342.169C874.135 340.36 875.028 338.345 876.791 337.664C878.548 336.996 880.511 337.907 881.167 339.716C881.213 339.831 885.396 351.12 892.766 356.529C894.297 357.651 894.651 359.837 893.559 361.404C892.896 362.364 891.85 362.874 890.785 362.874Z" fill="#00A4E2"/>
<path d="M890.788 354.343C889.717 354.343 888.667 353.827 888.005 352.86C883.659 346.534 880.178 331.499 879.794 329.811C879.37 327.93 880.507 326.046 882.34 325.608C884.176 325.157 886.003 326.342 886.429 328.226C887.388 332.457 890.536 344.407 893.564 348.822C894.65 350.401 894.284 352.587 892.747 353.697C892.155 354.135 891.468 354.343 890.788 354.343Z" fill="#00A4E2"/>
<path d="M895.489 352.376C894.146 352.376 892.873 351.556 892.335 350.197C889.216 342.341 887.997 325.861 887.949 325.161C887.81 323.237 889.216 321.561 891.091 321.415C892.976 321.257 894.597 322.721 894.739 324.645C895.057 329.097 896.387 341.884 898.638 347.554C899.348 349.345 898.514 351.385 896.774 352.115C896.351 352.292 895.919 352.376 895.489 352.376Z" fill="#00A4E2"/>
<path d="M900.601 350.688C899.083 350.688 897.704 349.643 897.305 348.064C895.163 339.515 897.114 330.794 897.202 330.431C897.634 328.55 899.473 327.387 901.297 327.825C903.124 328.27 904.258 330.151 903.831 332.032C903.795 332.196 902.201 339.524 903.901 346.314C904.37 348.188 903.272 350.097 901.451 350.576C901.167 350.657 900.88 350.688 900.601 350.688Z" fill="#00A4E2"/>
<path d="M1037.46 311.348C1035.9 311.348 1034.32 311.003 1032.81 310.272C1027.37 307.629 1025.05 300.952 1027.62 295.365C1030.31 289.517 1035.16 283.529 1035.71 282.861C1039.59 278.136 1046.46 277.542 1051.06 281.53C1055.66 285.513 1056.24 292.57 1052.37 297.299C1051.01 298.962 1048.43 302.509 1047.32 304.931C1045.46 308.979 1041.54 311.348 1037.46 311.348Z" fill="#00A4E2"/>
<path d="M1039.03 305.583C1040.32 307.047 1041.67 308.425 1043.08 309.737C1044.86 308.639 1046.36 307.01 1047.32 304.933C1048.43 302.512 1051.01 298.964 1052.37 297.301C1056.24 292.573 1055.66 285.515 1051.06 281.533C1046.46 277.544 1039.59 278.138 1035.71 282.863C1035.49 283.131 1034.61 284.225 1033.45 285.801C1033.55 292.855 1034.27 300.186 1039.03 305.583Z" fill="#0086CF"/>
<path d="M1074.81 293.23C1070.47 304.039 1058.43 309.194 1047.92 304.736C1037.4 300.278 1032.39 287.904 1036.72 277.088L1042.18 263.506C1046.51 252.69 1058.55 247.542 1069.07 252C1079.59 256.458 1084.59 268.831 1080.26 279.641L1074.81 293.23Z" fill="#00A4E2"/>
<path d="M1039.03 275.509C1037.35 282.784 1027.19 280.452 1023.37 276.65C1018.11 271.421 1014.97 256.626 1026.62 257.415C1018.23 244.389 1046.7 230.262 1049.69 245.316C1051.91 241.433 1054.19 237.944 1059.14 237.615C1062.71 237.382 1068.95 240.217 1068.43 244.706C1073.73 240.404 1081.44 240.739 1086.68 245.086C1088.36 246.478 1091.38 249.575 1089.87 251.832C1089.03 253.075 1084.75 253.458 1083.31 253.909C1085.79 252.755 1095.93 255.081 1093.94 259.414C1093.01 261.435 1088.04 259.62 1086.59 259.191C1086.59 259.191 1086.57 259.663 1086.59 259.644C1092.01 262.697 1094.24 265.797 1093.59 272.73C1093.29 275.916 1091.82 281.941 1088.13 282.395C1086.24 282.625 1084.06 281.4 1084.09 279.364C1088.62 284.009 1082.21 296.444 1076.49 290.313C1074.25 287.91 1075.33 283.878 1077.45 281.801C1074.07 279.802 1066.73 269.232 1071.96 266.403C1069.51 266.465 1058.22 262.523 1061.81 259.184C1062.76 263.058 1058.09 268.073 1054.38 266.083C1056.69 271.25 1049.9 275.105 1045.72 275.288C1048.28 278.593 1040.4 282.513 1038 277.723L1039.03 275.509Z" fill="#00396A"/>
<path d="M652.069 233.252C652.069 233.252 645.458 207.241 678.252 201.06L675.754 232.317L652.069 233.252Z" fill="#0089E0"/>
<path d="M520.654 298.933C513.474 298.933 506.798 297.441 500.644 294.447C470.852 279.978 467.544 236.507 467.42 234.663C466.972 228.106 471.778 222.417 478.153 221.957C484.52 221.5 490.046 226.418 490.508 232.963C491.156 241.708 496.019 265.926 510.585 272.958C522.614 278.763 541.269 272.856 564.539 255.866C569.75 252.057 576.976 253.323 580.678 258.676C584.38 264.039 583.152 271.463 577.941 275.271C556.355 291.024 537.177 298.933 520.654 298.933Z" fill="#CDE5E8"/>
<path d="M582.251 321.261C585.469 312.578 588.455 303.761 591.93 295.175C589.586 294.988 587.224 294.677 584.825 294.211C573.595 292.007 564.089 287.312 556.304 280.124C548.513 272.94 542.5 263.834 538.257 252.819C534.014 241.801 531.546 229.276 530.856 215.236C530.16 201.202 531.264 186.386 534.162 170.782C537.117 154.874 541.421 140.607 547.07 127.973C552.72 115.342 559.492 104.706 567.389 96.0727C575.28 87.4393 584.136 81.2589 593.953 77.5282C603.765 73.8007 614.29 73.0328 625.52 75.237C634.409 76.9842 642.239 80.4288 649.053 85.5149C652.335 78.7842 655.862 72.1778 659.219 65.587C663.184 57.7931 666.868 49.853 670.394 41.8445C671.9 38.4186 673.207 34.8931 674.574 31.3956C663.193 24.727 650.439 19.9953 636.302 17.216C616.271 13.2832 597.416 14.0294 579.741 19.4482C562.057 24.8731 546.145 33.948 531.981 46.685C517.817 59.4252 505.801 75.4173 495.938 94.6488C486.066 113.89 478.937 135.369 474.534 159.071C470.127 182.779 469.05 205.446 471.331 227.068C473.599 248.691 479.037 268.102 487.636 285.31C496.235 302.518 507.77 316.993 522.266 328.726C535.759 339.656 551.655 347.199 569.957 351.361C574.291 341.428 578.483 331.443 582.251 321.261Z" fill="#00AFE2"/>
<path d="M739.01 142.382C736.732 120.763 731.3 101.345 722.704 84.1373C714.106 66.9296 702.561 52.4609 688.077 40.7218C684.175 37.5632 680.065 34.6968 675.767 32.104C674.412 35.5984 673.115 39.1208 671.581 42.5312C667.988 50.5117 664.386 58.4797 660.406 66.2706C657.015 72.9018 653.456 79.5548 650.156 86.3353C651.329 87.2555 652.476 88.2131 653.583 89.2328C661.365 96.4236 667.456 105.539 671.85 116.585C676.245 127.631 678.807 140.097 679.53 153.981C680.25 167.866 679.133 182.757 676.182 198.665C673.284 214.266 668.992 228.461 663.315 241.241C657.635 254.031 650.77 264.723 642.722 273.328C634.673 281.933 625.745 288.108 615.934 291.829C608.696 294.58 601.162 295.721 593.332 295.277C589.481 304.669 586.236 314.344 582.725 323.85C579.249 333.255 575.342 342.479 571.322 351.653C572.227 351.849 573.128 352.042 574.038 352.225C594.063 356.161 612.915 355.412 630.593 349.99C648.269 344.574 664.19 335.496 678.353 322.756C692.52 310.016 704.527 294.03 714.396 274.786C724.262 255.555 731.4 234.078 735.807 210.37C740.213 186.674 741.278 164.004 739.01 142.382Z" fill="#006091"/>
<path d="M609.42 364.587C589.391 360.651 572.131 352.814 557.643 341.081C543.147 329.351 531.611 314.873 523.016 297.666C514.414 280.458 508.979 261.046 506.708 239.421C504.43 217.805 505.507 195.138 509.911 171.426C514.314 147.724 521.443 126.248 531.318 107.007C541.181 87.7728 553.197 71.7776 567.361 59.0405C581.525 46.3035 597.437 37.2255 615.121 31.8036C632.796 26.3849 651.648 25.6419 671.679 29.5746C691.704 33.5073 708.959 41.3417 723.452 53.0777C737.943 64.8199 749.484 79.2855 758.083 96.4932C766.684 113.701 772.11 133.119 774.391 154.738C776.659 176.363 775.595 199.03 771.188 222.732C766.781 246.441 759.646 267.914 749.781 287.148C739.909 306.392 727.901 322.378 713.738 335.118C699.574 347.858 683.653 356.936 665.978 362.352C648.297 367.768 629.448 368.52 609.42 364.587ZM620.205 306.569C631.129 308.711 641.494 307.925 651.312 304.188C661.123 300.467 670.055 294.289 678.103 285.687C686.145 277.082 693.014 266.39 698.694 253.603C704.374 240.82 708.662 226.628 711.56 211.027C714.518 195.116 715.634 180.228 714.911 166.34C714.191 152.459 711.626 139.99 707.238 128.947C702.84 117.898 696.746 108.786 688.967 101.595C681.176 94.4102 671.824 89.7407 660.903 87.5956C649.67 85.3883 639.147 86.1593 629.339 89.8837C619.518 93.6175 610.666 99.7948 602.772 108.431C594.875 117.065 588.103 127.7 582.456 140.331C576.803 152.966 572.503 167.229 569.545 183.141C566.644 198.741 565.543 213.561 566.236 227.595C566.929 241.637 569.393 254.157 573.64 265.178C577.88 276.193 583.893 285.302 591.684 292.483C599.463 299.671 608.972 304.365 620.205 306.569Z" fill="#0076AD"/>
<path d="M813.59 189.871L814.473 233.61C814.473 233.61 802.321 244.805 791.436 233.61L795.449 184.35L813.59 189.871Z" fill="#00396A"/>
<path d="M763.476 538.787C762.783 538.221 758.038 535.952 757.382 535.386C754.835 539.309 753.053 541.47 749.993 544.725C757.493 551.446 755.567 559.613 755.567 559.613C755.567 559.613 750.259 564.308 748.184 565.365C741.563 568.716 729.354 573.373 729.354 573.373L760.104 575.851L782.911 551.835C774.827 547.196 768.63 542.978 763.476 538.787Z" fill="#002E4F"/>
<path d="M642.999 540.499C638.102 539.619 631.92 543.474 627.937 540.499C627.011 549.291 627.19 554.088 627.19 554.088L581.695 573.372H639.796C640.319 567.008 639.209 560.899 640.044 555.005C640.467 551.974 642.464 543.418 642.999 540.499Z" fill="#002E4F"/>
<path d="M695.956 328.251L644.549 428.658C644.549 428.658 665.379 446.771 685.888 452.808L724.426 334.506L695.956 328.251Z" fill="#CDE5E8"/>
<path d="M752.253 547.24C755.338 543.997 757.882 540.13 760.419 536.2C747.12 524.486 740.615 512.417 722.546 491.644C715.07 483.044 734.874 433.812 739.683 425.555C748.321 410.716 749.658 399.957 756.412 374.557L706.205 393.835C694.255 437.838 680.33 481.851 694.292 502.842C709.042 525.036 735.219 542.912 747.852 551.838C748.333 552.173 751.833 546.91 752.253 547.24Z" fill="#002E4F"/>
<path d="M667.71 228.089C667.021 228.089 666.331 227.877 665.729 227.433C664.202 226.307 663.854 224.118 664.949 222.552C668.993 216.76 669.882 211.994 669.891 211.944C670.23 210.054 671.987 208.786 673.841 209.121C675.683 209.46 676.917 211.254 676.599 213.15C676.554 213.402 675.501 219.443 670.484 226.627C669.815 227.582 668.769 228.089 667.71 228.089Z" fill="#00A4E2"/>
<path d="M752.836 385.196C767.78 343.021 780.541 276.836 785.32 250.42C782.649 249.279 780.03 248.421 777.949 247.827C773.515 246.571 768.201 245.088 763.655 246.54C761.347 247.28 759.294 248.501 757.279 249.801C755.416 255.534 754.648 260.365 754.648 260.365C754.648 260.365 722.549 323.441 701.635 366.455C719.398 370.55 736.767 376.547 752.836 385.196Z" fill="#F6EE9E"/>
<path d="M701.037 367.748C701.028 367.742 701.022 367.742 701.013 367.735C699.162 371.55 697.402 375.197 695.768 378.616H695.753C691.64 386.109 687.206 393.038 682.911 399.691C641.606 463.709 626.008 514.732 623.25 538.879C627.194 542.044 642.108 543.835 647.08 544.721C654.702 504.694 674.53 479.142 710.059 448.952C721.948 438.848 730.84 426.011 738.656 415.354C743.314 409.003 747.935 398.821 752.372 386.488C736.272 377.817 718.833 371.83 701.037 367.748Z" fill="#00396A"/>
<path d="M660.959 385.357C656.162 385.357 651.68 382.273 650.022 377.355C647.929 371.143 651.126 364.366 657.166 362.218C671.212 357.216 692.749 337.48 707.27 316.312C736.741 273.36 757.431 249.543 758.299 248.548C762.567 243.658 769.886 243.247 774.644 247.637C779.398 252.02 779.797 259.544 775.53 264.431C775.327 264.667 754.8 288.32 726.185 330.022C711.852 350.917 686.507 376.941 664.745 384.695C663.496 385.146 662.217 385.357 660.959 385.357Z" fill="#00A4E2"/>
<path d="M777.197 254.361C776.93 254.361 776.661 254.348 776.389 254.33C770.391 253.876 765.882 248.513 766.32 242.342C766.78 235.894 769.209 228.511 769.487 227.687C771.45 221.842 777.65 218.739 783.339 220.757C789.022 222.772 792.041 229.139 790.084 234.983C789.397 237.041 788.239 241.304 788.049 243.974C787.631 249.865 782.852 254.355 777.197 254.361Z" fill="#00A4E2"/>
<path d="M780.381 242.548C782.308 244.824 784.41 246.848 786.636 248.701C787.419 247.292 787.921 245.698 788.045 243.975C788.236 241.308 789.394 237.046 790.081 234.984C792.038 229.14 789.016 222.773 783.336 220.758C778.618 219.082 773.558 220.942 770.842 224.955C771.846 231.279 776.87 238.404 780.381 242.548Z" fill="#0086CF"/>
<path d="M808.459 218.305C808.205 229.992 798.781 239.256 787.406 238.995C776.034 238.731 767.024 229.043 767.281 217.354L767.598 202.661C767.852 190.969 777.28 181.708 788.652 181.972C800.024 182.236 809.034 191.92 808.78 203.613L808.459 218.305Z" fill="#00A4E2"/>
<path d="M644.611 382.074C639.863 382.074 634.428 380.763 628.346 378.132C626.616 377.386 625.799 375.334 626.525 373.553C627.254 371.769 629.247 370.929 630.983 371.678C639.944 375.552 647.076 376.105 651.616 373.283C653.228 372.282 655.318 372.816 656.292 374.467C657.263 376.118 656.749 378.269 655.14 379.27C652.133 381.139 648.616 382.074 644.611 382.074Z" fill="#00A4E2"/>
<path d="M648.695 387.16C643.279 387.16 638.932 386.079 633.987 384.847L632.454 384.471C630.624 384.021 629.496 382.133 629.938 380.253C630.373 378.378 632.212 377.206 634.042 377.666L635.59 378.048C643.847 380.1 649.303 381.462 661.374 378.254C663.204 377.775 665.052 378.897 665.521 380.769C665.99 382.643 664.895 384.552 663.074 385.037C657.258 386.579 652.688 387.16 648.695 387.16Z" fill="#00A4E2"/>
<path d="M644.378 375.182C633.692 375.182 626.37 368.423 626.004 368.078C624.619 366.773 624.525 364.562 625.795 363.135C627.062 361.714 629.207 361.618 630.595 362.911C630.934 363.228 638.764 370.32 649.298 367.531C651.128 367.046 652.976 368.175 653.445 370.046C653.914 371.918 652.819 373.83 650.995 374.308C648.681 374.921 646.461 375.182 644.378 375.182Z" fill="#00A4E2"/>
<path d="M651.51 371.424C651.377 371.424 651.244 371.411 651.111 371.399C639.515 370.003 634.8 361.422 634.606 361.059C633.702 359.364 634.304 357.238 635.952 356.305C637.588 355.382 639.648 355.988 640.561 357.667C640.722 357.953 643.937 363.49 651.9 364.45C653.769 364.674 655.106 366.412 654.885 368.33C654.686 370.105 653.216 371.424 651.51 371.424Z" fill="#00A4E2"/>
<path d="M692.195 233.137C692.011 233.137 691.826 233.121 691.636 233.087C686.001 232.127 670.585 229.636 667.001 229.636C665.12 229.636 663.596 228.07 663.596 226.136C663.596 224.205 665.12 222.635 667.001 222.635C671.792 222.635 690.617 225.819 692.746 226.186C694.6 226.503 695.858 228.303 695.55 230.208C695.277 231.918 693.832 233.137 692.195 233.137Z" fill="#00A4E2"/>
<path d="M690.017 240.484C689.72 240.484 689.418 240.443 689.118 240.359C688.955 240.313 672.768 235.783 665.237 235.345C663.359 235.236 661.925 233.582 662.031 231.651C662.137 229.721 663.758 228.2 665.624 228.359C673.872 228.841 690.225 233.417 690.915 233.61C692.73 234.12 693.794 236.041 693.298 237.906C692.887 239.464 691.514 240.484 690.017 240.484Z" fill="#00A4E2"/>
<path d="M688.384 248.178C688.036 248.178 687.683 248.122 687.338 248.013C672.01 242.927 668.232 242.613 666.203 242.449C665.322 242.377 664.497 242.306 663.366 241.998C661.548 241.503 660.465 239.591 660.943 237.72C661.427 235.852 663.287 234.742 665.108 235.23C665.649 235.379 666.039 235.413 666.747 235.469C669.215 235.674 673.346 236.016 689.431 241.351C691.218 241.945 692.201 243.916 691.627 245.756C691.158 247.239 689.821 248.178 688.384 248.178Z" fill="#00A4E2"/>
<path d="M681.649 253.783C681.571 253.783 681.486 253.777 681.404 253.771C666.052 252.642 665.414 244.074 665.393 243.101L672.201 242.936C672.201 242.936 672.21 242.856 672.183 242.709C672.189 242.747 672.89 246.132 681.891 246.795C683.763 246.928 685.176 248.604 685.043 250.528C684.913 252.375 683.422 253.783 681.649 253.783Z" fill="#00A4E2"/>
<path d="M668.788 249.583C668.788 249.583 665.833 248.181 661.23 248.181C657.359 248.181 652.096 241.428 652.096 234.421C652.096 234.421 650.206 213.759 671.426 223.105L668.788 249.583Z" fill="#00A4E2"/>
<path d="M735.616 310.999L705.867 461.55C705.867 461.55 751.936 472.959 780.194 456.23L787.341 247.05C787.341 247.05 755.72 235.674 735.616 310.999Z" fill="#CDE5E8"/>
<path d="M742.504 393.835L771 392.262C771 392.262 771.684 437.054 754.662 435.307C754.662 435.307 731.367 440.54 742.504 393.835Z" fill="#E1F3F6"/>
<path d="M778.276 243.471C775.149 240.586 771.114 239 766.913 239C762.083 239 757.462 241.118 754.243 244.808C753.372 245.809 732.555 269.741 702.818 313.082C700.87 315.917 698.729 318.815 696.448 321.694L693.424 325.508L696.721 329.077C700.229 332.892 703.913 336.607 707.473 340.194C709.405 342.144 711.335 344.093 713.243 346.061L717.45 350.398L721.276 345.703C724.691 341.519 727.84 337.331 730.64 333.255C759.074 291.808 779.383 268.414 779.589 268.174C785.846 260.996 785.26 249.91 778.276 243.471Z" fill="#E1F3F6"/>
<path d="M700.114 311.997L688.615 325.154L718.571 352.816L730.07 339.659L700.114 311.997Z" fill="#F8FDFF"/>
<path d="M746.598 226.707L772.772 237.253C772.772 237.253 783.902 181.588 775.778 173.241C775.778 173.241 746.598 170.396 746.598 226.707Z" fill="#00396A"/>
<path d="M777.301 182.932C778.229 184.352 798.536 198.283 814.484 194.428C814.484 194.428 811.759 169.822 774.533 173.369L777.301 182.932Z" fill="#00396A"/>
<path d="M792.97 209.174C792.97 215.638 787.874 220.873 781.586 220.873C775.301 220.873 770.205 215.638 770.205 209.174C770.205 202.714 775.301 197.476 781.586 197.476C787.874 197.479 792.97 202.714 792.97 209.174Z" stroke="#DDDD67" stroke-width="2.62496" stroke-miterlimit="10"/>
<path d="M818.681 211.469C818.681 217.09 814.25 221.648 808.782 221.648C803.314 221.648 798.883 217.09 798.883 211.469C798.883 205.848 803.317 201.294 808.782 201.294C814.25 201.294 818.681 205.848 818.681 211.469Z" stroke="#DDDD67" stroke-width="2.2835" stroke-miterlimit="10"/>
<path d="M792.973 209.173C792.973 209.173 796.75 207.653 799.001 209.966" stroke="#DDDD67" stroke-width="2.62496" stroke-miterlimit="10"/>
<path d="M461.826 229.668C461.559 229.668 461.293 229.656 461.021 229.634C455.02 229.183 450.511 223.817 450.949 217.649C451.409 211.201 453.838 203.818 454.116 202.997C456.076 197.152 462.279 194.046 467.968 196.067C473.651 198.085 476.67 204.452 474.713 210.294C474.026 212.355 472.868 216.617 472.677 219.287C472.26 225.173 467.481 229.665 461.826 229.668Z" fill="#0086CF"/>
<path d="M455.363 540.431C473.407 548.993 488.212 548.816 489.407 548.993C501.172 527.474 536.61 469.201 504.369 421.377L458.769 396.183C458.769 396.183 504.369 445.088 455.363 540.431Z" fill="#002E4F"/>
<path d="M478.963 559.48C478.963 559.48 483.177 550.694 486.464 544.791C483.996 544.48 472.951 544.02 468.414 542.229C464.156 551.167 454.876 564.265 448.322 573.246H509.599L478.963 559.48Z" fill="#002E4F"/>
<path d="M554.758 424.178C547.136 408.973 491.788 363.185 486.77 336.887C486.328 334.562 485.947 332.171 485.618 329.721C476.729 334.555 465.187 335.867 456.044 336.346C445.673 336.887 439.473 337.549 429.438 332.528C430.287 348.85 427.704 364.606 436.965 381.142C455.348 413.944 516.431 442.033 523.245 452.87C536.68 474.256 541.329 520.678 545.902 548.996C553.094 548.996 570.146 548.673 577.154 546.118C574.792 531.593 578.63 471.812 554.758 424.178Z" fill="#00396A"/>
<path d="M573.834 556.937C573.834 556.937 571.847 548.655 571.252 544.794C564.241 547.328 560.161 544.775 552.947 544.794C554.039 551.82 553.232 564.949 553.864 572.653H611.964L573.834 556.937Z" fill="#002E4F"/>
<path d="M456.481 344.936C465.331 344.517 483.916 341.986 491.375 334.323C489.847 321.838 484.418 301.751 486.33 285.588C492.811 230.785 466.776 214.357 466.776 214.357C466.776 214.357 454.79 205.743 445.076 216.03C430.431 231.537 416.143 275.382 417.574 340.202C427.67 345.558 445.871 345.434 456.481 344.936Z" fill="#CDE5E8"/>
<path d="M589.99 362.237C589.125 362.237 588.245 362.14 587.364 361.926C545.412 351.918 509.883 326.084 484.616 287.204C465.683 258.077 459.144 231.934 458.872 230.837C457.308 224.464 461.07 218 467.268 216.396C473.462 214.789 479.747 218.647 481.316 225.008C481.437 225.484 487.465 248.999 504.303 274.66C526.518 308.506 556.221 330.072 592.594 338.749C598.824 340.232 602.699 346.624 601.253 353.025C600.016 358.522 595.252 362.237 589.99 362.237Z" fill="#00A4E2"/>
<path d="M564.488 326.491C541.371 315.24 521.694 297.408 505.997 273.482C489.365 248.138 483.352 224.716 483.298 224.492C481.765 218.277 476.339 213.931 470.108 213.931C468.989 213.931 467.864 214.074 466.769 214.36C463.243 215.271 460.272 217.544 458.406 220.752C456.54 223.96 456.002 227.725 456.891 231.35L456.949 231.608C458.739 239.617 465.895 267.786 482.917 293.969C503.29 325.325 530.934 348.794 562.857 361.848C563.099 361.945 563.356 361.995 563.614 361.995C564.016 361.995 564.418 361.873 564.76 361.631C565.319 361.242 565.655 360.592 565.655 359.893V328.384C565.652 327.573 565.198 326.836 564.488 326.491Z" fill="#E1F3F6"/>
<path d="M598.593 363.086C594.882 363.086 590.947 362.66 586.788 361.805C584.943 361.429 583.749 359.582 584.115 357.689C584.484 355.796 586.274 354.561 588.122 354.944C598.26 357.027 606.717 356.268 613.262 352.684C614.922 351.773 616.982 352.423 617.865 354.129C618.748 355.836 618.119 357.953 616.459 358.861C611.317 361.678 605.338 363.086 598.593 363.086Z" fill="#00A4E2"/>
<path d="M599.075 355.254C597.454 355.254 595.784 355.145 594.09 354.89C592.23 354.61 590.942 352.832 591.214 350.92C591.486 349.008 593.207 347.684 595.073 347.963C605.961 349.602 616.042 343.791 616.145 343.732C617.778 342.778 619.856 343.356 620.788 345.032C621.719 346.708 621.163 348.84 619.535 349.804C619.106 350.05 610.172 355.254 599.075 355.254Z" fill="#00A4E2"/>
<path d="M596.053 348.368C595.524 348.368 594.982 348.35 594.432 348.312C592.554 348.191 591.129 346.534 591.247 344.603C591.365 342.673 592.983 341.208 594.858 341.33C602.913 341.84 607.141 336.813 607.177 336.763C608.363 335.258 610.51 335.031 611.965 336.253C613.423 337.468 613.649 339.673 612.461 341.171C612.222 341.482 606.651 348.368 596.053 348.368Z" fill="#00A4E2"/>
<path d="M584.286 342.465C582.408 342.465 580.881 340.898 580.881 338.967C580.881 337.043 582.396 335.476 584.268 335.47C584.574 335.464 591.294 335.305 595.141 329.61C596.215 328.018 598.335 327.629 599.878 328.73C601.423 329.827 601.807 332.01 600.734 333.598C594.815 342.368 584.71 342.465 584.286 342.465Z" fill="#00A4E2"/>
<path d="M573.151 263.486C572.09 263.486 571.046 262.982 570.381 262.028C565.36 254.837 564.305 248.803 564.262 248.548C563.945 246.648 565.188 244.836 567.042 244.509C568.884 244.18 570.65 245.458 570.974 247.363C570.98 247.388 571.872 252.154 575.916 257.946C577.011 259.519 576.663 261.705 575.132 262.827C574.534 263.275 573.835 263.486 573.151 263.486Z" fill="#00A4E2"/>
<path d="M573.869 265.034C573.658 265.034 573.437 265.016 573.222 264.972C565.776 263.502 550.998 263.486 550.85 263.486C548.972 263.486 547.447 261.919 547.447 259.989C547.447 258.058 548.972 256.491 550.85 256.491C551.482 256.491 566.423 256.51 574.504 258.102C576.349 258.459 577.562 260.293 577.205 262.193C576.897 263.869 575.469 265.034 573.869 265.034Z" fill="#00A4E2"/>
<path d="M548.981 272.322C547.288 272.322 545.821 271.022 545.606 269.256C545.376 267.338 546.698 265.588 548.567 265.352C550.73 265.072 569.85 262.681 576.035 263.81C577.886 264.142 579.121 265.958 578.791 267.867C578.464 269.766 576.692 271.041 574.844 270.696C570.945 269.99 557.172 271.302 549.408 272.294C549.263 272.309 549.121 272.322 548.981 272.322Z" fill="#00A4E2"/>
<path d="M553.4 280.234C551.803 280.234 550.375 279.075 550.06 277.399C549.704 275.5 550.913 273.665 552.761 273.302C561.009 271.669 563.208 270.945 567.2 269.621C569.069 269.002 571.398 268.237 574.867 267.199C576.67 266.664 578.563 267.734 579.084 269.586C579.607 271.446 578.566 273.389 576.761 273.923C573.388 274.931 571.208 275.655 569.284 276.286C565.18 277.648 562.697 278.465 554.047 280.178C553.829 280.216 553.611 280.234 553.4 280.234Z" fill="#00A4E2"/>
<path d="M560.736 285.796C559.108 285.796 557.666 284.592 557.385 282.886C557.07 280.98 558.316 279.171 560.167 278.847C571.191 276.904 573.39 272.679 573.402 272.636C573.992 270.795 575.916 269.8 577.703 270.407C579.488 271.013 580.455 272.993 579.869 274.827C579.43 276.183 576.493 283.072 561.316 285.746C561.12 285.777 560.929 285.796 560.736 285.796Z" fill="#00A4E2"/>
<path d="M573.857 281.582L571.262 253.062C571.262 253.062 583.432 253.972 583.408 267.083C583.399 271.46 582.171 276.335 573.857 281.582Z" fill="#00A4E2"/>
<path d="M497.245 188.668C500.318 200.606 493.392 212.849 481.775 216.004C470.155 219.163 458.247 212.046 455.171 200.105L451.309 185.092C448.236 173.151 455.162 160.909 466.779 157.75C478.399 154.588 490.307 161.707 493.383 173.652L497.245 188.668Z" fill="#00A4E2"/>
<path d="M495.2 180.734C493.549 185.472 491.208 190.163 487.614 193.356C478.856 201.125 465.427 203.22 454.771 198.563L455.168 200.112C458.244 212.053 470.151 219.169 481.771 216.01C493.388 212.855 500.314 200.609 497.241 188.674L495.2 180.734Z" fill="#00396A"/>
<path d="M455.109 199.282C446.936 193.888 438.111 173.388 451.019 168.902C459.007 166.126 455.789 191.432 455.789 198.585L455.109 199.282Z" fill="#00396A"/>
<path d="M448.55 170.59C438.672 163.234 450.912 142.423 475.32 142.423C490.403 142.423 490.294 154.302 479.862 160.713C471.206 166.032 457.781 162.917 451.278 171.986L448.55 170.59Z" fill="#00396A"/>
<path d="M495.198 185.323C491.741 179.932 484.927 169.011 482.277 162.865C480.596 158.96 478.294 152.301 485.904 157.029C492.273 160.987 495.733 174.946 495.134 182.022L495.198 185.323Z" fill="#00396A"/>
<path d="M322.741 235.084C318.984 238.659 314.85 241.989 311.462 245.971L262.32 351.49L298.905 302.951L337.76 220.392C332.788 225.325 327.816 230.262 322.741 235.084Z" fill="#006091"/>
<path d="M293.593 217.761C297.159 212.749 300.588 206.861 304.641 201.685L218.628 158.518L137.018 166.915L280.013 234.695C284.704 229.198 289.416 223.634 293.593 217.761Z" fill="#006091"/>
<path d="M305.863 202.3C301.29 208.182 297.582 215.099 293.194 220.589C289.253 225.52 285.3 230.441 281.256 235.288L346.264 266.1L369.868 234.421L305.863 202.3Z" fill="#00AFE2"/>
<path d="M207.973 324.747L233.188 270.609L101.1 205.614L122.313 160.072L339.829 28.396L399.185 57.6039L311.937 244.932L347.887 262.625L323.476 315.038L287.527 297.351L262.314 351.489L207.973 324.747ZM305.822 114.649L302.48 113.004L186.121 183.022L257.599 218.196L305.822 114.649Z" fill="#0076AD"/>
<path d="M347.887 262.625L369.869 234.418L352.621 273.73L322.666 316.738L347.887 262.625Z" fill="#006091"/>
<path d="M339.475 218.818L425.25 25.5449L399.191 57.6068L311.943 244.935C314.378 242.523 338.087 220.245 339.475 218.818Z" fill="#006091"/>
<path d="M122.309 160.073L161.071 125.39L373.608 0L339.824 28.3965L122.309 160.073Z" fill="#009EE7"/>
<path d="M339.82 28.3965L399.176 57.6044L425.238 25.5456L373.604 0L339.82 28.3965Z" fill="#00D2FD"/>
<path d="M266.987 169.568C259.686 164.233 254.659 166.568 251.154 167.127C247.312 167.736 244.472 165.582 244.457 165.573C242.882 164.522 240.77 164.985 239.748 166.605C238.723 168.225 239.177 170.395 240.752 171.445C240.913 171.554 243.883 173.494 249.073 174.893C243.411 180.197 237.64 186.604 237.316 186.962C236.04 188.379 236.125 190.596 237.507 191.905C238.16 192.527 238.989 192.834 239.815 192.834C240.734 192.834 241.645 192.455 242.316 191.709C242.379 191.638 246.405 187.176 250.896 182.727C246.726 188.093 242.812 193.671 242.098 194.7C241.003 196.27 241.354 198.455 242.882 199.584C243.48 200.028 244.176 200.237 244.863 200.237C245.921 200.237 246.965 199.73 247.63 198.779C249.856 195.583 253.001 191.261 256.005 187.385C254.889 189.654 253.47 192.225 250.633 196.92C249.641 198.564 250.128 200.719 251.725 201.738C252.285 202.096 252.908 202.264 253.519 202.264C254.659 202.264 255.769 201.679 256.416 200.61C257.584 198.676 258.524 197.078 259.314 195.701C258.721 197.221 259.232 199.006 260.617 199.935C261.189 200.321 261.833 200.501 262.471 200.501C263.584 200.501 264.676 199.938 265.326 198.909C268.517 193.863 270.063 189.747 270.728 186.505L270.867 186.614C272.764 176.777 270.459 172.101 266.987 169.568ZM260.17 194.187C261.295 192.154 262.066 190.615 262.786 189.082C262.175 190.574 261.319 192.272 260.17 194.187Z" fill="#00A4E2"/>
<path d="M162.72 209.256C151.944 208.628 136.304 230.315 152.304 236.216C137.82 235.864 134.275 256.911 147.556 262.722C124.303 258.071 127.007 289.045 138.007 300.252C130.552 299.024 123.018 306.349 124.146 314.32C125.283 322.347 128.38 333.477 147.701 339.44C167.027 345.403 178.838 334.236 188.453 323.706C194.608 336.633 225.034 319.164 221.659 303.697C233.14 307.882 243.426 294.485 243.656 283.788C243.88 273.345 236.766 265.371 229.997 258.59C234.764 254.104 235.668 245.782 234.413 239.424C232.329 228.86 219.463 227.812 219.463 219.406C219.463 216.465 220.013 207.325 217.573 203.311C213.692 196.923 206.932 190.602 198.434 193.724C162.72 176.314 162.72 209.256 162.72 209.256Z" fill="#00396A"/>
<path d="M183.545 548.993C173.724 547.233 172.139 547.737 162.437 545.3L139.971 573.522H227.119L176.51 559.526L183.545 548.993Z" fill="#002E4F"/>
<path d="M345.805 557.083L340.654 550.132C336.006 553.222 331.167 555.865 325.916 557.739L339.677 573.526H390.743L345.805 557.083Z" fill="#002E4F"/>
<path d="M153.201 549.083C162.964 551.542 172.724 554.098 182.608 555.823L254.573 464.817L242.318 428.658L191.933 368.939L206.447 453.572L153.201 549.083Z" fill="#002E4F"/>
<path d="M251.084 343.879C231.34 338.494 204.57 345.306 185.361 352.754C185.361 352.754 197.145 400.973 204.878 415.358C227.405 457.238 324.839 561.761 324.839 561.761C330.189 559.89 340.5 552.13 345.218 548.993L251.084 343.879Z" fill="#00396A"/>
<path d="M182.748 371.617C201.815 364.258 240.06 351.848 259.686 356.887C259.686 356.887 233.693 294.131 221.897 280.288C213.934 270.948 170.463 244.654 170.463 279.031C170.463 326.134 182.748 371.617 182.748 371.617Z" fill="#CDE5E8"/>
<path d="M199.682 276.099C199.428 276.189 199.174 276.27 198.908 276.348C193.101 277.958 187.125 274.423 185.555 268.454C183.916 262.212 183.84 254.415 183.834 253.547C183.807 247.361 188.667 242.327 194.683 242.302C200.696 242.274 205.589 247.261 205.623 253.438C205.638 255.618 205.913 260.032 206.587 262.613C208.088 268.321 205.021 274.181 199.682 276.099Z" fill="#00A4E2"/>
<path d="M206.959 265.028C206.92 264.226 206.811 263.418 206.599 262.613C205.922 260.032 205.649 255.618 205.634 253.438C205.601 247.264 200.707 242.277 194.695 242.302C188.679 242.327 183.819 247.357 183.846 253.547C183.846 253.687 183.852 254.026 183.861 254.495C189.226 260.726 198.073 263.657 206.959 265.028Z" fill="#0086CF"/>
<path d="M217.61 231.459C221.125 242.58 215.203 254.521 204.384 258.14C193.565 261.746 181.945 255.662 178.431 244.541L174.015 230.564C170.501 219.443 176.423 207.499 187.238 203.89C198.057 200.274 209.677 206.361 213.191 217.482L217.61 231.459Z" fill="#00A4E2"/>
<path d="M338.921 220.223C338.489 219.85 337.99 219.623 337.475 219.505C337.972 218.948 338.504 218.348 339.124 217.658C340.397 216.234 340.309 214.021 338.927 212.712C338.755 212.55 338.576 212.41 338.383 212.292C339.333 210.89 339.175 208.953 337.926 207.75C336.958 206.82 335.609 206.597 334.445 207.029C335.997 205.418 336.961 204.299 337.076 204.162C338.319 202.714 338.183 200.5 336.771 199.222C335.361 197.945 333.208 198.084 331.968 199.536C331.889 199.626 324.485 208.204 316.876 212.665C313.573 207.532 309.142 205.732 308.888 205.633C307.143 204.952 305.213 205.854 304.53 207.638C303.849 209.423 304.717 211.446 306.444 212.165C306.595 212.227 309.196 213.361 311.22 216.561C310.939 217.353 310.615 218.479 310.427 219.797C260.33 289.498 193.9 264.757 190.89 263.582C184.938 261.238 178.257 264.276 175.949 270.391C173.635 276.518 176.596 283.411 182.558 285.783C183.368 286.106 199.631 292.464 222.823 292.464C227.487 292.464 232.435 292.209 237.588 291.59C262.598 288.609 299.585 273.798 329.143 234.648C329.627 234.362 330.313 233.927 331.218 233.249C331.826 232.845 332.44 232.403 333.066 231.869L332.987 231.806C334.735 230.296 336.892 228.154 339.342 225.15C340.551 223.667 340.361 221.46 338.921 220.223Z" fill="#00A4E2"/>
<path d="M246.697 263.767L243.875 264.391C236.997 265.915 229.875 266.692 222.707 266.692C205.143 266.692 192.946 262.138 191.624 261.621C190.054 261.003 188.412 260.692 186.748 260.692C181.08 260.692 176.099 264.196 174.048 269.63C172.733 273.115 172.5 277.079 174.284 280.334C180.932 292.458 199.188 297.361 222.828 297.361C227.854 297.361 232.899 297.063 237.826 296.481C240.838 296.124 244.002 295.589 247.226 294.89L249.207 294.355C249.207 294.355 246.373 285.519 245.768 276.544C245.539 273.131 246.697 263.767 246.697 263.767Z" fill="#E1F3F6"/>
<path d="M173.549 241.798C180.699 237.129 183.17 228.38 182.383 219.632C188.653 223.966 193.613 221.323 197.53 213.877C209.41 230.989 227.515 205.53 202.826 196.312C183.079 188.938 163.722 209.012 168.782 229.201L173.549 241.798Z" fill="#00396A"/>
<defs>
<filter id="filter0_f_2082_5903" x="-0.000391006" y="533.925" width="1260.2" height="75.2" filterUnits="userSpaceOnUse" color-interpolation-filters="sRGB">
<feFlood flood-opacity="0" result="BackgroundImageFix"/>
<feBlend mode="normal" in="SourceGraphic" in2="BackgroundImageFix" result="shape"/>
<feGaussianBlur stdDeviation="4.05" result="effect1_foregroundBlur_2082_5903"/>
</filter>
</defs>
</svg>
