<svg width="28" height="28" viewBox="0 0 28 28" fill="none" xmlns="http://www.w3.org/2000/svg">
<path d="M16.334 14L17.5007 15.1666" stroke="white" stroke-width="2.33333" stroke-linecap="round" stroke-linejoin="round"/>
<path d="M21.291 11.9583L22.9477 13.4166" stroke="white" stroke-width="2.33333" stroke-linecap="round" stroke-linejoin="round"/>
<path d="M6.5957 7.26252C7.32578 10.7377 9.05151 13.9252 11.5624 16.4363C14.0732 18.9473 17.2606 20.6733 20.7357 21.4037" stroke="white" stroke-width="2.33333" stroke-linecap="round" stroke-linejoin="round"/>
<path d="M10.8496 6.06671C11.1745 7.25797 11.9593 8.27138 13.0314 8.884C14.1035 9.49662 15.375 9.65827 16.5663 9.33338C17.7575 9.00849 18.771 8.22367 19.3836 7.15159C19.9962 6.07951 20.1578 4.80797 19.8329 3.61671" stroke="white" stroke-width="2.33333" stroke-linecap="round" stroke-linejoin="round"/>
<path d="M24.1877 2.37533C24.3869 2.31973 24.5974 2.31809 24.7974 2.37059C24.9975 2.42309 25.18 2.52784 25.3263 2.6741C25.4725 2.82036 25.5773 3.00287 25.6298 3.20294C25.6823 3.403 25.6806 3.61343 25.625 3.81266L19.7917 24.8127C19.7506 24.9603 19.6808 25.0984 19.5863 25.219C19.4918 25.3397 19.3745 25.4406 19.241 25.5158C19.1075 25.5911 18.9605 25.6394 18.8084 25.6579C18.6563 25.6763 18.502 25.6647 18.3544 25.6235C14.5396 24.5639 11.0637 22.5358 8.26412 19.7362C5.46456 16.9367 3.43649 13.4607 2.37687 9.64599C2.3357 9.49838 2.32402 9.3441 2.34249 9.19196C2.36096 9.03983 2.40922 8.89283 2.48452 8.75935C2.55982 8.62587 2.66067 8.50854 2.78133 8.41405C2.90198 8.31956 3.04007 8.24977 3.18771 8.20866L24.1877 2.37533Z" stroke="white" stroke-width="2.33333" stroke-linecap="round" stroke-linejoin="round"/>
</svg>
