<svg width="28" height="28" viewBox="0 0 28 28" fill="none" xmlns="http://www.w3.org/2000/svg">
<path d="M6.99935 25.6667C6.38051 25.6667 5.78702 25.4209 5.34943 24.9833C4.91185 24.5457 4.66602 23.9522 4.66602 23.3334V4.66671C4.66602 4.04787 4.91185 3.45438 5.34943 3.0168C5.78702 2.57921 6.38051 2.33338 6.99935 2.33338H16.3327C16.702 2.33278 17.0678 2.40525 17.409 2.54661C17.7502 2.68797 18.06 2.89543 18.3207 3.15704L22.5067 7.34304C22.769 7.6038 22.9771 7.91395 23.1188 8.25557C23.2606 8.59719 23.3333 8.96351 23.3327 9.33338V23.3334C23.3327 23.9522 23.0869 24.5457 22.6493 24.9833C22.2117 25.4209 21.6182 25.6667 20.9994 25.6667H6.99935Z" stroke="white" stroke-width="2.33333" stroke-linecap="round" stroke-linejoin="round"/>
<path d="M16.334 2.33337V8.16671C16.334 8.47613 16.4569 8.77287 16.6757 8.99166C16.8945 9.21046 17.1912 9.33337 17.5007 9.33337H23.334" stroke="white" stroke-width="2.33333" stroke-linecap="round" stroke-linejoin="round"/>
<path d="M11.6673 10.5H9.33398" stroke="white" stroke-width="2.33333" stroke-linecap="round" stroke-linejoin="round"/>
<path d="M18.6673 15.1666H9.33398" stroke="white" stroke-width="2.33333" stroke-linecap="round" stroke-linejoin="round"/>
<path d="M18.6673 19.8334H9.33398" stroke="white" stroke-width="2.33333" stroke-linecap="round" stroke-linejoin="round"/>
</svg>
