<svg width="28" height="28" viewBox="0 0 28 28" fill="none" xmlns="http://www.w3.org/2000/svg">
<path d="M23.3333 9.33337H4.66667C4.02233 9.33337 3.5 9.85571 3.5 10.5V12.8334C3.5 13.4777 4.02233 14 4.66667 14H23.3333C23.9777 14 24.5 13.4777 24.5 12.8334V10.5C24.5 9.85571 23.9777 9.33337 23.3333 9.33337Z" stroke="white" stroke-width="2.33333" stroke-linecap="round" stroke-linejoin="round"/>
<path d="M14 9.33337V24.5" stroke="white" stroke-width="2.33333" stroke-linecap="round" stroke-linejoin="round"/>
<path d="M22.1673 14V22.1667C22.1673 22.7855 21.9215 23.379 21.4839 23.8166C21.0463 24.2542 20.4528 24.5 19.834 24.5H8.16732C7.54848 24.5 6.95499 24.2542 6.5174 23.8166C6.07982 23.379 5.83398 22.7855 5.83398 22.1667V14" stroke="white" stroke-width="2.33333" stroke-linecap="round" stroke-linejoin="round"/>
<path d="M8.75065 9.33323C7.9771 9.33323 7.23524 9.02594 6.68826 8.47896C6.14128 7.93198 5.83398 7.19011 5.83398 6.41657C5.83398 5.64302 6.14128 4.90115 6.68826 4.35417C7.23524 3.80719 7.9771 3.4999 8.75065 3.4999C9.87612 3.48029 10.979 4.02637 11.9155 5.06692C12.852 6.10747 13.5786 7.5942 14.0007 9.33323C14.4227 7.5942 15.1493 6.10747 16.0858 5.06692C17.0223 4.02637 18.1252 3.48029 19.2507 3.4999C20.0242 3.4999 20.7661 3.80719 21.313 4.35417C21.86 4.90115 22.1673 5.64302 22.1673 6.41657C22.1673 7.19011 21.86 7.93198 21.313 8.47896C20.7661 9.02594 20.0242 9.33323 19.2507 9.33323" stroke="white" stroke-width="2.33333" stroke-linecap="round" stroke-linejoin="round"/>
</svg>
